<svg width="95" height="95" viewBox="0 0 95 95" fill="none" xmlns="http://www.w3.org/2000/svg">
<g filter="url(#filter0_dd_497_4488)">
<rect x="4" y="3" width="87.353" height="87.353" rx="43.6765" fill="#F2F4F7"/>
<rect x="4.54571" y="3.54571" width="86.2615" height="86.2615" rx="43.1308" stroke="#EAECF0" stroke-width="1.09142"/>
<path d="M41.8984 51.5101C41.8984 50.6486 42.5968 49.9502 43.4583 49.9502C44.3198 49.9502 45.0183 50.6486 45.0183 51.5101V54.3852C45.0183 55.2467 44.3198 55.9451 43.4583 55.9451C42.5968 55.9451 41.8984 55.2467 41.8984 54.3852V51.5101Z" fill="black"/>
<path d="M51.4515 49.9502C50.59 49.9502 49.8916 50.6486 49.8916 51.5101V54.3852C49.8916 55.2467 50.59 55.9451 51.4515 55.9451C52.313 55.9451 53.0114 55.2467 53.0114 54.3852V51.5101C53.0114 50.6486 52.313 49.9502 51.4515 49.9502Z" fill="black"/>
<path fill-rule="evenodd" clip-rule="evenodd" d="M66.6767 50.0316V54.3311C66.6755 54.8863 66.4005 55.4275 65.9525 55.7555C60.6647 59.6267 54.1399 62.7407 47.4931 62.7407C40.1396 62.7407 32.7772 58.5033 29.0338 55.7555C28.5858 55.4275 28.3107 54.8863 28.3096 54.3311V50.0316C28.3096 49.4657 28.4894 48.9189 28.8227 48.4633L29.9905 46.8831C30.616 46.0352 31.5461 45.8112 32.5372 45.8112C32.9112 41.5428 33.7961 38.4975 35.9111 36.2674C39.9396 31.999 45.287 31.5674 47.4931 31.5674C49.6993 31.5674 55.0467 31.999 59.0752 36.2674C61.1878 38.4975 62.0751 41.5428 62.4491 45.8112C63.4422 45.8112 64.3682 46.0314 64.9934 46.8831L66.1612 48.4657C66.4969 48.9213 66.6767 49.4657 66.6767 50.0316ZM59.3582 48.0772C59.307 47.098 58.5118 46.7137 57.6844 46.4418C56.8121 46.9891 55.747 47.2044 54.7278 47.2044C53.6439 47.2044 51.6224 46.9454 49.9415 45.2669C49.517 44.8448 49.2269 44.183 49.0302 43.4492C48.5203 43.3973 48.0081 43.3702 47.4956 43.3677C47.0399 43.3677 46.5148 43.3941 45.9561 43.4492C45.7594 44.183 45.4693 44.8448 45.0448 45.2669C43.3663 46.9454 41.3424 47.2044 40.2585 47.2044C39.2391 47.2044 38.1712 46.9915 37.2995 46.4418C36.4748 46.7128 35.6829 47.1036 35.6305 48.0772C35.5427 49.9178 35.5351 51.7565 35.5274 53.5961C35.5234 54.5194 35.5198 55.4429 35.5058 56.367C35.5094 56.9033 35.8328 57.4015 36.3211 57.6235C40.2897 59.4315 44.0425 60.3428 47.4956 60.3428C50.9438 60.3428 54.6966 59.4315 58.6628 57.6235C59.1511 57.4015 59.4744 56.9033 59.4781 56.367C59.5256 53.6066 59.4874 50.8349 59.3558 48.0772H59.3582ZM36.3667 44.2285C37.0141 44.876 38.2371 45.3076 39.5559 45.3076C40.5631 45.3076 42.4814 45.0918 44.0641 43.4852C44.7595 42.8138 45.1911 41.1352 45.1432 39.4327C45.0952 38.0658 44.7115 36.9388 44.136 36.4592C43.5126 35.9077 42.0978 35.6679 40.5151 35.8117C38.8366 35.9796 37.4218 36.5311 36.7024 37.2985C35.1437 39.001 35.4794 43.3173 36.3667 44.2285ZM46.1503 40.0321C46.1983 40.2959 46.2222 40.5837 46.2462 40.8954C46.2462 41.1112 46.2462 41.327 46.2222 41.5668C46.7018 41.5189 47.1095 41.5189 47.4931 41.5189C47.8768 41.5189 48.2845 41.5189 48.7641 41.5668C48.7401 41.327 48.7401 41.1113 48.7401 40.8954C48.7641 40.5837 48.788 40.2959 48.836 40.0321C48.3324 39.9842 47.8768 39.9602 47.4931 39.9602C47.1095 39.9602 46.6539 39.9842 46.1503 40.0321ZM49.8431 39.4327C49.7952 41.1352 50.2268 42.8138 50.9222 43.4852C52.5049 45.0918 54.4232 45.3076 55.4304 45.3076C56.7492 45.3076 57.9722 44.876 58.6196 44.2285C59.5069 43.3173 59.8426 39.001 58.2839 37.2985C57.5645 36.5311 56.1497 35.9796 54.4712 35.8117C52.8885 35.6679 51.4737 35.9077 50.8503 36.4592C50.2748 36.9388 49.8911 38.0658 49.8431 39.4327Z" fill="black"/>
</g>
<defs>
<filter id="filter0_dd_497_4488" x="0.725736" y="0.817157" width="93.9011" height="93.9011" filterUnits="userSpaceOnUse" color-interpolation-filters="sRGB">
<feFlood flood-opacity="0" result="BackgroundImageFix"/>
<feColorMatrix in="SourceAlpha" type="matrix" values="0 0 0 0 0 0 0 0 0 0 0 0 0 0 0 0 0 0 127 0" result="hardAlpha"/>
<feOffset dy="1.09142"/>
<feGaussianBlur stdDeviation="1.09142"/>
<feColorMatrix type="matrix" values="0 0 0 0 0.0627451 0 0 0 0 0.0941176 0 0 0 0 0.156863 0 0 0 0.06 0"/>
<feBlend mode="normal" in2="BackgroundImageFix" result="effect1_dropShadow_497_4488"/>
<feColorMatrix in="SourceAlpha" type="matrix" values="0 0 0 0 0 0 0 0 0 0 0 0 0 0 0 0 0 0 127 0" result="hardAlpha"/>
<feOffset dy="1.09142"/>
<feGaussianBlur stdDeviation="1.63713"/>
<feColorMatrix type="matrix" values="0 0 0 0 0.0627451 0 0 0 0 0.0941176 0 0 0 0 0.156863 0 0 0 0.1 0"/>
<feBlend mode="normal" in2="effect1_dropShadow_497_4488" result="effect2_dropShadow_497_4488"/>
<feBlend mode="normal" in="SourceGraphic" in2="effect2_dropShadow_497_4488" result="shape"/>
</filter>
</defs>
</svg>
