<svg width="94" height="95" viewBox="0 0 94 95" fill="none" xmlns="http://www.w3.org/2000/svg">
<g filter="url(#filter0_dd_497_4507)">
<rect x="3.32422" y="3" width="87.3506" height="87.3506" rx="43.6753" fill="#F04438"/>
<mask id="mask0_497_4507" style="mask-type:alpha" maskUnits="userSpaceOnUse" x="21" y="21" width="52" height="52">
<rect x="21.5" y="21.1758" width="51" height="51" fill="#D9D9D9"/>
</mask>
<g mask="url(#mask0_497_4507)">
<path d="M47 29.6758L34.4094 36.9539L47 44.232L59.5906 36.9539L47 29.6758ZM27.875 55.1227V38.2289C27.875 37.4497 28.0609 36.7414 28.4328 36.1039C28.8047 35.4664 29.3271 34.9529 30 34.5633L44.875 26.0102C45.2292 25.8331 45.5745 25.6914 45.9109 25.5852C46.2474 25.4789 46.6104 25.4258 47 25.4258C47.3896 25.4258 47.7615 25.4789 48.1156 25.5852C48.4698 25.6914 48.8062 25.8331 49.125 26.0102L64 34.5633C64.6729 34.9529 65.1953 35.4664 65.5672 36.1039C65.9391 36.7414 66.125 37.4497 66.125 38.2289V46.6758H61.875V40.5133L46.9469 49.1195L32.125 40.5133V55.0695L44.875 62.4539V67.3414L30 58.7883C29.3271 58.3987 28.8047 57.8852 28.4328 57.2477C28.0609 56.6102 27.875 55.9018 27.875 55.1227ZM59.75 67.9258C60.0333 67.9258 60.2812 67.8195 60.4938 67.607C60.7062 67.3945 60.8125 67.1466 60.8125 66.8633C60.8125 66.5799 60.7062 66.332 60.4938 66.1195C60.2812 65.907 60.0333 65.8008 59.75 65.8008C59.4667 65.8008 59.2188 65.907 59.0063 66.1195C58.7938 66.332 58.6875 66.5799 58.6875 66.8633C58.6875 67.1466 58.7938 67.3945 59.0063 67.607C59.2188 67.8195 59.4667 67.9258 59.75 67.9258ZM58.6875 63.6758H60.8125V55.1758H58.6875V63.6758ZM59.75 72.1758C56.8104 72.1758 54.3047 71.1398 52.2328 69.068C50.1609 66.9961 49.125 64.4904 49.125 61.5508C49.125 58.6112 50.1609 56.1055 52.2328 54.0336C54.3047 51.9617 56.8104 50.9258 59.75 50.9258C62.6896 50.9258 65.1953 51.9617 67.2672 54.0336C69.3391 56.1055 70.375 58.6112 70.375 61.5508C70.375 64.4904 69.3391 66.9961 67.2672 69.068C65.1953 71.1398 62.6896 72.1758 59.75 72.1758Z" fill="white"/>
</g>
</g>
<defs>
<filter id="filter0_dd_497_4507" x="0.0499547" y="0.817157" width="93.8991" height="93.8991" filterUnits="userSpaceOnUse" color-interpolation-filters="sRGB">
<feFlood flood-opacity="0" result="BackgroundImageFix"/>
<feColorMatrix in="SourceAlpha" type="matrix" values="0 0 0 0 0 0 0 0 0 0 0 0 0 0 0 0 0 0 127 0" result="hardAlpha"/>
<feOffset dy="1.09142"/>
<feGaussianBlur stdDeviation="1.09142"/>
<feColorMatrix type="matrix" values="0 0 0 0 0.0627451 0 0 0 0 0.0941176 0 0 0 0 0.156863 0 0 0 0.06 0"/>
<feBlend mode="normal" in2="BackgroundImageFix" result="effect1_dropShadow_497_4507"/>
<feColorMatrix in="SourceAlpha" type="matrix" values="0 0 0 0 0 0 0 0 0 0 0 0 0 0 0 0 0 0 127 0" result="hardAlpha"/>
<feOffset dy="1.09142"/>
<feGaussianBlur stdDeviation="1.63713"/>
<feColorMatrix type="matrix" values="0 0 0 0 0.0627451 0 0 0 0 0.0941176 0 0 0 0 0.156863 0 0 0 0.1 0"/>
<feBlend mode="normal" in2="effect1_dropShadow_497_4507" result="effect2_dropShadow_497_4507"/>
<feBlend mode="normal" in="SourceGraphic" in2="effect2_dropShadow_497_4507" result="shape"/>
</filter>
</defs>
</svg>
