<svg width="95" height="95" viewBox="0 0 95 95" fill="none" xmlns="http://www.w3.org/2000/svg">
<g filter="url(#filter0_dd_1_13160)">
<rect x="3.53418" y="3" width="87.3506" height="87.3506" rx="43.6753" fill="#FD853A"/>
<rect x="4.07989" y="3.54571" width="86.2592" height="86.2592" rx="43.1296" stroke="#EAECF0" stroke-width="1.09142"/>
<mask id="mask0_1_13160" style="mask-type:alpha" maskUnits="userSpaceOnUse" x="26" y="25" width="42" height="43">
<rect x="26.4951" y="25.9609" width="41.429" height="41.429" fill="white"/>
</mask>
<g mask="url(#mask0_1_13160)">
<path d="M40.3047 57.0324H54.1144V53.58H40.3047V57.0324ZM40.3047 50.1276H54.1144V46.6752H40.3047V50.1276ZM36.8523 63.9372C35.9029 63.9372 35.0901 63.5992 34.414 62.9231C33.738 62.247 33.3999 61.4342 33.3999 60.4848V32.8655C33.3999 31.9161 33.738 31.1033 34.414 30.4272C35.0901 29.7511 35.9029 29.4131 36.8523 29.4131H50.662L61.0192 39.7703V60.4848C61.0192 61.4342 60.6812 62.247 60.0051 62.9231C59.329 63.5992 58.5162 63.9372 57.5668 63.9372H36.8523ZM48.9358 41.4965V32.8655H36.8523V60.4848H57.5668V41.4965H48.9358Z" fill="white"/>
</g>
</g>
<defs>
<filter id="filter0_dd_1_13160" x="0.259916" y="0.817157" width="93.8991" height="93.8991" filterUnits="userSpaceOnUse" color-interpolation-filters="sRGB">
<feFlood flood-opacity="0" result="BackgroundImageFix"/>
<feColorMatrix in="SourceAlpha" type="matrix" values="0 0 0 0 0 0 0 0 0 0 0 0 0 0 0 0 0 0 127 0" result="hardAlpha"/>
<feOffset dy="1.09142"/>
<feGaussianBlur stdDeviation="1.09142"/>
<feColorMatrix type="matrix" values="0 0 0 0 0.0627451 0 0 0 0 0.0941176 0 0 0 0 0.156863 0 0 0 0.06 0"/>
<feBlend mode="normal" in2="BackgroundImageFix" result="effect1_dropShadow_1_13160"/>
<feColorMatrix in="SourceAlpha" type="matrix" values="0 0 0 0 0 0 0 0 0 0 0 0 0 0 0 0 0 0 127 0" result="hardAlpha"/>
<feOffset dy="1.09142"/>
<feGaussianBlur stdDeviation="1.63713"/>
<feColorMatrix type="matrix" values="0 0 0 0 0.0627451 0 0 0 0 0.0941176 0 0 0 0 0.156863 0 0 0 0.1 0"/>
<feBlend mode="normal" in2="effect1_dropShadow_1_13160" result="effect2_dropShadow_1_13160"/>
<feBlend mode="normal" in="SourceGraphic" in2="effect2_dropShadow_1_13160" result="shape"/>
</filter>
</defs>
</svg>
