<svg width="95" height="95" viewBox="0 0 95 95" fill="none" xmlns="http://www.w3.org/2000/svg">
<g filter="url(#filter0_dd_1_13176)">
<rect x="3.71533" y="3" width="87.3506" height="87.3506" rx="43.6753" fill="white"/>
<rect x="4.26104" y="3.54571" width="86.2592" height="86.2592" rx="43.1296" stroke="#EAECF0" stroke-width="1.09142"/>
<mask id="mask0_1_13176" style="mask-type:alpha" maskUnits="userSpaceOnUse" x="26" y="25" width="43" height="43">
<rect x="26.6763" y="25.9609" width="41.429" height="41.429" fill="#D9D9D9"/>
</mask>
<g mask="url(#mask0_1_13176)">
<path d="M56.022 62.2549C55.7919 62.2549 55.5617 62.2261 55.3315 62.1686C55.1014 62.111 54.8856 62.0104 54.6842 61.8665L49.5056 58.8456C49.1028 58.6155 48.7935 58.3062 48.5778 57.9178C48.362 57.5294 48.2541 57.105 48.2541 56.6447V50.5598C48.2541 50.0995 48.362 49.6752 48.5778 49.2868C48.7935 48.8984 49.1028 48.5891 49.5056 48.3589L54.6842 45.3381C54.8856 45.1942 55.1014 45.0935 55.3315 45.036C55.5617 44.9784 55.7919 44.9497 56.022 44.9497C56.2522 44.9497 56.4752 44.9856 56.6909 45.0576C56.9067 45.1295 57.1153 45.223 57.3167 45.3381L62.4953 48.3589C62.8981 48.5891 63.2146 48.8984 63.4447 49.2868C63.6749 49.6752 63.79 50.0995 63.79 50.5598V56.6447C63.79 57.105 63.6749 57.5294 63.4447 57.9178C63.2146 58.3062 62.8981 58.6155 62.4953 58.8456L57.3167 61.8665C57.1153 61.9816 56.9067 62.0751 56.6909 62.147C56.4752 62.2189 56.2522 62.2549 56.022 62.2549ZM43.9386 46.6759C42.0397 46.6759 40.4142 45.9998 39.062 44.6476C37.7098 43.2954 37.0337 41.6699 37.0337 39.771C37.0337 37.8722 37.7098 36.2467 39.062 34.8945C40.4142 33.5423 42.0397 32.8662 43.9386 32.8662C45.8374 32.8662 47.4629 33.5423 48.8151 34.8945C50.1673 36.2467 50.8434 37.8722 50.8434 39.771C50.8434 41.6699 50.1673 43.2954 48.8151 44.6476C47.4629 45.9998 45.8374 46.6759 43.9386 46.6759ZM30.1289 60.4855V55.6522C30.1289 54.7027 30.3735 53.8109 30.8625 52.9765C31.3516 52.1422 32.0277 51.5093 32.8908 51.0777C34.3581 50.3297 36.0124 49.6967 37.8537 49.1789C39.695 48.661 41.7233 48.4021 43.9386 48.4021H44.5427C44.7154 48.4021 44.888 48.4309 45.0606 48.4884C44.8304 49.0063 44.6362 49.5457 44.478 50.1067C44.3198 50.6677 44.1975 51.2503 44.1112 51.8545H43.9386C41.8959 51.8545 40.0618 52.1134 38.4363 52.6313C36.8108 53.1492 35.4802 53.667 34.4444 54.1849C34.1855 54.3287 33.9769 54.5301 33.8187 54.789C33.6604 55.048 33.5813 55.3357 33.5813 55.6522V57.0331H44.4564C44.6291 57.6373 44.8592 58.2343 45.1469 58.8241C45.4346 59.4138 45.7511 59.9677 46.0963 60.4855H30.1289ZM43.9386 43.2235C44.888 43.2235 45.7007 42.8854 46.3768 42.2093C47.0529 41.5332 47.391 40.7205 47.391 39.771C47.391 38.8216 47.0529 38.0089 46.3768 37.3328C45.7007 36.6567 44.888 36.3186 43.9386 36.3186C42.9892 36.3186 42.1764 36.6567 41.5003 37.3328C40.8242 38.0089 40.4862 38.8216 40.4862 39.771C40.4862 40.7205 40.8242 41.5332 41.5003 42.2093C42.1764 42.8854 42.9892 43.2235 43.9386 43.2235ZM51.9654 49.8694L56.022 52.2429L60.0786 49.8694L56.022 47.539L51.9654 49.8694ZM57.3167 58.8456L61.2006 56.6016V51.8545L57.3167 54.1417V58.8456ZM50.8434 56.6016L54.7274 58.8888V54.1849L50.8434 51.8977V56.6016Z" fill="#1D2939"/>
</g>
</g>
<defs>
<filter id="filter0_dd_1_13176" x="0.441068" y="0.817157" width="93.8991" height="93.8991" filterUnits="userSpaceOnUse" color-interpolation-filters="sRGB">
<feFlood flood-opacity="0" result="BackgroundImageFix"/>
<feColorMatrix in="SourceAlpha" type="matrix" values="0 0 0 0 0 0 0 0 0 0 0 0 0 0 0 0 0 0 127 0" result="hardAlpha"/>
<feOffset dy="1.09142"/>
<feGaussianBlur stdDeviation="1.09142"/>
<feColorMatrix type="matrix" values="0 0 0 0 0.0627451 0 0 0 0 0.0941176 0 0 0 0 0.156863 0 0 0 0.06 0"/>
<feBlend mode="normal" in2="BackgroundImageFix" result="effect1_dropShadow_1_13176"/>
<feColorMatrix in="SourceAlpha" type="matrix" values="0 0 0 0 0 0 0 0 0 0 0 0 0 0 0 0 0 0 127 0" result="hardAlpha"/>
<feOffset dy="1.09142"/>
<feGaussianBlur stdDeviation="1.63713"/>
<feColorMatrix type="matrix" values="0 0 0 0 0.0627451 0 0 0 0 0.0941176 0 0 0 0 0.156863 0 0 0 0.1 0"/>
<feBlend mode="normal" in2="effect1_dropShadow_1_13176" result="effect2_dropShadow_1_13176"/>
<feBlend mode="normal" in="SourceGraphic" in2="effect2_dropShadow_1_13176" result="shape"/>
</filter>
</defs>
</svg>
