<svg width="13" height="14" viewBox="0 0 13 14" fill="none" xmlns="http://www.w3.org/2000/svg">
<path d="M5.875 10.125H7.125V6.375H5.875V10.125ZM6.5 5.125C6.67708 5.125 6.82552 5.0651 6.94531 4.94531C7.0651 4.82552 7.125 4.67708 7.125 4.5C7.125 4.32292 7.0651 4.17448 6.94531 4.05469C6.82552 3.9349 6.67708 3.875 6.5 3.875C6.32292 3.875 6.17448 3.9349 6.05469 4.05469C5.9349 4.17448 5.875 4.32292 5.875 4.5C5.875 4.67708 5.9349 4.82552 6.05469 4.94531C6.17448 5.0651 6.32292 5.125 6.5 5.125ZM6.5 13.25C5.63542 13.25 4.82292 13.0859 4.0625 12.7578C3.30208 12.4297 2.64062 11.9844 2.07812 11.4219C1.51562 10.8594 1.07031 10.1979 0.742188 9.4375C0.414062 8.67708 0.25 7.86458 0.25 7C0.25 6.13542 0.414062 5.32292 0.742188 4.5625C1.07031 3.80208 1.51562 3.14062 2.07812 2.57812C2.64062 2.01562 3.30208 1.57031 4.0625 1.24219C4.82292 0.914062 5.63542 0.75 6.5 0.75C7.36458 0.75 8.17708 0.914062 8.9375 1.24219C9.69792 1.57031 10.3594 2.01562 10.9219 2.57812C11.4844 3.14062 11.9297 3.80208 12.2578 4.5625C12.5859 5.32292 12.75 6.13542 12.75 7C12.75 7.86458 12.5859 8.67708 12.2578 9.4375C11.9297 10.1979 11.4844 10.8594 10.9219 11.4219C10.3594 11.9844 9.69792 12.4297 8.9375 12.7578C8.17708 13.0859 7.36458 13.25 6.5 13.25ZM6.5 12C7.89583 12 9.07812 11.5156 10.0469 10.5469C11.0156 9.57812 11.5 8.39583 11.5 7C11.5 5.60417 11.0156 4.42188 10.0469 3.45313C9.07812 2.48438 7.89583 2 6.5 2C5.10417 2 3.92188 2.48438 2.95313 3.45313C1.98438 4.42188 1.5 5.60417 1.5 7C1.5 8.39583 1.98438 9.57812 2.95313 10.5469C3.92188 11.5156 5.10417 12 6.5 12Z" fill="#667085"/>
</svg>
