<svg width="95" height="95" viewBox="0 0 95 95" fill="none" xmlns="http://www.w3.org/2000/svg">
<g filter="url(#filter0_dd_1_13879)">
<rect x="4" y="3.07422" width="87.3506" height="87.3506" rx="43.6753" fill="#F04438"/>
<mask id="mask0_1_13879" style="mask-type:alpha" maskUnits="userSpaceOnUse" x="22" y="21" width="52" height="52">
<rect x="22.1753" y="21.25" width="51" height="51" fill="#D9D9D9"/>
</mask>
<g mask="url(#mask0_1_13879)">
<path d="M47.6753 29.75L35.0847 37.0281L47.6753 44.3063L60.2659 37.0281L47.6753 29.75ZM28.5503 55.1969V38.3031C28.5503 37.524 28.7363 36.8156 29.1081 36.1781C29.48 35.5406 30.0024 35.0271 30.6753 34.6375L45.5503 26.0844C45.9045 25.9073 46.2498 25.7656 46.5863 25.6594C46.9227 25.5531 47.2857 25.5 47.6753 25.5C48.0649 25.5 48.4368 25.5531 48.7909 25.6594C49.1451 25.7656 49.4816 25.9073 49.8003 26.0844L64.6753 34.6375C65.3482 35.0271 65.8706 35.5406 66.2425 36.1781C66.6144 36.8156 66.8003 37.524 66.8003 38.3031V46.75H62.5503V40.5875L47.6222 49.1938L32.8003 40.5875V55.1437L45.5503 62.5281V67.4156L30.6753 58.8625C30.0024 58.4729 29.48 57.9594 29.1081 57.3219C28.7363 56.6844 28.5503 55.976 28.5503 55.1969ZM60.4253 68C60.7087 68 60.9566 67.8937 61.1691 67.6813C61.3816 67.4688 61.4878 67.2208 61.4878 66.9375C61.4878 66.6542 61.3816 66.4062 61.1691 66.1937C60.9566 65.9813 60.7087 65.875 60.4253 65.875C60.142 65.875 59.8941 65.9813 59.6816 66.1937C59.4691 66.4062 59.3628 66.6542 59.3628 66.9375C59.3628 67.2208 59.4691 67.4688 59.6816 67.6813C59.8941 67.8937 60.142 68 60.4253 68ZM59.3628 63.75H61.4878V55.25H59.3628V63.75ZM60.4253 72.25C57.4857 72.25 54.98 71.2141 52.9081 69.1422C50.8363 67.0703 49.8003 64.5646 49.8003 61.625C49.8003 58.6854 50.8363 56.1797 52.9081 54.1078C54.98 52.0359 57.4857 51 60.4253 51C63.3649 51 65.8706 52.0359 67.9425 54.1078C70.0144 56.1797 71.0503 58.6854 71.0503 61.625C71.0503 64.5646 70.0144 67.0703 67.9425 69.1422C65.8706 71.2141 63.3649 72.25 60.4253 72.25Z" fill="white"/>
</g>
</g>
<defs>
<filter id="filter0_dd_1_13879" x="0.725736" y="0.891376" width="93.8992" height="93.8991" filterUnits="userSpaceOnUse" color-interpolation-filters="sRGB">
<feFlood flood-opacity="0" result="BackgroundImageFix"/>
<feColorMatrix in="SourceAlpha" type="matrix" values="0 0 0 0 0 0 0 0 0 0 0 0 0 0 0 0 0 0 127 0" result="hardAlpha"/>
<feOffset dy="1.09142"/>
<feGaussianBlur stdDeviation="1.09142"/>
<feColorMatrix type="matrix" values="0 0 0 0 0.0627451 0 0 0 0 0.0941176 0 0 0 0 0.156863 0 0 0 0.06 0"/>
<feBlend mode="normal" in2="BackgroundImageFix" result="effect1_dropShadow_1_13879"/>
<feColorMatrix in="SourceAlpha" type="matrix" values="0 0 0 0 0 0 0 0 0 0 0 0 0 0 0 0 0 0 127 0" result="hardAlpha"/>
<feOffset dy="1.09142"/>
<feGaussianBlur stdDeviation="1.63713"/>
<feColorMatrix type="matrix" values="0 0 0 0 0.0627451 0 0 0 0 0.0941176 0 0 0 0 0.156863 0 0 0 0.1 0"/>
<feBlend mode="normal" in2="effect1_dropShadow_1_13879" result="effect2_dropShadow_1_13879"/>
<feBlend mode="normal" in="SourceGraphic" in2="effect2_dropShadow_1_13879" result="shape"/>
</filter>
</defs>
</svg>
