<svg width="95" height="103" viewBox="0 0 95 103" fill="none" xmlns="http://www.w3.org/2000/svg">
<g filter="url(#filter0_dd_117_3805)">
<rect x="4" y="11" width="87" height="87" rx="43.5" fill="#F2F4F7"/>
<rect x="4.54571" y="11.5457" width="85.9086" height="85.9086" rx="42.9543" stroke="#EAECF0" stroke-width="1.09142"/>
<path d="M28.5092 53.9516C29.003 55.1086 29.2568 55.3667 30.1797 55.4405C31.5133 55.5465 32.8516 55.6387 34.1898 55.6894C36.9447 55.7908 39.6996 55.8507 42.4546 55.9429C42.796 55.9521 43.1329 56.0627 43.4698 56.1273C43.4882 56.2241 43.5021 56.3209 43.5205 56.4223C43.2344 56.6389 42.9622 56.8924 42.653 57.0722C40.558 58.266 38.4352 59.4091 36.3587 60.6352C35.2096 61.3128 34.1252 62.1056 33.0223 62.8662C32.4547 63.258 32.4501 63.8618 32.6162 64.4195C32.7962 65.028 33.3453 65.217 33.9129 65.0787C34.5682 64.9173 35.2604 64.7376 35.8188 64.3873C38.4768 62.7233 41.0979 60.9902 43.7328 59.2893C44.065 59.0727 44.4158 58.8883 44.7619 58.6855C44.8172 58.75 44.8726 58.8145 44.928 58.8791C44.7665 59.1095 44.6142 59.3446 44.4388 59.5659C42.15 62.4882 39.8565 65.4013 37.5769 68.3283C37.1754 68.8445 36.7924 69.3884 37.0462 70.1075C38.0799 70.9141 38.3337 70.928 39.1367 70.0015C40.461 68.4712 41.7854 66.9362 43.036 65.346C44.2865 63.7512 45.4448 62.0872 46.6538 60.4601C46.7877 60.2803 46.9907 60.1512 47.2076 59.9577C47.2491 60.1605 47.2907 60.2388 47.2768 60.3034C46.6262 63.7189 45.9801 67.1298 45.3156 70.5408C45.0157 72.0665 45.2787 72.7072 46.6169 73.5C47.3876 73.2649 48.1259 73.016 48.209 71.9881C48.4258 69.3608 48.6704 66.738 48.9196 64.1153C49.0165 63.1105 49.155 62.1148 49.2749 61.1146C49.3626 61.1008 49.4549 61.087 49.5426 61.0685C49.741 61.3773 49.9348 61.6862 50.1332 61.995C51.8083 64.5532 53.4742 67.1206 55.1724 69.665C55.9292 70.7989 56.5475 70.8865 57.7981 70.1167C57.9873 69.1395 57.9181 68.2084 57.2951 67.3142C56.1368 65.6502 55.034 63.9494 53.9172 62.2577C53.7557 62.0088 53.645 61.7277 53.5065 61.4603C53.5804 61.4142 53.6496 61.3681 53.7234 61.322C56.4414 63.4331 58.8641 65.936 61.8682 67.6507C62.6434 66.6781 62.6342 66.3002 61.7805 65.5073C59.3209 63.2073 56.8383 60.9302 54.3695 58.6394C54.0833 58.372 53.8249 58.0724 53.5527 57.7866C53.5988 57.7083 53.645 57.6253 53.6957 57.5469C54.0926 57.6345 54.4894 57.7175 54.8863 57.8097C57.715 58.4873 60.553 59.128 63.3679 59.8655C64.3139 60.1144 65.0938 59.9254 65.8736 59.4552C66.5843 59.0266 66.6766 58.6348 66.2197 57.9618C65.486 56.8878 64.4247 56.473 63.1695 56.4269C61.0283 56.3485 58.8871 56.2748 56.746 56.1734C55.8369 56.1273 54.9324 56.012 54.0234 55.9291C54.351 55.6248 54.7017 55.5096 55.057 55.4266C58.338 54.6753 61.6236 53.9378 64.9046 53.1773C66.0951 52.9007 66.3259 52.5366 66.2474 51.1906C65.6245 50.6421 64.9323 50.4347 64.0555 50.6191C61.4344 51.163 58.7995 51.6562 56.1691 52.1632C55.74 52.2462 55.3062 52.3153 54.6002 52.4444C54.8909 51.8636 55.0109 51.5087 55.2232 51.2137C56.9213 48.8583 58.6564 46.5259 60.3361 44.1567C60.7238 43.6082 60.9776 42.9583 61.2683 42.3452C61.7251 41.368 61.0606 40.649 60.4653 40.1558C60.0639 39.8193 59.2379 39.8008 58.661 39.9253C58.1996 40.0267 57.7658 40.5015 57.4289 40.8979C55.4816 43.2072 53.5665 45.5441 51.633 47.8626C51.3607 48.1899 51.0562 48.4941 50.7654 48.8076C50.6778 48.7661 50.5947 48.72 50.507 48.6785C50.5393 48.319 50.5439 47.9548 50.6132 47.6045C50.9777 45.6501 51.37 43.7004 51.7253 41.746C51.9422 40.543 52.1406 39.3353 52.2975 38.123C52.399 37.3487 51.7853 36.4683 51.0792 36.2562C50.5439 36.0949 49.7872 36.4867 49.4318 37.215C49.2011 37.6898 48.9934 38.2106 48.9381 38.7269C48.5874 42.1839 48.2874 45.6455 47.9598 49.1072C47.9367 49.3423 47.8352 49.5727 47.729 49.9461C47.1522 48.6831 46.6723 47.5676 46.1462 46.4752C45.0295 44.1705 43.8805 41.8797 42.7683 39.575C42.3023 38.6116 41.9146 37.6068 41.4393 36.6526C40.9271 35.6248 39.1367 35.1177 38.3983 35.8368C37.6554 36.5558 36.9816 37.3855 37.4616 38.5609C37.6784 39.0864 37.8584 39.6349 38.1353 40.1281C39.7412 42.9537 41.3747 45.7654 42.9898 48.5863C43.1237 48.8214 43.179 49.098 43.3452 49.5819C42.9437 49.3791 42.7683 49.3192 42.6207 49.2132C40.9871 48.0101 39.3489 46.8117 37.7292 45.5948C36.6586 44.7882 35.6526 43.8894 34.5405 43.1519C33.5945 42.525 32.3947 42.4005 31.7718 43.3132C31.2641 44.0599 31.3934 45.2445 32.1871 46.0051C32.4639 46.2678 32.7823 46.4844 33.0961 46.7011C36.2248 48.8398 39.3582 50.9694 42.4822 53.1081C42.8422 53.3524 43.179 53.6336 43.7097 54.0346C43.2667 54.1222 43.0914 54.2005 42.9252 54.1867C39.9119 53.9516 36.9032 53.6981 33.8899 53.4584C32.5932 53.357 31.2964 53.2648 29.9997 53.1773C29.3491 53.1358 28.7815 53.2787 28.5 53.947L28.5092 53.9516Z" fill="#D97857"/>
</g>
<rect x="13" width="72" height="21" rx="10.5" fill="#F04438"/>
<path d="M30.2585 14.5V5.77273H33.7017C34.3636 5.77273 34.9276 5.89915 35.3935 6.15199C35.8594 6.40199 36.2145 6.75 36.4588 7.19602C36.706 7.6392 36.8295 8.15057 36.8295 8.73011C36.8295 9.30966 36.7045 9.82102 36.4545 10.2642C36.2045 10.7074 35.8423 11.0526 35.3679 11.2997C34.8963 11.5469 34.3253 11.6705 33.6548 11.6705H31.4602V10.1918H33.3565C33.7116 10.1918 34.0043 10.1307 34.2344 10.0085C34.4673 9.88352 34.6406 9.71165 34.7543 9.4929C34.8707 9.27131 34.929 9.01705 34.929 8.73011C34.929 8.44034 34.8707 8.1875 34.7543 7.97159C34.6406 7.75284 34.4673 7.58381 34.2344 7.46449C34.0014 7.34233 33.706 7.28125 33.348 7.28125H32.1037V14.5H30.2585ZM42.5514 11.7131V7.95455H44.3667V14.5H42.6238V13.3111H42.5557C42.4079 13.6946 42.1622 14.0028 41.8185 14.2358C41.4775 14.4687 41.0613 14.5852 40.5699 14.5852C40.1324 14.5852 39.7474 14.4858 39.415 14.2869C39.0827 14.0881 38.8227 13.8054 38.6352 13.4389C38.4506 13.0724 38.3568 12.6335 38.354 12.1222V7.95455H40.1693V11.7983C40.1721 12.1847 40.2758 12.4901 40.4804 12.7145C40.6849 12.9389 40.9591 13.0511 41.3028 13.0511C41.5216 13.0511 41.7261 13.0014 41.9165 12.902C42.1068 12.7997 42.2602 12.6491 42.3767 12.4503C42.496 12.2514 42.5542 12.0057 42.5514 11.7131ZM46.2129 14.5V5.77273H48.0282V9.05398H48.0836C48.1632 8.87784 48.2782 8.69886 48.4288 8.51705C48.5822 8.33239 48.7811 8.17898 49.0254 8.05682C49.2726 7.93182 49.5794 7.86932 49.9459 7.86932C50.4231 7.86932 50.8635 7.99432 51.2669 8.24432C51.6703 8.49148 51.9927 8.86506 52.2342 9.36506C52.4757 9.86222 52.5964 10.4858 52.5964 11.2358C52.5964 11.9659 52.4785 12.5824 52.2427 13.0852C52.0098 13.5852 51.6916 13.9645 51.2882 14.223C50.8876 14.4787 50.4388 14.6065 49.9416 14.6065C49.5893 14.6065 49.2896 14.5483 49.0424 14.4318C48.7981 14.3153 48.5978 14.169 48.4416 13.9929C48.2853 13.8139 48.166 13.6335 48.0836 13.4517H48.0027V14.5H46.2129ZM47.9899 11.2273C47.9899 11.6165 48.0439 11.956 48.1518 12.2457C48.2598 12.5355 48.416 12.7614 48.6206 12.9233C48.8251 13.0824 49.0737 13.1619 49.3663 13.1619C49.6618 13.1619 49.9118 13.081 50.1163 12.919C50.3209 12.7543 50.4757 12.527 50.5808 12.2372C50.6888 11.9446 50.7427 11.608 50.7427 11.2273C50.7427 10.8494 50.6902 10.517 50.5851 10.2301C50.4799 9.94318 50.3251 9.71875 50.1206 9.55682C49.916 9.39489 49.6646 9.31392 49.3663 9.31392C49.0709 9.31392 48.8209 9.39205 48.6163 9.5483C48.4146 9.70455 48.2598 9.92614 48.1518 10.2131C48.0439 10.5 47.9899 10.8381 47.9899 11.2273ZM55.9831 5.77273V14.5H54.1677V5.77273H55.9831ZM57.7972 14.5V7.95455H59.6126V14.5H57.7972ZM58.7092 7.1108C58.4393 7.1108 58.2078 7.02131 58.0146 6.84233C57.8242 6.66051 57.7291 6.44318 57.7291 6.19034C57.7291 5.94034 57.8242 5.72585 58.0146 5.54688C58.2078 5.36506 58.4393 5.27415 58.7092 5.27415C58.9791 5.27415 59.2092 5.36506 59.3995 5.54688C59.5927 5.72585 59.6893 5.94034 59.6893 6.19034C59.6893 6.44318 59.5927 6.66051 59.3995 6.84233C59.2092 7.02131 58.9791 7.1108 58.7092 7.1108ZM64.3842 14.6278C63.7137 14.6278 63.137 14.4858 62.654 14.2017C62.1739 13.9148 61.8046 13.517 61.5461 13.0085C61.2904 12.5 61.1626 11.9148 61.1626 11.2528C61.1626 10.5824 61.2918 9.99432 61.5504 9.48864C61.8117 8.98011 62.1825 8.58381 62.6626 8.29972C63.1427 8.01278 63.7137 7.86932 64.3756 7.86932C64.9467 7.86932 65.4467 7.97301 65.8756 8.1804C66.3046 8.38778 66.6441 8.67898 66.8941 9.05398C67.1441 9.42898 67.2819 9.86932 67.3075 10.375H65.5944C65.5461 10.0483 65.4183 9.78551 65.2109 9.58665C65.0063 9.38494 64.7379 9.28409 64.4055 9.28409C64.1242 9.28409 63.8785 9.3608 63.6683 9.5142C63.4609 9.66477 63.2989 9.88494 63.1825 10.1747C63.066 10.4645 63.0077 10.8153 63.0077 11.2273C63.0077 11.6449 63.0646 12 63.1782 12.2926C63.2947 12.5852 63.458 12.8082 63.6683 12.9616C63.8785 13.1151 64.1242 13.1918 64.4055 13.1918C64.6129 13.1918 64.7989 13.1491 64.9637 13.0639C65.1313 12.9787 65.2691 12.8551 65.3771 12.6932C65.4879 12.5284 65.5603 12.331 65.5944 12.1009H67.3075C67.279 12.6009 67.1427 13.0412 66.8984 13.4219C66.6569 13.7997 66.3231 14.0952 65.8969 14.3082C65.4708 14.5213 64.9665 14.6278 64.3842 14.6278Z" fill="white"/>
<defs>
<filter id="filter0_dd_117_3805" x="0.725736" y="8.81716" width="93.5485" height="93.5485" filterUnits="userSpaceOnUse" color-interpolation-filters="sRGB">
<feFlood flood-opacity="0" result="BackgroundImageFix"/>
<feColorMatrix in="SourceAlpha" type="matrix" values="0 0 0 0 0 0 0 0 0 0 0 0 0 0 0 0 0 0 127 0" result="hardAlpha"/>
<feOffset dy="1.09142"/>
<feGaussianBlur stdDeviation="1.09142"/>
<feColorMatrix type="matrix" values="0 0 0 0 0.0627451 0 0 0 0 0.0941176 0 0 0 0 0.156863 0 0 0 0.06 0"/>
<feBlend mode="normal" in2="BackgroundImageFix" result="effect1_dropShadow_117_3805"/>
<feColorMatrix in="SourceAlpha" type="matrix" values="0 0 0 0 0 0 0 0 0 0 0 0 0 0 0 0 0 0 127 0" result="hardAlpha"/>
<feOffset dy="1.09142"/>
<feGaussianBlur stdDeviation="1.63713"/>
<feColorMatrix type="matrix" values="0 0 0 0 0.0627451 0 0 0 0 0.0941176 0 0 0 0 0.156863 0 0 0 0.1 0"/>
<feBlend mode="normal" in2="effect1_dropShadow_117_3805" result="effect2_dropShadow_117_3805"/>
<feBlend mode="normal" in="SourceGraphic" in2="effect2_dropShadow_117_3805" result="shape"/>
</filter>
</defs>
</svg>
