<svg width="95" height="95" viewBox="0 0 95 95" fill="none" xmlns="http://www.w3.org/2000/svg">
<g filter="url(#filter0_dd_1_14987)">
<rect x="3.53418" y="3" width="87.3506" height="87.3506" rx="43.6753" fill="#FD853A"/>
<rect x="4.07989" y="3.54571" width="86.2592" height="86.2592" rx="43.1296" stroke="#EAECF0" stroke-width="1.09142"/>
<mask id="mask0_1_14987" style="mask-type:alpha" maskUnits="userSpaceOnUse" x="26" y="25" width="42" height="43">
<rect x="26.4951" y="25.9609" width="41.429" height="41.429" fill="white"/>
</mask>
<g mask="url(#mask0_1_14987)">
<path d="M40.3052 57.0324H54.1149V53.58H40.3052V57.0324ZM40.3052 50.1276H54.1149V46.6752H40.3052V50.1276ZM36.8528 63.9372C35.9034 63.9372 35.0906 63.5992 34.4145 62.9231C33.7384 62.247 33.4004 61.4342 33.4004 60.4848V32.8655C33.4004 31.9161 33.7384 31.1033 34.4145 30.4272C35.0906 29.7511 35.9034 29.4131 36.8528 29.4131H50.6625L61.0197 39.7703V60.4848C61.0197 61.4342 60.6817 62.247 60.0056 62.9231C59.3295 63.5992 58.5167 63.9372 57.5673 63.9372H36.8528ZM48.9363 41.4965V32.8655H36.8528V60.4848H57.5673V41.4965H48.9363Z" fill="white"/>
</g>
</g>
<defs>
<filter id="filter0_dd_1_14987" x="0.259916" y="0.817157" width="93.8991" height="93.8991" filterUnits="userSpaceOnUse" color-interpolation-filters="sRGB">
<feFlood flood-opacity="0" result="BackgroundImageFix"/>
<feColorMatrix in="SourceAlpha" type="matrix" values="0 0 0 0 0 0 0 0 0 0 0 0 0 0 0 0 0 0 127 0" result="hardAlpha"/>
<feOffset dy="1.09142"/>
<feGaussianBlur stdDeviation="1.09142"/>
<feColorMatrix type="matrix" values="0 0 0 0 0.0627451 0 0 0 0 0.0941176 0 0 0 0 0.156863 0 0 0 0.06 0"/>
<feBlend mode="normal" in2="BackgroundImageFix" result="effect1_dropShadow_1_14987"/>
<feColorMatrix in="SourceAlpha" type="matrix" values="0 0 0 0 0 0 0 0 0 0 0 0 0 0 0 0 0 0 127 0" result="hardAlpha"/>
<feOffset dy="1.09142"/>
<feGaussianBlur stdDeviation="1.63713"/>
<feColorMatrix type="matrix" values="0 0 0 0 0.0627451 0 0 0 0 0.0941176 0 0 0 0 0.156863 0 0 0 0.1 0"/>
<feBlend mode="normal" in2="effect1_dropShadow_1_14987" result="effect2_dropShadow_1_14987"/>
<feBlend mode="normal" in="SourceGraphic" in2="effect2_dropShadow_1_14987" result="shape"/>
</filter>
</defs>
</svg>
