<svg width="95" height="95" viewBox="0 0 95 95" fill="none" xmlns="http://www.w3.org/2000/svg">
<g filter="url(#filter0_dd_1_13168)">
<rect x="3.71533" y="3" width="87.3506" height="87.3506" rx="43.6753" fill="#2E90FA"/>
<rect x="4.26104" y="3.54571" width="86.2592" height="86.2592" rx="43.1296" stroke="#EAECF0" stroke-width="1.09142"/>
<mask id="mask0_1_13168" style="mask-type:alpha" maskUnits="userSpaceOnUse" x="26" y="25" width="43" height="43">
<rect x="26.6763" y="25.9609" width="41.429" height="41.429" fill="white"/>
</mask>
<g mask="url(#mask0_1_13168)">
<path d="M47.3907 46.6749C45.4919 46.6749 43.8664 45.9988 42.5142 44.6466C41.162 43.2944 40.4859 41.6689 40.4859 39.7701C40.4859 37.8712 41.162 36.2457 42.5142 34.8935C43.8664 33.5413 45.4919 32.8652 47.3907 32.8652C49.2895 32.8652 50.9151 33.5413 52.2673 34.8935C53.6195 36.2457 54.2956 37.8712 54.2956 39.7701C54.2956 41.6689 53.6195 43.2944 52.2673 44.6466C50.9151 45.9988 49.2895 46.6749 47.3907 46.6749ZM33.5811 60.4846V55.6512C33.5811 54.673 33.8328 53.7739 34.3363 52.954C34.8397 52.134 35.5087 51.5083 36.343 51.0767C38.1267 50.1849 39.9393 49.5159 41.7805 49.07C43.6218 48.6241 45.4919 48.4011 47.3907 48.4011C49.2895 48.4011 51.1596 48.6241 53.0009 49.07C54.8422 49.5159 56.6547 50.1849 58.4384 51.0767C59.2728 51.5083 59.9417 52.134 60.4452 52.954C60.9486 53.7739 61.2004 54.673 61.2004 55.6512V60.4846H33.5811ZM37.0335 57.0321H57.748V55.6512C57.748 55.3347 57.6688 55.047 57.5106 54.7881C57.3524 54.5291 57.1438 54.3278 56.8849 54.1839C55.3313 53.4071 53.7633 52.8245 52.1809 52.4361C50.5986 52.0477 49.0018 51.8535 47.3907 51.8535C45.7796 51.8535 44.1828 52.0477 42.6005 52.4361C41.0181 52.8245 39.4502 53.4071 37.8966 54.1839C37.6376 54.3278 37.4291 54.5291 37.2708 54.7881C37.1126 55.047 37.0335 55.3347 37.0335 55.6512V57.0321ZM47.3907 43.2225C48.3401 43.2225 49.1529 42.8844 49.829 42.2083C50.5051 41.5322 50.8431 40.7195 50.8431 39.7701C50.8431 38.8207 50.5051 38.0079 49.829 37.3318C49.1529 36.6557 48.3401 36.3177 47.3907 36.3177C46.4413 36.3177 45.6285 36.6557 44.9524 37.3318C44.2764 38.0079 43.9383 38.8207 43.9383 39.7701C43.9383 40.7195 44.2764 41.5322 44.9524 42.2083C45.6285 42.8844 46.4413 43.2225 47.3907 43.2225Z" fill="white"/>
</g>
</g>
<defs>
<filter id="filter0_dd_1_13168" x="0.441068" y="0.817157" width="93.8991" height="93.8991" filterUnits="userSpaceOnUse" color-interpolation-filters="sRGB">
<feFlood flood-opacity="0" result="BackgroundImageFix"/>
<feColorMatrix in="SourceAlpha" type="matrix" values="0 0 0 0 0 0 0 0 0 0 0 0 0 0 0 0 0 0 127 0" result="hardAlpha"/>
<feOffset dy="1.09142"/>
<feGaussianBlur stdDeviation="1.09142"/>
<feColorMatrix type="matrix" values="0 0 0 0 0.0627451 0 0 0 0 0.0941176 0 0 0 0 0.156863 0 0 0 0.06 0"/>
<feBlend mode="normal" in2="BackgroundImageFix" result="effect1_dropShadow_1_13168"/>
<feColorMatrix in="SourceAlpha" type="matrix" values="0 0 0 0 0 0 0 0 0 0 0 0 0 0 0 0 0 0 127 0" result="hardAlpha"/>
<feOffset dy="1.09142"/>
<feGaussianBlur stdDeviation="1.63713"/>
<feColorMatrix type="matrix" values="0 0 0 0 0.0627451 0 0 0 0 0.0941176 0 0 0 0 0.156863 0 0 0 0.1 0"/>
<feBlend mode="normal" in2="effect1_dropShadow_1_13168" result="effect2_dropShadow_1_13168"/>
<feBlend mode="normal" in="SourceGraphic" in2="effect2_dropShadow_1_13168" result="shape"/>
</filter>
</defs>
</svg>
