<svg width="19" height="20" viewBox="0 0 19 20" fill="none" xmlns="http://www.w3.org/2000/svg">
<path d="M19 10C19 15.2467 14.7467 19.5 9.5 19.5C4.25329 19.5 0 15.2467 0 10C0 4.75329 4.25329 0.5 9.5 0.5C14.7467 0.5 19 4.75329 19 10ZM2.85 10C2.85 13.6727 5.82731 16.65 9.5 16.65C13.1727 16.65 16.15 13.6727 16.15 10C16.15 6.32731 13.1727 3.35 9.5 3.35C5.82731 3.35 2.85 6.32731 2.85 10Z" fill="#D0D5DD"/>
<path d="M19 10C19 7.78931 18.229 5.64784 16.8199 3.94447C15.4107 2.24111 13.4517 1.08251 11.2801 0.668271L10.7461 3.46779C12.2662 3.75776 13.6375 4.56878 14.6239 5.76113C15.6103 6.95349 16.15 8.45252 16.15 10H19Z" fill="#374151"/>
</svg>
