<svg width="19" height="20" viewBox="0 0 19 20" fill="none" xmlns="http://www.w3.org/2000/svg">
<path d="M19 10C19 15.2467 14.7467 19.5 9.5 19.5C4.25329 19.5 0 15.2467 0 10C0 4.75329 4.25329 0.5 9.5 0.5C14.7467 0.5 19 4.75329 19 10ZM2.85 10C2.85 13.6727 5.82731 16.65 9.5 16.65C13.1727 16.65 16.15 13.6727 16.15 10C16.15 6.32731 13.1727 3.35 9.5 3.35C5.82731 3.35 2.85 6.32731 2.85 10Z" fill="#D0D5DD"/>
<path d="M13.8489 1.55388C12.4241 0.820226 10.8368 0.458959 9.23477 0.503703L9.31434 3.35259C10.4357 3.32127 11.5469 3.57416 12.5442 4.08772L13.8489 1.55388Z" fill="#374151"/>
</svg>
