<svg width="19" height="20" viewBox="0 0 19 20" fill="none" xmlns="http://www.w3.org/2000/svg">
<path d="M19 10C19 7.86612 18.2816 5.79438 16.9605 4.11861C15.6394 2.44284 13.7927 1.26063 11.7177 0.762486C9.64281 0.264341 7.4606 0.47927 5.52273 1.37264C3.58486 2.26601 2.0042 3.78579 1.03544 5.68709C0.0666772 7.58839 -0.233759 9.76048 0.18254 11.8534C0.598839 13.9462 1.70763 15.838 3.33024 17.2239C4.95286 18.6097 6.9948 19.4089 9.12703 19.4927C11.2593 19.5765 13.3576 18.9399 15.084 17.6857L13.4088 15.38C12.2003 16.2579 10.7315 16.7035 9.23892 16.6449C7.74636 16.5862 6.317 16.0268 5.18117 15.0567C4.04534 14.0866 3.26919 12.7624 2.97778 11.2973C2.68637 9.83234 2.89667 8.31187 3.57481 6.98096C4.25294 5.65005 5.35941 4.58621 6.71591 3.96085C8.07242 3.33549 9.59997 3.18504 11.0524 3.53374C12.5049 3.88244 13.7976 4.70998 14.7224 5.88303C15.6471 7.05607 16.15 8.50628 16.15 10H19Z" fill="#374151"/>
</svg>
