<svg width="18" height="18" viewBox="0 0 18 18" fill="none" xmlns="http://www.w3.org/2000/svg">
<path d="M17.6187 8.9998C17.6187 11.3362 16.6906 13.5769 15.0385 15.229C13.3865 16.881 11.1458 17.8092 8.80937 17.8092C6.47298 17.8092 4.23228 16.881 2.5802 15.229C0.928128 13.5769 0 11.3362 0 8.9998C0 6.66341 0.928128 4.42271 2.5802 2.77063C4.23228 1.11856 6.47298 0.19043 8.80937 0.19043C11.1458 0.19043 13.3865 1.11856 15.0385 2.77063C16.6906 4.42271 17.6187 6.66341 17.6187 8.9998Z" fill="#FA582D"/>
<path d="M10.2018 5.5332L8.81654 6.9181L9.50477 7.60736L6.03195 11.0819L7.41719 12.4671L8.80243 11.0819L8.1142 10.3937L11.587 6.9181L10.2018 5.5332ZM3.95728 9.00688L7.43095 5.5332L8.81636 6.9181L5.34251 10.3921L3.95728 9.00688ZM8.80226 11.0819L12.2761 7.60788L13.6613 8.99312L10.1877 12.4668L8.80226 11.0819Z" fill="white"/>
</svg>
