<svg width="24" height="24" viewBox="0 0 24 24" fill="none" xmlns="http://www.w3.org/2000/svg">
<path fill-rule="evenodd" clip-rule="evenodd" d="M12.4925 12.8324L13.2668 13.1L11.5561 18.0136L10.7818 17.746L12.4925 12.8324ZM10.1087 14.1163L8.8493 15.3817L10.0836 16.6448L9.49579 17.215L7.98106 15.6644C7.82528 15.5047 7.82651 15.2498 7.98393 15.0917L9.52653 13.5411L10.1087 14.1163ZM16.2 15.0917C16.3574 15.2498 16.3586 15.5047 16.2028 15.6644L14.6873 17.215L14.0998 16.6448L15.3342 15.3817L14.0752 14.1163L14.6574 13.5411L16.2 15.0917ZM19.1417 16.7538L17.7282 17.4576C17.5897 17.5271 17.5019 17.6684 17.5019 17.8232V20.2569L14.174 22.2977L12.5826 21.3921V19.2803H11.7628V21.3921L10.1714 22.2977L6.84347 20.2569V17.8228C6.84347 17.668 6.75574 17.5267 6.61678 17.4576L5.20369 16.7534L5.2033 15.1628L5.20369 13.3778L6.68195 12.2552C6.78362 12.178 6.84347 12.0579 6.84347 11.9305V9.66099L9.89096 7.88984L11.7628 8.93103V11.5192H12.5826V8.93103L14.454 7.88984L17.5019 9.66099V11.9305C17.5019 12.0579 17.5614 12.178 17.663 12.2552L19.1417 13.3773L19.1421 15.1628L19.1417 16.7538ZM19.8001 12.8504L18.3218 11.7279V9.42652C18.3218 9.28152 18.2443 9.14712 18.1185 9.0736L14.6651 7.06675C14.5397 6.99361 14.3847 6.99241 14.2589 7.06265L12.1727 8.22355L10.0865 7.06265C9.95985 6.9928 9.8053 6.99361 9.68025 7.06675L6.22693 9.0736C6.10065 9.14712 6.02359 9.28152 6.02359 9.42652V11.7283L4.54494 12.8504C4.44327 12.9276 4.38381 13.0481 4.38381 13.1755L4.38342 15.1628L4.38381 17.0058C4.38381 17.1607 4.47154 17.302 4.61011 17.3714L6.02359 18.0753V20.4853C6.02359 20.627 6.09697 20.7586 6.21831 20.8329L9.94878 23.1208C10.0763 23.1984 10.2361 23.2012 10.3669 23.1273L12.1727 22.0996L13.9781 23.1273C14.0412 23.1633 14.1113 23.1812 14.1814 23.1812C14.256 23.1812 14.3302 23.1608 14.3966 23.1208L18.1267 20.8329C18.248 20.7586 18.3218 20.627 18.3218 20.4853V18.0756L19.7349 17.3714C19.8739 17.3024 19.9616 17.1611 19.9616 17.0063L19.962 15.1628L19.9616 13.1751C19.9616 13.0477 19.9017 12.9276 19.8001 12.8504ZM8.0733 2.73687C8.0733 3.07509 7.7978 3.34959 7.45837 3.34959C7.11853 3.34959 6.84347 3.07509 6.84347 2.73687C6.84347 2.39824 7.11853 2.12415 7.45837 2.12415C7.7978 2.12415 8.0733 2.39824 8.0733 2.73687ZM6.02359 2.73687C6.02359 3.07509 5.74809 3.34959 5.40867 3.34959C5.06882 3.34959 4.79377 3.07509 4.79377 2.73687C4.79377 2.39824 5.06882 2.12415 5.40867 2.12415C5.74809 2.12415 6.02359 2.39824 6.02359 2.73687ZM3.97389 2.73687C3.97389 3.07509 3.69839 3.34959 3.35896 3.34959C3.01913 3.34959 2.74406 3.07509 2.74406 2.73687C2.74406 2.39824 3.01913 2.12415 3.35896 2.12415C3.69839 2.12415 3.97389 2.39824 3.97389 2.73687ZM1.51423 4.16655L1.51628 1.34518C1.51628 1.32721 1.5376 1.30719 1.56793 1.30719H22.7795C22.8098 1.30719 22.8312 1.32721 22.8312 1.34518V4.16655H1.51423ZM22.7795 0.490234H1.56588C1.08625 0.490234 0.695169 0.873387 0.694349 1.34436L0.681641 16.3817C0.681231 16.8506 1.06985 17.2346 1.55072 17.2379L3.154 17.2371V16.4209L1.56507 16.4213C1.53514 16.4213 1.51423 16.4013 1.51423 16.3833L1.52366 4.9835H22.8312V16.3788C22.8312 16.4013 22.8074 16.4205 22.7795 16.4205L21.1914 16.4209V17.2379L22.7795 17.2374C23.26 17.2374 23.6511 16.8523 23.6511 16.3788V1.34518C23.6511 0.873796 23.26 0.490234 22.7795 0.490234Z" fill="url(#paint0_linear_494_4940)"/>
<defs>
<linearGradient id="paint0_linear_494_4940" x1="23.4791" y1="-373.907" x2="8.99043" y2="-373.902" gradientUnits="userSpaceOnUse">
<stop stop-color="#0076FF"/>
<stop offset="1" stop-color="#BB00FF"/>
</linearGradient>
</defs>
</svg>
