<svg width="105" height="104" viewBox="0 0 105 104" fill="none" xmlns="http://www.w3.org/2000/svg">
<g filter="url(#filter0_d_924_5010)">
<rect x="2.5" y="1" width="100" height="100" rx="10" fill="white"/>
<rect x="3" y="1.5" width="99" height="99" rx="9.5" stroke="#E2E8F0"/>
</g>
<path d="M48.7014 57.3013C48.5031 56.7062 48.2368 55.9597 47.9028 55.0619H42.9072L42.1242 57.3013H38.1936L42.5784 45.9321H48.3412L52.7574 57.3013H48.7014ZM47.0101 52.6189C46.6134 51.5227 46.2063 50.4265 45.7887 49.3303L45.4128 48.3124C45.0474 49.2625 44.5098 50.698 43.7998 52.6189H47.0101ZM60.0762 45.9478C62.1538 45.9478 63.5997 46.3184 64.414 47.0596C65.2283 47.7904 65.6355 48.824 65.6355 50.1603C65.6355 51.079 65.4737 51.862 65.15 52.5093C64.8264 53.1462 64.2574 53.6473 63.4431 54.0127C62.6288 54.3676 61.5065 54.5451 60.0762 54.5451H56.8189V57.3013H52.9666C53.0501 55.2759 53.0919 53.3811 53.0919 51.6167C53.0919 49.8523 53.0501 47.9575 52.9666 45.9321H56.8189V45.9478H60.0762ZM58.98 51.5227C59.8465 51.5227 60.4938 51.4914 60.9218 51.4288C61.3603 51.3557 61.6631 51.2304 61.8301 51.0529C62.0076 50.8755 62.0963 50.6145 62.0963 50.2699C62.0963 49.9254 62.0128 49.6696 61.8458 49.5026C61.6892 49.3251 61.3916 49.2051 60.9532 49.1424C60.5251 49.0798 59.8674 49.0485 58.98 49.0485H56.8189V51.5227H58.98ZM69.9525 54.4355C73.9197 54.4146 76.7959 54.3572 78.5812 54.2632C78.5081 54.6913 78.4611 55.135 78.4402 55.5943C78.4298 56.0433 78.4246 56.6122 78.4246 57.3013H66.2568C66.3403 55.2759 66.382 53.3811 66.382 51.6167C66.382 49.8523 66.3403 47.9575 66.2568 45.9321H78.4246V48.7666H69.9525V50.2699C70.4536 50.2804 71.1949 50.2856 72.1762 50.2856C73.8362 50.2856 75.5536 50.2543 77.3284 50.1916V52.8852C75.5536 52.8225 73.8362 52.7912 72.1762 52.7912C71.1949 52.7912 70.4536 52.7964 69.9525 52.8069V54.4355ZM86.6557 51.4758L91.2285 57.3013H86.7027L84.4477 54.2319L82.177 57.3013H77.6512L82.224 51.4758L77.8078 45.9321H82.3336L84.4477 48.7509L86.5461 45.9321H91.0719L86.6557 51.4758Z" fill="#1E293B"/>
<path fill-rule="evenodd" clip-rule="evenodd" d="M26.0213 47.747L28.0804 51.5883L30.9671 57.1875L33.2903 61.7153H26.3726L22.2478 52.8857L17.9735 61.7153H11.0558L13.4537 57.1691L16.4048 51.5761L18.5386 47.747L22.28 40.4646L26.0213 47.747Z" fill="url(#paint0_angular_924_5010)"/>
<path d="M18.5997 49.6633C20.5975 49.6332 22.2098 48.0209 22.2399 46.0231C22.27 48.0209 23.8823 49.6332 25.8801 49.6633L25.4797 49.6693C23.7049 49.6961 22.2727 51.1283 22.2459 52.903L22.2339 52.9192L22.2339 52.903C22.2071 51.1283 20.7749 49.6961 19.0001 49.6693L18.5997 49.6633Z" fill="white"/>
<defs>
<filter id="filter0_d_924_5010" x="0.5" y="0" width="104" height="104" filterUnits="userSpaceOnUse" color-interpolation-filters="sRGB">
<feFlood flood-opacity="0" result="BackgroundImageFix"/>
<feColorMatrix in="SourceAlpha" type="matrix" values="0 0 0 0 0 0 0 0 0 0 0 0 0 0 0 0 0 0 127 0" result="hardAlpha"/>
<feOffset dy="1"/>
<feGaussianBlur stdDeviation="1"/>
<feColorMatrix type="matrix" values="0 0 0 0 0.0627451 0 0 0 0 0.0941176 0 0 0 0 0.156863 0 0 0 0.05 0"/>
<feBlend mode="normal" in2="BackgroundImageFix" result="effect1_dropShadow_924_5010"/>
<feBlend mode="normal" in="SourceGraphic" in2="effect1_dropShadow_924_5010" result="shape"/>
</filter>
<radialGradient id="paint0_angular_924_5010" cx="0" cy="0" r="1" gradientUnits="userSpaceOnUse" gradientTransform="translate(22.2555 45.0315) rotate(90.283) scale(16.684 15.9771)">
<stop stop-color="#34C582"/>
<stop offset="1" stop-color="#006528"/>
</radialGradient>
</defs>
</svg>
