<svg width="20" height="19" viewBox="0 0 20 19" fill="none" xmlns="http://www.w3.org/2000/svg">
<path d="M6.47984 0.125225H12.1205L6.26493 18.1709C6.20475 18.3563 6.09017 18.5174 5.93733 18.6316C5.78449 18.7457 5.60108 18.8072 5.41291 18.8072H1.02305C0.880486 18.8072 0.739966 18.7719 0.613116 18.7043C0.486266 18.6366 0.376732 18.5385 0.293575 18.418C0.210419 18.2976 0.15603 18.1582 0.134909 18.0116C0.113788 17.865 0.126541 17.7152 0.172114 17.5747L5.6276 0.761545C5.68776 0.576035 5.80235 0.41483 5.95524 0.300635C6.10813 0.18644 6.29161 0.125011 6.47984 0.125V0.125225Z" fill="url(#paint0_linear_206_3250)"/>
<path d="M14.6769 12.229H5.73207C5.64891 12.2289 5.56765 12.2549 5.49888 12.3035C5.4301 12.3521 5.377 12.4212 5.34649 12.5016C5.31599 12.5821 5.30948 12.6702 5.32783 12.7546C5.34618 12.839 5.38853 12.9156 5.44936 12.9746L11.1971 18.5546C11.3644 18.7169 11.5848 18.8072 11.8136 18.8072H16.8785L14.6769 12.229Z" fill="#0078D4"/>
<path d="M6.4804 0.125495C6.29012 0.124736 6.10459 0.187279 5.95091 0.303989C5.79723 0.420699 5.68346 0.585461 5.62621 0.774208L0.179392 17.5596C0.130753 17.7006 0.115483 17.8518 0.134873 18.0002C0.154264 18.1487 0.207744 18.2901 0.290791 18.4125C0.373837 18.5349 0.484006 18.6347 0.611978 18.7034C0.73995 18.7722 0.881961 18.8079 1.026 18.8075H5.52916C5.69688 18.7763 5.85363 18.6994 5.98342 18.5846C6.11321 18.4698 6.21137 18.3212 6.26788 18.154L7.35408 14.8244L11.234 18.5885C11.3966 18.7283 11.6005 18.8057 11.8115 18.8075H16.8576L14.6445 12.2293L8.19289 12.2309L12.1415 0.125495H6.4804Z" fill="url(#paint1_linear_206_3250)"/>
<path d="M13.6848 0.760419C13.6247 0.575209 13.5103 0.41427 13.3576 0.300276C13.205 0.186281 13.0218 0.124977 12.8339 0.125H6.54736C6.73528 0.125011 6.91846 0.186328 7.07111 0.300318C7.22377 0.414307 7.3382 0.575227 7.3983 0.760419L12.854 17.5742C12.8996 17.7148 12.9124 17.8646 12.8913 18.0112C12.8702 18.1579 12.8158 18.2973 12.7327 18.4178C12.6495 18.5383 12.54 18.6364 12.4131 18.7042C12.2862 18.7719 12.1457 18.8072 12.0031 18.8072H18.2898C18.4324 18.8072 18.5729 18.7718 18.6997 18.7041C18.8266 18.6363 18.9361 18.5382 19.0192 18.4177C19.1023 18.2972 19.1567 18.1579 19.1778 18.0112C19.1989 17.8645 19.1861 17.7147 19.1405 17.5742L13.6848 0.760419Z" fill="url(#paint2_linear_206_3250)"/>
<defs>
<linearGradient id="paint0_linear_206_3250" x1="8.53569" y1="1.50963" x2="2.25106" y2="19.3598" gradientUnits="userSpaceOnUse">
<stop stop-color="#114A8B"/>
<stop offset="1" stop-color="#0669BC"/>
</linearGradient>
<linearGradient id="paint1_linear_206_3250" x1="10.3662" y1="9.89855" x2="9.00051" y2="10.3425" gradientUnits="userSpaceOnUse">
<stop stop-opacity="0.3"/>
<stop offset="0.071" stop-opacity="0.2"/>
<stop offset="0.321" stop-opacity="0.1"/>
<stop offset="0.623" stop-opacity="0.05"/>
<stop offset="1" stop-opacity="0"/>
</linearGradient>
<linearGradient id="paint2_linear_206_3250" x1="9.62074" y1="0.984392" x2="16.5078" y2="18.6251" gradientUnits="userSpaceOnUse">
<stop stop-color="#3CCBF4"/>
<stop offset="1" stop-color="#2892DF"/>
</linearGradient>
</defs>
</svg>
