<svg width="21" height="20" viewBox="0 0 21 20" fill="none" xmlns="http://www.w3.org/2000/svg">
<path d="M5.66699 6.66675C5.66699 5.34067 6.19378 4.0689 7.13146 3.13121C8.06914 2.19353 9.34091 1.66675 10.667 1.66675C11.9931 1.66675 13.2648 2.19353 14.2025 3.13121C15.1402 4.0689 15.667 5.34067 15.667 6.66675C15.667 12.5001 18.167 14.1667 18.167 14.1667H3.16699C3.16699 14.1667 5.66699 12.5001 5.66699 6.66675Z" stroke="#98A1B2" stroke-linecap="round" stroke-linejoin="round"/>
<path d="M9.25049 17.5C9.38997 17.7537 9.59503 17.9653 9.84423 18.1127C10.0934 18.26 10.3776 18.3378 10.6672 18.3378C10.9567 18.3378 11.2409 18.26 11.4901 18.1127C11.7393 17.9653 11.9443 17.7537 12.0838 17.5" stroke="#98A1B2" stroke-linecap="round" stroke-linejoin="round"/>
<path d="M4.00016 1.66675C3.00016 3.08341 2.3335 4.75008 2.3335 6.66675" stroke="#98A1B2" stroke-linecap="round" stroke-linejoin="round"/>
<path d="M19.0002 6.66675C19.0002 4.75008 18.3335 3.08341 17.3335 1.66675" stroke="#98A1B2" stroke-linecap="round" stroke-linejoin="round"/>
</svg>
