<svg width="20" height="20" viewBox="0 0 20 20" fill="none" xmlns="http://www.w3.org/2000/svg">
<path d="M16.1667 12.418C16.8333 13.668 17.5 14.168 17.5 14.168H2.5C2.5 14.168 5 12.5013 5 6.66797C5 3.91797 7.25 1.66797 10 1.66797C10.5833 1.66797 11.0833 1.7513 11.5833 1.91797M8.58333 17.5013C8.72282 17.755 8.92787 17.9666 9.17708 18.114C9.42628 18.2613 9.71048 18.3391 10 18.3391C10.2895 18.3391 10.5737 18.2613 10.8229 18.114C11.0721 17.9666 11.2772 17.755 11.4167 17.5013M17.5 6.66797C17.5 8.04868 16.3807 9.16797 15 9.16797C13.6193 9.16797 12.5 8.04868 12.5 6.66797C12.5 5.28726 13.6193 4.16797 15 4.16797C16.3807 4.16797 17.5 5.28726 17.5 6.66797Z" stroke="#94A3B8" stroke-width="2" stroke-linecap="round" stroke-linejoin="round"/>
</svg>
