<svg width="105" height="104" viewBox="0 0 105 104" fill="none" xmlns="http://www.w3.org/2000/svg">
<g filter="url(#filter0_d_1004_237)">
<rect x="2.5" y="1" width="100" height="100" rx="10" fill="white"/>
<rect x="3" y="1.5" width="99" height="99" rx="9.5" stroke="#E2E8F0"/>
</g>
<g clip-path="url(#clip0_1004_237)">
<path d="M84.439 61.6727C85.2317 62.7546 85.0732 64.1455 84.122 64.9182C83.0122 65.6909 81.4268 65.5364 80.6341 64.6091L75.0854 57.6545L69.6951 64.4545C68.9024 65.5364 67.3171 65.5364 66.2073 64.7636C65.0976 63.9909 64.939 62.6 65.7317 61.5182L72.0732 53.4818L65.7317 45.4455C64.939 44.3636 65.2561 42.8182 66.2073 42.0455C67.3171 41.2727 68.9024 41.5818 69.6951 42.5091L75.0854 49.4636L80.6341 42.8182C81.4268 41.7364 82.8537 41.5818 84.122 42.3545C85.2317 43.1273 85.2317 44.6727 84.439 45.7545L78.2561 53.6364L84.439 61.6727ZM55.5854 60.7455C51.4634 60.7455 48.1341 57.6545 48.1341 53.6364C48.1341 49.7727 51.4634 46.5273 55.5854 46.5273C59.7073 46.5273 63.0366 49.7727 63.0366 53.6364C62.8781 57.6545 59.5488 60.7455 55.5854 60.7455ZM33.7073 60.7455C29.5854 60.7455 26.2561 57.6545 26.2561 53.6364C26.2561 49.7727 29.5854 46.5273 33.7073 46.5273C37.8293 46.5273 41.1585 49.7727 41.1585 53.6364C41.1585 57.6545 37.8293 60.7455 33.7073 60.7455ZM55.5854 41.8909C50.9878 41.8909 46.8659 44.3636 44.8049 48.0727C42.7439 44.3636 38.622 41.8909 33.8659 41.8909C31.0122 41.8909 28.4756 42.8182 26.4146 44.2091V34.3182C26.4146 33.0818 25.3049 32 24.0366 32C22.6098 32 21.5 33.0818 21.5 34.3182V53.7909C21.6585 60.2818 27.0488 65.3818 33.7073 65.3818C38.4634 65.3818 42.5854 62.7545 44.6463 59.0455C46.7073 62.7545 50.8293 65.3818 55.4268 65.3818C62.2439 65.3818 67.7927 60.1273 67.7927 53.4818C67.9512 47.1455 62.4024 41.8909 55.5854 41.8909Z" fill="#0071F7"/>
</g>
<defs>
<filter id="filter0_d_1004_237" x="0.5" y="0" width="104" height="104" filterUnits="userSpaceOnUse" color-interpolation-filters="sRGB">
<feFlood flood-opacity="0" result="BackgroundImageFix"/>
<feColorMatrix in="SourceAlpha" type="matrix" values="0 0 0 0 0 0 0 0 0 0 0 0 0 0 0 0 0 0 127 0" result="hardAlpha"/>
<feOffset dy="1"/>
<feGaussianBlur stdDeviation="1"/>
<feColorMatrix type="matrix" values="0 0 0 0 0.0627451 0 0 0 0 0.0941176 0 0 0 0 0.156863 0 0 0 0.05 0"/>
<feBlend mode="normal" in2="BackgroundImageFix" result="effect1_dropShadow_1004_237"/>
<feBlend mode="normal" in="SourceGraphic" in2="effect1_dropShadow_1004_237" result="shape"/>
</filter>
<clipPath id="clip0_1004_237">
<rect width="65" height="34" fill="white" transform="translate(21.5 32)"/>
</clipPath>
</defs>
</svg>
