<svg width="79" height="42" viewBox="0 0 79 42" fill="none" xmlns="http://www.w3.org/2000/svg">
<path d="M75.7909 36.6545C76.7455 37.9909 76.5545 39.7091 75.4091 40.6636C74.0727 41.6182 72.1636 41.4273 71.2091 40.2818L64.5273 31.6909L58.0364 40.0909C57.0818 41.4273 55.1727 41.4273 53.8364 40.4727C52.5 39.5182 52.3091 37.8 53.2636 36.4636L60.9 26.5364L53.2636 16.6091C52.3091 15.2727 52.6909 13.3636 53.8364 12.4091C55.1727 11.4545 57.0818 11.8364 58.0364 12.9818L64.5273 21.5727L71.2091 13.3636C72.1636 12.0273 73.8818 11.8364 75.4091 12.7909C76.7455 13.7455 76.7455 15.6545 75.7909 16.9909L68.3455 26.7273L75.7909 36.6545ZM41.0455 35.5091C36.0818 35.5091 32.0727 31.6909 32.0727 26.7273C32.0727 21.9545 36.0818 17.9455 41.0455 17.9455C46.0091 17.9455 50.0182 21.9545 50.0182 26.7273C49.8273 31.6909 45.8182 35.5091 41.0455 35.5091ZM14.7 35.5091C9.73636 35.5091 5.72727 31.6909 5.72727 26.7273C5.72727 21.9545 9.73636 17.9455 14.7 17.9455C19.6636 17.9455 23.6727 21.9545 23.6727 26.7273C23.6727 31.6909 19.6636 35.5091 14.7 35.5091ZM41.0455 12.2182C35.5091 12.2182 30.5455 15.2727 28.0636 19.8545C25.5818 15.2727 20.6182 12.2182 14.8909 12.2182C11.4545 12.2182 8.4 13.3636 5.91818 15.0818V2.86364C5.91818 1.33636 4.58182 0 3.05455 0C1.33636 0 0 1.33636 0 2.86364V26.9182C0.190909 34.9364 6.68182 41.2364 14.7 41.2364C20.4273 41.2364 25.3909 37.9909 27.8727 33.4091C30.3545 37.9909 35.3182 41.2364 40.8545 41.2364C49.0636 41.2364 55.7455 34.7455 55.7455 26.5364C55.9364 18.7091 49.2545 12.2182 41.0455 12.2182Z" fill="#0071F7"/>
</svg>
