<svg width="14" height="16" viewBox="0 0 14 16" fill="none" xmlns="http://www.w3.org/2000/svg">
<path d="M1.5 16C1.0875 16 0.734375 15.8507 0.440625 15.5521C0.146875 15.2535 0 14.9028 0 14.5V3.5C0 3.09722 0.146875 2.74653 0.440625 2.44792C0.734375 2.14931 1.0875 2 1.5 2H3V0H4.5V2H9.5V0H11V2H12.5C12.9125 2 13.2656 2.14931 13.5594 2.44792C13.8531 2.74653 14 3.09722 14 3.5V14.5C14 14.9028 13.8531 15.2535 13.5594 15.5521C13.2656 15.8507 12.9125 16 12.5 16H1.5ZM1.5 14.5H12.5V7H1.5V14.5ZM1.5 5.5H12.5V3.5H1.5V5.5Z" fill="#667085"/>
</svg>
