<svg width="20" height="20" viewBox="0 0 20 20" fill="none" xmlns="http://www.w3.org/2000/svg">
<g id="speaker_notes">
<mask id="mask0_1_15224" style="mask-type:alpha" maskUnits="userSpaceOnUse" x="0" y="0" width="20" height="20">
<rect id="Bounding box" width="20" height="20" fill="#D9D9D9"/>
</mask>
<g mask="url(#mask0_1_15224)">
<path id="speaker_notes_2" d="M5.83286 11.6669C6.06898 11.6669 6.26689 11.587 6.42661 11.4273C6.58634 11.2676 6.6662 11.0696 6.6662 10.8335C6.6662 10.5974 6.58634 10.3995 6.42661 10.2398C6.26689 10.0801 6.06898 10.0002 5.83286 10.0002C5.59675 10.0002 5.39884 10.0801 5.23911 10.2398C5.07939 10.3995 4.99953 10.5974 4.99953 10.8335C4.99953 11.0696 5.07939 11.2676 5.23911 11.4273C5.39884 11.587 5.59675 11.6669 5.83286 11.6669ZM5.83286 9.16687C6.06898 9.16687 6.26689 9.08701 6.42661 8.92729C6.58634 8.76756 6.6662 8.56965 6.6662 8.33354C6.6662 8.09742 6.58634 7.89951 6.42661 7.73979C6.26689 7.58006 6.06898 7.5002 5.83286 7.5002C5.59675 7.5002 5.39884 7.58006 5.23911 7.73979C5.07939 7.89951 4.99953 8.09742 4.99953 8.33354C4.99953 8.56965 5.07939 8.76756 5.23911 8.92729C5.39884 9.08701 5.59675 9.16687 5.83286 9.16687ZM5.83286 6.66687C6.06898 6.66687 6.26689 6.58701 6.42661 6.42729C6.58634 6.26756 6.6662 6.06965 6.6662 5.83354C6.6662 5.59742 6.58634 5.39951 6.42661 5.23979C6.26689 5.08006 6.06898 5.0002 5.83286 5.0002C5.59675 5.0002 5.39884 5.08006 5.23911 5.23979C5.07939 5.39951 4.99953 5.59742 4.99953 5.83354C4.99953 6.06965 5.07939 6.26756 5.23911 6.42729C5.39884 6.58701 5.59675 6.66687 5.83286 6.66687ZM8.33286 11.6669H12.4995V10.0002H8.33286V11.6669ZM8.33286 9.16687H14.9995V7.5002H8.33286V9.16687ZM8.33286 6.66687H14.9995V5.0002H8.33286V6.66687ZM1.6662 18.3335V3.33354C1.6662 2.8752 1.82939 2.48284 2.15578 2.15645C2.48217 1.83006 2.87453 1.66687 3.33287 1.66687H16.6662C17.1245 1.66687 17.5169 1.83006 17.8433 2.15645C18.1697 2.48284 18.3329 2.8752 18.3329 3.33354V13.3335C18.3329 13.7919 18.1697 14.1842 17.8433 14.5106C17.5169 14.837 17.1245 15.0002 16.6662 15.0002H4.99953L1.6662 18.3335ZM4.2912 13.3335H16.6662V3.33354H3.33287V14.271L4.2912 13.3335Z" fill="#027A48"/>
</g>
</g>
</svg>
