<svg width="30" height="35" viewBox="0 0 30 35" fill="none" xmlns="http://www.w3.org/2000/svg">
<g id="Frame 2608548">
<g id="Group 68077">
<rect id="Rectangle 2846" y="5" width="30" height="30" rx="4" fill="#101828"/>
<path id="Vector" d="M13.9395 10.0001C11.7221 10.0001 9.75216 11.4083 9.06565 13.4881C7.63999 13.7779 6.4092 14.6585 5.68797 15.9063C4.57589 17.8024 4.83011 20.1864 6.31961 21.8115C5.85932 23.1733 6.01723 24.6623 6.7519 25.8958C7.85726 27.7985 10.0814 28.7742 12.2574 28.3207C13.2217 29.3937 14.607 30.0055 16.0607 30C18.2781 30 20.2481 28.5917 20.9357 26.512C22.3636 26.221 23.5921 25.3404 24.3067 24.0948C25.4255 22.1987 25.1712 19.8147 23.6817 18.1885V18.1819C24.142 16.8201 23.9841 15.33 23.2494 14.091C22.1441 12.1949 19.9199 11.2191 17.7506 11.6727C16.7808 10.6019 15.3932 9.99342 13.9395 10.0001ZM13.9395 11.2999L13.9328 11.3065C14.8254 11.3065 15.6833 11.6108 16.3698 12.1738C16.3418 12.1871 16.2869 12.2214 16.2466 12.2413L12.2093 14.5379C12.0032 14.6529 11.88 14.8698 11.88 15.1065V20.4973L10.143 19.5083V15.0523C10.1419 12.9825 11.8408 11.3032 13.9395 11.2999ZM18.8022 12.8697C20.1641 12.8675 21.4229 13.5832 22.1026 14.7481C22.5417 15.507 22.7063 16.3942 22.5551 17.2537C22.5271 17.2338 22.4733 17.2062 22.4386 17.1863L18.4024 14.883C18.1964 14.768 17.9433 14.768 17.7372 14.883L13.0067 17.579V15.601L16.9118 13.373C17.4863 13.0445 18.1381 12.8708 18.8022 12.8697ZM8.81815 14.9162V19.6499C8.81815 19.8866 8.94134 20.0968 9.14741 20.2185L13.8701 22.9067L12.1264 23.9023L8.22683 21.681C6.41256 20.6433 5.79212 18.3522 6.84037 16.5612C7.28498 15.8023 7.98381 15.2205 8.81815 14.9162ZM17.866 16.0889L21.7723 18.3102C23.5921 19.3468 24.2092 21.6356 23.1587 23.4299L23.1655 23.4366C22.7197 24.1955 22.0187 24.7774 21.1888 25.076V20.3413C21.1888 20.1045 21.0656 19.8877 20.8595 19.7727L16.1301 17.0767L17.866 16.0889ZM14.9968 17.7206L16.988 18.8578V21.1267L14.9968 22.264L13.0055 21.1267V18.8578L14.9968 17.7206ZM18.1269 19.5083L19.8639 20.4973V24.9466C19.8639 27.0186 18.1616 28.699 16.0674 28.699V28.6924C15.1815 28.6924 14.317 28.3871 13.6372 27.8251C13.6652 27.8118 13.7268 27.7775 13.7604 27.7576L17.7966 25.4621C18.0026 25.3471 18.1325 25.1302 18.1258 24.8935L18.1269 19.5083ZM16.9936 22.421V24.399L13.0873 26.6204C11.2674 27.6503 8.94806 27.0407 7.89757 25.2519H7.90429C7.45857 24.4997 7.29954 23.6058 7.45073 22.7463C7.47872 22.7662 7.5336 22.7938 7.5672 22.8138L11.6034 25.117C11.8095 25.232 12.0626 25.232 12.2686 25.117L16.9936 22.421Z" fill="white"/>
</g>
</g>
</svg>
