<svg width="35" height="35" viewBox="0 0 35 35" fill="none" xmlns="http://www.w3.org/2000/svg">
<path d="M0.00850058 16.9949C0.463282 18.0605 0.697048 18.2983 1.54711 18.3662C2.77544 18.4639 4.00802 18.5488 5.24061 18.5955C7.77803 18.6889 10.3155 18.7441 12.8529 18.829C13.1674 18.8375 13.4777 18.9394 13.7879 18.9988C13.8049 19.0879 13.8177 19.1771 13.8347 19.2705C13.5712 19.47 13.3204 19.7035 13.0356 19.8691C11.106 20.9687 9.15088 22.0216 7.23824 23.1509C6.17992 23.775 5.1811 24.5052 4.16528 25.2057C3.6425 25.5665 3.63825 26.1227 3.79126 26.6364C3.95702 27.1968 4.4628 27.3709 4.98559 27.2435C5.58913 27.0949 6.22668 26.9293 6.74096 26.6067C9.18913 25.0741 11.6033 23.4778 14.0302 21.9112C14.3362 21.7117 14.6593 21.5418 14.978 21.355C15.029 21.4145 15.08 21.4739 15.131 21.5333C14.9823 21.7456 14.842 21.9621 14.6805 22.1659C12.5724 24.8576 10.46 27.5407 8.36032 30.2366C7.99055 30.7121 7.63777 31.213 7.87154 31.8753C8.8236 32.6183 9.05737 32.631 9.79692 31.7777C11.0168 30.3682 12.2366 28.9544 13.3884 27.4897C14.5402 26.0208 15.6071 24.4882 16.7206 22.9895C16.8439 22.824 17.0309 22.7051 17.2307 22.5268C17.2689 22.7136 17.3072 22.7858 17.2944 22.8452C16.6951 25.9911 16.1001 29.1328 15.4881 32.2744C15.2118 33.6797 15.4541 34.2698 16.6866 35C17.3964 34.7835 18.0765 34.5542 18.153 33.6075C18.3528 31.1876 18.578 28.7719 18.8075 26.3562C18.8968 25.4307 19.0243 24.5137 19.1348 23.5924C19.2156 23.5797 19.3006 23.5669 19.3813 23.5499C19.5641 23.8344 19.7426 24.1188 19.9254 24.4033C21.4682 26.7595 23.0026 29.1243 24.5667 31.4678C25.2637 32.5121 25.8333 32.5928 26.9851 31.8838C27.1594 30.9838 27.0956 30.1262 26.5218 29.3026C25.455 27.77 24.4392 26.2034 23.4106 24.6453C23.2618 24.416 23.1598 24.1571 23.0323 23.9108C23.1003 23.8684 23.1641 23.8259 23.2321 23.7834C25.7355 25.7279 27.9669 28.0332 30.7338 29.6125C31.4479 28.7167 31.4394 28.3686 30.6531 27.6383C28.3877 25.5198 26.101 23.4226 23.8271 21.3126C23.5636 21.0663 23.3256 20.7904 23.0748 20.5272C23.1173 20.455 23.1598 20.3786 23.2066 20.3064C23.5721 20.3871 23.9376 20.4635 24.3032 20.5484C26.9086 21.1725 29.5225 21.7626 32.1152 22.4419C32.9865 22.6711 33.7048 22.4971 34.4231 22.064C35.0776 21.6692 35.1626 21.3083 34.7419 20.6885C34.0661 19.6993 33.0885 19.3172 31.9324 19.2747C29.9603 19.2026 27.9882 19.1346 26.016 19.0412C25.1787 18.9988 24.3457 18.8927 23.5084 18.8162C23.8101 18.536 24.1331 18.4299 24.4604 18.3535C27.4824 17.6615 30.5086 16.9822 33.5305 16.2817C34.6271 16.027 34.8396 15.6916 34.7674 14.4519C34.1936 13.9467 33.556 13.7556 32.7485 13.9254C30.3343 14.4264 27.9074 14.8807 25.4847 15.3477C25.0895 15.4241 24.6899 15.4878 24.0396 15.6067C24.3074 15.0717 24.4179 14.7448 24.6134 14.4731C26.1775 12.3037 27.7756 10.1555 29.3228 7.97329C29.6798 7.46807 29.9135 6.86946 30.1813 6.30481C30.6021 5.40477 29.99 4.74248 29.4418 4.28821C29.072 3.97829 28.3112 3.96131 27.7799 4.07594C27.3549 4.16934 26.9553 4.60662 26.6451 4.97173C24.8514 7.09872 23.0876 9.25117 21.3067 11.3867C21.0559 11.6881 20.7754 11.9683 20.5077 12.257C20.4269 12.2188 20.3504 12.1763 20.2696 12.1381C20.2994 11.807 20.3036 11.4716 20.3674 11.1489C20.7032 9.34882 21.0644 7.55298 21.3917 5.7529C21.5915 4.64483 21.7742 3.53252 21.9187 2.41595C22.0123 1.70271 21.447 0.891828 20.7967 0.696536C20.3036 0.547944 19.6066 0.90881 19.2793 1.5796C19.0668 2.01688 18.8755 2.49662 18.8245 2.97211C18.5015 6.15622 18.2252 9.34457 17.9235 12.5329C17.9022 12.7494 17.8087 12.9617 17.711 13.3056C17.1797 12.1423 16.7376 11.1149 16.2531 10.1088C15.2245 7.98602 14.1662 5.87602 13.1419 3.75328C12.7126 2.86598 12.3556 1.94046 11.9178 1.06165C11.446 0.114905 9.79692 -0.352097 9.11687 0.310197C8.43258 0.972492 7.81203 1.73668 8.25406 2.81928C8.45383 3.30326 8.61959 3.80847 8.87461 4.26274C10.3537 6.86522 11.8583 9.45496 13.3459 12.0532C13.4692 12.2697 13.5202 12.5244 13.6732 12.9702C13.3034 12.7834 13.1419 12.7282 13.0059 12.6306C11.5013 11.5225 9.99243 10.4187 8.50058 9.29787C7.51451 8.55492 6.58795 7.72705 5.56363 7.04777C4.69232 6.47039 3.58724 6.35576 3.01346 7.19636C2.54592 7.88413 2.66493 8.97522 3.39598 9.67572C3.651 9.91772 3.94427 10.1173 4.23329 10.3168C7.11499 12.2867 10.0009 14.2481 12.8784 16.218C13.2099 16.443 13.5202 16.702 14.009 17.0713C13.6009 17.152 13.4394 17.2242 13.2864 17.2114C10.511 16.9949 7.73978 16.7614 4.96434 16.5407C3.77001 16.4473 2.57568 16.3624 1.38134 16.2817C0.782053 16.2435 0.259268 16.3751 0 16.9907L0.00850058 16.9949Z" fill="#D97857"/>
</svg>
