<svg width="14" height="16" viewBox="0 0 14 16" fill="none" xmlns="http://www.w3.org/2000/svg">
<path d="M7 16V14C5.05099 14 3.39706 13.3211 2.03823 11.9632C0.67941 10.6053 0 8.95251 0 7.00483C0 5.05717 0.679778 3.40278 2.03933 2.04167C3.39888 0.680556 5.05368 0 7.00375 0C7.97878 0 8.88858 0.184028 9.73315 0.552083C10.5777 0.920139 11.316 1.42014 11.9479 2.05208C12.5799 2.68403 13.0799 3.42268 13.4479 4.26804C13.816 5.1134 14 6.02406 14 7C14 7.95833 13.7951 8.88889 13.3854 9.79167C12.9757 10.6944 12.441 11.5347 11.7812 12.3125C11.1215 13.0903 10.375 13.7951 9.54167 14.4271C8.70833 15.059 7.86111 15.5833 7 16ZM8.5 13.3333C9.61111 12.5 10.5556 11.5313 11.3333 10.4271C12.1111 9.32292 12.5 8.18056 12.5 7C12.5 5.48611 11.9618 4.19097 10.8854 3.11458C9.80903 2.03819 8.51389 1.5 7 1.5C5.48611 1.5 4.19097 2.03819 3.11458 3.11458C2.03819 4.19097 1.5 5.48611 1.5 7C1.5 8.51389 2.03819 9.80903 3.11458 10.8854C4.19097 11.9618 5.48611 12.5 7 12.5H8.5V13.3333ZM7 11C7.23035 11 7.42683 10.9187 7.58944 10.7561C7.75203 10.5935 7.83333 10.397 7.83333 10.1667C7.83333 9.93632 7.75203 9.73984 7.58944 9.57723C7.42683 9.41463 7.23035 9.33333 7 9.33333C6.76965 9.33333 6.57317 9.41463 6.41056 9.57723C6.24797 9.73984 6.16667 9.93632 6.16667 10.1667C6.16667 10.397 6.24797 10.5935 6.41056 10.7561C6.57317 10.9187 6.76965 11 7 11ZM6.39583 8.45833H7.60417C7.60417 8.09722 7.63194 7.82292 7.6875 7.63542C7.74306 7.44792 7.90278 7.22222 8.16667 6.95833C8.41667 6.72222 8.66667 6.47222 8.91667 6.20833C9.16667 5.94444 9.29167 5.56944 9.29167 5.08333C9.29167 4.41667 9.06944 3.90278 8.625 3.54167C8.18056 3.18056 7.63889 3 7 3C6.41826 3 5.92908 3.16667 5.53246 3.5C5.13582 3.83333 4.86111 4.22222 4.70833 4.66667L5.7985 5.125C5.86339 4.88889 5.98952 4.66667 6.1769 4.45833C6.36427 4.25 6.63864 4.14583 7 4.14583C7.375 4.14583 7.64931 4.25 7.82292 4.45833C7.99653 4.66667 8.08333 4.88889 8.08333 5.125C8.08333 5.41667 7.98264 5.66319 7.78125 5.86458C7.57986 6.06597 7.36111 6.27778 7.125 6.5C6.76389 6.83333 6.55208 7.12153 6.48958 7.36458C6.42708 7.60764 6.39583 7.97222 6.39583 8.45833Z" fill="#667085"/>
</svg>
