<svg width="20" height="20" viewBox="0 0 20 20" fill="none" xmlns="http://www.w3.org/2000/svg">
<path d="M14.1667 15.0013C14.1667 14.5593 13.9911 14.1354 13.6785 13.8228C13.366 13.5102 12.942 13.3346 12.5 13.3346H7.5C7.05797 13.3346 6.63405 13.5102 6.32149 13.8228C6.00893 14.1354 5.83333 14.5593 5.83333 15.0013M6.66667 1.66797V3.33464M13.3333 1.66797V3.33464M4.16667 3.33464H15.8333C16.7538 3.33464 17.5 4.08083 17.5 5.0013V16.668C17.5 17.5884 16.7538 18.3346 15.8333 18.3346H4.16667C3.24619 18.3346 2.5 17.5884 2.5 16.668V5.0013C2.5 4.08083 3.24619 3.33464 4.16667 3.33464ZM11.6667 8.33464C11.6667 9.25511 10.9205 10.0013 10 10.0013C9.07953 10.0013 8.33333 9.25511 8.33333 8.33464C8.33333 7.41416 9.07953 6.66797 10 6.66797C10.9205 6.66797 11.6667 7.41416 11.6667 8.33464Z" stroke="#94A3B8" stroke-width="2" stroke-linecap="round" stroke-linejoin="round"/>
</svg>
