<svg width="24" height="24" viewBox="0 0 24 24" fill="none" xmlns="http://www.w3.org/2000/svg">
<path d="M11.9245 0.526536C12.2965 0.526536 12.6684 0.526536 13.0404 0.526536C13.0682 0.530935 13.0956 0.536687 13.1235 0.539733C13.5265 0.582705 13.9322 0.608083 14.3322 0.671358C15.6904 0.886051 16.9669 1.34031 18.1611 2.02195C19.4029 2.73083 20.4776 3.63884 21.3839 4.74513C22.2313 5.77952 22.881 6.92624 23.3282 8.18666C23.6432 9.07504 23.8479 9.98813 23.9332 10.9274C23.9489 11.101 23.9643 11.2746 23.9797 11.4482V12.5978C23.9751 12.6254 23.969 12.6528 23.9663 12.6807C23.9359 12.9972 23.9179 13.3156 23.8736 13.6303C23.6814 14.9971 23.2559 16.2884 22.5953 17.5012C21.9014 18.775 20.9997 19.88 19.8917 20.8154C18.8925 21.6591 17.7811 22.3145 16.5583 22.7801C15.395 23.223 14.1904 23.4678 12.9477 23.5174C12.3253 23.5423 11.7036 23.5177 11.0838 23.4414C9.83374 23.2873 8.64117 22.94 7.5073 22.393C6.17752 21.7515 5.0137 20.8854 4.01366 19.7986C3.33828 19.0645 2.76661 18.2573 2.30169 17.3757C1.49773 15.851 1.06174 14.225 0.98764 12.5042C0.953972 11.7231 0.999483 10.9445 1.12688 10.1719C1.35071 8.81535 1.79938 7.53818 2.48102 6.34408C3.1899 5.10244 4.09808 4.02796 5.2042 3.12181C6.24079 2.27268 7.39039 1.62217 8.65369 1.17502C9.53953 0.86152 10.4501 0.657823 11.3865 0.573062C11.5657 0.55682 11.745 0.541932 11.9243 0.526367L11.9245 0.526536ZM12.4828 18.0543C13.9339 18.0543 15.385 18.0534 16.8361 18.056C16.9381 18.0562 17.0185 18.0286 17.0983 17.9658C17.5091 17.6422 17.8904 17.2874 18.2234 16.8842C19.6395 15.1702 20.2255 13.2057 19.934 11.002C19.6824 9.1011 18.8049 7.51669 17.3394 6.28453C15.5999 4.82211 13.5813 4.25568 11.3342 4.5905C9.43142 4.87422 7.85954 5.7851 6.65055 7.27798C5.25124 9.00585 4.71628 10.9932 5.05278 13.1898C5.35308 15.1509 6.32301 16.7372 7.87426 17.9709C7.94904 18.0304 8.02534 18.0558 8.12127 18.0556C9.57523 18.0533 11.029 18.054 12.483 18.0541L12.4828 18.0543ZM11.6716 20.2295C11.6712 19.7158 11.3014 19.3541 10.7712 19.3489C10.2496 19.3438 9.86216 19.7204 9.8625 20.2324C9.86284 20.7404 10.2428 21.1109 10.7656 21.113C11.2951 21.115 11.6719 20.7475 11.6716 20.2295ZM16.9682 21.0784C16.9613 21.0421 16.9603 21.025 16.9547 21.0098C16.7598 20.4907 16.5639 19.972 16.3696 19.4528C16.3498 19.3996 16.3165 19.3788 16.2614 19.3795C16.1375 19.3812 16.0135 19.3832 15.8898 19.3785C15.8149 19.3756 15.7799 19.4078 15.7547 19.4756C15.5686 19.9769 15.3791 20.477 15.1911 20.9776C15.1808 21.0052 15.1747 21.0345 15.1669 21.062C15.183 21.0705 15.1901 21.0776 15.1975 21.0778C15.2847 21.0796 15.372 21.0817 15.4591 21.0813C15.6633 21.0805 15.6354 21.0999 15.6948 20.9189C15.7156 20.8555 15.7503 20.8286 15.8173 20.8299C15.9776 20.8328 16.1382 20.8341 16.2986 20.8292C16.3795 20.8269 16.4268 20.8538 16.4436 20.9345C16.4503 20.9673 16.4617 21.0005 16.4779 21.0294C16.4891 21.0492 16.5121 21.0757 16.5304 21.0763C16.6725 21.0801 16.8148 21.0784 16.968 21.0784H16.9682ZM12.0118 20.2263C12.0118 20.4741 12.0118 20.722 12.0118 20.9698C12.0118 20.9754 12.0123 20.9812 12.0118 20.9868C12.0057 21.0546 12.0345 21.0852 12.1045 21.0822C12.1861 21.0788 12.268 21.0783 12.3495 21.0822C12.425 21.0859 12.448 21.0517 12.4463 20.981C12.4431 20.8543 12.4476 20.7276 12.4449 20.6008C12.4434 20.532 12.4711 20.5046 12.5398 20.5061C12.6552 20.5086 12.7709 20.509 12.8862 20.5054C13.1707 20.4965 13.3785 20.3384 13.4355 20.0913C13.5252 19.7028 13.2809 19.3866 12.8823 19.3805C12.6259 19.3766 12.3696 19.3815 12.1133 19.3783C12.0358 19.3773 12.0096 19.4064 12.0105 19.4825C12.0135 19.7304 12.0116 19.9782 12.0116 20.2261L12.0118 20.2263ZM13.7683 20.2269C13.7683 20.4802 13.7695 20.7335 13.7676 20.9868C13.7671 21.0546 13.7923 21.085 13.862 21.082C13.9378 21.0788 14.0141 21.0779 14.0899 21.0822C14.1691 21.0866 14.1936 21.0504 14.1919 20.9763C14.1889 20.8497 14.1924 20.723 14.1912 20.5963C14.1907 20.5328 14.2173 20.5046 14.2826 20.5059C14.398 20.5083 14.5135 20.5098 14.6287 20.5049C14.8091 20.4973 14.9769 20.4506 15.0891 20.2968C15.2288 20.1053 15.2439 19.8947 15.1464 19.6815C15.05 19.4707 14.8654 19.3878 14.6463 19.3815C14.3877 19.3743 14.1285 19.3814 13.8696 19.3782C13.7913 19.3771 13.7664 19.4088 13.7673 19.4836C13.77 19.7312 13.7683 19.9789 13.7684 20.2266L13.7683 20.2269ZM7.98558 20.1158C7.98253 20.4743 8.06154 20.6859 8.23986 20.8592C8.42004 21.0345 8.64218 21.1069 8.88496 21.1101C9.18645 21.1141 9.43142 20.9964 9.59841 20.7353C9.63207 20.6827 9.62954 20.6508 9.5688 20.6249C9.50417 20.5973 9.44039 20.5667 9.37898 20.5327C9.31198 20.4956 9.26765 20.5014 9.21639 20.568C9.11403 20.701 8.97395 20.7555 8.80511 20.7203C8.53729 20.6645 8.3769 20.4134 8.42986 20.1315C8.46369 19.9515 8.56283 19.8231 8.73709 19.76C8.89596 19.7026 9.04196 19.7277 9.17003 19.8409C9.21301 19.8788 9.25175 19.9453 9.2976 19.9502C9.35123 19.9559 9.41078 19.9092 9.46729 19.8845C9.49301 19.8732 9.51804 19.8603 9.54325 19.8478C9.64138 19.7994 9.64578 19.7884 9.58318 19.6998C9.38625 19.4205 9.11133 19.3272 8.78007 19.3601C8.31058 19.4064 7.98592 19.7586 7.98558 20.1158ZM7.97881 3.89414C7.97357 3.90056 7.96849 3.90699 7.96325 3.91342C7.86343 3.87214 7.76344 3.8312 7.66379 3.78941C7.50544 3.72292 7.34691 3.65677 7.18923 3.58859C7.10853 3.55374 7.04915 3.59925 7.00245 3.64831C6.98689 3.66455 7.00854 3.72986 7.02834 3.76386C7.16961 4.00732 7.31527 4.24841 7.45857 4.49085C7.49021 4.54431 7.51288 4.59337 7.59274 4.54465C7.66633 4.49964 7.65263 4.45972 7.61676 4.40118C7.521 4.24519 7.42897 4.087 7.33592 3.92933C7.3212 3.90429 7.30935 3.87772 7.29616 3.85184C7.30106 3.84643 7.3058 3.84101 7.31071 3.83577C7.43387 3.88788 7.55738 3.93965 7.68037 3.99209C7.82029 4.05165 7.96088 4.10984 8.09927 4.17244C8.17963 4.20882 8.23986 4.16821 8.2869 4.11864C8.30111 4.10358 8.27421 4.03845 8.25374 4.00343C8.10756 3.75287 7.95682 3.50518 7.81115 3.25428C7.77613 3.19405 7.74365 3.19388 7.68985 3.22704C7.63909 3.25834 7.61338 3.2844 7.65246 3.34598C7.73231 3.47185 7.80574 3.60196 7.88187 3.73037C7.91418 3.78501 7.94633 3.83966 7.97864 3.8943L7.97881 3.89414ZM5.13991 5.71777C5.1433 5.70948 5.14668 5.70119 5.15006 5.6929C5.29472 5.70812 5.43954 5.72335 5.58419 5.73874C5.72969 5.75414 5.87518 5.76886 6.02051 5.78544C6.10138 5.79474 6.13843 5.73502 6.16821 5.68139C6.17735 5.66498 6.13725 5.61186 6.10967 5.58631C5.89701 5.38938 5.68181 5.19533 5.46745 5.00009C5.43175 4.96761 5.40046 4.92599 5.35105 4.98605C5.31146 5.03409 5.27238 5.07081 5.34243 5.1307C5.48132 5.24947 5.6138 5.37585 5.74813 5.50003C5.76843 5.51881 5.7845 5.54198 5.81462 5.57734C5.77181 5.57531 5.7527 5.57531 5.73375 5.57345C5.47337 5.54723 5.213 5.5227 4.95296 5.49343C4.86989 5.48412 4.83318 5.54198 4.80544 5.59561C4.79427 5.6171 4.82692 5.67513 4.85433 5.70085C5.06344 5.89744 5.2778 6.08845 5.48691 6.28504C5.54697 6.34155 5.58605 6.33444 5.63968 6.27692C5.69906 6.2133 5.65119 6.1842 5.61193 6.14817C5.59958 6.13666 5.58588 6.12668 5.57336 6.11518C5.42888 5.98271 5.28439 5.85024 5.13991 5.71777ZM21.6204 13.6386C21.6197 13.6296 21.6192 13.6208 21.6186 13.6119C21.7069 13.5637 21.7952 13.5151 21.8837 13.4674C22.0398 13.3831 22.1953 13.2977 22.3526 13.216C22.4284 13.1766 22.4234 13.106 22.4257 13.0404C22.4262 13.0241 22.3936 12.9945 22.3731 12.9915C22.0671 12.9443 21.7605 12.9005 21.4541 12.856C21.3883 12.8465 21.3653 12.8796 21.3575 12.9414C21.3497 13.0028 21.3687 13.028 21.4304 13.036C21.623 13.061 21.8152 13.0903 22.0072 13.1185C22.0319 13.1223 22.0559 13.1302 22.0803 13.1363C21.9999 13.2008 21.9192 13.2453 21.8378 13.2887C21.6639 13.3814 21.4902 13.4743 21.3156 13.5659C21.2509 13.5997 21.2491 13.6613 21.2501 13.7188C21.2504 13.7384 21.2858 13.7709 21.3088 13.7745C21.6147 13.8222 21.9214 13.8656 22.2278 13.9103C22.2855 13.9188 22.311 13.8892 22.3173 13.8357C22.3235 13.7829 22.3175 13.7401 22.251 13.7322C22.1755 13.723 22.1006 13.7098 22.0254 13.6985C21.8904 13.6784 21.7554 13.6586 21.6204 13.6384V13.6386ZM2.95914 10.2813C2.95778 10.2739 2.95626 10.2664 2.95491 10.259C2.97893 10.2466 3.00245 10.2333 3.02715 10.2221C3.17586 10.1549 3.32508 10.0886 3.47379 10.0216C3.5687 9.97882 3.66937 9.94465 3.75514 9.8878C3.79507 9.86141 3.81047 9.79187 3.82536 9.73875C3.82857 9.72742 3.78424 9.6907 3.75768 9.68478C3.46381 9.61948 3.16892 9.55874 2.87471 9.49496C2.8045 9.47973 2.77862 9.51205 2.76525 9.57498C2.75206 9.63741 2.77659 9.66025 2.83512 9.67192C3.01446 9.70745 3.19312 9.74721 3.37177 9.78595C3.398 9.79171 3.42371 9.8005 3.46973 9.81387C3.43082 9.83637 3.41086 9.85007 3.3892 9.86006C3.22543 9.935 3.06132 10.0091 2.89738 10.0835C2.82311 10.1172 2.7397 10.1397 2.67795 10.1891C2.63735 10.2218 2.62415 10.2923 2.60757 10.3485C2.60419 10.3603 2.63718 10.3952 2.65782 10.3998C2.96269 10.4673 3.26823 10.5317 3.57378 10.5963C3.6198 10.6062 3.64771 10.5887 3.66176 10.5415C3.6873 10.4559 3.67664 10.4358 3.58444 10.4158C3.376 10.3708 3.1674 10.3262 2.95897 10.2813H2.95914ZM3.14794 13.0404C2.85221 13.0409 2.63261 13.2211 2.61011 13.5134C2.59861 13.6645 2.6343 13.82 2.65461 13.9727C2.66949 14.0854 2.67372 14.0849 2.78251 14.0683C2.8243 14.0619 2.86592 14.0551 2.90754 14.0484C3.15201 14.0088 3.39648 13.9694 3.64078 13.9289C3.68426 13.9218 3.73721 13.9211 3.72486 13.8519C3.69813 13.7026 3.68206 13.5499 3.64128 13.4045C3.57835 13.1799 3.37719 13.04 3.14778 13.0404H3.14794ZM19.3463 6.16035C19.3447 6.46488 19.5966 6.72745 19.8902 6.72711C20.1896 6.72678 20.4593 6.46539 20.4622 6.17287C20.4652 5.86766 20.2155 5.6039 19.9218 5.60238C19.618 5.60086 19.3476 5.86293 19.3461 6.16035H19.3463ZM19.0945 5.44098C19.1299 5.45062 19.1536 5.45672 19.1771 5.46365C19.3021 5.50036 19.4109 5.47194 19.5024 5.38007C19.6222 5.25995 19.6425 5.07977 19.5322 4.95086C19.4248 4.82515 19.3002 4.71383 19.1789 4.60098C19.1659 4.5888 19.113 4.59777 19.0965 4.61452C18.8778 4.8375 18.6631 5.06438 18.4455 5.28855C18.3924 5.34336 18.4367 5.37043 18.4684 5.40579C18.5051 5.44673 18.5371 5.45655 18.579 5.41002C18.6374 5.34522 18.6995 5.28381 18.7627 5.22375C18.7786 5.20869 18.8077 5.19313 18.8264 5.19736C18.8905 5.21208 18.9473 5.31697 18.9321 5.38481C18.9111 5.4782 18.8886 5.57108 18.8661 5.66413C18.838 5.78104 18.8678 5.83433 18.9959 5.88035C19.0284 5.7357 19.0607 5.59189 19.0945 5.44115V5.44098ZM4.6596 7.25514C4.95838 7.25649 5.20945 7.00221 5.20995 6.69768C5.21046 6.40313 4.94552 6.14377 4.642 6.14123C4.34086 6.13886 4.08353 6.39873 4.08404 6.70512C4.08454 6.99561 4.35456 7.25361 4.65943 7.25497L4.6596 7.25514ZM21.9375 11.4983C21.6118 11.4971 21.3809 11.7184 21.3782 12.0342C21.3754 12.3604 21.6089 12.5952 21.9353 12.5946C22.2601 12.5941 22.4895 12.3648 22.4895 12.0408C22.4895 11.7209 22.2643 11.4996 21.9373 11.4983H21.9375ZM3.52032 11.897C3.48682 11.9167 3.46043 11.9305 3.43556 11.9469C3.35333 12.0011 3.27111 12.0554 3.1899 12.111C3.14794 12.1398 3.12358 12.1337 3.09804 12.0865C3.01615 11.9356 2.88402 11.8772 2.72566 11.9155C2.57221 11.9525 2.47662 12.074 2.47629 12.2435C2.47595 12.3728 2.48711 12.5019 2.48796 12.6311C2.48847 12.7071 2.51926 12.7358 2.59505 12.7335C2.89011 12.7243 3.18533 12.7184 3.48056 12.7118C3.53148 12.7106 3.5704 12.6991 3.56481 12.6353C3.55974 12.5778 3.54908 12.5286 3.47379 12.531C3.39225 12.5335 3.31053 12.5355 3.22915 12.5308C3.20378 12.5293 3.16757 12.511 3.15725 12.4902C3.12274 12.42 3.15184 12.3389 3.21985 12.2946C3.29057 12.2486 3.3623 12.2041 3.43319 12.1584C3.54654 12.0855 3.55974 12.0495 3.52015 11.8969L3.52032 11.897ZM11.7256 2.71543C11.746 2.69953 11.756 2.69023 11.7675 2.68329C11.9211 2.58956 11.9756 2.45489 11.9269 2.28943C11.8831 2.14072 11.769 2.06086 11.5907 2.06678C11.4645 2.07084 11.3385 2.08692 11.2126 2.09876C11.0975 2.10959 11.0896 2.11754 11.1004 2.23343C11.1273 2.51901 11.1568 2.80442 11.1847 3.09001C11.1901 3.14465 11.2084 3.18221 11.2733 3.17511C11.3312 3.16868 11.3704 3.14736 11.3642 3.08019C11.3566 2.99899 11.3481 2.91778 11.3437 2.8364C11.3425 2.81356 11.3466 2.78192 11.3611 2.76839C11.4087 2.72423 11.5323 2.74284 11.5729 2.79681C11.6339 2.87785 11.6927 2.96024 11.7531 3.04162C11.814 3.12367 11.8885 3.13721 11.999 3.07782C11.9079 2.95737 11.8178 2.83792 11.7256 2.71577V2.71543ZM4.65063 16.3709C4.65249 16.2711 4.57822 16.222 4.50192 16.2594C4.41598 16.3016 4.32902 16.3422 4.24493 16.3878C4.18538 16.4203 4.14883 16.4134 4.11923 16.3479C4.06357 16.2247 4.00435 16.1031 3.94226 15.9831C3.91249 15.9256 3.92923 15.8972 3.98354 15.8722C4.07812 15.8287 4.16931 15.7773 4.26439 15.7348C4.33341 15.704 4.317 15.6644 4.29298 15.613C4.26743 15.5585 4.23952 15.5436 4.18183 15.5725C3.90995 15.7087 3.63672 15.8426 3.36281 15.9749C3.30968 16.0006 3.28955 16.0266 3.32034 16.085C3.34893 16.1391 3.37431 16.1745 3.44266 16.138C3.52692 16.0928 3.61523 16.0551 3.70118 16.0129C3.7455 15.9913 3.7746 16.0009 3.79643 16.0461C3.85885 16.1755 3.92196 16.3044 3.9871 16.4325C4.01213 16.4819 3.99843 16.5098 3.95038 16.5321C3.86088 16.5734 3.77359 16.6196 3.68409 16.6606C3.62572 16.6873 3.63333 16.7238 3.65719 16.77C3.6802 16.8149 3.69678 16.8578 3.76276 16.825C4.04496 16.6839 4.32834 16.5455 4.61087 16.4051C4.62881 16.3963 4.64217 16.3784 4.6508 16.3707L4.65063 16.3709ZM13.7674 3.16072C13.9182 3.23449 13.9513 3.22874 14.0305 3.10202C14.0664 3.04466 14.1063 3.02741 14.1704 3.04399C14.2466 3.06361 14.3239 3.08222 14.4019 3.09085C14.5208 3.10422 14.6095 3.1411 14.6027 3.28288C14.6022 3.29336 14.6062 3.31113 14.6128 3.31384C14.667 3.33634 14.7221 3.35596 14.7769 3.37643C14.7822 3.3409 14.7969 3.30368 14.7913 3.27002C14.7392 2.95635 14.6814 2.6437 14.6308 2.32986C14.6172 2.24612 14.5592 2.23986 14.4985 2.22683C14.4396 2.21414 14.3849 2.20061 14.3452 2.27048C14.298 2.35338 14.2408 2.43087 14.1887 2.51106C14.0493 2.72558 13.9104 2.94028 13.7674 3.16089V3.16072ZM21.0438 14.6168C20.9552 14.7625 20.9545 14.7784 21.0641 14.877C21.1157 14.9234 21.1291 14.9674 21.1017 15.0322C21.0623 15.1254 21.0264 15.2206 20.9973 15.3176C20.9738 15.3956 20.929 15.4235 20.8491 15.4221C20.7244 15.4201 20.6933 15.4568 20.6894 15.5939C20.7014 15.5974 20.7146 15.6045 20.7275 15.6043C21.0736 15.5989 21.4198 15.5944 21.7658 15.5854C21.864 15.5829 21.8463 15.4841 21.8786 15.4277C21.9043 15.3829 21.883 15.3504 21.847 15.3186C21.6043 15.1042 21.3634 14.8882 21.1215 14.6732C21.0992 14.6534 21.0731 14.6378 21.0438 14.6167V14.6168ZM8.83031 2.70444C8.80511 2.71188 8.79394 2.71391 8.78379 2.71831C8.59786 2.79901 8.41209 2.88056 8.22599 2.96092C8.17202 2.98427 8.17743 3.02064 8.19672 3.06463C8.31989 3.34581 8.44271 3.62699 8.56436 3.90885C8.58381 3.95369 8.60953 3.96976 8.65622 3.94929C8.83928 3.8691 9.02251 3.7889 9.20641 3.7104C9.26105 3.68705 9.2553 3.65271 9.23669 3.60788C9.21639 3.55949 9.19067 3.54291 9.13924 3.5671C9.0604 3.60449 8.9792 3.63664 8.899 3.67149C8.68465 3.76488 8.68685 3.7642 8.60259 3.54697C8.57925 3.48657 8.59718 3.4595 8.65081 3.43717C8.7601 3.39183 8.86736 3.34192 8.97666 3.29675C9.03147 3.27408 9.0714 3.25394 9.03926 3.18018C9.00525 3.10253 8.95923 3.1301 8.90932 3.15193C8.83708 3.18373 8.76569 3.21723 8.6926 3.24667C8.49736 3.32551 8.52578 3.36713 8.42529 3.13941C8.39839 3.07816 8.40955 3.04906 8.47131 3.02436C8.59667 2.97395 8.72034 2.91913 8.84216 2.86076C8.86111 2.85163 8.87904 2.81271 8.87549 2.79089C8.87058 2.75959 8.84554 2.73151 8.83014 2.7041L8.83031 2.70444ZM20.9241 7.96503C20.9445 7.98973 20.9675 8.00885 20.9796 8.03338C21.0347 8.14741 21.0878 8.26262 21.1393 8.37835C21.1589 8.42267 21.178 8.4511 21.2335 8.42453C21.2843 8.40017 21.3125 8.37327 21.2841 8.31406C21.2452 8.23285 21.209 8.15012 21.1716 8.06823C21.0855 7.8801 21.0596 7.90717 21.2743 7.80549C21.3326 7.77791 21.3661 7.7884 21.3925 7.84965C21.4446 7.97129 21.5035 8.08989 21.5577 8.21069C21.5842 8.27007 21.623 8.25738 21.6688 8.23792C21.717 8.21745 21.7216 8.18903 21.7008 8.14437C21.6174 7.96571 21.5353 7.78654 21.4543 7.60687C21.4347 7.56356 21.4106 7.54512 21.3626 7.56728C21.0789 7.6984 20.7948 7.82901 20.5102 7.95843C20.4607 7.98093 20.4522 8.00986 20.475 8.05859C20.5561 8.232 20.6356 8.40626 20.7128 8.58154C20.7375 8.63737 20.7662 8.65107 20.8236 8.62366C20.8792 8.59693 20.8808 8.56546 20.8574 8.51606C20.8017 8.39916 20.7479 8.28123 20.6974 8.16196C20.6872 8.13794 20.6843 8.08837 20.6965 8.08109C20.7657 8.03896 20.8407 8.00597 20.9242 7.96469L20.9241 7.96503ZM3.13187 10.9738C3.13187 10.9601 3.13086 10.9515 3.13204 10.9432C3.14033 10.8872 3.12595 10.8513 3.06115 10.845C2.99094 10.8383 2.98316 10.8811 2.97893 10.9332C2.97132 11.0229 2.96235 11.1124 2.95305 11.202C2.9346 11.3802 2.9346 11.3766 2.75747 11.3678C2.67457 11.3638 2.64902 11.3281 2.65697 11.2513C2.66916 11.1338 2.67728 11.0159 2.68912 10.8983C2.69538 10.8362 2.6722 10.8019 2.60791 10.7963C2.54193 10.7906 2.53449 10.8374 2.53042 10.8831C2.51334 11.0736 2.49896 11.2644 2.4817 11.4549C2.47696 11.5064 2.49811 11.526 2.54717 11.5299C2.85847 11.5554 3.1696 11.5818 3.48056 11.6091C3.52607 11.613 3.54959 11.5964 3.55348 11.5502C3.56989 11.3539 3.58748 11.1579 3.60373 10.9616C3.60762 10.9137 3.59408 10.879 3.53639 10.8762C3.48428 10.8735 3.45654 10.8944 3.45146 10.9464C3.443 11.0332 3.4298 11.1198 3.42659 11.2066C3.41796 11.4387 3.42321 11.4267 3.1833 11.4022C3.11056 11.3947 3.09482 11.3619 3.1026 11.2964C3.11546 11.1875 3.12257 11.078 3.1317 10.9738H3.13187ZM3.16892 8.35686C3.16943 8.5521 3.26045 8.66833 3.41339 8.69777C3.53791 8.72162 3.62369 8.65276 3.69813 8.56834C3.75937 8.4988 3.81199 8.42166 3.87205 8.35094C3.91722 8.29798 3.97068 8.25366 4.04783 8.28936C4.11297 8.31947 4.13987 8.39865 4.1172 8.48713C4.08658 8.60742 4.01839 8.70149 3.91181 8.76459C3.85936 8.79555 3.83737 8.82415 3.87543 8.88437C3.91418 8.94562 3.95343 8.9463 4.00723 8.90891C4.18318 8.78625 4.27572 8.6152 4.28993 8.40457C4.29873 8.27379 4.21905 8.15807 4.104 8.10867C3.9871 8.05842 3.8707 8.08126 3.77274 8.18074C3.71962 8.23471 3.67444 8.29612 3.62504 8.35381C3.59036 8.39425 3.55889 8.43908 3.51846 8.47292C3.43945 8.53873 3.34454 8.49914 3.33574 8.39628C3.33202 8.35331 3.33489 8.29984 3.35722 8.26652C3.40629 8.19326 3.46195 8.12 3.52996 8.06536C3.59137 8.01595 3.55314 7.98601 3.53334 7.94574C3.50881 7.896 3.47548 7.89127 3.43133 7.92172C3.26688 8.03456 3.18398 8.19275 3.16892 8.35703V8.35686ZM18.7379 4.37885C18.745 4.37445 18.7521 4.37022 18.7592 4.36582C18.7189 4.2951 18.6922 4.20983 18.6353 4.15671C18.5206 4.04962 18.3894 3.96046 18.2657 3.86267C18.2278 3.83255 18.2014 3.84186 18.1743 3.87756C17.9859 4.12676 17.7976 4.37614 17.6069 4.62349C17.5639 4.67932 17.5922 4.70672 17.6346 4.73938C17.6778 4.77237 17.7135 4.79132 17.7534 4.73379C17.8014 4.66443 17.8559 4.59946 17.9053 4.53111C17.939 4.48476 17.9732 4.48036 18.0183 4.51572C18.0848 4.56766 18.1513 4.62027 18.2222 4.66595C18.3296 4.73515 18.4474 4.74445 18.5594 4.68355C18.6766 4.61976 18.7362 4.51402 18.7379 4.37885ZM10.4196 2.23444C10.3078 2.25881 10.1457 2.29315 9.98415 2.32986C9.93221 2.34171 9.93322 2.38045 9.9427 2.42342C10.0097 2.72271 10.077 3.02199 10.1411 3.32196C10.156 3.39149 10.196 3.38591 10.2474 3.37525C10.3024 3.36391 10.3344 3.34361 10.3169 3.27848C10.2958 3.19981 10.2828 3.11894 10.2633 3.03959C10.2489 2.98122 10.2657 2.95128 10.3272 2.93825C10.4233 2.91778 10.5216 2.89917 10.612 2.86245C10.7685 2.79918 10.8358 2.65385 10.7991 2.49042C10.7615 2.32259 10.6458 2.23208 10.4195 2.23444H10.4196ZM13.235 2.92607C13.2179 2.87886 13.2074 2.8545 13.2002 2.82912C13.1406 2.62069 13.0816 2.41209 13.0222 2.20348C13.0107 2.16288 13.0009 2.12143 12.9856 2.08218C12.9667 2.03345 12.8525 1.98997 12.8124 2.02483C12.7928 2.04191 12.7955 2.09961 12.8055 2.13378C12.8929 2.43374 12.985 2.73252 13.0739 3.03198C13.0907 3.08831 13.1132 3.13129 13.1817 3.12723C13.2524 3.123 13.3274 3.15886 13.3741 3.0582C13.5091 2.76703 13.6546 2.48094 13.7953 2.19232C13.8068 2.16863 13.8133 2.14258 13.8221 2.11771C13.6676 2.06137 13.6441 2.06949 13.5827 2.19892C13.4969 2.37943 13.4127 2.56063 13.327 2.74132C13.301 2.7963 13.2727 2.85044 13.235 2.9259V2.92607ZM4.02652 17.2689C4.02381 17.2696 4.0211 17.2703 4.01839 17.271C4.03176 17.3309 4.03582 17.3948 4.06001 17.4498C4.1468 17.6459 4.29399 17.776 4.51123 17.7992C4.74047 17.8237 4.92556 17.7317 5.05278 17.5398C5.25546 17.2339 5.07224 16.7741 4.72677 16.7142C4.68312 16.7066 4.62289 16.6853 4.61037 16.7561C4.59971 16.8164 4.61832 16.8612 4.69175 16.8795C4.74944 16.8937 4.80848 16.9243 4.85365 16.9631C4.98206 17.0732 5.00558 17.26 4.91879 17.4092C4.81999 17.5792 4.60868 17.6645 4.43272 17.6051C4.26845 17.5498 4.17167 17.3977 4.2001 17.2138C4.21397 17.1241 4.16068 17.0979 4.10231 17.0864C4.03024 17.0722 4.04343 17.1437 4.03261 17.1849C4.0255 17.2114 4.02804 17.2407 4.02635 17.2688L4.02652 17.2689ZM21.9667 9.53742C22.0478 9.44488 22.0865 9.33457 22.077 9.21327C22.0415 8.75969 21.5886 8.53197 21.2032 8.77373C21.0308 8.88184 20.9523 9.04865 20.9608 9.24693C20.9692 9.44606 21.0482 9.61457 21.2386 9.70661C21.2682 9.72082 21.3286 9.72065 21.3458 9.70119C21.3883 9.65348 21.3668 9.58564 21.3101 9.55637C21.2225 9.5112 21.1645 9.44251 21.1376 9.34811C21.089 9.17774 21.1633 9.00669 21.3228 8.91906C21.4984 8.82245 21.7042 8.84546 21.8189 8.98115C21.9104 9.08926 21.9459 9.21191 21.8855 9.3498C21.8407 9.45232 21.8512 9.4777 21.9667 9.53725V9.53742ZM15.8993 3.53834C15.8305 3.42245 15.8181 3.42313 15.7031 3.4595C15.6438 3.47828 15.5741 3.4864 15.5139 3.47507C15.3466 3.4436 15.226 3.28643 15.2239 3.11589C15.2217 2.92979 15.3493 2.75384 15.5202 2.70748C15.6866 2.66231 15.8387 2.72914 15.9279 2.89629C15.9677 2.97073 16.0235 2.94688 16.072 2.9286C16.1345 2.90526 16.0966 2.85619 16.08 2.82236C15.981 2.61968 15.8085 2.53914 15.5917 2.53796C15.2782 2.53627 15.0449 2.77448 15.04 3.09948C15.0358 3.38777 15.2968 3.64933 15.5924 3.65C15.7054 3.65017 15.8069 3.61397 15.8993 3.53851V3.53834ZM20.2864 16.4166C20.2959 16.4689 20.3006 16.5227 20.3165 16.5729C20.3275 16.6076 20.329 16.6743 20.3901 16.6496C20.4394 16.6296 20.5001 16.6051 20.4749 16.5198C20.4263 16.3552 20.4769 16.2148 20.6052 16.1246C20.7386 16.0307 20.9237 16.0354 21.0648 16.1361C21.2076 16.2379 21.2672 16.3875 21.2269 16.5396C21.1939 16.6636 21.1193 16.7485 20.9956 16.7864C20.9183 16.8101 20.9286 16.8724 20.9405 16.925C20.9554 16.9911 21.009 16.9571 21.0444 16.947C21.2063 16.9008 21.3076 16.7874 21.3644 16.6348C21.4465 16.4142 21.4133 16.2131 21.2438 16.0432C21.0826 15.8816 20.8319 15.8322 20.6261 15.9177C20.4314 15.9985 20.2933 16.2046 20.2862 16.4166H20.2864ZM16.4123 2.83488C16.4123 2.86296 16.4092 2.89037 16.4128 2.91693C16.4361 3.09542 16.4651 3.2734 16.4825 3.45257C16.4884 3.51347 16.4752 3.58064 16.4544 3.63884C16.4251 3.72055 16.3832 3.79821 16.3414 3.87468C16.3047 3.94184 16.3284 3.97281 16.3911 4.00444C16.4563 4.03726 16.4815 4.0129 16.5057 3.95707C16.538 3.88212 16.5688 3.80531 16.6123 3.73696C16.6485 3.68012 16.6943 3.62226 16.7498 3.58605C16.9029 3.48623 17.0636 3.39792 17.2208 3.30453C17.2431 3.29133 17.2636 3.27492 17.2876 3.25817C17.1636 3.15683 17.135 3.1543 17.0183 3.22586C16.9295 3.28034 16.841 3.33515 16.7513 3.38828C16.7239 3.40452 16.6938 3.41585 16.6556 3.43379C16.6476 3.3969 16.6408 3.37339 16.6376 3.3492C16.6224 3.23195 16.6089 3.11454 16.5935 2.99746C16.5788 2.88665 16.5409 2.8523 16.4124 2.83505L16.4123 2.83488ZM19.9078 16.9955C19.8971 16.9993 19.8888 17.0008 19.8819 17.0048C19.8075 17.0471 19.8012 17.1373 19.8717 17.186C20.0732 17.3251 20.2751 17.4638 20.4786 17.5999C20.5321 17.6356 20.5454 17.6694 20.503 17.7222C20.4713 17.7616 20.4459 17.8059 20.4158 17.8467C20.3852 17.8883 20.3615 17.9223 20.4221 17.9645C20.4827 18.0066 20.5135 17.9897 20.55 17.9347C20.6713 17.7518 20.7955 17.5706 20.9212 17.3908C20.954 17.3437 20.9643 17.3116 20.9077 17.2738C20.8557 17.2392 20.8226 17.2436 20.7916 17.2974C20.7691 17.3363 20.7386 17.3706 20.717 17.4099C20.6767 17.4831 20.6332 17.4919 20.5627 17.4415C20.3681 17.3024 20.169 17.1698 19.9714 17.0348C19.9507 17.0206 19.9288 17.0084 19.9079 16.9957L19.9078 16.9955ZM21.2472 7.21673C21.2369 7.19237 21.2337 7.18154 21.2279 7.17207C21.1047 6.96719 20.9812 6.76264 20.8581 6.55776C20.8302 6.51124 20.796 6.52088 20.7578 6.54338C20.7187 6.56639 20.6968 6.5938 20.7236 6.63914C20.7522 6.68753 20.7775 6.73845 20.8109 6.78345C20.8559 6.84436 20.8412 6.88039 20.7787 6.91694C20.5701 7.03926 20.3647 7.16716 20.1561 7.28914C20.0961 7.32433 20.0763 7.35462 20.1169 7.42144C20.1582 7.48929 20.1949 7.4815 20.2527 7.44564C20.4461 7.32535 20.642 7.20929 20.8373 7.0917C20.9151 7.0449 20.9768 7.05939 21.0225 7.13519C21.0472 7.17613 21.0692 7.21927 21.0987 7.25649C21.1105 7.27155 21.1442 7.28525 21.1591 7.27882C21.192 7.26461 21.2195 7.23737 21.2472 7.21673ZM22.1336 10.3131C22.1462 10.3306 22.1715 10.3519 22.1791 10.3783C22.1953 10.4348 22.2048 10.4935 22.2129 10.552C22.221 10.6094 22.2491 10.6259 22.3056 10.617C22.3652 10.6075 22.379 10.5777 22.3687 10.5231C22.3268 10.302 22.2857 10.0808 22.2461 9.85938C22.2357 9.80186 22.2143 9.77732 22.1498 9.79018C22.0875 9.8027 22.0803 9.83569 22.0904 9.88679C22.1004 9.93636 22.1058 9.98711 22.1188 10.0358C22.1383 10.1088 22.1089 10.1363 22.0385 10.1485C21.7974 10.1903 21.5575 10.2385 21.3164 10.2805C21.2568 10.2908 21.232 10.3123 21.244 10.3747C21.2558 10.436 21.2765 10.4733 21.3499 10.458C21.4764 10.4314 21.6042 10.4099 21.7314 10.3866C21.8586 10.3632 21.9859 10.34 22.1336 10.3131ZM6.92158 5.00618C6.88707 4.98232 6.85696 4.95424 6.82126 4.94003C6.80485 4.93343 6.77355 4.94866 6.75612 4.9627C6.68168 5.02276 6.60944 5.08553 6.5372 5.14829C6.44821 5.22544 6.44483 5.22443 6.36565 5.13188C6.21034 4.95001 6.05333 4.76949 5.89819 4.58745C5.86097 4.54363 5.82646 4.54008 5.78518 4.58102C5.751 4.61486 5.70685 4.64294 5.75523 4.6986C5.96164 4.93681 6.16719 5.1757 6.37275 5.41459C6.40287 5.44961 6.42943 5.45079 6.46496 5.41966C6.59844 5.30293 6.73396 5.18856 6.86795 5.0725C6.88183 5.06049 6.89147 5.04374 6.92142 5.00618H6.92158ZM3.76936 14.6282C3.74533 14.6439 3.71945 14.6705 3.68849 14.6796C3.45078 14.7501 3.21257 14.819 2.97369 14.8848C2.90686 14.9032 2.90026 14.9376 2.91667 14.9973C2.93376 15.0592 2.96134 15.0792 3.02579 15.0601C3.31476 14.9745 3.60457 14.8916 3.89472 14.8095C3.9492 14.7941 3.97796 14.7738 3.958 14.7092C3.90978 14.553 3.86562 14.3957 3.82282 14.238C3.80675 14.1788 3.78306 14.1524 3.71556 14.172C3.64636 14.1922 3.65516 14.2319 3.67021 14.2822C3.70236 14.3901 3.73247 14.4987 3.76953 14.6282H3.76936ZM7.25335 4.77761C7.2383 4.74885 7.23136 4.73024 7.22002 4.71484C7.03578 4.46327 6.85036 4.21254 6.66696 3.96029C6.62687 3.90513 6.59337 3.92933 6.55496 3.95876C6.51893 3.98651 6.47629 4.00766 6.51842 4.06467C6.70571 4.3176 6.89062 4.57222 7.07926 4.82397C7.09297 4.84224 7.13526 4.85645 7.15489 4.84884C7.19109 4.83463 7.22036 4.80282 7.25318 4.77778L7.25335 4.77761ZM4.13141 15.2272C4.13141 15.1213 4.07338 15.079 3.99031 15.1091C3.9294 15.1311 3.86901 15.154 3.80844 15.1768C3.58731 15.2599 3.36653 15.344 3.14473 15.4255C3.08061 15.449 3.08602 15.4881 3.10582 15.539C3.12392 15.5857 3.14135 15.6202 3.20276 15.5969C3.4946 15.4859 3.78729 15.3775 4.07913 15.2663C4.10163 15.2577 4.1194 15.2364 4.13141 15.2271V15.2272ZM12.4657 2.58076C12.4623 2.58076 12.459 2.58076 12.4556 2.58076C12.4556 2.42038 12.4566 2.25982 12.4551 2.09944C12.4544 2.03329 12.4135 2.01586 12.3529 2.01874C12.2911 2.02161 12.2788 2.05748 12.2796 2.10874C12.2852 2.40718 12.2908 2.70545 12.295 3.00389C12.2959 3.06632 12.3187 3.09762 12.3854 3.09593C12.4498 3.0944 12.4664 3.05938 12.4659 3.00321C12.4649 2.86245 12.4656 2.72152 12.4656 2.58076H12.4657ZM22.424 11.047C22.4222 10.9946 22.4239 10.9383 22.3462 10.9462C22.0353 10.9779 21.7245 11.0105 21.4135 11.0415C21.3489 11.0479 21.347 11.0856 21.3545 11.1371C21.3622 11.1905 21.3726 11.2252 21.4423 11.2176C21.7473 11.1841 22.0529 11.1546 22.3586 11.1264C22.4132 11.1213 22.4369 11.1017 22.424 11.0472V11.047ZM3.12646 9.03901C3.16554 9.08926 3.18567 9.1192 3.2102 9.14492C3.2234 9.15879 3.24387 9.16539 3.26113 9.17537C3.27026 9.15456 3.28989 9.13172 3.28668 9.11311C3.27043 9.02175 3.11377 8.90298 3.02529 8.92329C2.98637 8.93225 2.94137 8.97218 2.92665 9.00906C2.91616 9.03529 2.94391 9.10194 2.96895 9.11091C3.00465 9.12377 3.05405 9.10245 3.09634 9.09129C3.10582 9.08875 3.11056 9.06794 3.12646 9.03918V9.03901Z" fill="#64758B"/>
<path d="M11.666 11.501C11.666 10.8534 11.666 10.2057 11.666 9.55808C11.666 9.35845 11.741 9.2835 11.9421 9.28316C12.3054 9.28265 12.6686 9.28248 13.0318 9.28316C13.2364 9.28367 13.3134 9.36048 13.3134 9.56367C13.3135 10.8534 13.3135 12.1429 13.3134 13.4326C13.3134 13.6368 13.2357 13.7156 13.0347 13.7158C12.6686 13.7163 12.3025 13.7163 11.9365 13.7158C11.7421 13.7154 11.6662 13.6388 11.6662 13.4437C11.6658 12.7961 11.6662 12.1485 11.6662 11.5008L11.666 11.501Z" fill="#64758B"/>
<path d="M14.2212 12.0691C14.2212 11.6158 14.2208 11.1626 14.2212 10.7092C14.2214 10.5082 14.2968 10.4319 14.4956 10.4315C14.8615 10.431 15.2277 10.431 15.5936 10.4315C15.7951 10.4319 15.876 10.5083 15.878 10.7122C15.8814 11.0501 15.8792 11.3879 15.8794 11.7258C15.8794 12.2748 15.8797 12.8238 15.879 13.3728C15.879 13.4232 15.8775 13.4745 15.8687 13.524C15.8489 13.6379 15.7687 13.7128 15.6537 13.7137C15.2483 13.7166 14.8428 13.7174 14.4374 13.7134C14.3017 13.712 14.2219 13.6135 14.2215 13.4626C14.2205 12.998 14.2212 12.5335 14.221 12.0691H14.2212Z" fill="#64758B"/>
<path d="M9.10018 12.8341C9.10018 12.6315 9.099 12.4286 9.10052 12.2259C9.1017 12.049 9.18274 11.9691 9.36055 11.9688C9.74071 11.9681 10.1209 11.9681 10.501 11.9688C10.6734 11.9691 10.7567 12.0481 10.7575 12.221C10.7597 12.635 10.7597 13.0488 10.7575 13.4628C10.7567 13.6288 10.6653 13.7154 10.4973 13.7158C10.1171 13.7166 9.73699 13.7168 9.35683 13.7158C9.18951 13.7153 9.10255 13.6288 9.10069 13.4593C9.09849 13.2508 9.10018 13.0426 9.10001 12.8341H9.10018Z" fill="#64758B"/>
<path d="M10.8106 10.1403C10.8114 10.6276 10.4106 11.026 9.91984 11.0261C9.42853 11.0261 9.03162 10.6282 9.03315 10.1371C9.03467 9.65255 9.4353 9.24887 9.91442 9.24854C10.4054 9.2482 10.8096 9.65052 10.8106 10.1403Z" fill="#64758B"/>
<path d="M15.0317 9.48969C14.5419 9.48867 14.1533 9.09684 14.1542 8.60519C14.1552 8.11592 14.5592 7.70886 15.0399 7.71292C15.5276 7.71715 15.935 8.12827 15.9316 8.61348C15.9284 9.10073 15.5278 9.4907 15.0316 9.48969H15.0317Z" fill="#64758B"/>
<path d="M12.4771 6.57439C12.9745 6.57422 13.3665 6.96656 13.3658 7.46396C13.3651 7.95848 12.9768 8.341 12.4756 8.34066C11.9797 8.3405 11.5995 7.95932 11.5992 7.46192C11.5988 6.96097 11.9812 6.57439 12.4771 6.57422V6.57439Z" fill="#64758B"/>
<path d="M13.5152 16.2616C13.3472 16.2602 13.1961 16.2159 13.0648 16.1119C12.9966 16.0579 13.0029 16.0432 13.0873 15.931C13.1308 15.8731 13.1592 15.9038 13.1961 15.9332C13.3094 16.0241 13.4402 16.0626 13.5832 16.0416C13.6329 16.0344 13.6877 16.0112 13.7244 15.9777C13.7906 15.9175 13.7745 15.8231 13.6928 15.7811C13.6309 15.7493 13.5615 15.7324 13.495 15.7097C13.4074 15.6798 13.3152 15.6591 13.2323 15.6194C13.0107 15.5133 12.9767 15.2362 13.1604 15.0731C13.3414 14.9123 13.7583 14.9274 13.9302 15.099C13.9919 15.1605 13.9292 15.1937 13.9034 15.234C13.8791 15.2722 13.8525 15.3128 13.7967 15.2702C13.6965 15.1934 13.582 15.1585 13.4565 15.1707C13.416 15.1746 13.3724 15.1876 13.3389 15.2098C13.2597 15.2619 13.2626 15.3546 13.3458 15.4004C13.3993 15.4299 13.4602 15.4468 13.5187 15.4657C13.5937 15.4899 13.671 15.5069 13.7449 15.5338C13.9188 15.597 14.0097 15.7209 14.0043 15.8789C13.9985 16.046 13.8951 16.1778 13.7221 16.2276C13.6554 16.2467 13.5842 16.2506 13.5152 16.2614V16.2616Z" fill="#64758B"/>
<path d="M9.83901 16.225C9.68167 16.2442 9.55766 16.2567 9.46562 16.1097C9.37985 15.9726 9.26582 15.8533 9.1616 15.7231C9.09038 15.7762 9.04825 15.8324 9.05197 15.9181C9.05536 15.9968 9.05079 16.0758 9.05231 16.1548C9.05383 16.2345 9.00105 16.2365 8.94403 16.2354C8.88769 16.2342 8.82594 16.2437 8.82611 16.156C8.82679 15.7897 8.82662 15.4234 8.82628 15.0573C8.82628 14.9692 8.88989 14.9812 8.94555 14.9793C9.00375 14.9773 9.05366 14.9829 9.05265 15.0614C9.05096 15.1854 9.05265 15.3092 9.05265 15.4333C9.05265 15.4634 9.05265 15.4935 9.07261 15.5319C9.10256 15.4967 9.13284 15.462 9.16211 15.4265C9.24992 15.3199 9.34804 15.2201 9.42215 15.1047C9.51587 14.9589 9.64361 14.968 9.80348 14.9902C9.72515 15.0834 9.6563 15.1665 9.58642 15.2483C9.50961 15.3383 9.43365 15.4292 9.35329 15.5158C9.31285 15.5595 9.3208 15.5904 9.35566 15.6315C9.49743 15.7994 9.63701 15.9691 9.77675 16.1386C9.7957 16.1616 9.81161 16.1868 9.83901 16.2252V16.225Z" fill="#64758B"/>
<path d="M12.2179 15.3883C12.2996 15.3576 12.3701 15.3171 12.4451 15.3054C12.6398 15.275 12.821 15.3961 12.8657 15.599C12.8897 15.7081 12.8926 15.8306 12.8701 15.9397C12.809 16.2353 12.5139 16.3447 12.2627 16.1766C12.2519 16.1693 12.2397 16.1637 12.2104 16.1476C12.2104 16.2586 12.2109 16.3556 12.2104 16.4525C12.2096 16.565 12.1372 16.6148 12.0355 16.5676C12.0147 16.5579 11.9956 16.5195 11.9954 16.4943C11.9929 16.1314 11.9922 15.7687 11.9962 15.4058C11.9966 15.3775 12.0314 15.3305 12.0568 15.3254C12.1203 15.3129 12.1967 15.2978 12.218 15.3883H12.2179ZM12.2106 15.7741C12.2067 15.7748 12.2028 15.7754 12.1989 15.7761C12.2116 15.8463 12.2048 15.9297 12.2412 15.9844C12.3294 16.1167 12.5583 16.0938 12.6354 15.9519C12.6989 15.8352 12.6968 15.7139 12.6307 15.598C12.5781 15.5058 12.4698 15.4684 12.359 15.498C12.2466 15.5279 12.2113 15.5778 12.2108 15.7066C12.2108 15.7291 12.2108 15.7514 12.2108 15.7739L12.2106 15.7741Z" fill="#64758B"/>
<path d="M16.2719 15.848C16.1819 15.848 16.0918 15.8476 16.0018 15.848C15.9408 15.8483 15.9303 15.8787 15.9519 15.9309C16.0008 16.0486 16.1438 16.1083 16.2971 16.0711C16.3296 16.0632 16.361 16.0493 16.391 16.0344C16.4681 15.9963 16.4991 16.0039 16.5316 16.0835C16.5393 16.1024 16.5316 16.14 16.517 16.1538C16.4004 16.264 16.1213 16.2873 15.9562 16.2046C15.7873 16.1198 15.6944 15.9415 15.7108 15.7331C15.7262 15.5383 15.8541 15.3751 16.034 15.3206C16.3395 15.2282 16.6329 15.4549 16.6222 15.7745C16.6205 15.8238 16.5992 15.8466 16.5502 15.8464C16.4573 15.8459 16.3646 15.8464 16.2717 15.8464V15.848H16.2719ZM16.1759 15.6918V15.6923C16.2292 15.6923 16.2825 15.6938 16.3356 15.692C16.4077 15.6893 16.4228 15.6662 16.3913 15.6042C16.3461 15.5152 16.2693 15.4761 16.1719 15.4754C16.0734 15.4747 15.9991 15.5172 15.9538 15.6055C15.9244 15.6629 15.9469 15.6906 16.0079 15.6916C16.0639 15.6925 16.1199 15.6918 16.1761 15.6918H16.1759Z" fill="#64758B"/>
<path d="M14.7153 15.7271C14.7556 15.5662 14.6791 15.4676 14.5259 15.4811C14.4587 15.4871 14.3925 15.5192 14.3288 15.5459C14.2931 15.5608 14.2636 15.597 14.231 15.5432C14.2025 15.4964 14.1684 15.4519 14.2315 15.405C14.3562 15.3126 14.4974 15.2866 14.6475 15.3057C14.8275 15.3285 14.9311 15.4261 14.9431 15.6068C14.9554 15.7916 14.9507 15.9779 14.948 16.1633C14.947 16.2355 14.814 16.2729 14.747 16.2142C14.7081 16.1802 14.6873 16.2008 14.6524 16.2084C14.5634 16.2277 14.4709 16.2524 14.3819 16.2455C14.2408 16.2347 14.1438 16.1159 14.1367 15.9767C14.1284 15.8153 14.2027 15.7078 14.3524 15.6674C14.4787 15.6334 14.5966 15.6645 14.7152 15.7268L14.7153 15.7271ZM14.5341 15.8C14.4287 15.7985 14.3484 15.8628 14.3455 15.9511C14.3425 16.0454 14.4177 16.1095 14.5326 16.1103C14.65 16.1113 14.7287 16.0536 14.7312 15.9648C14.7341 15.8604 14.6641 15.8019 14.5341 15.8Z" fill="#64758B"/>
<path d="M10.4276 15.8476C10.3374 15.8476 10.2472 15.8481 10.1571 15.8474C10.0951 15.8469 10.0847 15.8745 10.107 15.9278C10.1593 16.0523 10.3024 16.1118 10.4584 16.0685C10.4959 16.0582 10.5337 16.0425 10.5662 16.0211C10.6284 15.9802 10.6506 16.0271 10.6793 16.0653C10.7137 16.111 10.6947 16.1403 10.654 16.1695C10.4586 16.3103 10.118 16.2742 9.97351 16.0959C9.8072 15.8909 9.83291 15.5836 10.031 15.4087C10.163 15.2921 10.3684 15.2666 10.5301 15.3466C10.676 15.4187 10.7836 15.6066 10.7763 15.7709C10.7739 15.8244 10.7502 15.8472 10.6981 15.8466C10.6079 15.8457 10.5178 15.8464 10.4276 15.8464V15.8476ZM10.3197 15.6917C10.3785 15.6917 10.4374 15.6923 10.4965 15.6917C10.5623 15.6911 10.5724 15.6582 10.5475 15.6038C10.51 15.5215 10.4245 15.4725 10.3198 15.4752C10.2205 15.4777 10.15 15.5259 10.1061 15.6138C10.0825 15.6611 10.0957 15.6904 10.1515 15.6916C10.2075 15.6928 10.2637 15.6919 10.3198 15.6921L10.3197 15.6917Z" fill="#64758B"/>
<path d="M11.4721 15.8474C11.3848 15.8474 11.2975 15.8457 11.2102 15.8479C11.1356 15.85 11.1216 15.8769 11.1554 15.944C11.2162 16.065 11.3691 16.1144 11.5241 16.0616C11.5532 16.0516 11.5826 16.0394 11.6078 16.0222C11.6701 15.9797 11.6912 16.0293 11.7198 16.0672C11.7508 16.1081 11.7398 16.1359 11.7002 16.1648C11.5369 16.2839 11.2454 16.2848 11.0867 16.1641C10.9225 16.0394 10.861 15.8085 10.9363 15.5994C11.0143 15.3832 11.2361 15.2617 11.4652 15.3098C11.6763 15.3541 11.8281 15.5632 11.8139 15.7858C11.8107 15.8363 11.7839 15.8466 11.7423 15.8464C11.6523 15.8461 11.5621 15.8464 11.4721 15.8464V15.8473V15.8474ZM11.1343 15.6896C11.2823 15.6896 11.4244 15.6911 11.566 15.6862C11.575 15.6858 11.5955 15.6319 11.5882 15.6104C11.5572 15.5175 11.4469 15.4632 11.3324 15.4764C11.2204 15.4893 11.15 15.559 11.1341 15.6896H11.1343Z" fill="#64758B"/>
<path d="M15.5315 14.957C15.5726 14.9655 15.6155 14.9692 15.6544 14.9838C15.6938 14.9985 15.7522 15.0113 15.7261 15.0744C15.7063 15.1223 15.6831 15.1746 15.6077 15.1455C15.5545 15.1249 15.5013 15.1342 15.4671 15.1892C15.4216 15.2624 15.4461 15.3155 15.5317 15.3181C15.5975 15.3201 15.6295 15.3418 15.6295 15.4125C15.6295 15.4817 15.6007 15.5118 15.5332 15.507C15.4606 15.5018 15.4424 15.5414 15.4431 15.6062C15.4451 15.7808 15.4409 15.9554 15.4447 16.13C15.4466 16.2117 15.4143 16.2376 15.3349 16.2374C15.2549 16.2372 15.2334 16.2024 15.2346 16.1295C15.2375 15.9578 15.2338 15.7859 15.2361 15.6141C15.237 15.5487 15.2245 15.5047 15.146 15.5043C15.0871 15.5042 15.0849 15.4573 15.0847 15.413C15.0846 15.3681 15.0881 15.3223 15.1466 15.3221C15.218 15.322 15.2321 15.2827 15.2404 15.2211C15.2634 15.0521 15.3676 14.9628 15.5314 14.9572L15.5315 14.957Z" fill="#64758B"/>
<path d="M8.37065 15.7763C8.37065 15.6528 8.37268 15.5291 8.36997 15.4056C8.36828 15.3297 8.41244 15.319 8.47301 15.3188C8.53324 15.3187 8.57824 15.3285 8.5779 15.4041C8.57655 15.6513 8.57604 15.8985 8.57824 16.1455C8.57892 16.2248 8.5351 16.2365 8.47013 16.2362C8.40686 16.2358 8.36811 16.2206 8.3698 16.147C8.37268 16.0235 8.37065 15.8998 8.37065 15.7763Z" fill="#64758B"/>
<path d="M8.5945 15.0996C8.59382 15.1693 8.54019 15.2209 8.4693 15.2199C8.40062 15.2188 8.34631 15.163 8.34749 15.0948C8.34868 15.0294 8.40874 14.9713 8.47421 14.9727C8.54188 14.974 8.59535 15.0304 8.59467 15.0996H8.5945Z" fill="#64758B"/>
<path d="M11.2348 20.2282C11.2354 20.5234 11.0453 20.7297 10.7709 20.7313C10.4988 20.733 10.2997 20.5231 10.2988 20.2338C10.298 19.9424 10.4929 19.7323 10.7654 19.731C11.0407 19.7296 11.2341 19.9345 11.2348 20.2282Z" fill="#64758B"/>
<path d="M16.078 19.8374C16.0929 19.8767 16.1083 19.914 16.1211 19.9523C16.1678 20.0907 16.212 20.2299 16.2605 20.3675C16.2834 20.4321 16.2722 20.4634 16.1978 20.4614C16.1052 20.4588 16.0123 20.4607 15.9198 20.4602C15.8807 20.46 15.8487 20.4476 15.8646 20.4004C15.9266 20.217 15.9907 20.0343 16.0546 19.8516C16.056 19.8477 16.0634 19.846 16.0782 19.8374H16.078Z" fill="#64758B"/>
<path d="M12.6631 20.1423C12.4116 20.1362 12.4479 20.1518 12.4459 19.9191C12.4444 19.7498 12.4457 19.7484 12.6178 19.7503C12.6992 19.7512 12.7816 19.7511 12.8613 19.7647C12.9596 19.7813 13.0093 19.8481 13.0101 19.9411C13.011 20.0345 12.9633 20.0981 12.8636 20.1196C12.7982 20.1338 12.73 20.1352 12.6631 20.1423Z" fill="#64758B"/>
<path d="M14.4091 20.1438C14.1696 20.1356 14.1922 20.1543 14.1909 19.9165C14.1909 19.8995 14.1907 19.8826 14.1909 19.8659C14.1931 19.7618 14.2036 19.751 14.3088 19.7496C14.3763 19.7488 14.444 19.7473 14.5113 19.7505C14.5531 19.7525 14.5959 19.7579 14.6355 19.7706C14.7206 19.7975 14.7685 19.8649 14.7649 19.9473C14.7612 20.0335 14.7133 20.0929 14.6335 20.1139C14.561 20.1328 14.4839 20.1345 14.4089 20.1438H14.4091Z" fill="#64758B"/>
<path d="M2.7588 13.6251C2.75745 13.3956 2.884 13.2598 3.10173 13.228C3.28141 13.2018 3.4511 13.3116 3.50388 13.488C3.58154 13.7486 3.57477 13.7592 3.31135 13.8003C3.16975 13.8225 3.02814 13.8438 2.88704 13.869C2.82427 13.8802 2.79128 13.8633 2.78452 13.7966C2.77758 13.7298 2.76472 13.6635 2.7588 13.6249V13.6251Z" fill="#64758B"/>
<path d="M19.8685 6.54797C19.6784 6.54916 19.5141 6.3842 19.5134 6.19133C19.5128 5.98104 19.7198 5.78174 19.9393 5.78174C20.1296 5.78174 20.2945 5.94635 20.2957 6.1377C20.2969 6.34495 20.087 6.54662 19.8687 6.54797H19.8685Z" fill="#64758B"/>
<path d="M19.4176 5.11519C19.4156 5.26306 19.2694 5.34832 19.1576 5.27321C19.0837 5.22364 19.0204 5.15715 18.9573 5.09336C18.9446 5.08051 18.9432 5.03618 18.9553 5.02248C19.0124 4.95683 19.0749 4.89559 19.1381 4.8357C19.1486 4.82589 19.1814 4.82199 19.1892 4.82995C19.2623 4.9032 19.3337 4.97832 19.4017 5.05631C19.4163 5.07306 19.4148 5.10402 19.4175 5.11519H19.4176Z" fill="#64758B"/>
<path d="M4.61459 6.32129C4.83892 6.32231 5.04567 6.51636 5.04397 6.72429C5.04245 6.91039 4.87073 7.0838 4.68784 7.08363C4.47129 7.08363 4.25439 6.88129 4.25439 6.67928C4.25439 6.48219 4.41715 6.32045 4.61476 6.32129H4.61459Z" fill="#64758B"/>
<path d="M21.9342 11.6812C22.1726 11.6817 22.333 11.8294 22.3315 12.0471C22.3301 12.2564 22.1625 12.4103 21.9354 12.4105C21.704 12.4107 21.539 12.2555 21.5407 12.0391C21.5426 11.8214 21.697 11.6806 21.9341 11.6812H21.9342Z" fill="#64758B"/>
<path d="M2.81108 12.5496C2.80262 12.5496 2.79416 12.5496 2.78587 12.5496C2.64274 12.5506 2.6424 12.5506 2.63851 12.4074C2.63699 12.3516 2.6309 12.2946 2.63902 12.24C2.65323 12.1444 2.72412 12.0885 2.81412 12.0914C2.90295 12.0943 2.96876 12.155 2.98128 12.2506C2.98923 12.3117 2.99431 12.3736 2.99634 12.4352C2.99972 12.5342 2.98737 12.5455 2.88704 12.5482C2.86183 12.5489 2.83646 12.5482 2.81125 12.5482V12.5494L2.81108 12.5496Z" fill="#64758B"/>
<path d="M11.296 2.36871C11.2891 2.2464 11.2914 2.24386 11.4144 2.23337C11.4618 2.22931 11.5092 2.22288 11.5567 2.22051C11.6604 2.21527 11.7433 2.2804 11.7552 2.37464C11.7674 2.47209 11.7066 2.55076 11.6021 2.5719C11.5857 2.57529 11.5687 2.57698 11.5522 2.57867C11.2813 2.60557 11.3239 2.63653 11.2962 2.36888L11.296 2.36871Z" fill="#64758B"/>
<path d="M14.5587 2.96248C14.4184 2.93372 14.3022 2.90986 14.1609 2.88093C14.2633 2.71987 14.3545 2.57657 14.4457 2.43311C14.4553 2.43497 14.465 2.43683 14.4746 2.43886C14.5013 2.60517 14.5281 2.77147 14.5587 2.96248Z" fill="#64758B"/>
<path d="M21.6541 15.421C21.5003 15.421 21.3465 15.4225 21.1927 15.4186C21.1778 15.4183 21.148 15.3787 21.1521 15.3656C21.1834 15.2643 21.2211 15.165 21.2653 15.042C21.4091 15.1667 21.538 15.2787 21.6671 15.3907C21.6627 15.4008 21.6585 15.4108 21.6541 15.421Z" fill="#64758B"/>
<path d="M18.5536 4.3538C18.5562 4.49862 18.423 4.5871 18.3061 4.52501C18.23 4.48458 18.1623 4.42672 18.0955 4.37106C18.0815 4.35938 18.0762 4.31624 18.0865 4.30034C18.1309 4.23199 18.1811 4.16719 18.2327 4.10409C18.2439 4.09038 18.2792 4.07718 18.2877 4.08378C18.3713 4.14926 18.4531 4.2171 18.5311 4.28917C18.5489 4.30558 18.5494 4.34077 18.5536 4.35363V4.3538Z" fill="#64758B"/>
<path d="M10.4386 2.39421C10.5284 2.39303 10.5975 2.44598 10.6173 2.53091C10.6369 2.61483 10.5985 2.69722 10.5125 2.7275C10.4335 2.75542 10.3501 2.77301 10.2672 2.78655C10.2474 2.78976 10.2209 2.75999 10.1999 2.74239C10.1929 2.73647 10.1938 2.72141 10.1911 2.71042C10.1226 2.44666 10.161 2.39743 10.4386 2.39404V2.39421Z" fill="#64758B"/>
</svg>
