<svg width="37" height="40" viewBox="0 0 37 40" fill="none" xmlns="http://www.w3.org/2000/svg">
<path d="M34.7457 13.4508C32.6762 14.1175 30.6199 14.7795 28.5586 15.4435C28.4419 15.0795 28.3403 14.7236 28.2148 14.3766C27.5677 12.5843 26.4955 11.1237 24.9299 10.061C23.8524 9.32949 22.659 8.89222 21.3877 8.67204C20.1913 8.46459 18.9884 8.42333 17.7858 8.59453C16.0374 8.84363 14.4356 9.47948 13.017 10.5642C10.947 12.1463 9.72071 14.2729 9.1559 16.8236C8.8072 18.3976 8.73504 19.989 8.90203 21.5888C9.1049 23.5322 9.68935 25.3438 10.7857 26.9629C11.9293 28.651 13.445 29.8699 15.3045 30.6411C16.8508 31.2828 18.464 31.5122 20.1236 31.4031C21.8645 31.2889 23.4969 30.8123 24.9662 29.8233C26.3803 28.8712 27.4475 27.6053 28.1876 26.0567C28.4453 25.5173 28.6455 24.9489 28.8805 24.3724C30.8991 24.9925 32.9448 25.6206 35 26.2519C34.8043 27.0662 34.5387 27.8374 34.2149 28.5878C33.3018 30.7032 32.0041 32.5344 30.3021 34.0614C28.9825 35.2455 27.4989 36.1583 25.8619 36.8099C24.2454 37.4531 22.5672 37.809 20.8392 37.9405C18.3098 38.1333 15.833 37.8645 13.4291 37.0328C10.1144 35.886 7.38443 33.9021 5.31186 31.0074C3.85848 28.9776 2.92609 26.7134 2.4206 24.2579C2.05868 22.5004 1.93929 20.7243 2.02807 18.9355C2.17466 15.9822 2.90871 13.1951 4.35906 10.6209C5.49962 8.59608 6.99077 6.88479 8.82345 5.48893C10.5288 4.19023 12.411 3.25708 14.4616 2.67097C16.1636 2.18435 17.8977 1.96764 19.6608 2.00389C21.6711 2.04553 23.6405 2.34939 25.5404 3.04578C28.324 4.06645 30.6206 5.76347 32.3728 8.20662C33.4726 9.74015 34.2512 11.431 34.7125 13.2726C34.7261 13.3266 34.7333 13.3825 34.7457 13.4504V13.4508Z" fill="#6550FE"/>
</svg>
