<svg width="21" height="18" viewBox="0 0 21 18" fill="none" xmlns="http://www.w3.org/2000/svg">
<path d="M19.8242 13.9609C19.375 13.9165 18.5782 13.8051 17.5812 14.3078C16.5849 14.8105 16.1923 14.8324 15.7031 14.7796C15.8466 15.0428 16.1382 15.4039 17.0547 15.4683C17.9706 15.5326 18.4089 15.5609 17.9268 16.7027C17.9378 16.3577 17.8573 15.691 16.9479 15.8081C16.0391 15.9252 15.826 16.7439 16.8018 17.1526C16.4845 17.2163 15.8125 17.2543 15.3317 15.998C14.999 16.1428 14.486 16.4324 13.556 15.7141C13.7902 15.7894 14.0342 15.8313 14.2807 15.839C13.4549 15.4451 12.6665 14.712 12.1612 14.0195C12.5616 14.3175 13.0037 14.6148 13.4504 14.6708C12.9226 14.0265 11.701 12.738 10.2065 11.4141C11.1675 12.0416 12.3266 13.0334 14.2241 12.8107C16.1221 12.5874 17.3971 12.1529 19.8236 13.9615" fill="#EC462B"/>
<path d="M11.7024 13.5133C10.5124 12.9977 10.2575 12.8941 8.7276 12.5053C7.19771 12.1166 5.69227 11.3076 4.68628 10.0454C5.39555 10.5648 6.84436 11.6107 8.33177 11.4974C8.10586 11.1666 7.68879 10.9085 7.18998 10.6485C7.7538 10.7836 9.45554 11.2187 11.7018 13.5139" fill="#EC462B"/>
<path d="M9.1118 9.10894C8.8048 8.22911 8.25128 7.10212 5.62657 5.42741C4.34833 4.58361 2.47088 3.5242 0 0.822266C0.176997 1.55021 0.957714 3.4444 4.8922 5.90304C6.1846 6.78481 7.85287 7.32932 9.11245 9.10894" fill="#EC462B"/>
<path d="M9.27389 10.3852C8.95079 9.64057 8.30201 8.68479 5.75905 7.3203C4.58636 6.66316 2.5834 5.65267 0.78125 3.73145C0.944731 4.42527 1.7808 5.94874 5.37995 7.85194C6.37629 8.40095 8.0613 8.91585 9.27389 10.3852Z" fill="#EC462B"/>
<path d="M18.8942 12.3507C19.8339 12.4929 19.7869 12.6918 19.7966 13.0355C19.5353 12.7594 19.2302 12.5277 18.8942 12.3507ZM11.7403 6.53486C6.78313 5.11631 4.81235 3.32639 3.2876 1.45215C3.984 3.60894 5.64455 4.38064 7.41903 5.8288C9.1935 7.27696 9.29455 8.0551 9.81653 8.91112C10.9809 10.8169 11.1662 11.1323 12.3215 11.9645C13.6834 12.8681 15.3305 12.2567 17.1371 12.5399C18.9438 12.8231 20.437 14.2004 20.762 14.7301C21.1405 14.0543 20.2362 13.0812 19.9916 12.8366C20.1223 11.9516 18.0292 11.5629 17.2369 11.2597C17.0811 11.2005 16.6962 11.111 17.0303 10.3168C17.4808 9.22071 17.95 8.26685 11.741 6.53486" fill="#EC462B"/>
</svg>
