<svg width="23" height="24" viewBox="0 0 23 24" fill="none" xmlns="http://www.w3.org/2000/svg">
<path d="M23.0012 12.0268C22.9977 18.3408 17.9273 23.3953 11.7669 23.5235C5.22721 23.6601 0.12386 18.4427 0.0023107 12.2858C-0.126745 5.74291 5.09757 0.650537 11.249 0.528699C17.7985 0.399065 23.0121 5.69297 23.0012 12.0268ZM11.5042 20.7507C16.2772 20.7671 20.1634 16.8697 20.2286 12.157C20.2962 7.27946 16.3436 3.35783 11.6197 3.29951C6.74672 3.23946 2.82596 7.19083 2.77197 11.9188C2.71595 16.7961 6.70226 20.7761 11.5042 20.7504V20.7507ZM21.658 15.1057C21.3044 14.9781 20.9553 14.8522 20.5982 14.7234C20.5768 14.782 20.5612 14.8248 20.5404 14.8825C20.7925 14.9758 21.0336 15.065 21.3081 15.1663C21.0803 15.231 20.8912 15.285 20.6883 15.3427C20.8124 15.5235 20.921 15.6817 21.0517 15.8719C20.7702 15.7723 20.5292 15.6872 20.2936 15.6037C20.2067 15.7166 20.2257 15.772 20.3481 15.8125C20.6161 15.9011 20.8794 16.0042 21.1467 16.0948C21.1973 16.1119 21.2576 16.0995 21.3133 16.1006C21.3052 16.0356 21.3168 15.9586 21.2859 15.9075C21.1918 15.753 21.0812 15.6083 20.9669 15.4449C21.1545 15.3927 21.326 15.3375 21.501 15.2991C21.602 15.2769 21.6526 15.2293 21.658 15.1054V15.1057ZM21.147 7.60051C21.117 7.6086 21.0844 7.61437 21.0541 7.62621C20.7737 7.73679 20.4954 7.85343 20.213 7.95794C20.0805 8.00703 20.0978 8.06997 20.1694 8.16351C20.414 8.06708 20.6553 7.9718 20.923 7.86613C20.7974 8.06073 20.6894 8.22847 20.5725 8.41007C20.7847 8.46291 20.9738 8.50968 21.1981 8.5654C20.9233 8.67743 20.6859 8.77443 20.4391 8.87491C20.4674 8.93756 20.4876 8.9826 20.5104 9.03284C20.8667 8.89108 21.2082 8.75538 21.5478 8.61997C21.5472 8.50362 21.5019 8.45252 21.3979 8.43259C21.2206 8.39881 21.0463 8.3506 20.8502 8.30354C20.9594 8.13666 21.0549 7.98364 21.1583 7.83582C21.2166 7.75267 21.2212 7.68049 21.1473 7.59994L21.147 7.60051ZM18.0526 19.0845C18.3214 19.3735 18.5751 19.646 18.8416 19.9324C18.882 19.8935 18.9147 19.8617 18.9606 19.817C18.7564 19.6105 18.5676 19.4197 18.3696 19.2193C18.6976 19.2644 19.0099 19.3123 19.3241 19.3455C19.3821 19.3516 19.4468 19.2973 19.4863 19.2802C19.2074 18.9933 18.9484 18.7268 18.6837 18.4542C18.6499 18.4819 18.6141 18.5114 18.5642 18.5524C18.7703 18.7551 18.9568 18.9381 19.1693 19.1471C19.0891 19.1391 19.044 19.1359 18.9993 19.1301C18.7429 19.0963 18.4868 19.0559 18.2295 19.0322C18.1637 19.0262 18.093 19.0715 18.0526 19.0845ZM7.65502 3.03995C7.35476 2.88058 7.08712 2.74113 6.82265 2.59648C6.73517 2.54856 6.6627 2.54509 6.58475 2.63459C6.74066 2.96835 6.89801 3.30442 7.06113 3.65376C7.12032 3.62172 7.16392 3.59804 7.21184 3.57206C7.09578 3.32145 6.98549 3.08297 6.86221 2.81677C7.15699 2.97297 7.4203 3.10953 7.68072 3.25187C7.76993 3.30066 7.84731 3.31683 7.9319 3.22329C7.77571 2.88924 7.61807 2.55289 7.45465 2.20354C7.39662 2.23328 7.35274 2.2558 7.30221 2.28149C7.41943 2.53326 7.53001 2.77116 7.65502 3.03995ZM22.0192 10.6548C21.751 10.6961 21.4894 10.7365 21.1978 10.7813C21.4305 10.5402 21.6413 10.3188 21.8561 10.1011C21.9271 10.0289 21.9404 9.95875 21.883 9.86434C21.5417 9.91948 21.2016 9.97203 20.8632 10.0332C20.8317 10.039 20.8104 10.0994 20.7844 10.1343C20.8188 10.1551 20.8557 10.1975 20.8866 10.1932C21.1271 10.1614 21.3664 10.121 21.63 10.0794C21.4025 10.3168 21.1935 10.5402 20.9775 10.7568C20.901 10.8336 20.8771 10.902 20.9536 10.9978C21.3182 10.9384 21.6837 10.8789 22.0571 10.818C22.042 10.7521 22.0328 10.7114 22.0198 10.6546L22.0192 10.6548ZM4.20515 19.761C4.52245 19.7641 4.8051 19.4881 4.81059 19.1702C4.81579 18.8552 4.55161 18.5824 4.232 18.5735C3.92481 18.5648 3.63118 18.8521 3.62628 19.1662C3.62166 19.4821 3.89016 19.7581 4.20515 19.7612V19.761ZM6.72103 3.55127C6.72045 3.223 6.45367 2.94554 6.13724 2.94439C5.8185 2.94323 5.55172 3.21029 5.55172 3.53019C5.55172 3.86019 5.81475 4.13014 6.13724 4.13101C6.46378 4.13188 6.72131 3.87607 6.72074 3.55156L6.72103 3.55127ZM15.302 3.35783C15.4859 3.43434 15.6441 3.51518 15.8115 3.56599C16.0414 3.63586 16.2674 3.54059 16.4014 3.34339C16.5374 3.14274 16.5434 2.87394 16.406 2.69667C16.2567 2.50381 16.0373 2.42325 15.8165 2.32884C15.6447 2.67271 15.4804 3.00098 15.302 3.35783ZM12.3874 2.09412C12.3842 2.43018 12.638 2.68743 12.9738 2.68887C13.2911 2.69003 13.5492 2.4273 13.5538 2.09816C13.5584 1.76671 13.2988 1.50312 12.9657 1.50109C12.6504 1.49907 12.3903 1.76556 12.3874 2.09412ZM5.36435 20.9152C5.55086 21.0102 5.70994 21.111 5.88259 21.1745C6.12338 21.2631 6.36013 21.165 6.50564 20.9464C6.64596 20.7357 6.64914 20.4773 6.47619 20.2962C6.35291 20.1672 6.19181 20.0733 6.04254 19.9711C6.02378 19.9584 5.95766 19.9789 5.94236 20.0026C5.75238 20.2957 5.5676 20.5919 5.36406 20.9152H5.36435ZM2.30858 9.73817C2.15267 9.69226 2.00629 9.64924 1.85962 9.60594C1.85385 9.58804 1.84807 9.57014 1.8423 9.55224C1.89629 9.50431 1.94306 9.44223 2.00542 9.41163C2.11225 9.35908 2.22745 9.32155 2.34178 9.28633C2.45438 9.25168 2.48412 9.17633 2.47603 9.05016C2.29212 9.11801 2.12004 9.18152 1.94797 9.24504C1.87348 9.0031 1.77416 8.90811 1.60295 8.90811C1.443 8.90811 1.32492 9.01955 1.25794 9.24158C1.22358 9.35533 1.19673 9.47111 1.1618 9.60363C1.53251 9.70468 1.8934 9.80342 2.2618 9.90389C2.2797 9.84095 2.29212 9.79678 2.30858 9.73875V9.73817ZM21.2264 14.047C21.2371 14.0654 21.2481 14.0839 21.2588 14.1027C21.199 14.1564 21.1462 14.2222 21.078 14.2603C20.9827 14.3137 20.8774 14.3507 20.7734 14.3868C20.6582 14.4266 20.619 14.5014 20.6444 14.6296C20.8205 14.5566 20.9911 14.4861 21.1623 14.4151C21.2359 14.6469 21.341 14.7419 21.5131 14.7387C21.6693 14.7356 21.7799 14.6258 21.8408 14.4093C21.8665 14.3175 21.8856 14.2237 21.911 14.1316C21.9315 14.0568 21.9121 14.0187 21.8304 14.0008C21.5224 13.9329 21.2163 13.8561 20.9077 13.7909C20.8759 13.7842 20.8323 13.8322 20.7945 13.8547C20.8182 13.8908 20.8349 13.9488 20.867 13.9592C20.9839 13.9973 21.106 14.0193 21.2264 14.0475V14.047ZM2.08395 13.1231C2.07731 13.0552 2.07298 13.009 2.0675 12.9545C1.91188 12.9623 1.7655 12.9695 1.62374 12.9767C1.56917 12.8829 1.57812 12.817 1.66012 12.7564C1.75655 12.6854 1.84172 12.5988 1.93902 12.5292C2.0418 12.4553 2.0649 12.373 1.99705 12.2517C1.85038 12.3739 1.7092 12.4911 1.56427 12.6118C1.54434 12.582 1.5328 12.567 1.52385 12.5508C1.44387 12.4076 1.31366 12.3727 1.16641 12.3998C1.0287 12.4253 0.943814 12.5214 0.934864 12.6588C0.923315 12.8372 0.931977 13.0171 0.931977 13.21C1.33185 13.18 1.69823 13.1525 2.08367 13.1237L2.08395 13.1231ZM11.7395 22.7962C11.6234 22.6244 11.5201 22.4714 11.4141 22.3144C11.4366 22.3014 11.4525 22.2915 11.4687 22.2829C11.6153 22.2046 11.6867 22.088 11.6711 21.9514C11.6552 21.8131 11.5596 21.6954 11.4023 21.6714C11.2351 21.6457 11.0636 21.6506 10.8759 21.6414V22.7876C10.9244 22.785 10.9657 22.7829 11.018 22.7803C11.0295 22.6227 11.0405 22.4726 11.0555 22.2696C11.1482 22.3325 11.223 22.3657 11.2726 22.4212C11.3422 22.4991 11.3988 22.5904 11.4499 22.6819C11.5097 22.7893 11.5937 22.8234 11.7392 22.7962H11.7395ZM12.2719 2.5578C12.1645 2.39669 12.0629 2.24396 11.9569 2.08517C12.0014 2.06236 12.0317 2.04908 12.0594 2.03233C12.1746 1.96275 12.2139 1.85708 12.2072 1.72658C12.2009 1.60128 12.1373 1.50052 12.0268 1.47453C11.8365 1.43007 11.6387 1.41852 11.4199 1.38994V2.54249H11.5596C11.5691 2.38716 11.5781 2.24107 11.587 2.09527C11.6009 2.08401 11.6148 2.07275 11.6286 2.06149C11.6878 2.09931 11.7603 2.12588 11.8036 2.17698C11.8804 2.26821 11.9451 2.371 12.004 2.47522C12.0657 2.58407 12.1498 2.59475 12.2719 2.55808V2.5578ZM4.98873 5.11034C4.62697 4.9706 4.27502 4.83288 3.92106 4.7018C3.88756 4.68939 3.82145 4.70613 3.80095 4.73298C3.77583 4.76561 3.76255 4.83144 3.77843 4.86839C3.90287 5.15884 4.0351 5.44582 4.16531 5.73367C4.18985 5.78766 4.21584 5.84079 4.24095 5.89391C4.38358 5.83299 4.37174 5.7458 4.31198 5.6537C4.23518 5.53533 4.23893 5.43456 4.3599 5.3491C4.37925 5.33553 4.39859 5.3185 4.41072 5.29858C4.50138 5.15133 4.61946 5.11929 4.76757 5.2111C4.87469 5.2775 4.93358 5.22351 4.98902 5.11034H4.98873ZM2.08511 13.2363C2.07183 13.2374 2.05479 13.2334 2.0444 13.24C1.7297 13.4407 1.41442 13.641 1.1029 13.8466C1.07634 13.8642 1.05612 13.9231 1.06479 13.9543C1.07518 13.9918 1.11445 14.0395 1.14996 14.0487C1.3255 14.094 1.50392 14.129 1.68177 14.1662C1.87579 14.2069 2.06981 14.2462 2.26469 14.286C2.31262 14.0949 2.17692 14.0894 2.07616 14.0779C1.9575 14.064 1.90582 14.0106 1.9012 13.896C1.89946 13.8535 1.8908 13.8094 1.8755 13.7698C1.81978 13.6228 1.86742 13.5253 2.00947 13.4667C2.12149 13.4205 2.13997 13.3413 2.08482 13.2363H2.08511ZM18.6779 20.0552C18.3323 19.8663 17.9945 19.6781 17.6524 19.4976C17.5707 19.4546 17.4777 19.5415 17.5008 19.6356C17.528 19.7471 17.5664 19.8559 17.5993 19.9662C17.6755 20.2215 17.7511 20.4767 17.8334 20.7536C17.8854 20.7123 17.946 20.6851 17.9446 20.662C17.9374 20.5471 17.914 20.4334 17.8952 20.3138C17.9561 20.2645 18.0272 20.22 18.0811 20.1605C18.1961 20.0338 18.3107 20.0144 18.4464 20.127C18.5422 20.2064 18.6106 20.1571 18.6773 20.0552H18.6779ZM16.5365 3.97539C16.6266 4.08684 16.7063 4.09377 16.7874 4.0161C16.9038 3.90466 17.0129 3.92054 17.1212 4.02678C17.1347 4.04007 17.1503 4.05306 17.1674 4.06056C17.327 4.13043 17.366 4.24072 17.2973 4.40154C17.2517 4.50807 17.3071 4.56813 17.4307 4.59931C17.5181 4.21589 17.6076 3.84114 17.6862 3.46408C17.7064 3.36765 17.5921 3.31135 17.4988 3.36822C17.3149 3.48024 17.1336 3.59717 16.9514 3.71208C16.8151 3.79812 16.6791 3.88445 16.5359 3.9751L16.5365 3.97539ZM15.7957 21.9064C15.5274 21.6188 15.2676 21.3373 15.002 21.061C14.9792 21.0374 14.9105 21.0339 14.8778 21.0504C14.8455 21.0668 14.8161 21.1188 14.8126 21.1575C14.7987 21.3102 14.7915 21.4635 14.7889 21.6171C14.7854 21.8397 14.788 22.0623 14.788 22.2846C14.9142 22.284 14.9555 22.2243 14.9405 22.1186C14.918 21.9592 14.9818 21.8634 15.1437 21.8371C15.1668 21.8334 15.1902 21.8235 15.2104 21.8114C15.3513 21.7257 15.461 21.76 15.5453 21.896C15.6106 22.0011 15.6888 21.9838 15.7954 21.907L15.7957 21.9064ZM5.71312 19.722C5.65509 19.7936 5.61062 19.8487 5.56558 19.9039C5.45934 20.0338 5.35857 20.1683 5.2454 20.2916C5.12067 20.4276 4.9766 20.4262 4.84264 20.302C4.72311 20.1911 4.70579 20.0777 4.8103 19.9319C4.94889 19.7384 5.10046 19.5545 5.2529 19.3582C5.20498 19.3204 5.16542 19.2889 5.1123 19.2465C4.94542 19.465 4.77479 19.6663 4.63043 19.8845C4.50195 20.0785 4.55941 20.2957 4.74707 20.4446C4.95293 20.6078 5.16282 20.6213 5.3297 20.4493C5.51188 20.2616 5.6701 20.0505 5.84593 19.8412C5.79771 19.7979 5.76364 19.7676 5.71283 19.722H5.71312ZM9.41561 2.75412C9.17482 2.44982 8.93923 2.14869 8.69758 1.85275C8.6765 1.82677 8.60808 1.81724 8.57372 1.83081C8.53965 1.84438 8.50385 1.89433 8.49836 1.93244C8.46516 2.16485 8.43889 2.39814 8.41348 2.63142C8.39818 2.77173 8.38836 2.91292 8.37624 3.05294C8.54427 3.06998 8.56794 2.96517 8.55928 2.86268C8.54716 2.71861 8.61587 2.66347 8.74175 2.6447C8.77005 2.64037 8.80007 2.63575 8.82461 2.62247C8.98081 2.53961 9.09312 2.58205 9.17656 2.73391C9.23574 2.84189 9.31658 2.82746 9.41561 2.75412ZM9.95407 21.555C9.83137 21.4935 9.77189 21.5045 9.76121 21.644C9.74591 21.8443 9.71097 22.043 9.68845 22.2428C9.66189 22.4795 9.79181 22.6548 10.0338 22.7151C10.2751 22.7752 10.5116 22.6871 10.5667 22.4752C10.6372 22.2052 10.6649 21.924 10.7108 21.65C10.5355 21.6079 10.5324 21.6116 10.5142 21.7545C10.4896 21.9442 10.4694 22.1351 10.4325 22.3227C10.3903 22.5375 10.2416 22.6143 10.0375 22.543C9.89893 22.4945 9.84291 22.3669 9.87063 22.1729C9.89979 21.9696 9.92578 21.7661 9.95407 21.5553V21.555ZM14.525 3.05063C14.7476 3.13379 14.9515 3.21001 15.168 3.29085C15.1885 3.23368 15.2032 3.19182 15.2217 3.14071C15.0615 3.07777 14.9122 3.01888 14.7508 2.95536C14.7953 2.83987 14.834 2.7394 14.8744 2.63402C15.0164 2.68425 15.1446 2.72987 15.2835 2.77895C15.2997 2.71919 15.3112 2.67617 15.3233 2.63171C15.1862 2.57743 15.0635 2.52864 14.9307 2.47609C14.9702 2.37533 15.004 2.28871 15.0407 2.19488C15.1784 2.24598 15.302 2.2968 15.4293 2.33548C15.4564 2.34386 15.5078 2.31672 15.5269 2.29073C15.5396 2.27312 15.5243 2.20672 15.5064 2.19921C15.3184 2.12212 15.1273 2.05283 14.9278 1.97748C14.7912 2.34184 14.6622 2.68541 14.525 3.05092V3.05063ZM7.87243 21.9988C7.914 21.8807 7.9498 21.7788 7.98705 21.6731C8.13112 21.7187 8.26104 21.7597 8.39818 21.8033C8.4155 21.7491 8.42821 21.7101 8.44351 21.6624C8.30781 21.6113 8.17962 21.5631 8.04075 21.5109C8.07741 21.411 8.10975 21.3232 8.14411 21.2299C8.30261 21.2828 8.45072 21.3321 8.60721 21.3844C8.62742 21.314 8.7022 21.2519 8.5922 21.2112C8.40915 21.1436 8.22408 21.0818 8.02718 21.0131C7.89985 21.3778 7.77744 21.7283 7.64925 22.0949C7.86896 22.1717 8.0751 22.2436 8.27778 22.3146C8.36844 22.2113 8.34477 22.1576 8.22957 22.1232C8.11524 22.0892 8.00408 22.045 7.87271 21.9988H7.87243ZM20.5537 9.23436C20.6169 9.4662 20.6744 9.67667 20.735 9.89898C20.7942 9.87906 20.8364 9.86463 20.8863 9.84788C20.843 9.67956 20.8032 9.52481 20.7613 9.36082C20.8817 9.33021 20.9856 9.30365 21.0956 9.27565C21.1245 9.37554 21.1522 9.45696 21.1713 9.5404C21.1941 9.64001 21.2192 9.72373 21.3566 9.63481C21.3246 9.50402 21.292 9.3715 21.257 9.22916C21.3569 9.20145 21.4473 9.17633 21.5466 9.1489C21.5812 9.27103 21.6136 9.38536 21.6456 9.49969C21.684 9.63654 21.704 9.64347 21.8301 9.55541C21.7738 9.35187 21.7172 9.14659 21.6583 8.93352C21.2842 9.03543 20.9302 9.13215 20.554 9.23465L20.5537 9.23436ZM19.9387 17.0014C19.8842 16.9711 19.8446 16.9491 19.797 16.9226C19.6751 17.114 19.5605 17.2944 19.439 17.4856C19.7644 17.6943 20.0773 17.8947 20.4042 18.1046C20.5309 17.9057 20.6504 17.7183 20.7763 17.5208C20.7197 17.4908 20.6799 17.4697 20.6343 17.4454C20.539 17.5898 20.4509 17.7235 20.3582 17.8644C20.2511 17.7936 20.1613 17.7345 20.0692 17.6741C20.1486 17.5468 20.2188 17.4339 20.2959 17.3103C20.248 17.2809 20.2098 17.2575 20.1642 17.2298C20.0819 17.3536 20.0069 17.4674 19.9266 17.5884C19.8357 17.5274 19.7583 17.4755 19.6766 17.4209C19.7658 17.278 19.8466 17.1486 19.9382 17.002L19.9387 17.0014ZM9.618 2.30286C9.72021 2.28092 9.81 2.26764 9.89604 2.24252C10.1117 2.17987 10.218 2.0179 10.1761 1.82503C10.1374 1.64776 9.96302 1.53603 9.75572 1.56086C9.64659 1.57385 9.5389 1.59868 9.42976 1.61138C9.34084 1.62178 9.31832 1.66826 9.33362 1.74852C9.35412 1.8565 9.37202 1.96477 9.39136 2.07304C9.4312 2.29766 9.47134 2.52228 9.51003 2.73998C9.65525 2.77231 9.69134 2.72121 9.66362 2.59851C9.64197 2.50236 9.63331 2.40333 9.61829 2.30286H9.618ZM18.9484 5.91759C19.0443 5.8405 19.1283 5.77294 19.2167 5.70163C19.3145 5.81885 19.4029 5.92452 19.4973 6.0374C19.5397 5.99727 19.5724 5.96638 19.6076 5.93318C19.5178 5.81654 19.437 5.71115 19.3492 5.59682C19.4312 5.53186 19.5048 5.47354 19.5833 5.41147C19.6913 5.54168 19.7912 5.66207 19.8983 5.79084C19.9437 5.75302 19.978 5.72415 20.0213 5.68806C19.8798 5.51194 19.7459 5.34506 19.6009 5.16461C19.3128 5.39559 19.0359 5.61559 18.7634 5.8405C18.7449 5.8558 18.7435 5.92307 18.7608 5.94588C18.8786 6.10237 19.0036 6.25336 19.1246 6.40379C19.2513 6.36163 19.2623 6.3036 19.1826 6.21294C19.1035 6.12315 19.0336 6.02557 18.9484 5.9173V5.91759ZM1.10232 9.88513C1.0671 10.0777 1.0287 10.2602 1.00416 10.4444C0.999537 10.4779 1.04284 10.5313 1.07778 10.5523C1.11589 10.5754 1.17017 10.5711 1.21752 10.5789C1.51316 10.6277 1.80881 10.6765 2.11745 10.7273C2.15354 10.5174 2.1902 10.3257 2.2159 10.1323C2.21965 10.1031 2.17172 10.0673 2.14776 10.0347C2.11918 10.0575 2.07269 10.0757 2.06548 10.104C2.03834 10.2105 2.02939 10.3214 2.00196 10.4276C1.99301 10.4626 1.94681 10.5154 1.92054 10.5137C1.82815 10.5073 1.73721 10.481 1.64337 10.4617C1.66532 10.3127 1.68466 10.1822 1.70574 10.0384H1.55532C1.52933 10.1724 1.50479 10.2983 1.47765 10.4377C1.3766 10.4218 1.28479 10.4071 1.18403 10.3912C1.2077 10.2232 1.22993 10.0653 1.25361 9.89696C1.19124 9.89205 1.15054 9.88888 1.10203 9.88484L1.10232 9.88513ZM10.6184 2.59475C10.6115 2.47609 10.6135 2.37533 10.5979 2.27688C10.5838 2.18708 10.6155 2.15561 10.7004 2.1484C10.7905 2.14089 10.8829 2.13367 10.9683 2.1074C11.1294 2.05803 11.2042 1.93792 11.197 1.76787C11.1904 1.60936 11.1086 1.48781 10.9429 1.46732C10.7579 1.44422 10.5676 1.46212 10.364 1.46212C10.3935 1.86084 10.4206 2.22953 10.4484 2.60543C10.5148 2.60139 10.5558 2.59879 10.6181 2.59475H10.6184ZM18.5829 4.40962C18.6874 4.35505 18.7048 4.27133 18.6262 4.18154C18.5518 4.09636 18.4726 4.00802 18.3779 3.94941C18.2581 3.8755 18.1268 3.89282 18.0194 3.993C17.9125 4.09261 17.8883 4.21503 17.9518 4.34668C17.9954 4.43705 18.0632 4.51731 18.0956 4.61057C18.1152 4.66745 18.1115 4.77081 18.0757 4.79881C18.03 4.83432 17.9293 4.83952 17.8744 4.81267C17.8069 4.77947 17.7584 4.70296 17.7096 4.63915C17.6769 4.59613 17.6588 4.54243 17.6339 4.49364C17.6195 4.49219 17.6048 4.49104 17.5903 4.4896C17.5718 4.54994 17.5228 4.62212 17.5407 4.6686C17.605 4.83577 17.7254 4.96049 17.9027 5.0139C18.0243 5.05028 18.1331 5.01391 18.2174 4.92209C18.3 4.83259 18.345 4.72634 18.2867 4.60595C18.2391 4.50721 18.1678 4.41771 18.1337 4.31492C18.1138 4.25516 18.1253 4.15902 18.1637 4.11484C18.1894 4.0851 18.3084 4.09348 18.3482 4.12812C18.436 4.20377 18.5004 4.30655 18.5835 4.40962H18.5829ZM7.7477 21.135C7.76329 21.1352 7.77888 21.1355 7.79418 21.1358C7.78697 21.0709 7.80342 20.9718 7.7682 20.947C7.65387 20.8673 7.52597 20.7954 7.39287 20.7579C7.26064 20.7206 7.15266 20.7948 7.08856 20.9213C7.02418 21.0483 7.04323 21.1653 7.13562 21.2672C7.19337 21.331 7.26179 21.3853 7.32617 21.4427C7.40124 21.5097 7.44657 21.5877 7.38103 21.6815C7.31491 21.7759 7.21646 21.7603 7.13649 21.7115C7.04006 21.6529 6.95633 21.5729 6.86394 21.4999C6.78223 21.5877 6.77646 21.6792 6.89223 21.7502C6.98895 21.8097 7.08972 21.8692 7.19683 21.9029C7.33628 21.9468 7.4714 21.8807 7.54156 21.7612C7.61951 21.6289 7.60969 21.4889 7.50576 21.3766C7.44397 21.3099 7.37208 21.2527 7.30539 21.1904C7.23927 21.1286 7.19596 21.0457 7.26785 20.9788C7.31116 20.9383 7.41423 20.919 7.46765 20.9424C7.56956 20.9868 7.65531 21.0685 7.7477 21.1347V21.135ZM19.2594 5.11409C19.2897 5.03729 19.3428 4.97117 19.3293 4.92469C19.2836 4.7685 19.1863 4.64204 19.0313 4.57506C18.9109 4.52338 18.7963 4.5407 18.6978 4.63049C18.6052 4.71537 18.5624 4.81758 18.6115 4.94086C18.6488 5.03383 18.6915 5.12477 18.7351 5.21514C18.7784 5.30464 18.7738 5.38346 18.6883 5.44351C18.6029 5.50386 18.524 5.46459 18.4724 5.39905C18.3976 5.30378 18.3401 5.19493 18.2552 5.0601C18.2267 5.12506 18.166 5.19464 18.1799 5.24286C18.2272 5.40829 18.3274 5.54399 18.4952 5.61241C18.6167 5.66207 18.7322 5.64475 18.8304 5.55727C18.9277 5.47065 18.9718 5.36239 18.9228 5.2342C18.8869 5.14065 18.8445 5.04942 18.8012 4.95905C18.7616 4.8759 18.7515 4.78553 18.8428 4.74915C18.8979 4.72721 19.0019 4.74396 19.042 4.78466C19.1199 4.86348 19.1684 4.97146 19.2591 5.11438L19.2594 5.11409ZM20.8147 7.39091C20.9276 7.37734 20.968 7.30025 20.9337 7.19949C20.8958 7.08833 20.8494 6.97429 20.7795 6.8819C20.6894 6.76266 20.5485 6.74591 20.416 6.80914C20.2826 6.87266 20.228 6.98353 20.2413 7.12586C20.2482 7.2018 20.2708 7.276 20.2843 7.35135C20.3034 7.45702 20.3045 7.56183 20.1766 7.59647C20.0574 7.6291 19.9974 7.53931 19.9618 7.45009C19.9226 7.35106 19.9064 7.24279 19.8801 7.13886C19.7364 7.19111 19.7138 7.21941 19.754 7.3551C19.782 7.45009 19.8212 7.54623 19.8767 7.62736C19.9769 7.77432 20.1287 7.81041 20.2806 7.74343C20.4301 7.67731 20.4945 7.55461 20.4671 7.37936C20.4544 7.29909 20.4195 7.21883 20.4241 7.14059C20.4278 7.07996 20.4694 6.98035 20.509 6.97256C20.5658 6.9613 20.6663 6.99998 20.6943 7.04849C20.7521 7.14781 20.774 7.26791 20.8144 7.39091H20.8147ZM2.58517 15.8503C2.7275 15.8451 2.76561 15.749 2.73212 15.6248C2.70152 15.5116 2.66168 15.395 2.59845 15.2977C2.51414 15.1675 2.37152 15.16 2.2364 15.2036C2.10532 15.2457 2.03603 15.3471 2.03458 15.4877C2.03372 15.5691 2.03805 15.6505 2.04065 15.7319C2.04353 15.8255 2.04902 15.9245 1.92458 15.943C1.79928 15.9617 1.75568 15.8679 1.7323 15.7723C1.7092 15.6782 1.704 15.5798 1.69072 15.4819C1.57957 15.4859 1.52269 15.5382 1.54463 15.6456C1.56629 15.7518 1.58852 15.8618 1.635 15.9583C1.70025 16.0934 1.84201 16.1503 1.97164 16.1185C2.12986 16.0798 2.21561 15.977 2.21907 15.8099C2.22081 15.7241 2.20724 15.6381 2.2055 15.5518C2.20377 15.4585 2.23207 15.3606 2.33427 15.3612C2.3975 15.3615 2.49364 15.4227 2.51645 15.4802C2.56063 15.5907 2.56322 15.7181 2.58517 15.8503ZM20.3652 6.59116C20.4044 6.54323 20.4633 6.50368 20.4723 6.4546C20.5003 6.30418 20.3086 6.03481 20.159 5.99439C19.9474 5.93693 19.7531 6.08331 19.7667 6.30071C19.7733 6.40407 19.8065 6.50599 19.8316 6.60733C19.8547 6.7003 19.8498 6.78431 19.7502 6.82444C19.6555 6.86256 19.5738 6.82127 19.5325 6.7361C19.4814 6.63072 19.4491 6.51638 19.4061 6.39859C19.2949 6.41938 19.2415 6.49704 19.2938 6.60935C19.3486 6.72801 19.4156 6.8487 19.5051 6.94195C19.5978 7.03867 19.73 7.04012 19.8518 6.97458C19.9676 6.9125 20.036 6.8178 20.0147 6.68211C19.9976 6.57413 19.9532 6.46932 19.9474 6.36163C19.9439 6.2984 19.9757 6.20832 20.023 6.17541C20.0557 6.1526 20.1706 6.18696 20.1989 6.22911C20.2659 6.3293 20.3031 6.4494 20.3652 6.59058V6.59116ZM9.57585 21.7133C9.65987 21.5752 9.6079 21.4886 9.48317 21.4511C9.35729 21.413 9.22131 21.3674 9.09543 21.3801C8.76398 21.4136 8.5359 21.743 8.59624 22.064C8.65802 22.3923 8.9912 22.6201 9.31312 22.5546C9.42197 22.5323 9.44593 22.4651 9.42197 22.3663C9.07955 22.4117 8.90055 22.3476 8.80585 22.1495C8.7302 21.9919 8.76052 21.7825 8.89679 21.6593C9.13498 21.4439 9.3622 21.5458 9.57614 21.713L9.57585 21.7133ZM19.5247 17.7792C19.4566 17.6559 19.3783 17.6542 19.2761 17.7278C19.0567 17.8855 18.9516 18.1548 19.0226 18.3959C19.0963 18.6445 19.3316 18.827 19.5877 18.8336C19.8322 18.8399 20.0678 18.6638 20.168 18.4126C20.215 18.2951 20.1902 18.223 20.0623 18.1742C20.0008 18.4461 19.885 18.6633 19.5654 18.652C19.4003 18.6462 19.2271 18.5021 19.1887 18.3405C19.1199 18.0512 19.2952 17.8967 19.5244 17.7792H19.5247ZM13.7337 1.65989C13.7475 1.80598 13.7591 1.94341 13.7738 2.08026C13.7989 2.31383 13.8223 2.54769 13.8561 2.78011C13.8616 2.8188 13.9118 2.86326 13.9519 2.88C13.9796 2.89155 14.0411 2.87221 14.0605 2.84622C14.286 2.54249 14.5065 2.23501 14.7294 1.92695C14.6287 1.84698 14.5562 1.85448 14.4953 1.95611C14.4632 2.00952 14.4234 2.05803 14.3864 2.10855C14.2672 2.27226 14.1477 2.43567 14.005 2.63055C13.9768 2.33606 13.9487 2.0843 13.9294 1.83196C13.9207 1.71994 13.8884 1.64603 13.7337 1.65989ZM4.02615 5.81221C3.97938 6.08013 3.86158 6.29147 3.55814 6.3036C3.39097 6.31024 3.20186 6.16213 3.15798 5.99987C3.07945 5.70711 3.25787 5.54688 3.49 5.39963C3.42244 5.36643 3.34507 5.32601 3.29396 5.34737C3.0858 5.43428 2.93307 5.73829 2.97002 5.95627C3.01911 6.24586 3.24488 6.45691 3.52321 6.47337C3.80153 6.48982 4.05473 6.30851 4.1451 6.03481C4.18234 5.92221 4.15405 5.85118 4.02615 5.81221ZM3.48134 17.7841C3.60058 17.7503 3.64649 17.6966 3.60838 17.5725C3.52782 17.3089 3.31042 17.118 3.05087 17.103C2.80632 17.0889 2.54272 17.2685 2.45929 17.5064C2.37642 17.7425 2.4743 18.035 2.68477 18.2013C2.78871 18.2836 2.86204 18.2611 2.93018 18.1586C2.66052 17.9894 2.55832 17.8138 2.61115 17.6164C2.66139 17.4287 2.82827 17.2838 3.01506 17.2835C3.34218 17.2826 3.43399 17.5165 3.48163 17.7844L3.48134 17.7841ZM1.8423 10.8795C1.94855 11.124 1.97569 11.3538 1.74269 11.5331C1.59631 11.646 1.3818 11.644 1.23397 11.5242C0.98972 11.3258 1.05208 11.0896 1.18143 10.8567C1.03909 10.8006 0.959982 10.8526 0.941793 10.9799C0.92447 11.1012 0.902817 11.2308 0.927357 11.3472C0.998382 11.683 1.35523 11.8672 1.69043 11.7586C2.00542 11.6564 2.1749 11.2721 2.05075 10.958C2.00773 10.8494 1.93324 10.8708 1.84201 10.8792L1.8423 10.8795ZM2.29241 7.08746C2.37845 6.92954 2.4538 6.79095 2.53377 6.644C2.48873 6.61657 2.44918 6.59232 2.39606 6.56027C2.28288 6.76439 2.17461 6.95927 2.06086 7.16426C2.40183 7.35337 2.72721 7.53411 3.06241 7.72004C3.09331 7.66201 3.11698 7.61784 3.14441 7.56644C2.9989 7.48272 2.86349 7.40476 2.72317 7.32421C2.79535 7.18736 2.86118 7.06206 2.93047 6.93069C2.88052 6.90355 2.84357 6.88363 2.79968 6.85967C2.72433 6.98815 2.65244 7.11143 2.57419 7.24481C2.47892 7.19169 2.39288 7.14376 2.2927 7.08775L2.29241 7.08746ZM21.9185 12.7899C21.9072 12.9614 21.8968 13.1222 21.8827 13.3376C21.9577 13.2934 22.0383 13.2718 22.0429 13.2394C22.0706 13.0425 22.0813 12.843 22.0989 12.6291C21.7083 12.5962 21.3393 12.565 20.977 12.5344C20.9273 12.6698 20.966 12.7195 21.0826 12.7235C21.1958 12.7272 21.3087 12.7408 21.4294 12.7506C21.4233 12.8742 21.4112 12.979 21.4167 13.0827C21.419 13.1257 21.4591 13.167 21.4819 13.2091C21.5114 13.1696 21.5582 13.1338 21.5668 13.0902C21.5873 12.9856 21.5902 12.8774 21.6003 12.7685C21.7164 12.7766 21.807 12.783 21.9188 12.7908L21.9185 12.7899ZM1.72219 8.34627C2.03314 8.46522 2.33052 8.57897 2.6227 8.69042C2.72259 8.56742 2.67784 8.5169 2.55976 8.47446C2.30049 8.38149 2.04556 8.27698 1.78715 8.1765C1.83277 8.05207 1.87175 7.94553 1.91477 7.8286C1.85847 7.80897 1.81631 7.79424 1.76348 7.77576C1.66589 8.02955 1.57784 8.27207 1.47852 8.50968C1.43146 8.62199 1.45888 8.66848 1.58592 8.67743C1.62923 8.57262 1.67253 8.46753 1.72277 8.34569L1.72219 8.34627ZM2.39173 14.6824C2.40356 14.5343 2.3464 14.5057 2.22802 14.5424C2.02246 14.6062 1.81429 14.6619 1.60728 14.7211C1.48025 14.7573 1.39806 14.7102 1.36072 14.5799C1.34542 14.5271 1.32781 14.4748 1.30933 14.4159C1.25216 14.435 1.2129 14.448 1.15977 14.4656C1.24321 14.761 1.32434 15.0485 1.40836 15.3459C1.46812 15.3271 1.51085 15.3139 1.55936 15.2983C1.52789 15.1759 1.49988 15.0667 1.4687 14.9455C1.78138 14.8562 2.08395 14.7702 2.39144 14.6824H2.39173ZM13.8901 22.5271C13.8682 22.4177 13.859 22.3256 13.8304 22.2402C13.7813 22.0946 13.7998 21.9644 13.8673 21.8279C13.9427 21.6751 13.9996 21.5135 14.0689 21.3451C13.9528 21.3278 13.8849 21.3532 13.8471 21.4523C13.7928 21.5937 13.7311 21.7323 13.6664 21.8873C13.5451 21.7759 13.4371 21.676 13.3283 21.577C13.2267 21.4846 13.2117 21.4846 13.0768 21.5735C13.2296 21.715 13.378 21.857 13.5316 21.993C13.7025 22.1443 13.63 22.3831 13.7452 22.5647C13.7891 22.5534 13.8335 22.5419 13.8904 22.5269L13.8901 22.5271ZM4.53573 4.24332C4.75429 4.48931 4.96852 4.73039 5.19747 4.98792C5.24655 4.93624 5.27831 4.90217 5.31786 4.8606C5.09786 4.60912 4.88768 4.36862 4.67201 4.12206C4.76497 4.03747 4.84899 3.96125 4.97429 3.8472C4.8897 3.82411 4.81665 3.78195 4.79356 3.80101C4.57615 3.97943 4.36741 4.16854 4.14712 4.36227C4.18985 4.40789 4.22045 4.44051 4.25683 4.47978C4.35326 4.39807 4.44017 4.32445 4.53602 4.24332H4.53573ZM12.6432 22.7174C12.78 22.7552 12.8204 22.7076 12.8057 22.5921C12.7768 22.3643 12.7543 22.1356 12.7226 21.9084C12.7055 21.7863 12.7286 21.7104 12.8721 21.7231C12.8958 21.7251 12.9198 21.7199 12.9437 21.7187C13.0563 21.7133 13.0999 21.6647 13.0445 21.5423C12.7711 21.5718 12.4962 21.5989 12.2225 21.6353C12.1965 21.6388 12.1671 21.6982 12.1619 21.7352C12.1599 21.7508 12.2165 21.7909 12.2468 21.7915C12.34 21.7924 12.4333 21.7797 12.5314 21.7719C12.5698 22.0967 12.6062 22.4053 12.6432 22.7177V22.7174ZM21.9704 11.9647C21.9834 11.9775 21.9961 11.9902 22.0091 12.0029C22.0458 11.9699 22.1145 11.9367 22.1139 11.9044C22.1096 11.6287 22.0926 11.353 22.0787 11.0651C22.0169 11.0697 21.9719 11.0732 21.9263 11.0767V11.4384C21.602 11.4552 21.2842 11.4713 20.955 11.4884C20.9588 11.5525 20.9617 11.6018 20.964 11.642H21.9343C21.9462 11.7494 21.9583 11.8573 21.9702 11.965L21.9704 11.9647ZM15.9672 21.8394C16.1857 21.7306 16.3855 21.6313 16.5963 21.5262C16.5657 21.4713 16.544 21.432 16.5201 21.389C16.3584 21.4655 16.2091 21.536 16.0541 21.609C15.9039 21.3076 15.7633 21.0258 15.6187 20.7359C15.5606 20.7657 15.5162 20.7885 15.4634 20.8156C15.6328 21.1598 15.7951 21.4898 15.9672 21.8391V21.8394ZM16.8541 21.1875C16.6783 20.8988 16.512 20.6265 16.3422 20.3482C16.2859 20.3852 16.2472 20.4109 16.1955 20.4449C16.3942 20.7735 16.5885 21.0945 16.7865 21.4222C16.9985 21.2943 17.1893 21.1791 17.3905 21.0576C17.3518 21.003 17.3259 20.9663 17.2967 20.9256C17.1457 21.0148 17.0063 21.0977 16.8541 21.1878V21.1875ZM3.78074 17.7959C3.4799 18.0367 3.18743 18.2709 2.88861 18.5102C3.0422 18.7019 3.18137 18.876 3.32861 19.0597C3.3774 19.0155 3.41032 18.9857 3.44785 18.9514C3.33756 18.8085 3.23651 18.6777 3.13344 18.544C3.39357 18.3341 3.64187 18.1337 3.89594 17.9288C3.85205 17.8779 3.82174 17.8427 3.78103 17.7959H3.78074ZM2.96512 7.91377C2.61664 7.74978 2.28057 7.59156 1.93527 7.4293C1.90842 7.48994 1.88849 7.53526 1.86395 7.59041C2.21359 7.75498 2.54994 7.91348 2.89669 8.07661C2.92296 8.01396 2.94231 7.96776 2.96512 7.91348V7.91377ZM2.52713 6.36077C2.85512 6.57153 3.16722 6.77248 3.49 6.98006C3.5258 6.9229 3.55208 6.88103 3.58412 6.82993C3.25874 6.62032 2.94664 6.41938 2.62587 6.21294C2.59181 6.26376 2.56611 6.30216 2.52713 6.36077ZM5.83986 4.43445C5.60658 4.12841 5.38167 3.83306 5.15647 3.5377C5.13915 3.53597 5.12154 3.53395 5.10421 3.53221C5.08689 3.5862 5.03723 3.663 5.05687 3.69043C5.26301 3.97684 5.48012 4.25516 5.70186 4.54561C5.75325 4.50432 5.79223 4.47314 5.84015 4.43474L5.83986 4.43445ZM16.9069 20.0144C17.0978 20.2902 17.2895 20.5581 17.4705 20.8332C17.545 20.9461 17.603 20.9323 17.6833 20.835C17.6599 20.7969 17.6374 20.7559 17.6108 20.7172C17.448 20.481 17.28 20.2483 17.1229 20.0084C17.0496 19.8964 16.9904 19.9056 16.9069 20.0144ZM22.0054 13.5541C21.6211 13.4958 21.2521 13.4398 20.8756 13.3826C20.8658 13.4485 20.8589 13.4938 20.8496 13.555C21.2253 13.6127 21.5905 13.6688 21.9673 13.7265C21.9803 13.667 21.9909 13.6185 22.0051 13.5541H22.0054ZM12.0787 22.6227H12.0776C12.0629 22.3314 12.051 22.0398 12.0299 21.7488C12.0273 21.713 11.9774 21.6803 11.9491 21.6463C11.9202 21.6792 11.8662 21.7127 11.8668 21.745C11.8726 22.0606 11.8844 22.3764 11.9043 22.6914C11.9067 22.7258 11.9708 22.7561 12.0063 22.7881C12.0314 22.7521 12.0594 22.7174 12.0805 22.679C12.0883 22.6649 12.0799 22.6415 12.0787 22.6224V22.6227Z" fill="#64758B"/>
<path d="M15.8407 12.4227H14.8614C14.9001 12.1311 14.9364 11.8482 14.9754 11.5655C15.0205 11.2378 15.0695 10.911 15.1128 10.583C15.1264 10.4811 15.1527 10.4225 15.2783 10.4233C16.1814 10.4288 17.0848 10.4262 17.9879 10.4265C18.0245 10.4265 18.0609 10.4326 18.1158 10.4378C17.9934 10.6907 17.8074 10.8584 17.5779 10.9742C17.4711 11.0279 17.4578 11.077 17.5005 11.1832C17.6631 11.5869 17.8161 11.9943 17.9838 12.4296C17.8403 12.4296 17.7188 12.4296 17.5972 12.4296C17.3905 12.4296 17.1838 12.4247 16.9777 12.4317C16.8841 12.4348 16.8431 12.4005 16.8148 12.3142C16.7089 11.9911 16.5925 11.6712 16.4871 11.3478C16.4551 11.2491 16.4152 11.1994 16.2986 11.202C16.0021 11.2092 16.0047 11.2029 15.9672 11.4982C15.9288 11.802 15.8843 12.1051 15.8407 12.4227Z" fill="#64758B"/>
<path d="M12.9131 10.4446C13.1915 10.4438 13.4701 10.4452 13.7484 10.4409C13.8324 10.4397 13.8746 10.46 13.8948 10.5529C14.0224 11.1419 14.1581 11.7291 14.2897 12.3176C14.2967 12.3484 14.2906 12.3822 14.2906 12.4284C13.9566 12.4284 13.6263 12.431 13.2963 12.4238C13.2662 12.4232 13.2212 12.3614 13.2117 12.3216C13.1776 12.1775 13.1623 12.0288 13.1253 11.8853C13.1155 11.8472 13.0555 11.7961 13.0174 11.7953C12.7151 11.7878 12.4125 11.7863 12.1102 11.7956C12.0597 11.797 11.9907 11.8487 11.965 11.896C11.8873 12.0387 11.8304 12.1925 11.7565 12.3378C11.7369 12.3765 11.6864 12.4241 11.6488 12.425C11.3232 12.4319 10.9972 12.429 10.6453 12.429C10.7688 12.1804 10.8823 11.95 10.9981 11.7205C11.1924 11.3356 11.3907 10.9528 11.5813 10.5659C11.6249 10.4776 11.6731 10.4369 11.7765 10.4397C12.0594 10.4475 12.3429 10.4435 12.6261 10.4444L12.6241 10.4395C12.5794 10.591 12.4737 10.6263 12.3276 10.6086C12.2309 10.5968 12.1313 10.6063 11.9898 10.6063C12.146 10.7383 12.2673 10.8408 12.3845 10.9401C12.2985 11.113 12.2193 11.2724 12.1402 11.4315C12.2883 11.3746 12.4145 11.305 12.5306 11.2219C12.6178 11.1592 12.6793 11.1693 12.7543 11.2404C12.8346 11.3163 12.9276 11.3784 13.0405 11.4664C13.0338 11.3619 13.0347 11.2949 13.0246 11.2297C12.9932 11.0285 13.0633 10.8745 13.2348 10.7677C13.3095 10.721 13.382 10.6701 13.4874 10.6003C13.3269 10.6003 13.2166 10.5919 13.1077 10.6023C12.9804 10.6144 12.9175 10.5676 12.9157 10.4397L12.9128 10.4452L12.9131 10.4446Z" fill="#64758B"/>
<path d="M4.32785 12.0044C4.53226 11.7347 4.72512 11.4804 4.92001 11.2228C5.2272 11.4076 5.53555 11.5632 5.89067 11.5759C6.02319 11.5805 6.1586 11.5647 6.28939 11.5404C6.39159 11.5214 6.47215 11.4431 6.45425 11.3372C6.44212 11.2658 6.38207 11.1706 6.3197 11.1457C6.12078 11.066 5.90915 11.0193 5.7056 10.9506C5.51101 10.8847 5.31122 10.8247 5.13106 10.7294C5.00258 10.6616 4.90297 10.5394 4.79037 10.4416C4.79875 10.4228 4.80712 10.404 4.81549 10.3853H4.96303C5.60657 10.3853 6.25041 10.3853 6.89396 10.3853C7.22945 10.3853 7.45984 10.6038 7.48612 10.9468C7.53953 11.6467 7.17459 12.1773 6.49669 12.3549C5.79915 12.5376 5.12759 12.4542 4.49184 12.1086C4.44189 12.0815 4.39541 12.0477 4.32785 12.005V12.0044Z" fill="#64758B"/>
<path d="M8.08174 9.65404C8.10224 9.49409 8.1187 9.35175 8.13862 9.20999C8.15796 9.07256 8.18048 8.93571 8.20329 8.7876H11.2605C11.2201 9.07516 11.1802 9.35781 11.1387 9.65259H10.1186C10.1204 9.83304 10.0124 9.84083 9.879 9.83679C9.6206 9.82871 9.36162 9.83448 9.09542 9.83448V9.65404H8.08116H8.08174Z" fill="#64758B"/>
<path d="M18.2561 9.83367C17.9428 9.83367 17.6359 9.83569 17.329 9.83078C17.2964 9.83021 17.2511 9.797 17.234 9.7664C17.1705 9.65351 17.0727 9.60241 16.9505 9.59952C16.7441 9.59461 16.5374 9.60068 16.3309 9.59577C16.2449 9.59375 16.2212 9.63561 16.2233 9.70923C16.2261 9.81028 16.1736 9.83742 16.0786 9.83598C15.8009 9.83136 15.5231 9.83425 15.2223 9.83425C15.2731 9.47393 15.3213 9.13122 15.371 8.77639C15.468 8.77639 15.5537 8.77524 15.6392 8.77639C16.2149 8.78505 16.7914 8.78217 17.3663 8.80988C17.541 8.81826 17.7234 8.88813 17.8811 8.97041C18.1877 9.13036 18.3245 9.4644 18.2555 9.83338L18.2561 9.83367Z" fill="#64758B"/>
<path d="M7.74279 9.08721C7.53925 9.35572 7.3461 9.61036 7.17056 9.84191C6.92053 9.74231 6.69302 9.63202 6.45367 9.56359C6.31105 9.52288 6.14735 9.53097 5.9975 9.55002C5.92041 9.55984 5.82976 9.6274 5.78674 9.69496C5.74112 9.76714 5.70157 9.79428 5.62073 9.79341C5.33836 9.78995 5.056 9.79197 4.72542 9.79197C4.79615 9.62364 4.83686 9.47611 4.91424 9.3511C5.14637 8.97634 5.50437 8.78261 5.9285 8.71101C6.50737 8.61343 7.06546 8.67059 7.58082 8.97779C7.62961 9.00695 7.67552 9.0413 7.74279 9.08692V9.08721Z" fill="#64758B"/>
<path d="M8.71866 12.4289C8.779 11.9935 8.83617 11.5815 8.89362 11.1695C8.92278 10.9607 8.94934 10.7514 8.98514 10.5438C8.99236 10.502 9.03538 10.4341 9.06339 10.4333C9.36942 10.4252 9.67546 10.4283 9.9994 10.4283C9.96591 10.6795 9.93646 10.9111 9.90413 11.1423C9.84898 11.5362 9.79413 11.93 9.73176 12.3226C9.72541 12.3622 9.67027 12.4234 9.6362 12.4245C9.3394 12.4326 9.04231 12.4292 8.71866 12.4292V12.4289Z" fill="#64758B"/>
<path d="M13.7319 9.82459H11.9557C12.0683 9.59939 12.1723 9.39123 12.2765 9.18335C12.2895 9.15766 12.3091 9.13398 12.3163 9.10713C12.3908 8.8239 12.5719 8.73353 12.8568 8.77136C13.0552 8.79763 13.2593 8.77742 13.4611 8.77857C13.4701 8.77857 13.479 8.78377 13.5033 8.79157C13.5775 9.12705 13.6534 9.47005 13.7319 9.82459Z" fill="#64758B"/>
<path d="M18.2668 13.5288V14.8601C18.1611 14.9066 18.0953 14.8705 18.0332 14.7853C17.8323 14.5102 17.6253 14.2393 17.4203 13.9671C17.3894 13.9258 17.3568 13.8857 17.2981 13.8109V14.8687H17.1385V13.5464C17.2416 13.5028 17.3054 13.5395 17.3643 13.6192C17.5779 13.9088 17.7962 14.1949 18.013 14.4821C18.0352 14.5116 18.0601 14.5393 18.1054 14.5942V13.5401C18.1649 13.5357 18.2093 13.5326 18.2671 13.5282L18.2668 13.5288Z" fill="#64758B"/>
<path d="M15.4824 14.2065C15.4818 13.8028 15.7697 13.5057 16.1635 13.5034C16.5648 13.5008 16.8602 13.7988 16.8599 14.2056C16.8599 14.6101 16.5738 14.904 16.1785 14.9054C15.7703 14.9069 15.483 14.6185 15.4824 14.2067V14.2065ZM16.173 13.6631C15.8678 13.6622 15.647 13.8892 15.6464 14.2041C15.6458 14.518 15.8693 14.7521 16.1693 14.7518C16.4715 14.7518 16.697 14.5197 16.6976 14.2082C16.6982 13.8952 16.4756 13.664 16.173 13.6631Z" fill="#64758B"/>
<path d="M7.41944 14.2946C7.55946 14.4906 7.68939 14.6725 7.82508 14.8622C7.70093 14.9043 7.62327 14.8749 7.56062 14.7744C7.48959 14.6604 7.39518 14.5605 7.3308 14.4432C7.25111 14.298 7.14054 14.2697 6.97424 14.3168V14.8717C6.91245 14.8746 6.87088 14.8763 6.81833 14.8786V13.5205C7.0314 13.5309 7.24649 13.5257 7.4561 13.5569C7.63135 13.5829 7.73327 13.7177 7.74511 13.871C7.75897 14.0512 7.68072 14.1782 7.50721 14.2576C7.48584 14.2674 7.46361 14.2758 7.41972 14.2943L7.41944 14.2946ZM6.97221 13.9059H6.97279C6.97279 13.9634 6.96442 14.0226 6.97597 14.0777C6.9829 14.1104 7.02101 14.1612 7.04497 14.1612C7.16854 14.1612 7.29442 14.1594 7.41453 14.1352C7.52251 14.1132 7.58603 14.0281 7.58083 13.9135C7.57563 13.8009 7.50865 13.7209 7.40067 13.6992C7.29384 13.6776 7.18182 13.6704 7.07327 13.6764C7.03775 13.6784 6.99473 13.7368 6.97568 13.7786C6.95922 13.8141 6.97221 13.8632 6.97221 13.9065V13.9059Z" fill="#64758B"/>
<path d="M13.8093 14.8586C13.6771 14.9121 13.626 14.8607 13.5861 14.7582C13.4859 14.5006 13.4819 14.5021 13.201 14.5021H13.1577C12.8623 14.5021 12.8574 14.5001 12.7514 14.7723C12.7104 14.8774 12.6539 14.9022 12.543 14.8612C12.6948 14.4917 12.8458 14.1247 12.9966 13.7578C13.0185 13.7046 13.0335 13.6463 13.0658 13.6004C13.0887 13.5678 13.1349 13.5346 13.1715 13.5337C13.2085 13.5326 13.2677 13.562 13.2809 13.5935C13.4597 14.0113 13.632 14.4316 13.809 14.8586H13.8093ZM13.1955 13.7647C13.1816 13.7638 13.1681 13.763 13.1542 13.7621C13.078 13.9529 13.002 14.1438 12.9189 14.3522H13.423C13.3424 14.1438 13.2688 13.9544 13.1955 13.7647Z" fill="#64758B"/>
<path d="M6.52152 14.8711H5.74776V13.5303C5.99057 13.5303 6.23309 13.5274 6.47561 13.535C6.50044 13.5358 6.52354 13.5993 6.57233 13.6701C6.36474 13.6701 6.2071 13.6758 6.05033 13.668C5.93456 13.6626 5.9002 13.7082 5.9028 13.819C5.91117 14.167 5.87017 14.102 6.19469 14.1086C6.2712 14.1101 6.34742 14.1086 6.4297 14.1086C6.46204 14.1999 6.45222 14.251 6.34511 14.2466C6.26831 14.2435 6.19151 14.2461 6.11443 14.2463C6.08094 14.2463 6.04571 14.2406 6.01366 14.2478C5.80001 14.2972 5.93831 14.4663 5.90886 14.5772C5.89009 14.6477 5.87855 14.749 6.01511 14.7441C6.15427 14.7389 6.29372 14.7461 6.43317 14.7424C6.52498 14.7398 6.55847 14.7724 6.52152 14.8708V14.8711Z" fill="#64758B"/>
<path d="M5.45356 14.6487C5.50062 14.7853 5.43277 14.8396 5.32046 14.8734C4.9971 14.9707 4.6593 14.8719 4.47914 14.623C4.30447 14.3817 4.3114 14.0216 4.49531 13.7731C4.68211 13.5204 5.07996 13.42 5.36521 13.5663C5.41314 13.5909 5.43046 13.6746 5.44692 13.7387C5.02712 13.6094 4.78489 13.6483 4.62032 13.879C4.47625 14.0808 4.48636 14.3707 4.64457 14.5633C4.82011 14.7772 5.07592 14.8055 5.45385 14.649L5.45356 14.6487Z" fill="#64758B"/>
<path d="M12.3371 13.742C11.9624 13.6054 11.7222 13.6452 11.5553 13.8722C11.4106 14.0688 11.4115 14.3488 11.5573 14.544C11.7248 14.7678 11.9615 14.7998 12.3793 14.6549C12.4235 14.7888 12.3565 14.8431 12.2355 14.8772C11.6532 15.0412 11.1647 14.5925 11.3053 14.0197C11.4078 13.6025 11.9006 13.3713 12.2909 13.565C12.3363 13.5875 12.3539 13.6663 12.3845 13.7192C12.3686 13.727 12.353 13.7345 12.3371 13.7423V13.742Z" fill="#64758B"/>
<path d="M9.9379 14.8735H9.78517V13.5391H10.5543C10.5887 13.619 10.5843 13.6719 10.4732 13.6701C10.334 13.6678 10.1946 13.6727 10.0554 13.6693C9.96966 13.667 9.93963 13.6996 9.93646 13.7871C9.92347 14.1381 9.92058 14.1381 10.2644 14.1381C10.3311 14.1381 10.3978 14.1381 10.4689 14.1381C10.5061 14.2343 10.487 14.2793 10.3834 14.2762C10.2875 14.273 10.1905 14.2834 10.0953 14.2738C9.96389 14.2609 9.92751 14.3163 9.93588 14.4396C9.94541 14.5776 9.9379 14.7167 9.9379 14.8735Z" fill="#64758B"/>
<path d="M8.58007 14.8716H8.42445C8.42156 14.8202 8.41665 14.7694 8.41636 14.7186C8.4155 14.4212 8.41203 14.1241 8.41781 13.8267C8.42012 13.7112 8.3872 13.6567 8.26421 13.6679C8.18337 13.6754 8.10051 13.6754 8.02024 13.665C7.99166 13.6613 7.96799 13.6174 7.94229 13.5917C7.96799 13.5706 7.99311 13.5314 8.01909 13.5311C8.33552 13.527 8.65196 13.5259 8.96839 13.5328C8.99899 13.5334 9.02786 13.5934 9.05789 13.6261C9.04952 13.6405 9.04115 13.6549 9.03248 13.6691C8.95251 13.6691 8.87253 13.6691 8.79227 13.6691C8.6508 13.6691 8.57997 13.7375 8.57978 13.8744C8.57978 14.1573 8.57978 14.4403 8.57978 14.7229V14.871L8.58007 14.8716Z" fill="#64758B"/>
<path d="M13.744 13.6698C13.712 13.5633 13.7377 13.5257 13.8327 13.5269C14.1251 13.5306 14.4179 13.5298 14.7104 13.5275C14.8025 13.5266 14.8342 13.561 14.7961 13.6698C14.7473 13.6698 14.6913 13.6692 14.6353 13.6698C14.3171 13.6733 14.3576 13.6328 14.3553 13.9571C14.3535 14.2065 14.355 14.456 14.355 14.7051C14.355 14.7568 14.355 14.8085 14.355 14.8697H14.191C14.191 14.5235 14.1849 14.184 14.1939 13.8448C14.1976 13.7091 14.1621 13.651 14.0201 13.6675C13.9308 13.6779 13.8396 13.6695 13.7443 13.6695L13.744 13.6698Z" fill="#64758B"/>
<path d="M9.26433 14.88V13.5392C9.31139 13.5357 9.35614 13.5329 9.41215 13.5288V14.8696C9.36769 14.8728 9.32294 14.876 9.26433 14.8803V14.88Z" fill="#64758B"/>
<path d="M15.0623 13.5391H15.2061V14.8724C15.1579 14.8747 15.1166 14.8767 15.0623 14.8793V13.5391Z" fill="#64758B"/>
<path d="M11.0027 13.5298V14.8703C10.9525 14.8732 10.908 14.8761 10.854 14.8792V13.5384C10.899 13.5358 10.9435 13.5332 11.0027 13.5298Z" fill="#64758B"/>
<path d="M12.6261 10.4442C12.6894 10.3183 12.7523 10.1922 12.8294 10.0386C12.8612 10.1927 12.8868 10.3186 12.9128 10.4448L12.9157 10.4393C12.8184 10.4393 12.7211 10.4393 12.6241 10.4393L12.6261 10.4442Z" fill="#64758B"/>
<path d="M19.0319 9.06256C19.0244 9.07931 19.0169 9.09605 18.9998 9.13387C18.9655 9.05332 18.9383 8.99009 18.8988 8.89742C18.8794 8.98721 18.8679 9.04148 18.8561 9.09576C18.8474 9.09432 18.839 9.09288 18.8304 9.09143C18.8465 8.99356 18.863 8.89597 18.8852 8.76172C18.947 8.88731 18.9909 8.97652 19.0348 9.06603L19.0316 9.06256H19.0319Z" fill="#64758B"/>
<path d="M18.5564 8.78564H18.7706C18.5792 8.85176 18.6814 9.02326 18.6011 9.12027C18.5468 9.01777 18.6938 8.89218 18.5567 8.78564H18.5564Z" fill="#64758B"/>
<path d="M19.0351 9.06619C19.0816 8.97293 19.1277 8.87968 19.1742 8.78613L19.2164 8.80346C19.1988 8.90682 19.1812 9.01047 19.1635 9.11383C19.1566 9.11325 19.1497 9.11238 19.143 9.1118V8.92472C19.0957 8.98304 19.0639 9.02259 19.0322 9.06215L19.0354 9.0659L19.0351 9.06619Z" fill="#64758B"/>
<path d="M4.20804 19.5812C3.98313 19.5835 3.80383 19.4091 3.80268 19.1874C3.80152 18.9579 3.99958 18.7558 4.2294 18.752C4.45171 18.7483 4.63274 18.9252 4.63389 19.1476C4.63505 19.3794 4.4393 19.5786 4.20775 19.5809L4.20804 19.5812Z" fill="#64758B"/>
<path d="M6.12886 3.12158C6.35406 3.12158 6.55299 3.3283 6.5527 3.56159C6.55241 3.77697 6.36272 3.96463 6.14648 3.96434C5.92532 3.96377 5.72235 3.75069 5.72264 3.51972C5.72293 3.30087 5.90598 3.12158 6.12915 3.12158H6.12886Z" fill="#64758B"/>
<path d="M15.5422 3.2806C15.6637 3.03433 15.7795 2.79989 15.8947 2.56689C16.1366 2.62204 16.2966 2.76755 16.3255 2.95435C16.3491 3.10853 16.2634 3.28724 16.1231 3.36866C15.9077 3.49339 15.7327 3.37357 15.5419 3.2806H15.5422Z" fill="#64758B"/>
<path d="M12.5695 2.10994C12.5684 1.85702 12.7318 1.67831 12.9662 1.67629C13.2018 1.67427 13.3713 1.84374 13.373 2.0828C13.3748 2.32503 13.2013 2.51559 12.9732 2.52194C12.7494 2.528 12.5701 2.34524 12.5693 2.10994H12.5695Z" fill="#64758B"/>
<path d="M6.04746 20.1685C6.23628 20.2822 6.42568 20.3784 6.42192 20.6292C6.41932 20.8048 6.33329 20.933 6.17651 21.0046C5.9568 21.1051 5.79396 20.9728 5.61525 20.8542C5.68945 20.7352 5.75932 20.622 5.83034 20.5094C5.90137 20.3968 5.97326 20.2851 6.04746 20.1685Z" fill="#64758B"/>
<path d="M1.71007 9.56943C1.58621 9.53449 1.48603 9.50649 1.36304 9.47184C1.39826 9.36848 1.41529 9.26079 1.47044 9.17908C1.50306 9.13087 1.60325 9.09362 1.66013 9.10662C1.70776 9.11759 1.76608 9.20796 1.76782 9.26483C1.77099 9.36126 1.73317 9.45885 1.70979 9.56943H1.71007Z" fill="#64758B"/>
<path d="M21.3829 14.0806C21.5108 14.1106 21.6162 14.1354 21.7348 14.1631C21.7086 14.261 21.7028 14.358 21.6572 14.4299C21.6205 14.4877 21.5374 14.5468 21.473 14.5489C21.3742 14.552 21.3283 14.4648 21.3387 14.3658C21.348 14.2766 21.3659 14.1883 21.3829 14.0806Z" fill="#64758B"/>
<path d="M1.44907 12.9953C1.32348 13.0023 1.21954 13.0083 1.08991 13.0155C1.08991 12.9148 1.08788 12.8221 1.09048 12.7294C1.09337 12.6341 1.14621 12.5778 1.24004 12.568C1.34629 12.5571 1.40085 12.6269 1.42106 12.7153C1.44098 12.8019 1.43983 12.8931 1.44907 12.9953Z" fill="#64758B"/>
<path d="M11.0532 22.1791V21.8018C11.1635 21.8136 11.2706 21.8087 11.365 21.8413C11.4184 21.8598 11.4828 21.9395 11.4834 21.992C11.484 22.0437 11.4196 22.124 11.3665 22.1424C11.2758 22.1742 11.1716 22.1676 11.0532 22.1791Z" fill="#64758B"/>
<path d="M11.6032 1.57031C11.7155 1.58446 11.8275 1.58186 11.9257 1.61795C11.9762 1.63643 12.0343 1.7268 12.0291 1.77877C12.0236 1.83189 11.9523 1.90493 11.8965 1.91966C11.8079 1.94333 11.7086 1.92601 11.6035 1.92601V1.57031H11.6032Z" fill="#64758B"/>
<path d="M4.41591 5.07443C4.32035 5.1671 4.24615 5.23871 4.16127 5.32099C4.0963 5.1801 4.03885 5.05566 3.96205 4.88965C4.12575 4.95634 4.25423 5.0086 4.41591 5.07443Z" fill="#64758B"/>
<path d="M1.75539 14.0103C1.59544 13.9782 1.46032 13.9511 1.29056 13.917C1.4352 13.8281 1.55473 13.7545 1.69851 13.6655C1.71872 13.7879 1.73576 13.8916 1.7551 14.0103H1.75539Z" fill="#64758B"/>
<path d="M18.1063 19.9377C18.0046 20.0174 17.9232 20.0815 17.8302 20.1545C17.7832 20.0044 17.7407 19.8696 17.6876 19.7007C17.8386 19.7861 17.9599 19.8549 18.1063 19.9377Z" fill="#64758B"/>
<path d="M17.3891 4.01743C17.2852 3.94583 17.2032 3.88924 17.0989 3.81735C17.2306 3.73218 17.3507 3.6548 17.5026 3.55664C17.4613 3.72496 17.4281 3.85922 17.3894 4.01772L17.3891 4.01743Z" fill="#64758B"/>
<path d="M14.9722 21.2612C15.0889 21.3926 15.1793 21.4945 15.2826 21.6112C15.1749 21.6524 15.0805 21.6885 14.9722 21.7298V21.2612Z" fill="#64758B"/>
<path d="M8.59451 2.52172C8.61241 2.356 8.62685 2.22002 8.64533 2.04736C8.75215 2.18595 8.83703 2.29624 8.93491 2.42298C8.81336 2.45821 8.71491 2.48679 8.59451 2.52144V2.52172Z" fill="#64758B"/>
<path d="M9.58711 2.1437C9.56142 2.00454 9.54178 1.89742 9.51724 1.7649C9.62349 1.75335 9.72743 1.72333 9.82444 1.73863C9.88738 1.74845 9.96504 1.81283 9.9916 1.87259C10.0309 1.96065 9.97774 2.04351 9.8842 2.07441C9.79152 2.10501 9.69365 2.11945 9.58682 2.1437H9.58711Z" fill="#64758B"/>
<path d="M10.5858 2.00831C10.5728 1.86799 10.5624 1.75539 10.5511 1.63384C10.7085 1.60757 10.8583 1.55618 10.9781 1.67975C11.0134 1.71613 11.0264 1.8114 11.0047 1.85904C10.9218 2.04007 10.7428 1.96356 10.5858 2.00831Z" fill="#64758B"/>
</svg>
