<svg width="35" height="34" viewBox="0 0 35 34" fill="none" xmlns="http://www.w3.org/2000/svg">
<path d="M10.167 12.2456C10.5973 13.3339 11.1824 14.3964 11.7257 15.4325C12.3694 16.6603 13.0643 17.8638 13.716 19.0858C13.7708 19.1885 14.1327 20.0254 14.1941 19.645C14.4973 17.7648 15.1531 15.9325 15.5644 14.0708C16.0682 11.7908 16.6021 13.724 17.9488 15.2297C19.7694 17.2652 21.4769 19.3898 23.2593 21.4557" stroke="#32D583" stroke-width="1.5" stroke-linecap="round"/>
<path d="M18.3179 20.0029C24.7842 22.9964 22.9628 24.1123 24.4131 16.4077" stroke="#32D583" stroke-width="1.5" stroke-linecap="round"/>
<path d="M13.2133 4.96659C13.0508 4.79016 13.7655 4.47679 13.8792 4.44759C14.6654 4.24577 15.6113 4.37139 16.4058 4.44903C17.3876 4.54498 18.296 4.83141 19.2222 5.16617C20.4199 5.59908 21.3387 6.15409 22.3157 6.9623C23.7522 8.15049 25.3782 9.34628 26.5498 10.8062C28.0738 12.7052 28.5969 15.1536 28.8577 17.5089C29.1105 19.7908 28.675 21.8429 27.6068 23.8693C26.6943 25.6004 25.3404 27.4248 23.6763 28.5005C20.9527 30.2611 18.0476 29.6421 15.2193 28.3943C13.0567 27.4402 10.9723 26.1264 9.16562 24.5975C7.83613 23.4724 6.84985 21.9427 6.33165 20.2778C5.6007 17.9294 5.16979 15.3541 5.5588 12.9132C5.83717 11.1666 6.69829 9.32824 8.10551 8.21613C9.30201 7.27056 10.6592 6.69985 12.1842 6.54421C12.9145 6.46968 14.1701 6.59247 14.7725 7.10229" stroke="#027A48" stroke-linecap="round"/>
</svg>
