<svg width="30" height="30" viewBox="0 0 30 30" fill="none" xmlns="http://www.w3.org/2000/svg">
<rect width="30" height="30" rx="3.75" fill="#FBF2F2"/>
<path d="M21.75 9.75C21.75 10.9926 18.7279 12 15 12C11.2721 12 8.25 10.9926 8.25 9.75M21.75 9.75C21.75 8.50736 18.7279 7.5 15 7.5C11.2721 7.5 8.25 8.50736 8.25 9.75M21.75 9.75V20.25C21.75 20.8467 21.0388 21.419 19.773 21.841C18.5071 22.2629 16.7902 22.5 15 22.5C13.2098 22.5 11.4929 22.2629 10.227 21.841C8.96116 21.419 8.25 20.8467 8.25 20.25V9.75M8.25 15C8.25 15.5967 8.96116 16.169 10.227 16.591C11.4929 17.0129 13.2098 17.25 15 17.25C16.7902 17.25 18.5071 17.0129 19.773 16.591C21.0388 16.169 21.75 15.5967 21.75 15" stroke="#D23737" stroke-width="1.5" stroke-linecap="round" stroke-linejoin="round"/>
</svg>
