<svg width="20" height="20" viewBox="0 0 20 20" fill="none" xmlns="http://www.w3.org/2000/svg">
<path d="M17.5001 4.16797C17.5001 5.54868 14.1422 6.66797 10.0001 6.66797C5.85792 6.66797 2.50006 5.54868 2.50006 4.16797M17.5001 4.16797C17.5001 2.78726 14.1422 1.66797 10.0001 1.66797C5.85792 1.66797 2.50006 2.78726 2.50006 4.16797M17.5001 4.16797V6.66797M2.50006 4.16797L2.50006 15.8346C2.49541 16.2354 2.77989 16.6307 3.3295 16.9871C3.87911 17.3436 4.67775 17.6507 5.65809 17.8827C6.63843 18.1148 7.77174 18.2648 8.96248 18.3202C10.1532 18.3757 11.3665 18.3349 12.5001 18.2013M17.5001 10.0013L15.0001 14.168H18.3334L15.8334 18.3346M2.50006 10.0013C2.50126 10.3909 2.77563 10.775 3.30127 11.123C3.82691 11.471 4.58927 11.7732 5.52753 12.0056C6.46578 12.2379 7.55396 12.3939 8.70523 12.4612C9.85651 12.5285 11.039 12.5051 12.1584 12.393" stroke="#94A3B8" stroke-width="2" stroke-linecap="round" stroke-linejoin="round"/>
</svg>
