<svg width="30" height="30" viewBox="0 0 30 30" fill="none" xmlns="http://www.w3.org/2000/svg">
<rect width="30" height="30" rx="3.75" fill="#ECFDF3"/>
<path d="M15 8.25V21C15 21.1989 14.921 21.3897 14.7803 21.5303C14.6397 21.671 14.4489 21.75 14.25 21.75H9.75C9.35218 21.75 8.97064 21.592 8.68934 21.3107C8.40804 21.0294 8.25 20.6478 8.25 20.25V9.75C8.25 9.35218 8.40804 8.97064 8.68934 8.68934C8.97064 8.40804 9.35218 8.25 9.75 8.25H20.25C20.6478 8.25 21.0294 8.40804 21.3107 8.68934C21.592 8.97064 21.75 9.35218 21.75 9.75V14.25C21.75 14.4489 21.671 14.6397 21.5303 14.7803C21.3897 14.921 21.1989 15 21 15H8.25" stroke="#039855" stroke-width="1.5" stroke-linecap="round" stroke-linejoin="round"/>
<path d="M18 18L21.75 21.75" stroke="#039855" stroke-width="1.5" stroke-linecap="round" stroke-linejoin="round"/>
<path d="M18 21.75L21.75 18" stroke="#039855" stroke-width="1.5" stroke-linecap="round" stroke-linejoin="round"/>
</svg>
