<svg width="30" height="30" viewBox="0 0 30 30" fill="none" xmlns="http://www.w3.org/2000/svg">
<rect width="30" height="30" rx="3.75" fill="#FFF6ED"/>
<g clip-path="url(#clip0_472_4146)">
<path d="M7.5 7.5L22.5 22.5" stroke="#EC4A0A" stroke-width="1.5" stroke-linecap="round" stroke-linejoin="round"/>
<path d="M9.75 9.75C9.55109 9.75 9.36032 9.82902 9.21967 9.96967C9.07902 10.1103 9 10.3011 9 10.5V15.75C9 19.5 11.625 21.375 14.7525 22.455C14.9142 22.5152 15.0916 22.5179 15.255 22.4625C17.0175 21.8475 18.615 20.985 19.68 19.68" stroke="#EC4A0A" stroke-width="1.5" stroke-linecap="round" stroke-linejoin="round"/>
<path d="M12.9819 8.73934C13.4968 8.44392 13.9818 8.09931 14.4302 7.71034C14.5891 7.57459 14.7912 7.5 15.0002 7.5C15.2092 7.5 15.4113 7.57459 15.5702 7.71034C16.8827 8.85784 18.7502 9.75034 20.2502 9.75034C20.4491 9.75034 20.6399 9.82936 20.7805 9.97001C20.9212 10.1107 21.0002 10.3014 21.0002 10.5003V15.7503C21.0007 16.0673 20.9806 16.384 20.9402 16.6983" stroke="#EC4A0A" stroke-width="1.5" stroke-linecap="round" stroke-linejoin="round"/>
</g>
<defs>
<clipPath id="clip0_472_4146">
<rect width="18" height="18" fill="white" transform="translate(6 6)"/>
</clipPath>
</defs>
</svg>
