<svg width="30" height="30" viewBox="0 0 30 30" fill="none" xmlns="http://www.w3.org/2000/svg">
<rect width="30" height="30" rx="3.75" fill="#F9F5FF"/>
<g clip-path="url(#clip0_472_4153)">
<path d="M7.5 19.5004V21.7504C7.5 22.2004 7.8 22.5004 8.25 22.5004H11.25V20.2504H13.5V18.0004H15L16.05 16.9504C17.0924 17.3135 18.2271 17.3121 19.2686 16.9464C20.3101 16.5808 21.1967 15.8725 21.7833 14.9375C22.3699 14.0024 22.6218 12.896 22.4978 11.7992C22.3739 10.7023 21.8813 9.68005 21.1008 8.89954C20.3203 8.11903 19.298 7.6265 18.2012 7.50253C17.1044 7.37856 15.9979 7.63049 15.0629 8.2171C14.1279 8.8037 13.4196 9.69027 13.0539 10.7318C12.6883 11.7732 12.6869 12.908 13.05 13.9504L7.5 19.5004Z" stroke="#7F56D9" stroke-width="1.5" stroke-linecap="round" stroke-linejoin="round"/>
<path d="M18.375 12C18.5821 12 18.75 11.8321 18.75 11.625C18.75 11.4179 18.5821 11.25 18.375 11.25C18.1679 11.25 18 11.4179 18 11.625C18 11.8321 18.1679 12 18.375 12Z" fill="#7F56D9" stroke="#7F56D9" stroke-width="1.5" stroke-linecap="round" stroke-linejoin="round"/>
</g>
<defs>
<clipPath id="clip0_472_4153">
<rect width="18" height="18" fill="white" transform="translate(6 6)"/>
</clipPath>
</defs>
</svg>
