<svg width="50" height="50" viewBox="0 0 50 50" fill="none" xmlns="http://www.w3.org/2000/svg">
<path fill-rule="evenodd" clip-rule="evenodd" d="M30.5912 30.4877C30.5912 32.0352 31.6083 33.0388 33.1765 33.0388H38.7468C39.3785 31.4855 39.8027 29.778 39.9998 27.9357H33.1765C31.6083 27.9357 30.5912 28.9393 30.5912 30.4877ZM25.4535 30.4877C25.4535 28.9393 24.4363 27.9357 22.8687 27.9357H10V33.0388H22.8687C24.4363 33.0388 25.4535 32.0352 25.4535 30.4877ZM22.4783 8H13.182C11.2524 8 10 9.24072 10 11.1541V13.1167H35.645C32.5608 9.86005 28.0245 8 22.4783 8ZM10 39.8467C10 41.7593 11.2524 43 13.182 43H22.4783C28.0245 43 32.5608 41.14 35.645 37.884H10V39.8467ZM25.4555 17.9735C23.8872 17.9735 22.87 18.9777 22.87 20.5253C22.87 22.0737 23.8872 23.0772 25.4555 23.0772H40C39.8028 21.235 39.3787 19.5273 38.747 17.9735H25.4555ZM17.7322 20.5253C17.7322 18.9777 16.715 17.9735 15.1475 17.9735H10V23.0772H15.1475C16.715 23.0772 17.7322 22.0737 17.7322 20.5253Z" fill="#5059FE"/>
</svg>
