<svg width="54" height="48" viewBox="0 0 54 48" fill="none" xmlns="http://www.w3.org/2000/svg">
<g clip-path="url(#clip0_924_4819)">
<path d="M4.06154 41.1403L6.43077 45.2326C6.92308 46.0941 7.63077 46.771 8.46154 47.2633L16.9231 32.6172H0C0 33.571 0.246154 34.5249 0.738461 35.3864L4.06154 41.1403Z" fill="#0066DA"/>
<path d="M26.8615 15.3846L18.4 0.738464C17.5692 1.23077 16.8615 1.9077 16.3692 2.76923L0.738462 29.8462C0.255208 30.6891 0.000643423 31.6437 0 32.6154H16.9231L26.8615 15.3846Z" fill="#00AC47"/>
<path d="M45.2616 47.2633C46.0924 46.771 46.8001 46.0941 47.2924 45.2326L48.277 43.5403L52.9847 35.3864C53.477 34.5249 53.7231 33.571 53.7231 32.6172H36.7988L40.4001 39.6941L45.2616 47.2633Z" fill="#EA4335"/>
<path d="M26.8619 15.3846L35.3235 0.738462C34.4927 0.246154 33.5389 0 32.5542 0H21.1696C20.185 0 19.2312 0.276923 18.4004 0.738462L26.8619 15.3846Z" fill="#00832D"/>
<path d="M36.8004 32.6172H16.9235L8.46191 47.2633C9.29268 47.7557 10.2465 48.0018 11.2311 48.0018H42.4927C43.4773 48.0018 44.4311 47.7249 45.2619 47.2633L36.8004 32.6172Z" fill="#2684FC"/>
<path d="M45.1693 16.3077L37.3539 2.76923C36.8616 1.9077 36.1539 1.23077 35.3231 0.738464L26.8616 15.3846L36.8 32.6154H53.6923C53.6923 31.6615 53.4462 30.7077 52.9539 29.8462L45.1693 16.3077Z" fill="#FFBA00"/>
</g>
<defs>
<clipPath id="clip0_924_4819">
<rect width="53.7231" height="48" fill="white"/>
</clipPath>
</defs>
</svg>
