<svg width="27" height="25" viewBox="0 0 27 25" fill="none" xmlns="http://www.w3.org/2000/svg">
<path d="M13.4124 21.7328C18.8647 21.7328 23.2846 17.3129 23.2846 11.8607C23.2846 6.40844 18.8647 1.98853 13.4124 1.98853C7.9602 1.98853 3.54028 6.40844 3.54028 11.8607C3.54028 17.3129 7.9602 21.7328 13.4124 21.7328Z" fill="#FFD21E"/>
<path d="M23.2847 11.8608C23.2847 6.40857 18.8648 1.98866 13.4126 1.98866C7.96035 1.98866 3.54043 6.40857 3.54043 11.8608C3.54043 17.3131 7.96035 21.733 13.4126 21.733C18.8648 21.733 23.2847 17.3131 23.2847 11.8608ZM2.40405 11.8608C2.40405 5.78099 7.33273 0.852295 13.4126 0.852295C19.4924 0.852295 24.4211 5.78099 24.4211 11.8608C24.4211 17.9406 19.4924 22.8693 13.4126 22.8693C7.33273 22.8693 2.40405 17.9406 2.40405 11.8608Z" fill="#FF9D0B"/>
<path d="M16.62 9.17374C16.9821 9.30158 17.1262 10.0459 17.4919 9.85141C18.1846 9.48312 18.4475 8.62303 18.0792 7.93036C17.7109 7.23772 16.8508 6.97477 16.1582 7.34306C15.4655 7.71136 15.2025 8.57144 15.5708 9.26411C15.7447 9.59104 16.2964 9.05945 16.62 9.17374Z" fill="#3A3B45"/>
<path d="M9.9277 9.17374C9.56565 9.30158 9.42162 10.0459 9.05588 9.85141C8.36321 9.48312 8.10025 8.62303 8.46855 7.93036C8.83684 7.23772 9.69693 6.97477 10.3896 7.34306C11.0823 7.71136 11.3452 8.57144 10.9769 9.26411C10.8031 9.59104 10.2513 9.05945 9.9277 9.17374Z" fill="#3A3B45"/>
<path d="M13.3414 15.9912C16.1335 15.9912 17.0346 13.5018 17.0346 12.2234C17.0346 11.559 16.5879 11.7681 15.8726 12.1222C15.2115 12.4495 14.321 12.9006 13.3414 12.9006C11.3017 12.9006 9.64819 10.945 9.64819 12.2234C9.64819 13.5018 10.5492 15.9912 13.3414 15.9912Z" fill="#3A3B45"/>
<mask id="mask0_1_14734" style="mask-type:alpha" maskUnits="userSpaceOnUse" x="9" y="11" width="9" height="5">
<path d="M13.3414 15.9912C16.1335 15.9912 17.0346 13.5018 17.0346 12.2234C17.0346 11.559 16.5879 11.7681 15.8726 12.1222C15.2115 12.4495 14.321 12.9006 13.3414 12.9006C11.3017 12.9006 9.64819 10.945 9.64819 12.2234C9.64819 13.5018 10.5492 15.9912 13.3414 15.9912Z" fill="white"/>
</mask>
<g mask="url(#mask0_1_14734)">
<path d="M13.4124 18.892C14.7732 18.892 15.8763 17.7889 15.8763 16.4282C15.8763 15.3682 15.2071 14.4647 14.2681 14.1169C14.2335 14.1041 14.1986 14.092 14.1634 14.0808C13.9266 14.0051 13.6743 14.8188 13.4124 14.8188C13.1677 14.8188 12.9314 13.9999 12.7082 14.0663C11.6906 14.3693 10.9485 15.312 10.9485 16.4282C10.9485 17.7889 12.0516 18.892 13.4124 18.892Z" fill="#F94040"/>
</g>
<path d="M20.0886 10.5114C20.5985 10.5114 21.0119 10.098 21.0119 9.58809C21.0119 9.07818 20.5985 8.66479 20.0886 8.66479C19.5786 8.66479 19.1653 9.07818 19.1653 9.58809C19.1653 10.098 19.5786 10.5114 20.0886 10.5114Z" fill="#FF9D0B"/>
<path d="M6.87837 10.5114C7.38829 10.5114 7.80167 10.098 7.80167 9.58809C7.80167 9.07818 7.38829 8.66479 6.87837 8.66479C6.36843 8.66479 5.95508 9.07818 5.95508 9.58809C5.95508 10.098 6.36843 10.5114 6.87837 10.5114Z" fill="#FF9D0B"/>
<path d="M4.97827 13.6365C4.51833 13.6365 4.10725 13.8254 3.8206 14.168C3.64333 14.3802 3.4581 14.7223 3.44304 15.2345C3.25014 15.1791 3.06463 15.1481 2.89134 15.1481C2.451 15.1481 2.05327 15.3169 1.77202 15.6234C1.41066 16.0169 1.25014 16.5004 1.32003 16.9842C1.35327 17.2146 1.43026 17.4211 1.54531 17.6123C1.3027 17.8086 1.12401 18.0819 1.03764 18.4106C0.970031 18.6683 0.900712 19.2049 1.26264 19.7578C1.23963 19.7939 1.21804 19.8314 1.19787 19.8697C0.980258 20.2828 0.966337 20.7495 1.15838 21.1842C1.44958 21.843 2.17316 22.362 3.57827 22.9191C4.45242 23.2657 5.25213 23.4873 5.25924 23.4893C6.41492 23.789 7.46009 23.9413 8.36492 23.9413C10.028 23.9413 11.2186 23.4319 11.9038 22.4274C13.0067 20.8098 12.849 19.3302 11.422 17.9041C10.6322 17.1149 10.1072 15.9512 9.99787 15.6958C9.77742 14.9396 9.19446 14.099 8.22543 14.099C8.1439 14.099 8.06122 14.1055 7.97997 14.1183C7.55554 14.1851 7.18452 14.4294 6.91946 14.797C6.63338 14.4413 6.35554 14.1584 6.10412 13.9987C5.72514 13.7584 5.34645 13.6365 4.97827 13.6365ZM4.97827 14.7728C5.12316 14.7728 5.30014 14.8345 5.49532 14.9583C6.10128 15.3427 7.2706 17.3527 7.69872 18.1345C7.84219 18.3964 8.08736 18.5072 8.3081 18.5072C8.74617 18.5072 9.08821 18.0717 8.34816 17.5183C7.23537 16.6856 7.62571 15.3245 8.15696 15.2407C8.18026 15.237 8.20327 15.2353 8.22543 15.2353C8.70838 15.2353 8.92145 16.0677 8.92145 16.0677C8.92145 16.0677 9.54588 17.6359 10.6186 18.7078C11.6913 19.7799 11.7467 20.6405 10.9649 21.787C10.4317 22.5689 9.41094 22.8049 8.36492 22.8049C7.27997 22.8049 6.16776 22.551 5.54446 22.3893C5.51378 22.3814 1.72316 21.3106 2.20327 20.3993C2.28395 20.2461 2.41691 20.1848 2.58424 20.1848C3.26037 20.1848 4.4902 21.191 5.01889 21.191C5.13708 21.191 5.22031 21.1407 5.25441 21.018C5.47969 20.2098 1.82912 19.87 2.13679 18.6993C2.19105 18.4922 2.33821 18.4081 2.54503 18.4083C3.4385 18.4083 5.44304 19.9797 5.86321 19.9797C5.89532 19.9797 5.91833 19.9703 5.93083 19.9504C6.14134 19.6106 6.026 19.3734 4.54219 18.4754C3.05838 17.5771 2.01691 17.0368 2.60924 16.3919C2.67742 16.3174 2.77401 16.2845 2.89134 16.2845C3.79219 16.2848 5.9206 18.2217 5.9206 18.2217C5.9206 18.2217 6.49503 18.8191 6.84247 18.8191C6.9223 18.8191 6.9902 18.7876 7.03622 18.7098C7.28253 18.2944 4.74844 16.374 4.60554 15.5816C4.50867 15.0447 4.67344 14.7728 4.97827 14.7728Z" fill="#FF9D0B"/>
<path d="M10.9649 21.7869C11.7468 20.6403 11.6914 19.7798 10.6186 18.7077C9.54591 17.6358 8.92147 16.0676 8.92147 16.0676C8.92147 16.0676 8.68824 15.1568 8.15699 15.2406C7.62574 15.3244 7.23568 16.6855 8.34846 17.5182C9.46125 18.3506 8.12687 18.9162 7.69875 18.1344C7.27062 17.3525 6.10159 15.3426 5.49534 14.9582C4.88937 14.5739 4.46267 14.7892 4.60557 15.5815C4.74846 16.3739 7.28284 18.2943 7.03625 18.7099C6.78966 19.1253 5.92062 18.2216 5.92062 18.2216C5.92062 18.2216 3.2013 15.7469 2.60924 16.3917C2.0172 17.0366 3.05841 17.577 4.54221 18.4753C6.0263 19.3733 6.14136 19.6105 5.93085 19.9503C5.72005 20.29 2.44447 17.5284 2.1368 18.6991C1.82941 19.8699 5.47971 20.2096 5.25443 21.0179C5.02915 21.8264 2.68311 19.4881 2.20328 20.3991C1.72316 21.3105 5.5138 22.3812 5.54449 22.3892C6.76892 22.7068 9.87858 23.3798 10.9649 21.7869Z" fill="#FFD21E"/>
<path d="M21.9886 13.6365C22.4485 13.6365 22.8596 13.8254 23.1463 14.168C23.3235 14.3802 23.5088 14.7223 23.5238 15.2345C23.7167 15.1791 23.9022 15.1481 24.0755 15.1481C24.5159 15.1481 24.9136 15.3169 25.1948 15.6234C25.5562 16.0169 25.7167 16.5004 25.6468 16.9842C25.6136 17.2146 25.5366 17.4211 25.4215 17.6123C25.6642 17.8086 25.8429 18.0819 25.9292 18.4106C25.9968 18.6683 26.0661 19.2049 25.7042 19.7578C25.7272 19.7939 25.7488 19.8314 25.769 19.8697C25.9866 20.2828 26.0005 20.7495 25.8085 21.1842C25.5173 21.843 24.7937 22.362 23.3886 22.9191C22.5144 23.2657 21.7147 23.4873 21.7076 23.4893C20.5519 23.789 19.5068 23.9413 18.6019 23.9413C16.9389 23.9413 15.7482 23.4319 15.063 22.4274C13.9602 20.8098 14.1179 19.3302 15.5448 17.9041C16.3346 17.1149 16.8596 15.9512 16.969 15.6958C17.1894 14.9396 17.7724 14.099 18.7414 14.099C18.823 14.099 18.9056 14.1055 18.9869 14.1183C19.4113 14.1851 19.7823 14.4294 20.0474 14.797C20.3335 14.4413 20.6113 14.1584 20.8627 13.9987C21.2417 13.7584 21.6204 13.6365 21.9886 13.6365ZM21.9886 14.7728C21.8437 14.7728 21.6667 14.8345 21.4715 14.9583C20.8656 15.3427 19.6963 17.3527 19.2681 18.1345C19.1247 18.3964 18.8795 18.5072 18.6588 18.5072C18.2207 18.5072 17.8786 18.0717 18.6187 17.5183C19.7315 16.6856 19.3411 15.3245 18.8099 15.2407C18.7866 15.237 18.7636 15.2353 18.7414 15.2353C18.2585 15.2353 18.0454 16.0677 18.0454 16.0677C18.0454 16.0677 17.421 17.6359 16.3482 18.7078C15.2755 19.7799 15.2201 20.6405 16.0019 21.787C16.5352 22.5689 17.5559 22.8049 18.6019 22.8049C19.6869 22.8049 20.7991 22.551 21.4224 22.3893C21.4531 22.3814 25.2437 21.3106 24.7636 20.3993C24.6829 20.2461 24.55 20.1848 24.3826 20.1848C23.7065 20.1848 22.4767 21.191 21.948 21.191C21.8298 21.191 21.7465 21.1407 21.7125 21.018C21.4872 20.2098 25.1377 19.87 24.8301 18.6993C24.7758 18.4922 24.6286 18.4081 24.4218 18.4083C23.5284 18.4083 21.5238 19.9797 21.1036 19.9797C21.0715 19.9797 21.0485 19.9703 21.036 19.9504C20.8255 19.6106 20.9409 19.3734 22.4247 18.4754C23.9085 17.5771 24.95 17.0368 24.3576 16.3919C24.2894 16.3174 24.1929 16.2845 24.0755 16.2845C23.1747 16.2848 21.0463 18.2217 21.0463 18.2217C21.0463 18.2217 20.4718 18.8191 20.1244 18.8191C20.0446 18.8191 19.9767 18.7876 19.9306 18.7098C19.6843 18.2944 22.2184 16.374 22.3613 15.5816C22.4582 15.0447 22.2934 14.7728 21.9886 14.7728Z" fill="#FF9D0B"/>
<path d="M16.0019 21.7869C15.2201 20.6403 15.2755 19.7798 16.3482 18.7077C17.421 17.6358 18.0454 16.0676 18.0454 16.0676C18.0454 16.0676 18.2786 15.1568 18.8099 15.2406C19.3411 15.3244 19.7312 16.6855 18.6184 17.5182C17.5056 18.3506 18.84 18.9162 19.2681 18.1344C19.6962 17.3525 20.8653 15.3426 21.4715 14.9582C22.0775 14.5739 22.5042 14.7892 22.3613 15.5815C22.2184 16.3739 19.684 18.2943 19.9306 18.7099C20.1772 19.1253 21.0462 18.2216 21.0462 18.2216C21.0462 18.2216 23.7656 15.7469 24.3576 16.3917C24.9496 17.0366 23.9085 17.577 22.4246 18.4753C20.9406 19.3733 20.8255 19.6105 21.036 19.9503C21.2468 20.29 24.5224 17.5284 24.83 18.6991C25.1374 19.8699 21.4872 20.2096 21.7124 21.0179C21.9377 21.8264 24.2837 19.4881 24.7636 20.3991C25.2437 21.3105 21.4531 22.3812 21.4224 22.3892C20.1979 22.7068 17.0883 23.3798 16.0019 21.7869Z" fill="#FFD21E"/>
</svg>
