<svg width="138" height="71" viewBox="0 0 138 71" fill="none" xmlns="http://www.w3.org/2000/svg">
<path d="M113.81 29.4004H26.2122C14.7873 29.4004 5.52563 38.6621 5.52563 50.087C5.52563 61.5119 14.7873 70.7736 26.2122 70.7736H113.81C125.235 70.7736 134.497 61.5119 134.497 50.087C134.497 38.6621 125.235 29.4004 113.81 29.4004Z" fill="#F2F4F7"/>
<path d="M99.1569 20.9102H40.4415C35.7155 20.9102 31.8843 24.7414 31.8843 29.4674V29.4682C31.8843 34.1942 35.7155 38.0255 40.4415 38.0255H99.1569C103.883 38.0255 107.714 34.1942 107.714 29.4682V29.4674C107.714 24.7414 103.883 20.9102 99.1569 20.9102Z" fill="#F2F4F7"/>
<path d="M98.9126 0.695312H18.0227C14.3011 0.695312 11.2842 3.71208 11.2842 7.43345C11.2842 11.1548 14.3011 14.1716 18.0227 14.1716H98.9126C102.634 14.1716 105.651 11.1548 105.651 7.43345C105.651 3.71208 102.634 0.695312 98.9126 0.695312Z" fill="#F2F4F7"/>
<path d="M81.3988 69.4259C92.6375 69.4259 101.748 60.3151 101.748 49.0764C101.748 37.8377 92.6375 28.7269 81.3988 28.7269C70.1601 28.7269 61.0493 37.8377 61.0493 49.0764C61.0493 60.3151 70.1601 69.4259 81.3988 69.4259Z" fill="white"/>
<path d="M36.1698 69.8977C33.7509 69.8977 31.7896 67.9364 31.7896 65.5175V9.99377C31.7896 7.57483 33.7509 5.61353 36.1698 5.61353C38.5887 5.61353 40.55 7.57483 40.55 9.99377V65.5175C40.55 67.9364 38.5887 69.8977 36.1698 69.8977Z" fill="#D0D5DD"/>
<path d="M36.1699 53.3913H33.8967C23.9744 53.3913 15.9023 45.3193 15.9023 35.397V23.6725C15.9023 21.2535 17.8636 19.2922 20.2826 19.2922C22.7015 19.2922 24.6628 21.2535 24.6628 23.6725V35.397C24.6628 40.4885 28.8052 44.6316 33.8975 44.6316H36.1707C38.5896 44.6316 40.5509 46.5929 40.5509 49.0119C40.5509 51.4308 38.5896 53.3921 36.1707 53.3921L36.1699 53.3913Z" fill="#D0D5DD"/>
<path d="M38.5928 44.497H36.1849C33.766 44.497 31.8047 42.5357 31.8047 40.1167C31.8047 37.6978 33.766 35.7365 36.1849 35.7365H38.5928C43.6843 35.7365 47.8275 31.5941 47.8275 26.5018C47.8275 24.0829 49.7888 22.1216 52.2077 22.1216C54.6267 22.1216 56.588 24.0829 56.588 26.5018C56.588 36.4241 48.5159 44.4962 38.5936 44.4962L38.5928 44.497Z" fill="#D0D5DD"/>
<path d="M89.7059 53.7371L70.0361 65.5175H124.939L105.269 53.7371C100.478 50.8676 94.4965 50.8676 89.7051 53.7371H89.7059Z" fill="#D0D5DD"/>
<path d="M64.1297 58.2088L51.9263 65.5176H91.8974L79.694 58.2088C74.9026 55.3393 68.9211 55.3393 64.1297 58.2088Z" fill="#D0D5DD"/>
<path d="M135.372 70.7737H2.62767C1.17599 70.7737 0 69.5969 0 68.146C0 66.6943 1.17678 65.5183 2.62767 65.5183H135.372C136.823 65.5183 137.999 66.6951 137.999 68.146C137.999 69.5977 136.822 70.7737 135.372 70.7737H135.372Z" fill="#D0D5DD"/>
<path d="M0.0676822 47.1223C0.729326 47.8698 1.47131 48.5424 2.23457 49.1828C2.99939 49.8232 3.79888 50.4218 4.62121 50.9858C6.26665 52.113 8.00426 53.1046 9.8033 53.9648C11.6023 54.8241 13.4605 55.559 15.3587 56.1687C17.2547 56.7862 19.1916 57.2698 21.1473 57.6534C25.0605 58.4175 29.0532 58.7412 33.0372 58.7058C35.03 58.6884 37.0213 58.5837 39.0054 58.4041C39.5009 58.3537 39.9979 58.3151 40.4925 58.256L41.9765 58.0796C42.9635 57.9417 43.9504 57.8102 44.9326 57.6393C52.7999 56.3349 60.464 53.9829 67.8641 51.0339C71.563 49.5522 75.2052 47.9186 78.7781 46.1645C80.5543 45.2713 82.299 44.3127 83.9751 43.2501C85.6497 42.1883 87.2645 41.0281 88.7295 39.7056C89.4605 39.0439 90.1521 38.3405 90.7751 37.5859C91.3974 36.8306 91.9495 36.0201 92.3701 35.1505C92.7923 34.284 93.0712 33.3506 93.1121 32.4086C93.1555 31.4681 92.9381 30.5276 92.4773 29.7108C92.0181 28.8916 91.3391 28.2001 90.5561 27.655C89.7716 27.1083 88.8863 26.7011 87.9647 26.4097C86.116 25.8323 84.1272 25.7086 82.1989 25.9528C80.2676 26.1986 78.3858 26.8232 76.6979 27.7865C75.8503 28.2654 75.0658 28.8349 74.3183 29.4698C73.5779 30.1015 72.8784 30.7868 72.346 31.561C72.0813 31.9462 71.8647 32.3574 71.7442 32.7748C71.626 33.1923 71.6189 33.6121 71.7584 33.9808C71.897 34.351 72.1813 34.6708 72.5382 34.9268C72.8989 35.1804 73.3195 35.3773 73.7638 35.5262C74.6546 35.8255 75.6203 35.9641 76.5884 36.0248C77.5588 36.0839 78.5394 36.061 79.5177 35.9885C81.4751 35.8365 83.423 35.4844 85.3386 35.0079C87.255 34.5306 89.1407 33.9248 90.9886 33.2199C94.6851 31.8092 98.232 30.0062 101.587 27.9039C108.3 23.6969 114.233 18.2793 119.143 12.0709C119.351 11.8078 119.732 11.7637 119.995 11.9717C120.258 12.1796 120.302 12.5608 120.094 12.8231L120.091 12.8263C115.061 19.1064 108.996 24.5728 102.148 28.8058C98.7251 30.9207 95.1089 32.73 91.3367 34.143C89.451 34.848 87.5252 35.4537 85.5647 35.9295C83.6042 36.4037 81.6082 36.7526 79.5839 36.8975C78.5717 36.9668 77.5525 36.9842 76.5309 36.9156C76.0197 36.881 75.5085 36.8251 74.9988 36.7353C74.4892 36.6455 73.9804 36.5273 73.4802 36.3525C72.9808 36.1807 72.4878 35.9515 72.0333 35.6278C71.5843 35.3025 71.1684 34.8519 70.9581 34.2793C70.8533 33.9957 70.8037 33.6933 70.8045 33.3979C70.8045 33.1017 70.8541 32.8142 70.9313 32.5433C71.092 32.0021 71.3559 31.5232 71.6568 31.0884C72.2648 30.2196 73.0123 29.5036 73.7914 28.8467C74.5688 28.1945 75.41 27.5912 76.3048 27.0942C78.0912 26.0907 80.0746 25.4471 82.1044 25.2022C84.1327 24.9596 86.22 25.0998 88.1821 25.726C89.1604 26.0418 90.1072 26.4829 90.9579 27.0839C91.8062 27.6826 92.5592 28.4529 93.072 29.3823C93.5879 30.3087 93.8289 31.3885 93.7722 32.4417C93.7194 33.4971 93.4028 34.5132 92.9467 35.4348C92.4914 36.3603 91.9046 37.2063 91.254 37.9861C90.601 38.7659 89.885 39.485 89.132 40.1577C87.6236 41.5015 85.9758 42.6672 84.2745 43.7314C82.5715 44.7955 80.8063 45.7502 79.012 46.6387C75.4076 48.3794 71.7505 49.9926 68.0287 51.456C60.5868 54.3681 52.881 56.6791 44.9791 57.9386C43.993 58.104 43.0013 58.2292 42.0104 58.3616L40.5201 58.5293C40.0231 58.5853 39.5245 58.6215 39.0275 58.6688C37.0355 58.8357 35.0363 58.9295 33.0372 58.9342C29.0398 58.9444 25.0361 58.5947 21.1174 57.8039C19.1585 57.4077 17.2192 56.9099 15.3233 56.279C13.425 55.6559 11.5677 54.9076 9.77022 54.0357C7.97354 53.1621 6.23987 52.1586 4.59994 51.0197C3.77998 50.4494 2.98364 49.8453 2.22196 49.2002C1.46186 48.5543 0.723812 47.8769 0.0668945 47.1254L0.0676822 47.1223Z" fill="#12B76A"/>
</svg>
