<svg width="50" height="39" viewBox="0 0 50 39" fill="none" xmlns="http://www.w3.org/2000/svg">
<path d="M46.991 31.1427C45.9261 31.0374 44.0374 30.7735 41.6742 31.965C39.3125 33.1565 38.3818 33.2084 37.2224 33.0833C37.5626 33.7073 38.2537 34.5632 40.4262 34.7157C42.5972 34.8683 43.6361 34.9354 42.4934 37.6419C42.5194 36.8241 42.3287 35.2436 40.1729 35.5213C38.0187 35.7989 37.5138 37.7395 39.8266 38.7083C39.0745 38.8593 37.4817 38.9493 36.3421 35.9713C35.5533 36.3146 34.3374 37.0011 32.1329 35.2985C32.6882 35.477 33.2664 35.5762 33.8507 35.5945C31.8933 34.6608 30.0244 32.9231 28.8268 31.2815C29.7758 31.9879 30.8239 32.6927 31.8827 32.8255C30.6316 31.2983 27.736 28.244 24.1935 25.1058C26.4712 26.5933 29.2189 28.9443 33.7165 28.4164C38.2156 27.887 41.2378 26.8572 46.9895 31.1442" fill="#EC462B"/>
<path d="M27.7391 30.0824C24.9182 28.8604 24.314 28.6147 20.6876 27.6932C17.0612 26.7718 13.4927 24.854 11.1082 21.8623C12.7894 23.0935 16.2236 25.5726 19.7493 25.3041C19.2138 24.5199 18.2252 23.9082 17.0429 23.2918C18.3793 23.6122 22.4131 24.6435 27.7375 30.0839" fill="#EC462B"/>
<path d="M21.5984 19.6425C20.8706 17.557 19.5586 14.8856 13.3371 10.9159C10.3072 8.91578 5.8569 6.4046 0 0C0.419548 1.72549 2.27014 6.21542 11.5963 12.0433C14.6598 14.1334 18.6142 15.4241 21.5999 19.6425" fill="#EC462B"/>
<path d="M21.9829 22.6678C21.217 20.9027 19.6792 18.6371 13.6514 15.4028C10.8717 13.8451 6.12394 11.4499 1.85217 6.89584C2.23968 8.54047 4.22148 12.1516 12.7528 16.6629C15.1145 17.9643 19.1086 19.1848 21.9829 22.6678Z" fill="#EC462B"/>
<path d="M44.7865 27.3256C47.0139 27.6627 46.9025 28.1342 46.9254 28.9488C46.306 28.2943 45.5828 27.7451 44.7865 27.3256ZM27.8291 13.54C16.0787 10.1775 11.4072 5.9347 7.79297 1.49207C9.4437 6.60445 13.3798 8.43369 17.586 11.8664C21.7922 15.299 22.0317 17.1435 23.269 19.1726C26.0288 23.69 26.4682 24.4376 29.2067 26.4102C32.435 28.5522 36.339 27.1028 40.6215 27.7741C44.9039 28.4454 48.4434 31.7102 49.2138 32.9658C50.1109 31.3639 47.9674 29.0572 47.3877 28.4774C47.6974 26.3797 42.736 25.4582 40.858 24.7396C40.4888 24.5993 39.5764 24.3872 40.3682 22.5046C41.4362 19.9064 42.5484 17.6454 27.8306 13.54" fill="#EC462B"/>
</svg>
