<svg width="25" height="24" viewBox="0 0 25 24" fill="none" xmlns="http://www.w3.org/2000/svg">
<path d="M11.4773 15.7984L6.44678 11.734L9.0342 7.11844L11.8182 2.50293L17.8532 10.1267L18.6993 11.8158L19.5455 15.7984H11.4773Z" fill="white"/>
<path fill-rule="evenodd" clip-rule="evenodd" d="M18.0777 10.5421L16.8269 8.20864L12.6202 0.0205078L8.41346 8.20864L7.10826 10.5509C10.1849 10.2143 12.5835 7.63191 12.6311 4.47658C12.6782 7.60584 15.0377 10.1716 18.0777 10.5421ZM18.1233 10.6272C15.2855 10.9518 13.031 13.1879 12.6784 16.0171L16.0168 23.9143H25L22.3878 18.8233L19.1421 12.5278L18.1233 10.6272ZM12.5603 15.8478C12.1371 13.0765 9.88301 10.9098 7.06993 10.6197L6.01435 12.514L2.69619 18.8027L0 23.9143H8.98316L12.5603 15.8478Z" fill="url(#paint0_angular_474_4443)"/>
<defs>
<radialGradient id="paint0_angular_474_4443" cx="0" cy="0" r="1" gradientUnits="userSpaceOnUse" gradientTransform="translate(12.5926 5.15548) rotate(90.283) scale(18.7591 17.9643)">
<stop stop-color="#34C582"/>
<stop offset="1" stop-color="#006528"/>
</radialGradient>
</defs>
</svg>
