<svg width="20" height="21" viewBox="0 0 20 21" fill="none" xmlns="http://www.w3.org/2000/svg">
<path d="M16.1257 11.5699L17.9778 13.422V18.6952C17.9778 19.2045 17.7964 19.6405 17.4337 20.0032C17.071 20.3659 16.635 20.5473 16.1257 20.5473H2.54395C2.03464 20.5473 1.59863 20.3659 1.23594 20.0032C0.873242 19.6405 0.691895 19.2045 0.691895 18.6952V5.11346C0.691895 4.60414 0.873242 4.16814 1.23594 3.80544C1.59863 3.44275 2.03464 3.2614 2.54395 3.2614H7.76572C7.67998 3.55293 7.61138 3.84874 7.55994 4.14884C7.50849 4.44895 7.48277 4.77048 7.48277 5.11346H2.54395V18.6952H16.1257V11.5699ZM17.2832 7.42853L19.8298 10.0523L18.5179 11.3641L15.9714 8.7404C15.6284 8.98048 15.2648 9.15626 14.8807 9.26772C14.4966 9.37919 14.0884 9.43492 13.6563 9.43492C12.4559 9.43492 11.4355 9.01478 10.5953 8.1745C9.75497 7.33421 9.33482 6.31386 9.33482 5.11346C9.33482 3.91305 9.75497 2.8927 10.5953 2.05242C11.4355 1.21213 12.4559 0.791992 13.6563 0.791992C14.8567 0.791992 15.877 1.21213 16.7173 2.05242C17.5576 2.8927 17.9778 3.91305 17.9778 5.11346C17.9778 5.52503 17.922 5.92802 17.8106 6.32244C17.6991 6.71686 17.5233 7.08555 17.2832 7.42853ZM13.6505 7.58287C14.3403 7.58287 14.9253 7.34471 15.4055 6.86841C15.8856 6.39212 16.1257 5.80907 16.1257 5.11924C16.1257 4.42944 15.8875 3.84446 15.4112 3.36429C14.935 2.88413 14.3519 2.64405 13.6621 2.64405C12.9723 2.64405 12.3873 2.8822 11.9071 3.35851C11.427 3.83479 11.1869 4.41785 11.1869 5.10767C11.1869 5.79748 11.425 6.38246 11.9013 6.86262C12.3776 7.34278 12.9607 7.58287 13.6505 7.58287ZM2.54395 18.6952V5.11346V11.287V10.9783V18.6952Z" fill="#12B76A"/>
</svg>
