<svg width="28" height="17" viewBox="0 0 28 17" fill="none" xmlns="http://www.w3.org/2000/svg">
<g clip-path="url(#clip0_939_2302)">
<path d="M27.9278 2.44618C27.5234 2.87939 27.1624 3.27199 26.7951 3.65827C26.3809 4.09329 25.9684 4.53011 25.5388 4.94979C25.4323 5.05358 25.2563 5.16549 25.1245 5.15195C23.8565 5.0247 22.5911 4.87217 21.287 4.72235C21.3222 4.61224 21.3312 4.5247 21.3736 4.46062C21.7816 3.8478 22.1985 3.24221 22.6038 2.62758C22.7148 2.45881 22.8484 2.39022 23.0505 2.39112C24.5975 2.39924 26.1444 2.40015 27.6904 2.40466C27.7446 2.40466 27.7987 2.42271 27.9278 2.44618Z" fill="#64758B"/>
<path d="M8.56588 2.12294C8.14531 2.12294 7.8213 2.10128 7.5 2.12655C6.37094 2.2168 5.3204 1.99297 4.26715 1.56066C3.00722 1.04442 1.68863 0.671674 0.395307 0.237559C0.259025 0.19153 0.121841 0.146403 0 0.0263672C0.129964 0.0263672 0.259928 0.0263672 0.389892 0.0263672C2.3565 0.0290748 4.3231 0.0381 6.28971 0.0272697C6.60289 0.0254647 6.82401 0.114815 7.02527 0.35579C7.40162 0.803443 7.80776 1.22583 8.19855 1.66265C8.30505 1.78088 8.39801 1.91175 8.56588 2.12294Z" fill="#64758B"/>
<path d="M19.6895 6.99196C19.8799 6.69774 20.0451 6.436 20.2157 6.17788C20.4233 5.8647 20.6426 5.55875 20.8429 5.24106C20.9603 5.05514 21.0992 4.9694 21.3249 4.99738C22.4729 5.13907 23.6218 5.27265 24.7707 5.41164C24.8411 5.41976 24.9097 5.45044 25.0361 5.48745C24.676 5.86651 24.3474 6.21127 24.0189 6.55694C23.6769 6.91615 23.3285 7.26994 22.9964 7.63727C22.8285 7.82319 22.6724 7.89359 22.4097 7.81146C21.6498 7.57409 20.879 7.37283 20.1128 7.15351C19.9873 7.11741 19.8682 7.06055 19.6886 6.99196H19.6895Z" fill="#64758B"/>
<path d="M17.6119 4.30878C17.8394 3.66708 18.0253 3.11474 18.2356 2.57322C18.2681 2.48929 18.4125 2.39813 18.5063 2.39813C19.7509 2.39181 20.9946 2.40084 22.2392 2.40806C22.2627 2.40806 22.2852 2.43784 22.3529 2.48477C22.2473 2.65264 22.1435 2.82773 22.0316 2.99651C21.7166 3.47124 21.4053 3.94957 21.074 4.41257C20.9973 4.51907 20.8385 4.64633 20.7284 4.6364C19.7175 4.54615 18.7103 4.42791 17.6119 4.30878Z" fill="#64758B"/>
<path d="M18.25 9.10213C18.6868 8.45412 19.0866 7.86206 19.4982 7.25195C20.4928 7.53805 21.454 7.81333 22.5126 8.11748C21.7888 8.8765 21.1146 9.58228 20.4233 10.307C19.6995 9.90629 19.0081 9.52271 18.25 9.10213Z" fill="#64758B"/>
<path d="M11.6607 2.11758C11.4026 2.11758 11.2284 2.11758 11.0542 2.11758C10.4693 2.11758 9.8845 2.12841 9.30057 2.11307C9.14985 2.10946 8.954 2.06794 8.85923 1.96776C8.30237 1.38112 7.76808 0.772813 7.22836 0.169925C7.21212 0.151874 7.21844 0.114871 7.20941 0.0580113C7.29515 0.0498886 7.37818 0.0354482 7.46212 0.0354482C8.48107 0.0354482 9.50093 0.0462785 10.5199 0.0318381C10.806 0.0282279 10.9531 0.122091 11.0424 0.394654C11.2229 0.945196 11.4323 1.48671 11.6598 2.11668L11.6607 2.11758Z" fill="#64758B"/>
<path d="M14.481 0.0830078V2.1155C13.9458 2.1155 13.4395 2.12543 12.9341 2.11369C11.7807 2.08752 12.0794 2.3303 11.6372 1.18951C11.5027 0.842033 11.3845 0.488242 11.2401 0.0830078H14.481Z" fill="#64758B"/>
<path d="M16.9215 6.24113C17.1327 5.64817 17.3177 5.12921 17.5199 4.56152C18.5659 4.68246 19.5993 4.8016 20.7103 4.92975C20.6011 5.11387 20.5271 5.25015 20.4414 5.37921C20.1507 5.81513 19.8538 6.24744 19.5641 6.68427C19.4666 6.83048 19.3683 6.9469 19.1661 6.88824C18.4359 6.67524 17.7049 6.46676 16.9215 6.24113Z" fill="#64758B"/>
<path d="M18.3357 12.4922C17.8673 11.9742 17.4386 11.4994 16.9819 10.994C17.3583 10.4326 17.722 9.89203 18.1056 9.31982C18.815 9.71513 19.4901 10.0924 20.2265 10.503C19.5902 11.1718 18.9883 11.8054 18.3357 12.4922Z" fill="#64758B"/>
<path d="M18.0054 2.42529C17.7843 3.03721 17.5884 3.59587 17.3718 4.14732C17.3484 4.20688 17.1949 4.25291 17.1083 4.24389C16.3655 4.16627 15.6245 4.07421 14.843 3.98215V2.42529H18.0054Z" fill="#64758B"/>
<path d="M16.8339 6.49211C17.6408 6.72316 18.4097 6.94338 19.2301 7.17803C18.8087 7.80529 18.4269 8.37388 18.0253 8.97226C17.4377 8.64825 16.8899 8.3459 16.2879 8.01377C16.4675 7.51287 16.6417 7.02821 16.8339 6.49121V6.49211Z" fill="#64758B"/>
<path d="M18.1976 12.7266C17.592 13.2636 17.0316 13.7609 16.4395 14.2852C16.3447 14.0298 16.2599 13.6841 16.0938 13.3818C15.8168 12.8773 15.8926 12.4612 16.2626 12.0433C16.4675 11.8123 16.6218 11.5352 16.8348 11.2266C17.2852 11.722 17.703 12.1823 18.1967 12.7257L18.1976 12.7266Z" fill="#64758B"/>
<path d="M14.8051 4.24951C15.6363 4.34428 16.4025 4.43182 17.2509 4.52839C17.0487 5.10059 16.8673 5.61233 16.6715 6.16828C16.0921 6.00493 15.5451 5.86052 15.0072 5.69085C14.9215 5.66377 14.8195 5.52568 14.8141 5.43363C14.7924 5.06359 14.8051 4.69175 14.8051 4.24951Z" fill="#64758B"/>
<path d="M14.4801 2.44336V3.91538C13.8682 3.84679 13.2933 3.78812 12.7202 3.71321C12.648 3.70419 12.5532 3.62567 12.5253 3.55618C12.3809 3.20058 12.2536 2.83776 12.1092 2.44336H14.481H14.4801Z" fill="#64758B"/>
<path d="M16.8024 10.7954C16.4594 10.4146 16.1435 10.0752 15.8457 9.72233C15.7897 9.65555 15.7636 9.51836 15.7897 9.43443C15.9062 9.06529 16.0479 8.70428 16.2049 8.27197C16.778 8.58605 17.3087 8.87667 17.8818 9.19075C17.5145 9.73768 17.1742 10.2431 16.8024 10.7963V10.7954Z" fill="#64758B"/>
<path d="M9.37366 2.40545C10.1146 2.40545 10.8556 2.40004 11.5966 2.41267C11.6769 2.41448 11.7942 2.50292 11.8276 2.57964C11.9666 2.90545 12.0803 3.243 12.2338 3.65906C11.7112 3.6004 11.269 3.49931 10.8303 3.51375C10.0442 3.53993 9.75995 2.94245 9.34027 2.50112C9.3511 2.46953 9.36193 2.43704 9.37276 2.40545H9.37366Z" fill="#64758B"/>
<path d="M15.7013 13.0488C15.8782 13.5227 16.0596 13.9802 16.2139 14.4468C16.2437 14.5371 16.2085 14.6968 16.1417 14.7645C15.7238 15.1878 15.2879 15.5949 14.8376 16.0263C14.7211 14.9369 14.6841 13.8792 15.7004 13.0488H15.7013Z" fill="#64758B"/>
<path d="M16.0604 7.88555C15.6624 7.66443 15.3294 7.49476 15.0153 7.2953C14.9187 7.23393 14.8231 7.09494 14.8141 6.98393C14.787 6.65992 14.805 6.33321 14.805 5.91895C15.4206 6.09133 15.9702 6.24476 16.5767 6.41443C16.4016 6.91263 16.2419 7.3684 16.0604 7.88555Z" fill="#64758B"/>
<path d="M14.4729 5.52103C14.0388 5.39648 13.6489 5.29359 13.2653 5.16904C13.1778 5.14106 13.0812 5.05442 13.0451 4.97048C12.9215 4.68438 12.8231 4.38745 12.6895 4.02734C13.3186 4.09955 13.8781 4.16272 14.4729 4.23131V5.52103Z" fill="#64758B"/>
<path d="M15.6571 9.92236C15.9973 10.2942 16.306 10.6317 16.6543 11.0117C16.3655 11.4422 16.0803 11.8673 15.7816 12.3123C15.1814 11.3393 15.1571 10.9088 15.6571 9.92236Z" fill="#64758B"/>
<path d="M9.68865 3.33503C8.51627 3.36752 7.52439 3.04261 6.52258 2.40452C7.31681 2.40452 8.02529 2.40091 8.73377 2.40994C8.8132 2.41084 8.90977 2.46499 8.96663 2.52456C9.20128 2.77366 9.42331 3.03449 9.68865 3.33503Z" fill="#64758B"/>
<path d="M12.7184 5.00195C11.8376 4.79798 11.0226 4.69149 10.574 3.78174C11.1345 3.84762 11.6598 3.89907 12.1805 3.97939C12.2735 3.99383 12.3809 4.11116 12.4251 4.20683C12.5307 4.43517 12.602 4.67975 12.7184 5.00195Z" fill="#64758B"/>
<path d="M14.8682 7.51465C15.2473 7.72674 15.5839 7.91447 15.9666 8.12837C15.8267 8.52638 15.6922 8.90996 15.5524 9.30797C14.7419 8.62927 14.7184 8.62295 14.8682 7.51465Z" fill="#64758B"/>
<path d="M13.2888 5.49651C13.6543 5.60391 13.9991 5.69145 14.3312 5.8142C14.4125 5.84398 14.4928 5.98568 14.5009 6.08225C14.5244 6.3494 14.509 6.61925 14.509 6.89272C13.75 6.75192 13.4468 6.40987 13.2888 5.49561V5.49651Z" fill="#64758B"/>
<path d="M14.8032 13.5562C14.8348 12.8721 14.6606 12.1618 15.12 11.4614C15.2626 11.8459 15.3917 12.1771 15.5036 12.5138C15.528 12.5878 15.5144 12.6997 15.4729 12.7656C15.2951 13.0517 15.1002 13.3269 14.9115 13.6067L14.8032 13.5562Z" fill="#64758B"/>
<path d="M13.139 6.20502C12.5551 5.95682 12.074 5.67975 11.7816 5.15357C12.5795 5.10303 12.8908 5.33227 13.139 6.20502Z" fill="#64758B"/>
<path d="M10.5785 4.38123C9.91065 4.32347 9.44134 3.94711 8.87726 3.60596C9.59477 3.61769 10.2292 3.63845 10.5785 4.38123Z" fill="#64758B"/>
<path d="M15.0803 10.4869C14.8087 10.0546 14.7383 9.60784 14.8439 9.10693C15.5235 9.65296 15.5117 9.61145 15.0803 10.4869Z" fill="#64758B"/>
<path d="M13.8041 7.01758C14.5298 7.25765 14.5785 7.33978 14.4648 8.09881C14.0469 7.87047 13.9305 7.47606 13.8041 7.01758Z" fill="#64758B"/>
</g>
<defs>
<clipPath id="clip0_939_2302">
<rect width="27.9278" height="16" fill="white" transform="translate(0 0.0263672)"/>
</clipPath>
</defs>
</svg>
