<svg width="21" height="20" viewBox="0 0 21 20" fill="none" xmlns="http://www.w3.org/2000/svg">
<path d="M10.7424 19.8295C9.38764 19.8295 8.11006 19.5723 6.90965 19.0578C5.70925 18.5433 4.65889 17.836 3.75858 16.9356C2.85828 16.0353 2.1509 14.985 1.63644 13.7846C1.12198 12.5842 0.864746 11.3066 0.864746 9.95185C0.864746 8.57996 1.12198 7.2981 1.63644 6.10626C2.1509 4.91443 2.85828 3.86836 3.75858 2.96806C4.65889 2.06775 5.70925 1.36037 6.90965 0.845909C8.11006 0.331449 9.38764 0.0742188 10.7424 0.0742188C12.1143 0.0742188 13.3961 0.331449 14.588 0.845909C15.7798 1.36037 16.8259 2.06775 17.7262 2.96806C18.6265 3.86836 19.3339 4.91443 19.8483 6.10626C20.3628 7.2981 20.62 8.57996 20.62 9.95185C20.62 11.3066 20.3628 12.5842 19.8483 13.7846C19.3339 14.985 18.6265 16.0353 17.7262 16.9356C16.8259 17.836 15.7798 18.5433 14.588 19.0578C13.3961 19.5723 12.1143 19.8295 10.7424 19.8295ZM10.7424 17.9774C12.9717 17.9774 14.8666 17.1972 16.4272 15.6366C17.9877 14.0761 18.768 12.1812 18.768 9.95185C18.768 9.00868 18.6136 8.11695 18.3049 7.27666C17.9963 6.43638 17.5676 5.67326 17.0188 4.98731L5.77784 16.2283C6.46379 16.777 7.2269 17.2057 8.06719 17.5144C8.90747 17.8231 9.7992 17.9774 10.7424 17.9774ZM4.46597 14.9164L15.7069 3.67544C15.021 3.12668 14.2579 2.69797 13.4176 2.38929C12.5773 2.08061 11.6856 1.92628 10.7424 1.92628C8.51305 1.92628 6.61813 2.70654 5.0576 4.26707C3.49707 5.8276 2.7168 7.72253 2.7168 9.95185C2.7168 10.895 2.87114 11.7868 3.17982 12.627C3.48849 13.4673 3.91721 14.2304 4.46597 14.9164Z" fill="#12B76A"/>
</svg>
