<svg width="21" height="23" viewBox="0 0 21 23" fill="none" xmlns="http://www.w3.org/2000/svg">
<path d="M9.99355 22.9219C9.61711 22.9219 9.26577 22.8448 8.93952 22.6904C8.61328 22.5361 8.33012 22.3132 8.09004 22.0216L0.630371 12.9929L1.32489 12.2726C1.61642 11.9811 1.97225 11.8053 2.3924 11.7453C2.81254 11.6853 3.20267 11.7667 3.56279 11.9897L6.80389 13.8932V4.0927C6.80389 3.83033 6.89211 3.6104 7.06856 3.43291C7.24502 3.25542 7.46366 3.16667 7.72449 3.16667C7.98534 3.16667 8.2058 3.25542 8.38586 3.43291C8.56592 3.6104 8.65595 3.83033 8.65595 4.0927V17.1343L4.36021 14.5877L9.53053 20.8384C9.59913 20.907 9.67201 20.9627 9.74918 21.0056C9.82635 21.0485 9.9078 21.0699 9.99355 21.0699H16.6815C17.1908 21.0699 17.6268 20.8885 17.9895 20.5258C18.3522 20.1632 18.5336 19.7271 18.5336 19.2178V5.32741C18.5336 5.06503 18.6218 4.8451 18.7982 4.66761C18.9747 4.49012 19.1934 4.40138 19.4542 4.40138C19.715 4.40138 19.9355 4.49012 20.1155 4.66761C20.2956 4.8451 20.3856 5.06503 20.3856 5.32741V19.2178C20.3856 20.2467 20.0255 21.1213 19.3053 21.8416C18.585 22.5618 17.7104 22.9219 16.6815 22.9219H9.99355ZM10.7138 11.8096V1.62329C10.7138 1.36092 10.802 1.14099 10.9785 0.963498C11.1549 0.786009 11.3736 0.697266 11.6344 0.697266C11.8952 0.697266 12.1157 0.786009 12.2958 0.963498C12.4758 1.14099 12.5658 1.36092 12.5658 1.62329V11.8096H10.7138ZM14.6237 11.8096V2.858C14.6237 2.59562 14.7119 2.37569 14.8884 2.1982C15.0648 2.02071 15.2835 1.93197 15.5443 1.93197C15.8051 1.93197 16.0256 2.02071 16.2057 2.1982C16.3857 2.37569 16.4757 2.59562 16.4757 2.858V11.8096H14.6237Z" fill="#12B76A"/>
</svg>
