<svg width="27" height="23" viewBox="0 0 27 23" fill="none" xmlns="http://www.w3.org/2000/svg">
<path d="M4.21204 12.8107C4.22064 7.72157 8.33921 3.60239 13.4321 3.60841C18.5289 3.61442 22.6381 7.74146 22.6311 12.8303C22.6241 17.9225 18.4995 22.0346 13.4065 22.0262C8.3203 22.0179 4.20676 17.8893 4.21204 12.8107ZM17.5662 16.4512C17.4794 16.9203 17.3587 17.3608 17.2278 17.8098C17.3699 17.8814 17.505 17.9475 17.6382 18.0173C17.7686 18.0857 17.8987 18.1552 18.026 18.2291C18.1569 18.3051 18.2857 18.3848 18.4127 18.4672C18.5362 18.5472 18.6575 18.6312 18.7776 18.7163C18.8998 18.8029 19.0195 18.893 19.1372 18.9793C22.8494 15.5936 22.6233 9.74077 19.1291 6.65685C18.5453 7.11652 17.9124 7.50389 17.2267 7.82029C17.3576 8.27591 17.4822 8.71902 17.5664 9.18766C17.5083 9.19331 17.4651 9.20067 17.4219 9.20116C17.2623 9.20264 17.1027 9.20202 16.9431 9.20165C16.77 9.20129 16.7721 9.20055 16.731 9.03689C16.6663 8.77893 16.5994 8.52159 16.5314 8.26462C16.5194 8.21931 16.497 8.17683 16.4784 8.13054C16.4377 8.14012 16.4096 8.14442 16.3831 8.15338C15.5998 8.41821 14.7964 8.5777 13.9703 8.62865C13.3634 8.6661 12.7601 8.64105 12.1588 8.55781C11.5858 8.4785 11.0255 8.34467 10.4775 8.15854C10.4408 8.14614 10.4017 8.14061 10.3568 8.1303C10.3386 8.18543 10.3224 8.22705 10.3113 8.2699C10.2415 8.53915 10.1729 8.80877 10.104 9.07826C10.0749 9.19196 10.0691 9.19944 9.95717 9.20067C9.76895 9.20276 9.58073 9.20215 9.39251 9.2003C9.35814 9.19994 9.32388 9.18913 9.27821 9.18103C9.36415 8.71484 9.48816 8.27162 9.61695 7.81918C8.92694 7.50217 8.29623 7.11149 7.71108 6.65513C4.07379 9.92776 4.14218 15.7966 7.70162 18.9675C8.0093 18.7595 8.31023 18.5406 8.62663 18.3469C8.94303 18.153 9.27489 17.9844 9.6129 17.7977C9.48742 17.3608 9.36256 16.9185 9.27882 16.4525C9.33726 16.448 9.3768 16.4426 9.41633 16.4423C9.58822 16.4413 9.76011 16.4415 9.932 16.4421C10.0766 16.4426 10.0753 16.4436 10.111 16.5849C10.1772 16.8466 10.2443 17.1082 10.3133 17.3692C10.3253 17.4145 10.348 17.457 10.3697 17.5102C12.4103 16.8125 14.442 16.8143 16.4835 17.5126C16.511 17.4285 16.5373 17.3606 16.5555 17.2906C16.6172 17.053 16.6767 16.8148 16.736 16.5768C16.769 16.4443 16.7691 16.4426 16.9089 16.4421C17.0808 16.4413 17.2527 16.4415 17.4246 16.4423C17.4645 16.4426 17.5043 16.447 17.5665 16.451L17.5662 16.4512ZM16.224 7.37534C16.21 7.32377 16.2053 7.29566 16.195 7.26975C15.9684 6.69736 15.6968 6.14842 15.3362 5.64712C15.0715 5.27916 14.7691 4.94815 14.3842 4.70137C14.1003 4.51941 13.7949 4.40339 13.4519 4.39713C13.0863 4.39037 12.7609 4.50885 12.4586 4.70272C12.1238 4.91734 11.8509 5.19776 11.6098 5.51121C11.1971 6.04762 10.8968 6.64555 10.6491 7.27196C10.6378 7.30069 10.635 7.33274 10.6252 7.37755C12.4952 8.01599 14.3517 8.01673 16.224 7.37534ZM10.611 18.2621C10.6607 18.3865 10.6996 18.4887 10.7422 18.5893C10.9808 19.1529 11.2662 19.6897 11.6476 20.1715C11.9139 20.5079 12.2164 20.8049 12.5957 21.0132C13.1447 21.315 13.6972 21.3159 14.2468 21.0146C14.6489 20.7941 14.9642 20.4752 15.2405 20.1152C15.6526 19.5784 15.9515 18.9796 16.1989 18.3531C16.2089 18.3279 16.2099 18.2993 16.218 18.2571C14.3515 17.618 12.495 17.6184 10.611 18.2623V18.2621ZM15.5903 20.9316C16.2234 20.8762 18.0996 19.9513 18.5019 19.5072C18.2742 19.2699 17.1827 18.6164 16.9572 18.5881C16.6275 19.4301 16.2105 20.2268 15.5903 20.9316ZM8.33552 19.4992C8.75174 19.9555 10.8619 20.9853 11.2372 20.9161C11.205 20.8763 11.1728 20.8397 11.1439 20.8007C10.9859 20.5872 10.8194 20.3793 10.6732 20.1581C10.3701 19.6994 10.1342 19.2049 9.92966 18.6953C9.91358 18.6551 9.89369 18.6165 9.87 18.5652C9.31836 18.8281 8.80957 19.1331 8.3354 19.4992H8.33552ZM11.2325 4.70333C10.1687 4.9802 9.20712 5.45473 8.33368 6.11736C8.56242 6.35911 9.66299 7.01929 9.88768 7.04789C10.051 6.62812 10.2386 6.21571 10.4625 5.82061C10.6859 5.42662 10.9447 5.05718 11.2325 4.70333ZM18.5026 6.13799C18.1362 5.70066 16.0332 4.66994 15.6009 4.71524C16.2129 5.40857 16.6294 6.21006 16.9675 7.07208C17.5227 6.80848 18.0314 6.50632 18.5026 6.13799Z" fill="#64758B"/>
<path d="M2.47255 15.6738C2.37518 15.7242 1.26798 15.9657 1.12519 15.9715C1.11696 15.9574 1.10198 15.9416 1.09817 15.9234C1.04108 15.6513 0.981168 15.3799 0.931075 15.1064C0.904186 14.9593 0.948018 14.8269 1.07534 14.7392C1.20069 14.6528 1.34115 14.627 1.48136 14.6992C1.5484 14.7337 1.60328 14.7916 1.674 14.8469C1.76719 14.6401 1.98561 14.5413 2.14952 14.3635C2.10041 14.3453 2.06456 14.3296 2.02723 14.3187C1.66234 14.2116 1.2972 14.1053 0.93218 13.9987C0.89682 13.9884 0.861705 13.9774 0.826468 13.9671C0.77662 13.9526 0.754889 13.9187 0.751574 13.8677C0.744944 13.7658 0.736718 13.6639 0.727387 13.5621C0.721985 13.5025 0.740769 13.4621 0.798598 13.4354C1.20352 13.2492 1.60746 13.0608 2.01213 12.8737C2.026 12.8673 2.04282 12.8673 2.06848 12.8623C2.09365 12.9948 2.10912 13.123 2.10299 13.2525C2.10176 13.2783 2.07205 13.3044 2.05142 13.3268C2.04135 13.3377 2.02207 13.34 2.0071 13.3465C1.89353 13.3959 1.89414 13.3959 1.90372 13.5268C1.90937 13.6042 1.9128 13.6818 1.91735 13.7594C1.9214 13.8284 1.95 13.8739 2.02502 13.8847C2.15443 13.9035 2.16634 13.9161 2.17125 14.0655C2.17862 14.2881 2.21791 14.5042 2.27168 14.7186C2.29157 14.7978 2.28003 14.8578 2.2098 14.9113C2.10581 14.9905 2.00906 15.0792 1.91022 15.1649C1.85547 15.2124 1.81286 15.2659 1.85203 15.3632C2.02416 15.3557 2.19347 15.289 2.38365 15.273C2.4141 15.4096 2.44308 15.5393 2.47291 15.6735L2.47255 15.6738ZM1.56829 15.4312C1.53833 15.3347 1.51955 15.2522 1.48689 15.1756C1.45963 15.1116 1.405 15.0917 1.34754 15.1079C1.28725 15.1248 1.26036 15.17 1.26552 15.2275C1.27289 15.3107 1.28909 15.3932 1.30395 15.4923C1.39787 15.4706 1.47412 15.453 1.56829 15.4312ZM1.16104 13.6767C1.36067 13.7517 1.51034 13.7755 1.59935 13.7478C1.59309 13.6784 1.58671 13.6071 1.5786 13.5178C1.43483 13.5612 1.31132 13.6181 1.16104 13.6767Z" fill="#64758B"/>
<path d="M3.04002 17.2905C3.09183 17.3953 3.1504 17.5021 3.19619 17.614C3.20822 17.6436 3.18797 17.6934 3.16992 17.727C3.06949 17.9144 2.965 18.0995 2.86224 18.2856C2.8448 18.3173 2.82884 18.3499 2.80318 18.3995C2.93013 18.3678 3.02271 18.3026 3.12277 18.2559C3.22578 18.208 3.32646 18.155 3.44273 18.0971C3.50657 18.2224 3.56465 18.3363 3.62125 18.4471C3.52229 18.5329 2.50508 19.0465 2.37506 19.0757C2.32423 18.9749 2.26566 18.8725 2.2222 18.764C2.20906 18.7311 2.22944 18.6768 2.24896 18.6401C2.3451 18.4597 2.44639 18.2821 2.54547 18.1033C2.56684 18.0648 2.58672 18.0253 2.60023 17.9775C2.38488 18.0538 2.192 18.1745 1.96952 18.2664C1.90777 18.1451 1.84957 18.0309 1.79297 17.9199C1.87597 17.8449 2.90791 17.3238 3.04014 17.2905H3.04002Z" fill="#64758B"/>
<path d="M20.7949 4.12954C20.7007 4.05796 20.6099 3.98921 20.5192 3.92008C20.4775 3.88816 20.4801 3.84359 20.4827 3.79731C20.4943 3.58907 20.5049 3.38072 20.5151 3.17237C20.517 3.1332 20.5153 3.09391 20.5153 3.05475C20.5065 3.05094 20.4976 3.04714 20.4888 3.04333C20.354 3.21902 20.2191 3.39472 20.0753 3.5822C19.9626 3.49724 19.86 3.42001 19.743 3.33198C20.0268 2.95763 20.3017 2.59495 20.5876 2.21777C20.6937 2.2993 20.7908 2.36621 20.8771 2.44491C20.9039 2.46934 20.912 2.52631 20.9105 2.56769C20.9027 2.78009 20.8889 2.99238 20.8773 3.20466C20.8751 3.24419 20.8731 3.2836 20.8809 3.32768C21.0401 3.15825 21.1623 2.96107 21.3275 2.78292C21.436 2.86457 21.5357 2.93958 21.633 3.01276C21.596 3.11221 20.9161 4.01916 20.795 4.12966L20.7949 4.12954Z" fill="#64758B"/>
<path d="M23.2638 5.86782C23.077 5.99035 22.8903 6.11288 22.6924 6.24278C22.6131 6.12442 22.5414 6.01761 22.4609 5.89741C22.851 5.63724 23.2301 5.38444 23.6228 5.12256C23.6956 5.23306 23.7668 5.32747 23.8211 5.43073C23.8394 5.4656 23.8247 5.5265 23.8085 5.5691C23.7371 5.75621 23.6592 5.94099 23.5842 6.12676C23.5675 6.16813 23.5526 6.21024 23.5297 6.27053C23.6521 6.22584 23.7346 6.14824 23.8279 6.09017C23.9248 6.02988 24.0185 5.96444 24.1227 5.8952C24.2202 5.99244 24.2779 6.10858 24.3477 6.21307C24.2935 6.29103 23.3979 6.90259 23.2042 6.9943C23.1174 6.90246 23.0495 6.79233 22.9908 6.67778C22.9781 6.65286 22.9977 6.60681 23.0107 6.57379C23.0902 6.37219 23.1723 6.17157 23.253 5.97046C23.2648 5.94124 23.2741 5.91116 23.2847 5.88145L23.2638 5.86769V5.86782Z" fill="#64758B"/>
<path d="M25.3955 13.8864C25.5496 13.8978 25.7034 13.9112 25.8576 13.9201C26.129 13.9359 26.072 13.9565 26.0694 14.1538C26.0688 14.1986 26.0638 14.2435 26.0586 14.2882C26.0568 14.3038 26.0484 14.3187 26.037 14.3506C25.935 14.3452 25.8301 14.3415 25.7255 14.3339C25.4318 14.3124 25.1383 14.2893 24.8447 14.267C24.8243 14.2654 24.8038 14.2656 24.7834 14.2637C24.6758 14.2532 24.6658 14.2421 24.6667 14.136C24.6681 13.9455 24.7517 13.802 24.9173 13.7054C25.0587 13.623 25.201 13.5421 25.3424 13.46C25.3695 13.4443 25.3947 13.426 25.4453 13.3927C25.3146 13.3804 25.2109 13.3702 25.1072 13.361C25.0135 13.3527 24.9198 13.3443 24.8259 13.3383C24.7672 13.3345 24.7336 13.3107 24.7378 13.2474C24.7432 13.1659 24.7472 13.0842 24.7531 13.0026C24.7574 12.943 24.7881 12.9166 24.8502 12.9215C25.1845 12.948 25.519 12.9728 25.8534 12.9981C25.9228 13.0034 25.9921 13.0095 26.0614 13.0137C26.1222 13.0174 26.1506 13.0478 26.1455 13.1086C26.1382 13.1982 26.1299 13.2878 26.1231 13.3775C26.1181 13.4413 26.0682 13.464 26.0221 13.4904C25.8448 13.5925 25.6672 13.6941 25.4901 13.7965C25.4555 13.8165 25.4226 13.8396 25.3888 13.8613C25.3911 13.8697 25.3933 13.878 25.3955 13.8864Z" fill="#64758B"/>
<path d="M25.3072 11.5728C25.1683 11.7901 24.9593 11.8928 24.7459 12.0323C24.7254 11.872 24.7071 11.7359 24.6909 11.5993C24.6839 11.5409 24.7278 11.5122 24.7674 11.4832C24.8762 11.4035 24.9866 11.3258 25.0943 11.2446C25.1509 11.2019 25.2002 11.1523 25.1655 11.0568C25.12 11.0589 25.0727 11.0584 25.0258 11.0635C24.9283 11.0742 24.8315 11.0908 24.7339 11.0994C24.6384 11.1079 24.6286 11.0994 24.6124 11.0067C24.5997 10.9344 24.592 10.8611 24.5831 10.788C24.5704 10.6833 24.5797 10.6713 24.6881 10.6562C24.8055 10.6398 24.923 10.625 25.0405 10.6098C25.2957 10.5766 25.551 10.5435 25.8063 10.5106C25.8225 10.5085 25.8388 10.5067 25.8551 10.5063C25.9404 10.5034 25.9557 10.5137 25.9684 10.5976C25.9861 10.7147 26.0009 10.8324 26.0156 10.9499C26.0309 11.0714 26.0463 11.1931 26.0588 11.315C26.0633 11.3593 26.0638 11.405 26.0593 11.4493C26.0411 11.6276 25.9537 11.7369 25.7979 11.7812C25.6242 11.8305 25.4678 11.7813 25.3597 11.6433C25.345 11.6244 25.331 11.6047 25.3073 11.5728H25.3072ZM25.4721 11.0099C25.4604 11.1093 25.4781 11.192 25.51 11.271C25.5365 11.3367 25.5866 11.3653 25.6419 11.3555C25.6996 11.3452 25.7392 11.3028 25.7436 11.2358C25.7494 11.1506 25.7398 11.0669 25.696 10.9767C25.6212 10.9878 25.5469 10.9988 25.4719 11.01L25.4721 11.0099Z" fill="#64758B"/>
<path d="M10.3174 1.83999C10.2133 1.38509 10.1126 0.945183 10.0099 0.496677C10.0496 0.480716 10.0775 0.465 10.1073 0.458125C10.2982 0.413434 10.4887 0.366042 10.6809 0.328226C11.0124 0.262909 11.2479 0.395631 11.3666 0.713747C11.4283 0.879129 11.4726 1.04967 11.4406 1.22892C11.4057 1.42426 11.3019 1.57208 11.113 1.63961C10.9637 1.69302 10.8075 1.72789 10.6534 1.76693C10.5478 1.7937 10.4404 1.81359 10.3173 1.84011L10.3174 1.83999ZM10.6936 1.41247C10.7357 1.40474 10.776 1.4002 10.8146 1.38964C10.9699 1.34752 11.03 1.26023 11.0057 1.09988C10.9929 1.01578 10.9738 0.931064 10.9449 0.851258C10.886 0.688578 10.7707 0.634433 10.606 0.681702C10.5306 0.703311 10.517 0.717554 10.5336 0.794658C10.5737 0.981893 10.6187 1.16802 10.663 1.35428C10.6674 1.37294 10.6812 1.38927 10.6937 1.41235L10.6936 1.41247Z" fill="#64758B"/>
<path d="M24.8431 8.03324C24.7591 7.91648 24.6853 7.81948 24.6194 7.71733C24.6067 7.69781 24.6188 7.6557 24.6301 7.62844C24.714 7.42524 24.5793 7.22806 24.3586 7.24095C24.1969 7.25041 24.0606 7.3226 23.9468 7.43654C23.8944 7.48896 23.8761 7.55502 23.8796 7.62758C23.8859 7.75588 23.9505 7.85116 24.0509 7.92519C24.1013 7.96239 24.1488 7.96203 24.1978 7.90002C24.1694 7.8309 24.1388 7.7565 24.1064 7.67767C24.1742 7.60425 24.2628 7.5781 24.3612 7.5425C24.4674 7.73329 24.5595 7.9263 24.646 8.12716C24.6141 8.14926 24.5927 8.16805 24.5682 8.18032C24.4437 8.24233 24.3176 8.30114 24.1936 8.36412C24.1412 8.39076 24.0971 8.39101 24.0449 8.35933C23.7581 8.18523 23.5885 7.92888 23.5231 7.60511C23.4821 7.40191 23.55 7.22266 23.6949 7.07852C23.8671 6.90712 24.0755 6.81369 24.323 6.81749C24.516 6.82044 24.6711 6.89976 24.7902 7.04881C24.9069 7.19503 24.9822 7.36312 25.0253 7.54397C25.0706 7.73415 24.9977 7.88541 24.8434 8.03324H24.8431Z" fill="#64758B"/>
<path d="M18.4632 1.47333C18.461 1.91951 18.1608 2.26648 17.7783 2.265C17.3329 2.26341 16.9779 1.95155 16.9828 1.56628C16.9882 1.1368 17.3005 0.782833 17.6722 0.784675C18.1101 0.786885 18.4652 1.09592 18.4632 1.47321V1.47333ZM18.0346 1.43797C18.0325 1.30316 17.9684 1.21071 17.8636 1.17032C17.7576 1.12943 17.6464 1.15129 17.5726 1.23723C17.4735 1.35252 17.4233 1.49077 17.4151 1.64129C17.4089 1.75241 17.4754 1.83872 17.5872 1.88476C17.6873 1.92589 17.783 1.92024 17.8579 1.83811C17.9659 1.71963 18.019 1.57512 18.0347 1.43797H18.0346Z" fill="#64758B"/>
<path d="M3.8146 20.5109C3.92179 20.5936 4.01682 20.6629 4.10608 20.7392C4.12462 20.755 4.13247 20.7986 4.1267 20.8255C4.1008 20.947 4.15273 21.0332 4.24469 21.1008C4.34107 21.1714 4.4431 21.1664 4.54501 21.1108C4.64728 21.0551 4.73261 20.9796 4.80001 20.8848C4.89725 20.7481 4.89075 20.6138 4.77128 20.4977C4.72279 20.4505 4.65907 20.4174 4.59841 20.3847C4.53518 20.3506 4.48951 20.3745 4.46189 20.4498C4.51198 20.5098 4.56367 20.5718 4.61818 20.6374C4.56858 20.7236 4.49393 20.778 4.4097 20.8422C4.25439 20.6899 4.11283 20.5291 3.97065 20.3598C3.98993 20.3336 4.00319 20.3084 4.02283 20.2902C4.12498 20.1958 4.22959 20.1041 4.33162 20.0094C4.38183 19.9629 4.43438 19.9539 4.50044 19.9723C4.81463 20.06 5.04054 20.2546 5.19204 20.5387C5.26485 20.6752 5.27136 20.8217 5.23084 20.9684C5.15153 21.255 4.85244 21.508 4.55827 21.5437C4.41867 21.5607 4.28705 21.5338 4.17127 21.4567C4.00196 21.3441 3.86359 21.1982 3.76868 21.0179C3.68151 20.8523 3.69784 20.6887 3.81448 20.5111L3.8146 20.5109Z" fill="#64758B"/>
<path d="M19.0338 1.31592C19.1579 1.38578 19.2739 1.4511 19.3998 1.52194C19.3759 1.57301 19.3596 1.61378 19.3386 1.65184C19.2361 1.83834 19.1324 2.0241 19.0292 2.21023C19.0134 2.23884 18.9964 2.2672 18.9844 2.29752C18.9347 2.42276 18.9732 2.52491 19.0913 2.58495C19.2112 2.64597 19.3154 2.62117 19.3854 2.50146C19.5073 2.2931 19.6219 2.08045 19.7401 1.87001C19.7596 1.83514 19.7823 1.80199 19.8097 1.75829C19.9445 1.8139 20.0603 1.88511 20.1798 1.95866C20.1679 1.99304 20.1632 2.01722 20.1518 2.03773C20.0227 2.27027 19.8979 2.50539 19.7611 2.73338C19.6467 2.92418 19.4721 3.01909 19.2454 2.99871C19.1933 2.99404 19.1371 2.98434 19.0921 2.95978C18.9597 2.88784 18.8223 2.81945 18.7048 2.727C18.5557 2.6095 18.5042 2.4413 18.5436 2.25345C18.5586 2.18211 18.5815 2.1098 18.6156 2.04571C18.7348 1.82176 18.8603 1.60125 18.9839 1.37976C18.9935 1.36257 19.0083 1.34821 19.0338 1.31604V1.31592Z" fill="#64758B"/>
<path d="M23.0201 19.7837C22.9531 19.7323 22.8962 19.6889 22.826 19.6351C22.6631 19.8177 22.5401 20.0201 22.3846 20.2016C22.2819 20.1622 22.2087 20.0934 22.134 20.0295C22.172 19.9304 22.7392 19.1694 22.8382 19.0879C23.1979 19.3567 23.5602 19.6274 23.9197 19.8958C23.888 19.9948 23.342 20.7358 23.2323 20.828C23.1618 20.7762 23.0879 20.7219 23.0065 20.6621C23.0654 20.5526 23.1404 20.4667 23.2067 20.3751C23.2737 20.2825 23.3423 20.1913 23.4185 20.088C23.3678 20.0462 23.3229 20.0091 23.2664 19.9626C23.132 20.1391 23.0044 20.3067 22.866 20.4883C22.7844 20.4286 22.7115 20.3752 22.6274 20.3137C22.762 20.1319 22.8878 19.9624 23.0202 19.7835L23.0201 19.7837Z" fill="#64758B"/>
<path d="M3.43425 19.7575C3.3073 19.5705 3.19066 19.3989 3.06408 19.2125C3.14388 19.157 3.21571 19.107 3.29785 19.0499C3.44567 19.217 3.54696 19.4091 3.68681 19.5859C3.75667 19.5372 3.81867 19.4941 3.8916 19.4433C3.75225 19.2383 3.62002 19.0438 3.48042 18.8384C3.5714 18.7753 3.65071 18.7203 3.72745 18.667C3.81057 18.7276 4.3433 19.4922 4.40284 19.6368C4.03009 19.8924 3.65452 20.15 3.26543 20.4167C3.04394 20.0945 2.83178 19.786 2.6098 19.4631C2.69526 19.4032 2.7704 19.3505 2.85843 19.2887C3.01227 19.472 3.12043 19.6795 3.27219 19.8659C3.32682 19.8293 3.37274 19.7986 3.43425 19.7575Z" fill="#64758B"/>
<path d="M8.99913 2.31274C8.83215 1.87491 8.67979 1.44936 8.52496 1.02824C8.59752 0.964271 9.43438 0.647014 9.60651 0.618652C9.63278 0.689863 9.66323 0.763775 9.68705 0.839775C9.70375 0.893305 9.66004 0.911108 9.62112 0.925719C9.49859 0.971515 9.37507 1.0151 9.25254 1.0609C9.18821 1.08496 9.1251 1.11197 9.048 1.14316C9.07096 1.20737 9.09048 1.26176 9.11405 1.32769C9.32289 1.25182 9.51762 1.18097 9.71369 1.10964C9.7795 1.18895 9.79534 1.27686 9.82493 1.37361C9.63635 1.47294 9.42701 1.51751 9.23634 1.60836C9.22934 1.69602 9.27047 1.76061 9.30693 1.84471C9.53567 1.76318 9.75654 1.68436 9.9924 1.60026C10.0314 1.70572 10.0659 1.79879 10.1056 1.90585C9.73187 2.04324 9.3736 2.17498 8.99913 2.31274Z" fill="#64758B"/>
<path d="M5.52444 4.61109C5.21344 4.25663 4.91546 3.9169 4.61969 3.57976C4.68046 3.48657 5.35292 2.89048 5.48945 2.80908C5.54678 2.87612 5.60621 2.94573 5.67742 3.0291C5.58337 3.11357 5.49657 3.19141 5.40989 3.26937C5.32578 3.34501 5.24156 3.42051 5.15009 3.50277C5.19453 3.55496 5.23039 3.59719 5.27778 3.65293C5.44316 3.5099 5.60203 3.37238 5.76115 3.23463C5.85606 3.27883 5.89903 3.35827 5.96054 3.43856C5.82266 3.60051 5.64108 3.71506 5.49718 3.87135C5.51989 3.9541 5.58067 4.00162 5.64918 4.06522C5.8277 3.9104 6.00499 3.7568 6.18252 3.60272C6.28713 3.656 6.33023 3.75103 6.40979 3.83366C6.11978 4.09947 5.83138 4.3492 5.52444 4.61109Z" fill="#64758B"/>
<path d="M1.73209 16.2686C1.8243 16.2363 1.90386 16.2086 1.99778 16.1757C2.09772 16.3732 2.1402 16.5872 2.23695 16.7893C2.31406 16.7633 2.38195 16.7405 2.46667 16.7118C2.38723 16.4797 2.31123 16.2577 2.23364 16.0312C2.32486 15.9676 2.42186 15.944 2.53641 15.918C2.67085 16.278 2.79473 16.6385 2.91714 16.9956C2.83463 17.0609 1.77826 17.4415 1.62466 17.4655C1.5618 17.3796 1.25522 16.5085 1.24896 16.3848C1.32754 16.3565 1.41041 16.3268 1.5052 16.2928C1.61508 16.5063 1.65793 16.7373 1.76315 16.9536C1.82111 16.9349 1.87378 16.918 1.93897 16.8971C1.88323 16.6821 1.7936 16.4857 1.73185 16.2685L1.73209 16.2686Z" fill="#64758B"/>
<path d="M21.8938 21.6993C21.9712 21.6088 22.0383 21.5324 22.1029 21.454C22.1386 21.4106 22.1747 21.4013 22.2312 21.4184C22.3276 21.4475 22.4088 21.4073 22.4586 21.3219C22.4809 21.2834 22.4883 21.2443 22.4588 21.2076C22.4269 21.1678 22.3855 21.1756 22.3479 21.1966C22.2908 21.2284 22.237 21.2661 22.1798 21.2976C22.0868 21.3486 21.995 21.4033 21.8976 21.4444C21.7493 21.5071 21.6062 21.4852 21.4857 21.3772C21.3615 21.2659 21.3105 21.1226 21.3403 20.9566C21.3496 20.905 21.3669 20.8525 21.3917 20.8066C21.491 20.6223 21.6324 20.4763 21.8173 20.3772C21.9892 20.285 22.1865 20.3164 22.3502 20.463C22.2758 20.5708 22.1874 20.6684 22.0949 20.7676C22.0585 20.7535 22.0289 20.741 21.9986 20.7307C21.8863 20.6926 21.7733 20.7386 21.7186 20.8436C21.6885 20.9014 21.6917 20.9665 21.7286 21.0042C21.7718 21.0486 21.8252 21.0491 21.8759 21.0249C21.9384 20.995 21.996 20.9551 22.058 20.9241C22.1525 20.8766 22.2459 20.8241 22.3454 20.7894C22.4833 20.7413 22.614 20.7672 22.7179 20.8753C22.8191 20.9805 22.8573 21.109 22.81 21.2488C22.7242 21.5026 22.5504 21.6843 22.307 21.7878C22.1674 21.8471 22.0281 21.814 21.8941 21.6997L21.8938 21.6993Z" fill="#64758B"/>
<path d="M3.61449 7.04367C3.55016 7.17283 3.49503 7.28554 3.43806 7.39727C3.41179 7.44883 3.36526 7.43877 3.31958 7.43238C3.22783 7.41978 3.16185 7.45329 3.12167 7.53294C3.08483 7.60599 3.05107 7.68064 3.01227 7.75271C2.98219 7.80845 2.98894 7.85289 3.03756 7.89366C3.06261 7.91453 3.08925 7.93638 3.1057 7.96364C3.11872 7.98512 3.12928 8.02061 3.12031 8.04074C3.07071 8.15198 3.01485 8.26039 2.95641 8.37936C2.92092 8.35653 2.8944 8.34585 2.87648 8.32694C2.57887 8.0114 2.28297 7.69427 1.98499 7.3791C1.93858 7.32998 1.93171 7.28456 1.96387 7.22526C2.01077 7.13907 2.05412 7.05079 2.095 6.96153C2.12127 6.90431 2.16044 6.88602 2.22183 6.89228C2.42932 6.91365 2.63731 6.93059 2.8448 6.95109C3.06457 6.97283 3.28422 6.9964 3.50375 7.01997C3.53125 7.02292 3.55826 7.03139 3.61437 7.04367H3.61449ZM2.44627 7.30924C2.52926 7.4163 2.62257 7.50568 2.72215 7.59175C2.80539 7.47351 2.81313 7.45534 2.82319 7.35405C2.7014 7.32581 2.5785 7.30162 2.44614 7.30924H2.44627Z" fill="#64758B"/>
<path d="M13.7893 1.40416C13.6512 1.41067 13.5336 1.41619 13.4159 1.42172C13.3553 1.42454 13.3285 1.38746 13.3135 1.33565C13.2682 1.17948 13.2429 1.20354 13.1094 1.20379C13.0357 1.20391 12.962 1.20833 12.8885 1.20735C12.8264 1.20649 12.7877 1.23117 12.7732 1.29317C12.7658 1.32497 12.7591 1.35836 12.7435 1.38636C12.731 1.40895 12.7063 1.43964 12.6859 1.44038C12.5608 1.44541 12.4353 1.44283 12.2962 1.44283C12.3074 1.39642 12.3131 1.36106 12.3244 1.32767C12.4532 0.943743 12.5825 0.559941 12.7123 0.176384C12.7564 0.0459943 12.757 0.0468538 12.8919 0.0410832C12.9572 0.0382593 13.0224 0.0317521 13.0877 0.0284371C13.228 0.021316 13.2357 0.0258588 13.2889 0.154161C13.4001 0.42243 13.5106 0.691067 13.6216 0.959459C13.6669 1.0691 13.7134 1.17825 13.7575 1.28838C13.7693 1.31772 13.7746 1.34977 13.7892 1.4044L13.7893 1.40416ZM13.0243 0.48873C13.0122 0.489958 13.0002 0.491185 12.9882 0.492536C12.9564 0.61605 12.9246 0.739687 12.8929 0.86271C13.0158 0.896596 13.0494 0.894755 13.1474 0.849204C13.1067 0.729865 13.0654 0.609297 13.0243 0.48873Z" fill="#64758B"/>
<path d="M16.8651 0.908679C16.7381 0.943302 16.6252 0.92599 16.5134 0.91052C16.4948 0.907942 16.477 0.882405 16.4638 0.863865C16.4522 0.847781 16.4491 0.825804 16.4395 0.807879C16.346 0.633044 16.1136 0.617574 16.0067 0.784674C15.9182 0.923044 15.8897 1.08057 15.9077 1.24349C15.9178 1.3341 15.9783 1.39058 16.0637 1.41366C16.1532 1.43785 16.2435 1.44178 16.3145 1.36541C16.3502 1.32698 16.3815 1.2845 16.4246 1.23183C16.5341 1.29445 16.6418 1.35608 16.7609 1.42422C16.6913 1.58076 16.5914 1.6866 16.445 1.74565C16.349 1.78433 16.2482 1.80213 16.1447 1.77807C16.0533 1.75683 15.9597 1.74086 15.8721 1.70857C15.6159 1.61416 15.4643 1.39893 15.4629 1.12599C15.462 0.952142 15.5013 0.784551 15.5872 0.631693C15.706 0.420025 15.8918 0.31505 16.132 0.31947C16.314 0.322785 16.4897 0.364284 16.6412 0.472942C16.7872 0.577548 16.8486 0.725618 16.8649 0.908679H16.8651Z" fill="#64758B"/>
<path d="M4.64475 4.10533C4.58312 4.21656 4.53499 4.31073 4.47876 4.39975C4.46599 4.41988 4.42572 4.42786 4.39699 4.4313C4.35328 4.43658 4.30576 4.42332 4.26463 4.43474C4.10919 4.47783 4.03565 4.6566 4.11865 4.80098C4.19367 4.93137 4.30687 5.02824 4.44401 5.08939C4.53683 5.13089 4.62817 5.11431 4.70442 5.0404C4.77968 4.96735 4.79847 4.87944 4.76826 4.78171C4.75513 4.73935 4.73266 4.69981 4.7151 4.6604C4.77281 4.59079 4.9059 4.50276 5.02757 4.45279C5.13967 4.54229 5.20351 4.74082 5.16336 4.90731C5.14642 4.97754 5.11916 5.04998 5.07803 5.10842C5.0175 5.19461 4.94678 5.27601 4.86919 5.34734C4.67225 5.52832 4.40128 5.56073 4.16346 5.43599C4.00508 5.35287 3.87395 5.23672 3.7788 5.08399C3.66683 4.90436 3.65136 4.71455 3.73804 4.52166C3.81342 4.35407 3.92982 4.21718 4.08624 4.1192C4.25984 4.01054 4.4391 4.01754 4.645 4.10533H4.64475Z" fill="#64758B"/>
<path d="M15.228 1.08256C15.1687 1.36237 14.9321 1.52431 14.6543 1.51572C14.5611 1.51277 14.4668 1.49693 14.376 1.4752C14.1112 1.41185 13.9653 1.23161 13.9191 0.972182C13.8888 0.801398 13.9047 0.629387 13.9662 0.464742C14.0571 0.221643 14.2576 0.0773796 14.5174 0.0673118C14.6529 0.0620324 14.7866 0.0702585 14.9161 0.118019C15.0855 0.180635 15.1939 0.300098 15.2507 0.468671C15.2593 0.494332 15.2591 0.523062 15.2641 0.55879C15.1511 0.601516 15.0369 0.605077 14.9245 0.608024C14.9017 0.608638 14.8714 0.564438 14.8552 0.534971C14.8091 0.451605 14.7374 0.41158 14.6471 0.402617C14.5416 0.392181 14.4402 0.457007 14.3976 0.565297C14.3423 0.706123 14.34 0.853947 14.365 1.0003C14.3811 1.09447 14.4507 1.14653 14.5423 1.16543C14.6423 1.18606 14.7303 1.16396 14.7929 1.07826C14.8215 1.0391 14.8432 0.994895 14.8739 0.942838C14.9975 0.971199 15.1091 1.02608 15.2278 1.08231L15.228 1.08256Z" fill="#64758B"/>
<path d="M3.57433 5.34814C3.52645 5.4735 3.48458 5.58277 3.44148 5.6956C3.40735 5.69732 3.3796 5.70063 3.3521 5.69977C3.24001 5.69597 3.1672 5.75294 3.11846 5.84809C3.06947 5.94373 3.08911 6.03361 3.15345 6.11132C3.24958 6.22735 3.37371 6.30703 3.51822 6.34927C3.61448 6.37738 3.69514 6.34215 3.75751 6.26504C3.82259 6.18462 3.84088 6.0972 3.79103 6.00279C3.76844 5.96006 3.74118 5.91967 3.70877 5.86638C3.80748 5.78535 3.90362 5.7064 3.99718 5.62967C4.16673 5.75392 4.24077 5.98155 4.17704 6.18683C4.1159 6.38364 3.99939 6.54706 3.83278 6.668C3.67145 6.785 3.48704 6.78783 3.30361 6.73479C3.12239 6.68248 2.97247 6.57505 2.85031 6.43214C2.71182 6.2702 2.6772 6.08247 2.73416 5.87989C2.78057 5.715 2.87032 5.5727 2.99666 5.45753C3.15762 5.31081 3.34326 5.26981 3.57445 5.34814H3.57433Z" fill="#64758B"/>
<path d="M25.318 15.9785C25.2868 15.8621 25.299 15.752 25.3063 15.6435C25.3078 15.6214 25.3444 15.5938 25.3708 15.5823C25.4796 15.5354 25.5439 15.4569 25.5428 15.3381C25.5416 15.2125 25.4667 15.1287 25.3529 15.0943C25.2447 15.0616 25.1307 15.0402 25.0181 15.0334C24.9012 15.0264 24.8255 15.0938 24.7924 15.2026C24.7574 15.3173 24.7825 15.3994 24.8764 15.4738C24.9078 15.4987 24.9408 15.5217 24.9853 15.5545C24.9224 15.6674 24.862 15.7757 24.8034 15.8808C24.5681 15.8191 24.4047 15.5795 24.428 15.3329C24.4376 15.2321 24.4594 15.1304 24.4907 15.0341C24.5817 14.7548 24.7937 14.5968 25.0861 14.5929C25.2553 14.5905 25.4188 14.6292 25.5699 14.709C25.7863 14.8232 25.8886 15.0098 25.8914 15.2484C25.8933 15.4091 25.855 15.5643 25.7788 15.7082C25.6982 15.8602 25.5658 15.9406 25.4033 15.9778C25.3774 15.9837 25.3489 15.9787 25.318 15.9787V15.9785Z" fill="#64758B"/>
<path d="M25.304 17.2358C25.304 17.2675 25.3066 17.2767 25.3036 17.2834C25.2004 17.5238 25.1064 17.7688 24.9898 18.0025C24.9007 18.1812 24.7385 18.2417 24.5574 18.199C24.3416 18.148 24.1919 18.0033 24.1867 17.8124C24.1841 17.7176 24.2178 17.6205 24.2438 17.5269C24.2632 17.457 24.2965 17.391 24.33 17.3071C24.2498 17.2707 24.1771 17.2374 24.1043 17.2046C24.0309 17.1715 23.9572 17.1388 23.8698 17.0996C23.9295 16.9598 23.983 16.8341 24.0429 16.6934C24.4726 16.8781 24.888 17.0568 25.3041 17.2358H25.304ZM24.6286 17.4325C24.5655 17.4958 24.5466 17.5613 24.5451 17.6324C24.5437 17.7031 24.5722 17.7454 24.6315 17.7653C24.6927 17.7857 24.7461 17.7711 24.7847 17.7199C24.8239 17.6681 24.8589 17.6131 24.8549 17.53C24.7795 17.4976 24.7029 17.4645 24.6285 17.4326L24.6286 17.4325Z" fill="#64758B"/>
<path d="M24.8265 9.62054C24.655 9.66216 24.5021 9.69924 24.3376 9.73914C24.2987 9.595 24.264 9.46646 24.2304 9.34171C24.3154 9.28376 25.397 8.98848 25.5683 8.97461C25.58 9.00469 25.5959 9.03698 25.6051 9.07111C25.6552 9.25675 25.7037 9.44276 25.7527 9.62864C25.759 9.65234 25.7654 9.67616 25.7698 9.70022C25.8377 10.0747 25.6158 10.2073 25.3554 10.2349C25.1975 10.2516 25.0638 10.1894 24.9827 10.0474C24.9425 9.97733 24.917 9.89839 24.8889 9.82202C24.8666 9.76149 24.8506 9.69875 24.8266 9.62042L24.8265 9.62054ZM25.4437 9.65124C25.4417 9.54602 25.4032 9.4818 25.3424 9.48291C25.2312 9.48499 25.1379 9.53718 25.1392 9.5966C25.1418 9.7087 25.222 9.80213 25.3121 9.79808C25.3914 9.79452 25.4452 9.73448 25.4437 9.65136V9.65124Z" fill="#64758B"/>
<path d="M6.67422 3.03306C6.7679 3.17388 6.85556 3.30562 6.94114 3.43417C6.88012 3.51521 6.72628 3.62485 6.60252 3.67948C6.53045 3.62767 5.89912 2.71519 5.82239 2.54907C5.84363 2.53016 5.86511 2.50659 5.89077 2.48903C6.05923 2.37325 6.22854 2.2587 6.3976 2.14378C6.41111 2.13457 6.42486 2.12573 6.43898 2.11738C6.7264 1.94685 7.0245 2.07134 7.10529 2.39707C7.13782 2.52807 7.11695 2.6522 7.0234 2.75214C6.9625 2.81722 6.88969 2.87136 6.82008 2.92772C6.77661 2.96308 6.72922 2.99365 6.67422 3.03306ZM6.34186 2.54563C6.40251 2.63207 6.45027 2.70009 6.50601 2.7794C6.56212 2.73864 6.61086 2.71064 6.65028 2.67283C6.70577 2.61967 6.7113 2.53888 6.67188 2.4851C6.63395 2.43329 6.56568 2.41451 6.4973 2.44692C6.44757 2.47049 6.40337 2.50585 6.34186 2.54563Z" fill="#64758B"/>
<path d="M21.9177 3.25586C22.2348 3.57103 22.5387 3.87036 22.8491 4.18467C22.7599 4.27332 22.6836 4.34932 22.5992 4.43305C22.4914 4.33213 22.3944 4.24127 22.2848 4.13863C22.0398 4.38332 21.8019 4.6209 21.5627 4.8597C21.4543 4.75288 21.3572 4.65724 21.2485 4.55018C21.4882 4.30573 21.7239 4.06521 21.9658 3.81855C21.8648 3.71357 21.7724 3.61744 21.6687 3.50964C21.7511 3.42554 21.8267 3.34856 21.9175 3.25586H21.9177Z" fill="#64758B"/>
<path d="M2.57325 9.5144C2.5342 9.65413 2.49774 9.78501 2.45685 9.93148C2.34991 9.903 2.25697 9.88753 2.17115 9.85352C1.98637 9.78034 1.81141 9.78673 1.62712 9.86481C1.4583 9.93639 1.27905 9.98329 1.10397 10.0401C1.07045 10.0511 1.03558 10.0574 0.990767 10.0686C0.980208 9.98035 1.01274 9.91269 1.03227 9.84418C1.11121 9.56732 1.04688 9.62883 1.33356 9.54485C1.41545 9.52091 1.49759 9.49783 1.59741 9.46935C1.56659 9.43104 1.5467 9.40317 1.52362 9.37812C1.4486 9.29709 1.37027 9.21913 1.29796 9.13588C1.2761 9.11071 1.2529 9.06848 1.25916 9.04048C1.28936 8.90617 1.32939 8.77418 1.37064 8.62402C1.40956 8.65877 1.43522 8.67719 1.45548 8.70051C1.61337 8.88296 1.77286 9.06406 1.92596 9.25043C1.98379 9.32078 2.05009 9.364 2.13739 9.38475C2.24076 9.40931 2.34255 9.44025 2.4447 9.46984C2.483 9.48089 2.52008 9.49562 2.57325 9.51416V9.5144Z" fill="#64758B"/>
<path d="M8.05547 2.77176C7.89144 2.46248 7.75099 2.15983 7.58806 1.8551C7.4535 1.91821 7.3333 1.97469 7.19886 2.03779C7.14557 1.93356 7.09658 1.83754 7.03949 1.72582C7.43127 1.52729 7.81151 1.33465 8.20588 1.13477C8.2637 1.24576 8.31343 1.34128 8.36966 1.44932C8.24099 1.51845 8.12411 1.58106 7.99175 1.65215C8.1354 1.96486 8.2982 2.25978 8.44517 2.57249C8.31957 2.65426 8.19593 2.71172 8.0556 2.77176H8.05547Z" fill="#64758B"/>
<path d="M1.75209 12.2552C1.76167 12.0973 1.77063 11.9507 1.77935 11.8041C1.7818 11.7633 1.78192 11.7223 1.78487 11.6816C1.78794 11.6396 1.80906 11.611 1.85399 11.6118C1.94276 11.6134 2.03141 11.6176 2.12791 11.621C2.13135 11.6654 2.13675 11.6967 2.13565 11.7276C2.12496 12.0136 2.11342 12.2994 2.10139 12.5853C2.09574 12.7198 2.08887 12.7281 1.94718 12.7224C1.56743 12.7068 1.1878 12.6888 0.808176 12.6703C0.712533 12.6656 0.7005 12.6534 0.7005 12.562C0.7005 12.4762 0.705534 12.3905 0.710077 12.3048C0.713024 12.2508 0.743104 12.2238 0.797986 12.2261C0.883684 12.2298 0.969506 12.2328 1.0552 12.2371C1.25926 12.2475 1.46332 12.2587 1.66737 12.2683C1.69058 12.2694 1.71427 12.2613 1.75197 12.2551L1.75209 12.2552Z" fill="#64758B"/>
<path d="M2.16644 11.4343C1.70025 11.3623 1.25371 11.294 0.800171 11.2101C0.805941 11.0584 0.833566 10.9251 0.866839 10.7787C1.20755 10.8325 1.53708 10.8844 1.88405 10.9392C1.92285 10.7203 1.95993 10.5106 1.99946 10.2876C2.11892 10.3072 2.22169 10.3241 2.34127 10.3437C2.2929 10.7096 2.22942 11.0608 2.16632 11.4343H2.16644Z" fill="#64758B"/>
<path d="M23.4922 17.9741C23.8827 18.1994 24.2766 18.4266 24.6862 18.6629C24.6107 18.7951 24.5433 18.9131 24.4676 19.0455C24.1629 18.8715 23.8735 18.7064 23.5715 18.5339C23.4389 18.7094 23.3596 18.913 23.2238 19.0954C23.1237 19.0396 23.0329 18.9888 22.9449 18.9398C22.9651 18.8403 23.3916 18.0873 23.492 17.9742L23.4922 17.9741Z" fill="#64758B"/>
<path d="M25.4593 16.839C25.015 16.6962 24.5846 16.558 24.1429 16.4159C24.1607 16.2767 24.2104 16.157 24.2582 16.0375C24.2641 16.0228 24.2988 16.0107 24.3189 16.0124C24.355 16.0154 24.3905 16.0286 24.4255 16.0397C24.7721 16.1509 25.1188 16.2621 25.4651 16.3743C25.5924 16.4156 25.5957 16.4223 25.5562 16.548C25.5271 16.6405 25.495 16.732 25.4593 16.839Z" fill="#64758B"/>
<path d="M21.9804 5.33633C22.348 5.03172 22.6989 4.7411 23.0601 4.44189C23.1558 4.55952 23.24 4.66314 23.3218 4.76369C23.271 4.85087 22.4293 5.56285 22.2583 5.66402C22.1721 5.56236 22.0837 5.45812 21.9804 5.33645V5.33633Z" fill="#64758B"/>
<path d="M26.1093 12.1513C26.1446 12.3241 26.1478 12.4583 26.1178 12.5699C26.0583 12.5767 25.9945 12.5888 25.9304 12.5909C25.5835 12.6022 25.2366 12.611 24.8896 12.6204C24.8652 12.6211 24.8406 12.6204 24.8161 12.6197C24.7737 12.6186 24.7442 12.5997 24.7428 12.5548C24.7397 12.4527 24.7382 12.3507 24.7377 12.2487C24.7375 12.2047 24.7631 12.182 24.8062 12.1783C24.8184 12.1772 24.8307 12.176 24.8428 12.1756C25.2469 12.1642 25.651 12.1529 26.0551 12.1421C26.0707 12.1417 26.0866 12.1473 26.1092 12.1513H26.1093Z" fill="#64758B"/>
<path d="M7.35748 13.1072C7.35748 12.9634 7.35453 12.8256 7.36018 12.688C7.36104 12.6669 7.39738 12.6391 7.42304 12.6295C7.45214 12.6187 7.48762 12.624 7.52028 12.624C8.04417 12.6237 8.56794 12.6235 9.09183 12.6243C9.13959 12.6243 9.18723 12.6323 9.24346 12.6375V13.1066C9.17017 13.1158 9.10264 13.1243 9.03511 13.1326C8.89772 13.1498 8.86285 13.1809 8.85929 13.319C8.85389 13.5358 8.85647 13.7528 8.85598 13.9696C8.85561 14.1087 8.8577 14.2479 8.85475 14.387C8.85291 14.4758 8.84149 14.4876 8.75456 14.4892C8.60318 14.492 8.45167 14.4883 8.30029 14.4907C8.23792 14.4916 8.20207 14.4621 8.17641 14.4095C8.15873 14.3735 8.13613 14.3399 8.1106 14.2968C8.06775 14.3161 8.03091 14.3311 7.99555 14.3486C7.6023 14.5438 7.1894 14.6116 6.75501 14.5406C6.15917 14.4434 5.73841 14.1189 5.53055 13.5514C5.33521 13.0179 5.32895 12.472 5.54799 11.9438C5.78703 11.3673 6.23861 11.0464 6.85139 10.95C7.06257 10.9167 7.27497 10.9146 7.48726 10.9468C7.65018 10.9715 7.80783 11.0121 7.95553 11.087C7.99531 11.1072 8.03583 11.1258 8.08052 11.1473C8.09906 11.1248 8.1214 11.109 8.12754 11.0884C8.15455 10.9979 8.21471 10.971 8.30422 10.9758C8.4103 10.9814 8.51699 10.9753 8.62332 10.978C8.71847 10.9805 8.73259 10.9924 8.73283 11.0842C8.73443 11.4894 8.73443 11.8945 8.73259 12.2997C8.73222 12.3869 8.71896 12.3985 8.6308 12.4004C8.4917 12.4032 8.35247 12.3996 8.21336 12.4017C8.14829 12.4027 8.12054 12.372 8.10519 12.3109C8.07339 12.184 8.0384 12.0577 7.99691 11.9338C7.95614 11.8121 7.88861 11.7047 7.79285 11.6171C7.50579 11.3546 7.04575 11.436 6.88061 11.7851C6.83064 11.891 6.79602 12.0081 6.77723 12.1238C6.71007 12.5385 6.70946 12.9557 6.77944 13.3698C6.80093 13.497 6.84329 13.6254 6.90124 13.7406C7.05324 14.0426 7.3732 14.0625 7.61028 13.9857C7.65374 13.9716 7.68947 13.9199 7.71771 13.8781C7.73698 13.8496 7.74349 13.8081 7.74423 13.7723C7.74718 13.6169 7.75061 13.4612 7.74447 13.306C7.73969 13.1849 7.70064 13.1509 7.57922 13.1342C7.51107 13.1249 7.44281 13.1173 7.35748 13.1067V13.1072Z" fill="#64758B"/>
<path d="M19.4491 12.9535C19.4454 13.006 19.4408 13.0421 19.4406 13.0782C19.44 13.2827 19.4403 13.4874 19.4406 13.6919C19.4406 13.7165 19.4413 13.741 19.4437 13.7655C19.4573 13.9045 19.4955 13.941 19.6375 13.9493C19.7219 13.9542 19.8064 13.9574 19.9076 13.9622C19.9076 14.114 19.9082 14.2519 19.9072 14.3898C19.9068 14.4351 19.8774 14.4544 19.8356 14.4573C19.8071 14.4594 19.7784 14.4598 19.7498 14.4598C19.1687 14.4599 18.5877 14.4601 18.0066 14.4598C17.8432 14.4598 17.8428 14.4588 17.8424 14.2959C17.8422 14.214 17.8404 14.1321 17.8438 14.0504C17.8471 13.9715 17.86 13.9592 17.9388 13.9532C18.004 13.9483 18.07 13.9518 18.1349 13.9455C18.2379 13.9354 18.2716 13.902 18.2829 13.8002C18.2891 13.7435 18.2896 13.6859 18.2897 13.6287C18.2902 13.0353 18.2902 12.442 18.2897 11.8487C18.2897 11.7955 18.2891 11.7421 18.2836 11.6893C18.2727 11.5859 18.2402 11.5522 18.1382 11.5417C18.0733 11.535 18.0073 11.5379 17.9421 11.5331C17.8615 11.5271 17.8465 11.5148 17.8439 11.4391C17.8404 11.3328 17.8436 11.2263 17.8431 11.12C17.8428 11.0582 17.8752 11.0311 17.9342 11.0302C17.9669 11.0297 17.9996 11.0286 18.0324 11.0286C18.6994 11.0286 19.3664 11.0262 20.0334 11.0299C20.2623 11.0311 20.4921 11.0396 20.7162 11.0944C20.8072 11.1167 20.8979 11.1448 20.9842 11.1809C21.26 11.296 21.4178 11.5053 21.4646 11.8C21.4907 11.964 21.4862 12.1268 21.4434 12.2869C21.3735 12.5474 21.2046 12.7192 20.9563 12.8165C20.7443 12.8998 20.5226 12.9362 20.2964 12.942C20.0632 12.9479 19.83 12.9449 19.5967 12.9465C19.5525 12.9469 19.5084 12.9506 19.4489 12.9535H19.4491ZM19.7148 11.5495C19.657 11.5495 19.5999 11.5474 19.5429 11.5499C19.4611 11.5538 19.4456 11.565 19.4448 11.6413C19.4424 11.9026 19.4424 12.164 19.4447 12.4254C19.4454 12.5028 19.4584 12.5161 19.5432 12.5136C19.6734 12.5099 19.8053 12.5072 19.9332 12.4855C20.1712 12.4452 20.2845 12.3059 20.2942 12.0627C20.2962 12.0139 20.295 11.9644 20.2895 11.9159C20.2698 11.7426 20.1762 11.6284 20.0052 11.5897C19.9103 11.5682 19.8118 11.5623 19.7148 11.5493V11.5495Z" fill="#64758B"/>
<path d="M13.5925 13.9696C13.6524 13.9621 13.6998 13.9536 13.7475 13.9507C13.8539 13.9445 13.938 13.8978 13.9895 13.8062C14.0333 13.7283 14.0718 13.646 14.1013 13.5616C14.3769 12.7739 14.6502 11.9854 14.9242 11.1971C14.963 11.0854 15.04 11.0294 15.1553 11.029C15.4541 11.0287 15.7528 11.0287 16.0514 11.029C16.2235 11.029 16.224 11.0292 16.2772 11.1994C16.5211 11.9804 16.7643 12.7615 17.0087 13.5424C17.0319 13.6164 17.0607 13.6887 17.0863 13.7621C17.1326 13.8951 17.2244 13.9593 17.3663 13.9518C17.4071 13.9496 17.4481 13.9529 17.489 13.9544C17.5439 13.9564 17.5705 13.9857 17.5705 14.0402C17.5705 14.1507 17.5705 14.2611 17.5704 14.3716C17.5703 14.4253 17.5446 14.456 17.4894 14.4582C17.4607 14.4593 17.4321 14.4604 17.4035 14.4604C16.8184 14.4605 16.2333 14.4606 15.6482 14.4604C15.4848 14.4604 15.4846 14.4595 15.484 14.2965C15.4837 14.1909 15.484 14.0854 15.484 13.9636C15.5716 13.959 15.6434 13.9536 15.7152 13.9517C15.923 13.9463 15.9513 13.9084 15.8909 13.7055C15.8652 13.6194 15.8328 13.5351 15.8066 13.4491C15.7888 13.391 15.7572 13.3604 15.6926 13.3609C15.4472 13.3627 15.2016 13.3624 14.9562 13.3611C14.8989 13.3609 14.8651 13.3842 14.8479 13.4394C14.8137 13.5486 14.7731 13.6561 14.7412 13.7659C14.7044 13.8927 14.7385 13.9376 14.8738 13.9485C14.9267 13.9528 14.9801 13.9523 15.0333 13.9532C15.0919 13.9542 15.1249 13.9786 15.124 14.0418C15.1226 14.1523 15.1231 14.2627 15.1236 14.3732C15.1238 14.4281 15.098 14.4571 15.0426 14.4585C15.014 14.4593 14.9854 14.4604 14.9568 14.4604C14.5558 14.4604 14.1548 14.4605 13.7538 14.4604C13.7212 14.4604 13.6855 14.4658 13.6567 14.4545C13.6314 14.4447 13.5964 14.4157 13.5956 14.394C13.5901 14.256 13.5928 14.1176 13.5928 13.9699L13.5925 13.9696ZM15.3323 11.9294C15.2391 12.0809 15.0588 12.7517 15.0615 12.8376C15.1838 12.8747 15.5175 12.8678 15.6012 12.8226C15.5119 12.5259 15.422 12.2277 15.3323 11.9294Z" fill="#64758B"/>
<path d="M10.9193 13.9846C10.9193 14.1158 10.922 14.2539 10.9166 14.3918C10.9157 14.414 10.8816 14.4405 10.8568 14.4543C10.8375 14.4649 10.8089 14.4598 10.7844 14.4598C10.3672 14.46 9.95009 14.4604 9.53289 14.4593C9.48955 14.4593 9.44608 14.4506 9.39697 14.4453V13.9657C9.44535 13.9601 9.485 13.9515 9.52478 13.9516C9.64805 13.9518 9.73682 13.8918 9.79575 13.7904C9.83455 13.7239 9.86426 13.651 9.8898 13.5781C10.1583 12.81 10.4252 12.0413 10.6926 11.2727C10.7074 11.2302 10.7228 11.188 10.7386 11.1459C10.7806 11.0336 10.7834 11.0305 10.9079 11.0291C11.0428 11.0277 11.1777 11.0286 11.3128 11.0286C11.5051 11.0286 11.6972 11.0277 11.8895 11.0293C12.0166 11.0302 12.0204 11.0344 12.0593 11.1589C12.3102 11.963 12.5606 12.7673 12.8123 13.5711C12.8367 13.649 12.8667 13.7253 12.8981 13.8006C12.9382 13.8968 13.0129 13.9463 13.1177 13.9491C13.175 13.9506 13.2322 13.9521 13.2894 13.9542C13.3383 13.956 13.3656 13.9818 13.3661 14.0309C13.3672 14.1453 13.3672 14.2599 13.3665 14.3743C13.3661 14.4281 13.3386 14.4577 13.2832 14.4584C13.2506 14.4589 13.2178 14.4601 13.1851 14.4601C12.6126 14.4601 12.04 14.4601 11.4675 14.4601C11.447 14.4601 11.4266 14.4605 11.4061 14.4599C11.2914 14.4561 11.283 14.4484 11.2816 14.3305C11.2803 14.2128 11.2814 14.0949 11.2814 13.9615C11.3684 13.9576 11.4404 13.9532 11.5123 13.9514C11.7078 13.9462 11.7418 13.9005 11.6857 13.7096C11.6591 13.6194 11.6259 13.5313 11.5979 13.4415C11.5812 13.3879 11.551 13.3603 11.4918 13.3607C11.2423 13.3623 10.9928 13.3618 10.7433 13.3612C10.6912 13.361 10.6597 13.383 10.6438 13.4332C10.6079 13.5463 10.5652 13.6573 10.5341 13.7716C10.5012 13.8924 10.5363 13.9361 10.6637 13.9479C10.7327 13.9543 10.8022 13.9561 10.8713 13.9615C10.8825 13.9624 10.893 13.9719 10.9188 13.9849L10.9193 13.9846ZM11.3817 12.8497C11.3784 12.7181 11.1539 11.9884 11.0993 11.9241C11.0062 12.1521 10.8509 12.7533 10.8639 12.8497H11.3818H11.3817Z" fill="#64758B"/>
</svg>
