<svg width="20" height="20" viewBox="0 0 20 20" fill="none" xmlns="http://www.w3.org/2000/svg">
<g clip-path="url(#clip0_939_2476)">
<path d="M10.0436 0.140625L10.4123 1.22923L11.5616 1.24357L10.6406 1.93081L10.9822 3.02821L10.0436 2.36417L9.10538 3.02821L9.447 1.93081L8.52557 1.24357L9.67486 1.22923L10.0436 0.140625Z" fill="#64758B"/>
<path d="M10.0436 17.0273L10.4123 18.1159L11.5616 18.1303L10.6406 18.8167L10.9822 19.9141L10.0436 19.2508L9.10538 19.9141L9.447 18.8167L8.52557 18.1303L9.67486 18.1159L10.0436 17.0273Z" fill="#64758B"/>
<path d="M14.3065 1.12402L14.6752 2.21263L15.8245 2.22705L14.9027 2.91421L15.2443 4.01161L14.3065 3.34757L13.3679 4.01161L13.7094 2.91421L12.7885 2.22705L13.9377 2.21263L14.3065 1.12402Z" fill="#64758B"/>
<path d="M17.3124 4.34766L17.6811 5.43669L18.8296 5.45102L17.9086 6.13819L18.2501 7.23558L17.3124 6.57155L16.3738 7.23558L16.7153 6.13819L15.7936 5.45102L16.9436 5.43669L17.3124 4.34766Z" fill="#64758B"/>
<path d="M2.61209 4.34766L2.98119 5.43669L4.13005 5.45102L3.20905 6.13819L3.55058 7.23558L2.61209 6.57155L1.67429 7.23558L2.01548 6.13819L1.09406 5.45102L2.24334 5.43669L2.61209 4.34766Z" fill="#64758B"/>
<path d="M1.5192 8.50049L1.88787 9.58909L3.03715 9.60352L2.11573 10.2907L2.45735 11.3881L1.5192 10.724L0.580622 11.3881L0.922155 10.2907L0.00115967 9.60352L1.15044 9.58909L1.5192 8.50049Z" fill="#64758B"/>
<path d="M18.4593 8.50049L18.8288 9.58909L19.9772 9.60352L19.0562 10.2907L19.3978 11.3881L18.4593 10.724L17.5215 11.3881L17.863 10.2907L16.9412 9.60352L18.0905 9.58909L18.4593 8.50049Z" fill="#64758B"/>
<path d="M2.61209 12.7095L2.98119 13.7973L4.13005 13.8116L3.20905 14.4989L3.55058 15.5963L2.61209 14.933L1.67429 15.5963L2.01548 14.4989L1.09406 13.8116L2.24334 13.7973L2.61209 12.7095Z" fill="#64758B"/>
<path d="M17.3124 12.7095L17.6811 13.7973L18.8296 13.8116L17.9086 14.4989L18.2501 15.5963L17.3124 14.933L16.3738 15.5963L16.7153 14.4989L15.7936 13.8116L16.9436 13.7973L17.3124 12.7095Z" fill="#64758B"/>
<path d="M5.7814 15.9331L6.15016 17.0218L7.29944 17.0361L6.37802 17.7233L6.71964 18.8207L5.7814 18.1567L4.84326 18.8207L5.18479 17.7233L4.26337 17.0361L5.41273 17.0218L5.7814 15.9331Z" fill="#64758B"/>
<path d="M14.1971 15.9331L14.5657 17.0218L15.715 17.0361L14.7932 17.7233L15.1348 18.8207L14.1971 18.1567L13.2585 18.8207L13.6 17.7233L12.679 17.0361L13.8283 17.0218L14.1971 15.9331Z" fill="#64758B"/>
<path d="M5.7814 1.12402L6.15016 2.21263L7.29944 2.22705L6.37802 2.91421L6.71964 4.01161L5.7814 3.34757L4.84326 4.01161L5.18479 2.91421L4.26337 2.22705L5.41273 2.21263L5.7814 1.12402Z" fill="#64758B"/>
<path d="M7.01292 9.48143H5.93626V9.10551C5.93626 8.86843 5.92585 8.72002 5.90554 8.6602C5.8848 8.60038 5.8365 8.57085 5.75952 8.57085C5.6933 8.57085 5.64781 8.59637 5.62425 8.64748C5.60027 8.69852 5.58833 8.8302 5.58833 9.0409V11.029C5.58833 11.215 5.60027 11.3371 5.62425 11.3961C5.64781 11.4544 5.69568 11.4839 5.76754 11.4839C5.8458 11.4839 5.89922 11.4513 5.92713 11.3842C5.95546 11.318 5.96946 11.1887 5.96946 10.9955V10.5047H5.75201V9.87494H7.013V12.0977H6.33625L6.23691 11.8016C6.16352 11.9293 6.07093 12.025 5.95922 12.0889C5.84751 12.1528 5.7154 12.1847 5.56375 12.1847C5.383 12.1847 5.21334 12.1408 5.05572 12.053C4.89767 11.9652 4.77802 11.8566 4.69575 11.7273C4.61399 11.5972 4.56245 11.4615 4.54214 11.3195C4.52174 11.1766 4.51141 10.9627 4.51141 10.6786V9.44789C4.51141 9.052 4.53292 8.76474 4.57525 8.58595C4.61792 8.40717 4.74047 8.2428 4.94238 8.09354C5.14473 7.94428 5.40604 7.87012 5.72649 7.87012C6.04695 7.87012 6.30357 7.93472 6.5118 8.06401C6.71969 8.19416 6.85538 8.3482 6.91844 8.52613C6.98151 8.70415 7.013 8.96265 7.013 9.30273V9.48152L7.01292 9.48143Z" fill="#64758B"/>
<path d="M7.42969 7.95752H8.23539C8.75537 7.95752 9.10731 7.98065 9.29045 8.02852C9.47359 8.0764 9.6133 8.15542 9.70871 8.26398C9.80412 8.3733 9.86394 8.49465 9.88784 8.62872C9.91182 8.76279 9.92377 9.02539 9.92377 9.41804V10.8682C9.92377 11.2401 9.90619 11.4883 9.87111 11.6137C9.83638 11.739 9.77536 11.8371 9.6884 11.9082C9.60135 11.9784 9.49408 12.0279 9.36598 12.0567C9.23831 12.0846 9.04553 12.0982 8.78814 12.0982H7.42977V7.9576L7.42969 7.95752ZM8.50634 8.66542V11.3902C8.66158 11.3902 8.75733 11.3591 8.79326 11.2968C8.82876 11.2345 8.84677 11.0654 8.84677 10.7892V9.17943C8.84677 8.99261 8.84079 8.87211 8.82885 8.81946C8.8169 8.76604 8.78976 8.72772 8.747 8.70297C8.70433 8.67822 8.62446 8.6655 8.50634 8.6655V8.66542Z" fill="#64758B"/>
<path d="M13.0268 7.95752H13.789C14.2973 7.95752 14.6414 7.97672 14.8209 8.01581C15.0012 8.05489 15.1473 8.15551 15.2614 8.31672C15.3748 8.47793 15.4314 8.73489 15.4314 9.08768C15.4314 9.4101 15.3907 9.62635 15.3109 9.7373C15.2311 9.84824 15.0731 9.91532 14.8376 9.93682C15.0507 9.98948 15.1944 10.0605 15.2678 10.1491C15.3405 10.2376 15.3868 10.3191 15.4044 10.3933C15.4219 10.4676 15.4315 10.6719 15.4315 11.0062V12.0981H14.4315V10.7221C14.4315 10.5003 14.4139 10.363 14.3788 10.3103C14.3437 10.2576 14.2519 10.2312 14.1035 10.2312V12.0981H13.0268V7.95752ZM14.1035 8.66542V9.58642C14.2247 9.58642 14.3094 9.5696 14.358 9.53692C14.4067 9.50338 14.4315 9.39568 14.4315 9.21288V8.98545C14.4315 8.85453 14.4075 8.76834 14.3604 8.72686C14.3142 8.68616 14.228 8.66542 14.1035 8.66542Z" fill="#64758B"/>
<path d="M10.3776 7.95752H11.4622C11.7559 7.95752 11.981 7.97988 12.139 8.02613C12.2963 8.07239 12.4152 8.1387 12.4942 8.22566C12.574 8.31262 12.6275 8.41802 12.6554 8.54176C12.6834 8.66542 12.6976 8.85701 12.6976 9.11559V9.47633C12.6976 9.74122 12.6706 9.93367 12.6154 10.0549C12.5612 10.1754 12.4614 10.2688 12.3154 10.3335C12.1694 10.3982 11.9786 10.4309 11.744 10.4309H11.4542V12.0981H10.3776V7.95752ZM11.4542 8.66542V9.71972C11.4854 9.72125 11.5117 9.72211 11.534 9.72211C11.633 9.72211 11.7016 9.69813 11.7399 9.64948C11.7783 9.60084 11.7974 9.49945 11.7974 9.34618V9.00618C11.7974 8.86409 11.775 8.77235 11.7303 8.73002C11.6864 8.68693 11.5946 8.66533 11.4541 8.66533L11.4542 8.66542Z" fill="#64758B"/>
</g>
<defs>
<clipPath id="clip0_939_2476">
<rect width="19.9758" height="19.7727" fill="white" transform="translate(0.00115967 0.140137)"/>
</clipPath>
</defs>
</svg>
