<svg width="20" height="20" viewBox="0 0 20 20" fill="none" xmlns="http://www.w3.org/2000/svg">
<g clip-path="url(#clip0_924_4980)">
<path d="M9.99984 16.668C11.7679 16.668 13.4636 15.9656 14.7139 14.7153C15.9641 13.4651 16.6665 11.7694 16.6665 10.0013C16.6665 8.23319 15.9641 6.5375 14.7139 5.28726C13.4636 4.03701 11.7679 3.33464 9.99984 3.33464M9.99984 16.668C8.23173 16.668 6.53603 15.9656 5.28579 14.7153C4.03555 13.4651 3.33317 11.7694 3.33317 10.0013M9.99984 16.668V18.3346M9.99984 3.33464C8.23173 3.33464 6.53603 4.03701 5.28579 5.28726C4.03555 6.5375 3.33317 8.23319 3.33317 10.0013M9.99984 3.33464V1.66797M3.33317 10.0013H1.6665M11.6665 10.0013C11.6665 10.4433 11.4909 10.8673 11.1783 11.1798C10.8658 11.4924 10.4419 11.668 9.99984 11.668C9.55781 11.668 9.13389 11.4924 8.82133 11.1798C8.50877 10.8673 8.33317 10.4433 8.33317 10.0013C8.33317 9.55927 8.50877 9.13535 8.82133 8.82279C9.13389 8.51023 9.55781 8.33464 9.99984 8.33464C10.4419 8.33464 10.8658 8.51023 11.1783 8.82279C11.4909 9.13535 11.6665 9.55927 11.6665 10.0013ZM11.6665 10.0013H18.3332M14.1665 17.218L13.3332 15.7763M9.1665 8.55964L5.83317 2.78464M17.2165 14.168L15.7748 13.3346M2.78317 5.83464L4.22484 6.66797M17.2165 5.83464L15.7748 6.66797M2.78317 14.168L4.22484 13.3346M14.1665 2.78464L13.3332 4.2263M9.1665 11.443L5.83317 17.218" stroke="#94A3B8" stroke-width="2" stroke-linecap="round" stroke-linejoin="round"/>
</g>
<defs>
<clipPath id="clip0_924_4980">
<rect width="20" height="20" fill="white"/>
</clipPath>
</defs>
</svg>
