<svg width="45" height="38" viewBox="0 0 45 38" fill="none" xmlns="http://www.w3.org/2000/svg">
<path d="M15.9366 24.105C15.9366 23.0945 16.7558 22.2754 17.7662 22.2754C18.7767 22.2754 19.5958 23.0945 19.5958 24.105V27.4771C19.5958 28.4875 18.7767 29.3066 17.7662 29.3066C16.7558 29.3066 15.9366 28.4875 15.9366 27.4771V24.105Z" fill="black"/>
<path d="M27.1424 22.2754C26.132 22.2754 25.3129 23.0945 25.3129 24.105V27.4771C25.3129 28.4875 26.132 29.3066 27.1424 29.3066C28.1529 29.3066 28.972 28.4875 28.972 27.4771V24.105C28.972 23.0945 28.1529 22.2754 27.1424 22.2754Z" fill="black"/>
<path fill-rule="evenodd" clip-rule="evenodd" d="M45 22.375V27.4178C44.9986 28.069 44.676 28.7037 44.1506 29.0884C37.9486 33.6289 30.2958 37.2813 22.5 37.2813C13.8752 37.2813 5.24002 32.3113 0.84938 29.0884C0.324024 28.7037 0.00127031 28.069 0 27.4178V22.375C0 21.7113 0.210943 21.07 0.601881 20.5356L1.97157 18.6822C2.70513 17.6878 3.79605 17.425 4.95844 17.425C5.39719 12.4188 6.435 8.84688 8.91563 6.23125C13.6406 1.225 19.9125 0.71875 22.5 0.71875C25.0875 0.71875 31.3594 1.225 36.0844 6.23125C38.5622 8.84688 39.6028 12.4188 40.0416 17.425C41.2063 17.425 42.2924 17.6833 43.0256 18.6822L44.3953 20.5384C44.7891 21.0728 45 21.7113 45 22.375ZM36.4163 20.0828C36.3562 18.9342 35.4235 18.4835 34.4531 18.1647C33.43 18.8066 32.1807 19.0591 30.9853 19.0591C29.7141 19.0591 27.3431 18.7553 25.3716 16.7866C24.8738 16.2916 24.5334 15.5153 24.3028 14.6547C23.7047 14.5938 23.104 14.562 22.5028 14.5591C21.9684 14.5591 21.3525 14.59 20.6972 14.6547C20.4666 15.5153 20.1263 16.2916 19.6284 16.7866C17.6597 18.7553 15.2859 19.0591 14.0147 19.0591C12.819 19.0591 11.5665 18.8094 10.5441 18.1647C9.57685 18.4825 8.64807 18.9408 8.58657 20.0828C8.48358 22.2415 8.47463 24.3981 8.46567 26.5558C8.46099 27.6387 8.45672 28.7218 8.44032 29.8056C8.44454 30.4347 8.82385 31.0191 9.39656 31.2794C14.0513 33.4 18.4528 34.4688 22.5028 34.4688C26.5472 34.4688 30.9488 33.4 35.6006 31.2794C36.1734 31.0191 36.5525 30.4347 36.5569 29.8056C36.6127 26.568 36.5678 23.3172 36.4134 20.0828H36.4163ZM9.45 15.5688C10.2094 16.3281 11.6438 16.8344 13.1906 16.8344C14.3719 16.8344 16.6219 16.5813 18.4781 14.6969C19.2938 13.9094 19.8 11.9406 19.7438 9.94375C19.6875 8.34063 19.2375 7.01875 18.5625 6.45625C17.8313 5.80938 16.1719 5.52813 14.3156 5.69688C12.3469 5.89375 10.6875 6.54063 9.84375 7.44063C8.01562 9.4375 8.40938 14.5 9.45 15.5688ZM20.925 10.6469C20.9812 10.9563 21.0094 11.2938 21.0375 11.6594C21.0375 11.9125 21.0375 12.1656 21.0094 12.4469C21.5719 12.3906 22.05 12.3906 22.5 12.3906C22.95 12.3906 23.4281 12.3906 23.9906 12.4469C23.9625 12.1656 23.9625 11.9125 23.9625 11.6594C23.9906 11.2938 24.0188 10.9563 24.075 10.6469C23.4844 10.5906 22.95 10.5625 22.5 10.5625C22.05 10.5625 21.5156 10.5906 20.925 10.6469ZM25.2563 9.94375C25.2 11.9406 25.7063 13.9094 26.5219 14.6969C28.3781 16.5813 30.6281 16.8344 31.8094 16.8344C33.3563 16.8344 34.7906 16.3281 35.55 15.5688C36.5906 14.5 36.9844 9.4375 35.1562 7.44063C34.3125 6.54063 32.6531 5.89375 30.6844 5.69688C28.8281 5.52813 27.1688 5.80938 26.4375 6.45625C25.7625 7.01875 25.3125 8.34063 25.2563 9.94375Z" fill="black"/>
</svg>
