<svg width="15" height="21" viewBox="0 0 15 21" fill="none" xmlns="http://www.w3.org/2000/svg">
<path d="M7.89659 20.6883C8.48357 20.6883 9.07055 20.6985 9.65722 20.6861C10.5709 20.6664 11.2988 19.9367 11.3162 19.0057C11.3346 18.0203 11.3352 17.034 11.3228 16.0486C11.3081 14.8883 11.7118 13.9309 12.5538 13.1443C13.8234 11.9575 14.5691 10.4823 14.7808 8.73578C14.9968 6.95362 14.6168 5.30314 13.6205 3.8292C12.4257 2.06231 10.7673 1.01744 8.67216 0.747078C6.94551 0.524109 5.35789 0.952552 3.93174 1.95671C2.32074 3.09095 1.31262 4.6546 0.995278 6.62569C0.599073 9.08725 1.27833 11.2298 3.019 12.9932C3.4894 13.4697 3.92052 13.9573 4.14964 14.6026C4.29272 15.0053 4.36442 15.4194 4.36442 15.8479C4.36442 16.9131 4.35195 17.9786 4.37252 19.0435C4.39029 19.9536 5.16649 20.7032 6.0574 20.7077C6.67026 20.7109 7.28311 20.7083 7.89596 20.7083C7.89596 20.7017 7.89596 20.695 7.89596 20.6883H7.89659ZM8.54311 13.0657H8.54155C8.54155 12.4776 8.54529 11.8891 8.53999 11.301C8.53718 11.0167 8.40127 10.8039 8.15002 10.6811C7.90438 10.5612 7.66497 10.5892 7.44458 10.753C7.2376 10.9069 7.16871 11.1226 7.16964 11.3771C7.17338 12.5164 7.17151 13.656 7.17245 14.7954C7.17245 14.8876 7.18492 14.9722 7.04339 14.97C6.60199 14.9624 6.16058 14.9646 5.71887 14.9681C5.62722 14.9687 5.59044 14.935 5.5789 14.8434C5.5231 14.4076 5.37005 14.0046 5.18114 13.6128C4.93363 13.0991 4.62564 12.6245 4.20731 12.2457C3.76403 11.844 3.3725 11.4025 3.07044 10.8859C2.20228 9.40119 2.00402 7.82419 2.48782 6.16353C3.21072 3.68193 5.68333 1.8298 8.45364 2.13674C9.61202 2.26524 10.6435 2.70863 11.5179 3.49363C12.9543 4.78278 13.6046 6.41417 13.4671 8.36077C13.3989 9.32994 13.08 10.217 12.5609 11.0335C12.2352 11.5459 11.7982 11.9518 11.3882 12.3866C10.7405 13.074 10.314 13.8886 10.1485 14.8332C10.1273 14.9544 10.078 14.9735 9.97518 14.9725C9.54936 14.9684 9.12323 14.9668 8.69741 14.9738C8.57584 14.9757 8.53781 14.9442 8.53937 14.8151C8.54654 14.2321 8.54248 13.649 8.54248 13.0663L8.54311 13.0657ZM7.84952 16.4175C7.84952 16.4105 7.84952 16.4039 7.84952 16.3969C8.50383 16.3969 9.15783 16.4004 9.81215 16.3937C9.93995 16.3924 9.9546 16.4465 9.95398 16.554C9.95086 17.3275 9.95305 18.1014 9.95242 18.875C9.95242 19.1498 9.8215 19.2783 9.54656 19.2792C8.41966 19.2831 7.29277 19.2866 6.16588 19.2904C5.85571 19.2913 5.74038 19.1755 5.74069 18.8629C5.74069 18.1211 5.741 17.3791 5.74069 16.6373C5.74069 16.4188 5.74006 16.4175 5.94861 16.4175C6.58204 16.4169 7.21578 16.4175 7.8492 16.4175H7.84952Z" fill="#7336B7"/>
<path d="M9.9628 9.86786C10.1604 9.86722 10.3228 9.78548 10.4609 9.64457C10.8534 9.24412 11.2462 8.84398 11.6399 8.4448C11.7172 8.36656 11.7982 8.29213 11.8771 8.21547C12.1492 7.95147 12.1661 7.5154 11.9148 7.24345C11.648 6.954 11.2134 6.93714 10.9388 7.21132C10.4535 7.69606 9.97059 8.18367 9.48804 8.67159C9.27981 8.88247 9.21528 9.18019 9.31753 9.42924C9.42944 9.70151 9.67445 9.86754 9.9628 9.86754V9.86786Z" fill="#7336B7"/>
<path d="M7.17207 7.31582C7.17207 7.64439 7.16989 7.97295 7.17207 8.30184C7.17487 8.69148 7.47133 9.00733 7.82888 9.00637C8.24378 9.0051 8.54055 8.70866 8.54117 8.29166C8.54242 7.63962 8.5421 6.98757 8.54117 6.33584C8.54055 5.93316 8.24285 5.62431 7.85693 5.62208C7.47538 5.61986 7.17986 5.91471 7.17331 6.31421C7.1677 6.64818 7.17207 6.98216 7.17207 7.31614V7.31582Z" fill="#7336B7"/>
<path d="M3.68038 7.8435C3.67602 7.96627 3.7499 8.1269 3.87989 8.2589C4.34686 8.7341 4.81351 9.20962 5.2864 9.67877C5.54669 9.93705 5.95786 9.93101 6.21784 9.67877C6.4934 9.41159 6.52801 9.00414 6.26366 8.72424C5.79171 8.22487 5.30635 7.7379 4.81413 7.2592C4.60247 7.05309 4.33252 7.034 4.0716 7.15519C3.82004 7.27192 3.68631 7.48503 3.6807 7.8435H3.68038Z" fill="#7336B7"/>
</svg>
