<svg width="261" height="160" viewBox="0 0 261 160" fill="none" xmlns="http://www.w3.org/2000/svg">
<g clip-path="url(#clip0_1_15664)">
<path d="M69.1 151.255C66.6707 151.255 65.0448 149.311 65.4688 146.913L80.7478 60.6207L82.0806 53.0965C82.5055 50.6966 84.8201 48.7529 87.2494 48.7529H233.538C235.968 48.7529 237.593 50.6966 237.168 53.0965L235.836 60.6207L220.557 146.913C220.132 149.311 217.818 151.255 215.389 151.255H69.1Z" fill="white"/>
<path d="M216.963 151.435V156.069C216.963 158.109 215.31 159.763 213.27 159.763H4.17753C2.00147 159.763 0.238037 158 0.238037 155.823V151.435H216.963Z" fill="white"/>
<path d="M89.6143 51.0542H230.401C232.74 51.0542 234.307 52.9106 233.901 55.2024L232.629 62.3889L218.035 144.807C217.63 147.097 215.406 148.953 213.067 148.953H72.2798C69.9415 148.953 68.3744 147.097 68.7795 144.807L83.3726 62.3889L84.6446 55.2024C85.0506 52.9106 87.2751 51.0542 89.6134 51.0542H89.6143Z" fill="#D1FADF"/>
<path d="M89.6143 51.0542H230.401C232.74 51.0542 234.307 52.9106 233.901 55.2024L232.629 62.3889L218.035 144.807C217.63 147.097 215.406 148.953 213.067 148.953H72.2798C69.9415 148.953 68.3744 147.097 68.7795 144.807L83.3726 62.3889L84.6446 55.2024C85.0506 52.9106 87.2751 51.0542 89.6134 51.0542H89.6143Z" stroke="#039855" stroke-linecap="round" stroke-linejoin="round"/>
<path d="M212.784 159.762L4.69452 159.762C2.23482 159.762 0.237094 157.765 0.237094 155.304V151.434L216.963 151.434V155.582C216.963 157.888 215.09 159.761 212.784 159.761V159.762Z" stroke="#039855" stroke-width="0.475244" stroke-linecap="round" stroke-linejoin="round"/>
<path d="M120.333 149.016H195.411" stroke="#039855" stroke-width="0.475244" stroke-linecap="round" stroke-linejoin="round"/>
<path d="M244.734 64.2794H260.068L248.495 55.6008L258.042 38.5318L238.688 41.1357L234.03 31.2988L227.376 40.5571" stroke="#32D583" stroke-width="0.377539" stroke-linecap="round" stroke-linejoin="round"/>
<path d="M77.2052 99.473L77.2055 99.4736C78.2824 101.467 79.8622 103.168 81.7725 104.435L81.7726 104.435L96.5965 114.268C99.7467 115.756 102.418 116.594 104.631 116.824C106.846 117.054 108.57 116.672 109.868 115.758L110.131 115.573L110.408 115.735C110.818 115.974 111.228 116.214 111.637 116.453C117.424 119.837 123.178 123.201 128.723 125.59C134.664 128.149 140.294 129.556 145.402 128.705L145.575 128.676L145.727 128.761L181.151 148.454H213.068C215.166 148.454 217.181 146.769 217.543 144.719L217.543 144.719L222.724 115.462L166.927 84.4034L166.744 84.3015L166.688 84.0996C163.644 73.0792 159.317 62.414 153.828 52.3842C153.629 52.0206 153.429 51.6603 153.225 51.3003L153.225 51.3001C151.434 48.1296 149.474 45.0731 147.506 42.0053C146.6 40.5932 145.693 39.1788 144.8 37.7497C141.976 33.2293 139.311 28.588 137.374 23.5137L137.842 23.3354L137.374 23.5137C136.328 20.7716 135.436 17.9354 134.553 15.1285C134.019 13.4297 133.488 11.7416 132.928 10.0915L132.928 10.0915C132.259 8.11869 130.954 7.19498 129.568 7.08386C128.154 6.97051 126.529 7.69263 125.247 9.28373L125.247 9.2838C124.16 10.632 123.599 12.3532 123.162 14.1356C121.29 21.7705 121.591 29.9266 124.02 37.4041C124.277 38.1964 124.559 38.9862 124.844 39.7844L124.892 39.919C125.192 40.7605 125.494 41.6112 125.767 42.4691C126.311 44.1846 126.745 45.9509 126.821 47.7905C126.867 48.9152 126.775 50.0279 126.628 51.1215C126.628 51.1217 126.628 51.1218 126.628 51.1219L126.132 51.0552C126.031 51.8126 125.9 52.5677 125.767 53.3207L77.2052 99.473ZM77.2052 99.473C76.9422 98.9877 76.7101 98.4849 76.5094 97.9658L77.2052 99.473Z" fill="white" stroke="#039855"/>
<path d="M110.155 116.167C111.32 114.306 111.473 111.635 109.952 107.624C117.984 109.216 119.354 98.2609 109.282 92.0847C120.478 96.7015 124.22 87.8293 117.242 79.8052C123.716 82.5248 127.147 78.9751 127.908 74.3982C128.451 71.1265 127.468 67.7846 125.348 65.2329L112.15 49.345" stroke="#039855" stroke-width="0.475244" stroke-linecap="round" stroke-linejoin="round"/>
<path d="M109.952 107.624C99.36 103.247 89.6683 96.8447 81.499 87.0173" stroke="#039855" stroke-width="0.475244" stroke-linecap="round" stroke-linejoin="round"/>
<path d="M84.4767 68.0037C90.7687 76.3864 99.1988 84.3849 109.283 92.0846" stroke="#039855" stroke-width="0.475244" stroke-linecap="round" stroke-linejoin="round"/>
<path d="M117.243 79.8052C106.662 71.5582 98.1829 61.7365 91.8055 50.3411" stroke="#039855" stroke-width="0.475244" stroke-linecap="round" stroke-linejoin="round"/>
<path d="M125.67 53.8699L124.298 63.9676" stroke="#039855" stroke-width="0.475244" stroke-linecap="round" stroke-linejoin="round"/>
<path d="M122.906 80.7766C124.039 91.0736 130.285 102.017 140.279 107.76" stroke="#039855" stroke-width="0.475244" stroke-linecap="round" stroke-linejoin="round"/>
<path d="M56.3368 45.23L72.2295 52.0409" stroke="#32D583" stroke-width="0.475244" stroke-linecap="round" stroke-linejoin="round"/>
<path d="M68.2559 25.9326L79.0404 40.1216" stroke="#32D583" stroke-width="0.475244" stroke-linecap="round" stroke-linejoin="round"/>
<path d="M51.7627 68.5L68.2558 71.5744" stroke="#32D583" stroke-width="0.475244" stroke-linecap="round" stroke-linejoin="round"/>
<path d="M223.32 114.965L218.036 144.806C217.631 147.096 215.407 148.953 213.068 148.953H178.247" stroke="#039855" stroke-width="0.475244" stroke-linecap="round" stroke-linejoin="round"/>
<path d="M21.0037 151.516V149.549C21.0037 148.498 22.5347 147.646 24.4224 147.646H30.7722C32.6609 147.646 34.191 148.498 34.191 149.549V151.39L21.0037 151.516Z" fill="white"/>
<path d="M37.8658 151.516V149.549C37.8658 148.498 39.3969 147.646 41.2846 147.646H47.6344C49.5231 147.646 51.0532 148.498 51.0532 149.549V151.39L37.8658 151.516Z" fill="white"/>
<path d="M54.6738 151.516V149.549C54.6738 148.498 56.2049 147.646 58.0925 147.646H64.4424C66.3311 147.646 67.8611 148.498 67.8611 149.549V151.39L54.6738 151.516Z" fill="white"/>
<path d="M21.0037 151.516V149.549C21.0037 148.498 22.5347 147.646 24.4224 147.646H30.7722C32.6609 147.646 34.191 148.498 34.191 149.549V151.39L21.0037 151.516Z" stroke="#039855" stroke-width="0.475244" stroke-linecap="round" stroke-linejoin="round"/>
<path d="M37.8658 151.516V149.549C37.8658 148.498 39.3969 147.646 41.2846 147.646H47.6344C49.5231 147.646 51.0532 148.498 51.0532 149.549V151.39L37.8658 151.516Z" stroke="#039855" stroke-width="0.475244" stroke-linecap="round" stroke-linejoin="round"/>
<path d="M54.6738 151.516V149.549C54.6738 148.498 56.2049 147.646 58.0925 147.646H64.4424C66.3311 147.646 67.8611 148.498 67.8611 149.549V151.39L54.6738 151.516Z" stroke="#039855" stroke-width="0.475244" stroke-linecap="round" stroke-linejoin="round"/>
<path d="M71.4819 151.516V149.549C71.4819 148.498 73.013 147.646 74.9007 147.646H81.2505C83.1392 147.646 84.6692 148.498 84.6692 149.549V151.39L71.4819 151.516Z" fill="white"/>
<path d="M71.4819 151.516V149.549C71.4819 148.498 73.013 147.646 74.9007 147.646H81.2505C83.1392 147.646 84.6692 148.498 84.6692 149.549V151.39L71.4819 151.516Z" stroke="#039855" stroke-width="0.475244" stroke-linecap="round" stroke-linejoin="round"/>
<path d="M89.3857 151.516V149.549C89.3857 148.498 90.9168 147.646 92.8045 147.646H99.1543C101.043 147.646 102.573 148.498 102.573 149.549V151.39L89.3857 151.516Z" fill="white"/>
<path d="M89.3857 151.516V149.549C89.3857 148.498 90.9168 147.646 92.8045 147.646H99.1543C101.043 147.646 102.573 148.498 102.573 149.549V151.39L89.3857 151.516Z" stroke="#039855" stroke-width="0.475244" stroke-linecap="round" stroke-linejoin="round"/>
<path d="M106.559 151.516V149.549C106.559 148.498 108.09 147.646 109.978 147.646H116.328C118.216 147.646 119.746 148.498 119.746 149.549V151.39L106.559 151.516Z" fill="white"/>
<path d="M106.559 151.516V149.549C106.559 148.498 108.09 147.646 109.978 147.646H116.328C118.216 147.646 119.746 148.498 119.746 149.549V151.39L106.559 151.516Z" stroke="#039855" stroke-width="0.475244" stroke-linecap="round" stroke-linejoin="round"/>
<path d="M125.655 151.516V149.549C125.655 148.498 127.186 147.646 129.074 147.646H135.424C137.312 147.646 138.842 148.498 138.842 149.549V151.39L125.655 151.516Z" fill="white"/>
<path d="M125.655 151.516V149.549C125.655 148.498 127.186 147.646 129.074 147.646H135.424C137.312 147.646 138.842 148.498 138.842 149.549V151.39L125.655 151.516Z" stroke="#039855" stroke-width="0.475244" stroke-linecap="round" stroke-linejoin="round"/>
<path d="M144.301 151.516V149.549C144.301 148.498 145.832 147.646 147.72 147.646H154.07C155.959 147.646 157.489 148.498 157.489 149.549V151.39L144.301 151.516Z" fill="white"/>
<path d="M144.301 151.516V149.549C144.301 148.498 145.832 147.646 147.72 147.646H154.07C155.959 147.646 157.489 148.498 157.489 149.549V151.39L144.301 151.516Z" stroke="#039855" stroke-width="0.475244" stroke-linecap="round" stroke-linejoin="round"/>
<path d="M164.065 151.516V149.549C164.065 148.498 165.596 147.646 167.484 147.646H173.834C175.723 147.646 177.253 148.498 177.253 149.549V151.39L164.065 151.516Z" fill="white"/>
<path d="M164.065 151.516V149.549C164.065 148.498 165.596 147.646 167.484 147.646H173.834C175.723 147.646 177.253 148.498 177.253 149.549V151.39L164.065 151.516Z" stroke="#039855" stroke-width="0.475244" stroke-linecap="round" stroke-linejoin="round"/>
<path d="M183.01 151.516V149.549C183.01 148.498 184.541 147.646 186.428 147.646H192.778C194.667 147.646 196.197 148.498 196.197 149.549V151.39L183.01 151.516Z" fill="white"/>
<path d="M183.01 151.516V149.549C183.01 148.498 184.541 147.646 186.428 147.646H192.778C194.667 147.646 196.197 148.498 196.197 149.549V151.39L183.01 151.516Z" stroke="#039855" stroke-width="0.475244" stroke-linecap="round" stroke-linejoin="round"/>
<path d="M56.6686 85.7509L57.4618 77.6832L58.2551 85.7509C58.5134 88.3777 60.5907 90.4565 63.2174 90.7146L67.9679 91.508L63.2174 92.3014C60.5908 92.5604 58.5124 94.6382 58.2551 97.2651L57.4618 105.333L56.6686 97.2651C56.4103 94.6382 54.3328 92.5593 51.7061 92.3014L46.67 91.508L51.7061 90.7146C54.3328 90.4557 56.4113 88.3778 56.6686 85.7509Z" fill="#32D583" stroke="#32D583" stroke-width="0.0948591"/>
<path d="M168.075 26.2439L168.766 19.2161L169.456 26.2439C169.683 28.5539 171.51 30.3814 173.82 30.6091L177.958 31.3L173.82 31.991C171.51 32.2187 169.683 34.0461 169.456 36.3561L168.766 43.384L168.075 36.3561C167.848 34.0461 166.021 32.2186 163.711 31.991L159.325 31.3L163.711 30.6091C166.021 30.3815 167.848 28.554 168.075 26.2439Z" fill="#32D583" stroke="#32D583" stroke-width="0.0948591"/>
<path d="M105.251 7.76635L105.251 7.76636C105.453 9.82212 107.079 11.4484 109.135 11.6515L112.782 12.2599L109.135 12.8684C107.079 13.0714 105.453 14.6977 105.251 16.7535L105.251 16.7535L104.643 22.9463L104.034 16.7535L104.034 16.7535C103.832 14.6977 102.206 13.0713 100.151 12.8683L96.2853 12.2599L100.151 11.6515C102.206 11.4486 103.832 9.8222 104.034 7.76636L104.034 7.76635L104.643 1.57357L105.251 7.76635Z" fill="#32D583" stroke="#32D583" stroke-width="0.0948591"/>
</g>
<defs>
<clipPath id="clip0_1_15664">
<rect width="260.256" height="159.15" fill="white" transform="translate(0 0.850098)"/>
</clipPath>
</defs>
</svg>
