<svg width="12" height="14" viewBox="0 0 12 14" fill="none" xmlns="http://www.w3.org/2000/svg">
<path d="M6.28767 9.48698C6.46282 9.48698 6.61085 9.42774 6.73176 9.30926C6.85266 9.19078 6.91312 9.04396 6.91312 8.86882C6.91312 8.69367 6.85388 8.54564 6.7354 8.42473C6.61691 8.30382 6.4701 8.24337 6.29496 8.24337C6.1198 8.24337 5.97177 8.30261 5.85087 8.42109C5.72996 8.53957 5.66951 8.68639 5.66951 8.86153C5.66951 9.03668 5.72875 9.18471 5.84722 9.30562C5.96571 9.42653 6.11253 9.48698 6.28767 9.48698ZM5.66951 6.99976H6.91312V3.68348H5.66951V6.99976ZM6.29131 13.6323C4.7368 13.2523 3.45001 12.3724 2.43095 10.9924C1.41188 9.6124 0.902344 8.08002 0.902344 6.39523V2.43987L6.29131 0.367188L11.6803 2.43987V6.39523C11.6803 8.08002 11.1707 9.6124 10.1517 10.9924C9.13261 12.3724 7.84582 13.2523 6.29131 13.6323Z" fill="#F04438"/>
</svg>
