<svg width="29" height="30" viewBox="0 0 29 30" fill="none" xmlns="http://www.w3.org/2000/svg">
<g clip-path="url(#clip0_924_5009)">
<path d="M5.4501 13.3426C5.53687 13.3329 5.47175 13.7065 5.47991 13.9204C5.57701 14.0266 5.54088 13.6446 5.58662 13.4555C5.64628 13.5552 5.67783 13.8963 5.72716 13.8801C5.7322 13.8196 5.74408 13.7969 5.73663 13.7184C5.78997 14.0139 5.93742 13.7318 5.99849 14.1024C6.00526 14.0691 6.00977 14.039 6.01428 14.0089C5.99264 14.1966 5.98092 14.3852 5.97568 14.5201C6.0134 14.5233 6.03604 14.7553 6.06244 14.5104C6.03778 14.5185 6.04193 14.4207 6.03448 14.3423L6.06975 14.4467C6.12496 14.096 6.01971 14.3275 6.03334 14.068C6.10577 14.1824 6.18377 14.4698 6.25003 14.3704C6.27859 14.0276 6.11351 14.2575 6.21102 13.9509L6.1102 14.0812C6.20917 13.5412 6.05097 14.1203 6.14735 13.5394C6.27571 13.4384 6.27685 13.7127 6.4052 13.6117C6.42327 13.8027 6.38168 13.894 6.39974 14.085C6.5572 14.4264 6.58175 13.2203 6.68744 13.6792C6.70838 13.9077 6.70032 14.3402 6.80331 14.1119L6.79156 13.7251C6.91289 13.6844 6.831 14.2834 6.96882 14.0208C6.95363 13.8672 6.88163 13.8917 6.90143 13.8459C6.99895 13.5393 6.94704 14.0663 7.00914 14.0647L7.03771 13.7219C7.16311 13.7764 7.29069 14.0205 7.42943 14.0828C7.42592 13.981 7.40879 13.8747 7.44753 13.7696C7.61729 13.9394 7.82918 13.7236 8.01216 13.5188L8.06153 13.814C8.07769 13.812 8.09656 13.6815 8.08345 13.6229C8.15678 13.5106 8.07769 13.812 8.10419 13.9258C8.14051 13.9458 8.16243 13.7547 8.1439 13.6652C8.24909 13.9142 8.45272 14.2053 8.59332 13.8854L8.57253 13.799C8.6745 13.6789 8.65002 14.4045 8.75494 14.129L8.74127 14.0771C8.95807 13.9462 9.1753 14.2182 9.35859 13.7698C9.36698 14.1969 9.57646 13.5781 9.55894 14.1723C9.69361 13.8755 9.66429 13.7716 9.84501 13.57C9.8912 13.5434 9.89417 13.9396 9.945 14.0014L9.96282 13.6915L10.0216 14.0179L10.0805 13.6472L10.1279 13.7256C10.1064 13.7441 10.0762 13.8668 10.0748 13.9547C10.149 14.0962 10.285 13.7353 10.2962 13.5772L10.4763 13.8392C10.4787 13.7142 10.4483 13.6711 10.4269 13.5914C10.5143 13.9101 10.4623 13.2627 10.542 13.5536C10.5262 13.6234 10.5385 13.7395 10.5375 13.8003C10.5951 13.6122 10.7012 13.6109 10.7767 13.6883L10.7725 13.4747C10.9191 13.4192 11.0701 13.574 11.2303 13.5704C11.168 13.6701 11.161 14.0418 11.2059 14.0794L11.2413 13.7507C11.2602 13.9553 11.185 13.8746 11.2363 14.1225C11.2975 14.0836 11.2954 13.7484 11.2664 13.6411L11.3329 13.7549C11.341 13.6574 11.3273 13.6055 11.3297 13.4805C11.3487 13.6852 11.4732 13.1507 11.4977 13.5047L11.5058 13.4072C11.668 13.4038 11.7345 13.5176 11.8652 13.5319C11.8536 13.8152 11.9068 13.752 11.9357 13.9811C12.0374 13.8881 12.156 13.6644 12.27 13.6875C12.3442 13.829 12.2819 13.9288 12.3099 14.0969C12.3295 13.838 12.4435 13.861 12.3928 13.6774C12.5293 13.7192 12.5684 13.7293 12.7331 13.9359C12.7083 14.0421 12.6845 14.0875 12.6911 14.1761C12.7215 14.2192 12.7701 14.0676 12.7705 13.9424L12.7629 13.9147C12.9405 14.3018 13.2578 13.1572 13.3868 13.6959L13.3791 13.6682L13.5277 13.948C13.6054 13.9037 13.4918 13.7554 13.5571 13.595C13.7113 14.0242 13.8384 13.5305 13.9685 13.8155C14.12 13.0531 14.3642 13.8654 14.5406 13.3792L14.5215 13.5603C14.5509 13.7354 14.5742 13.4564 14.6056 13.4151C14.5939 13.5562 14.5542 13.5766 14.5741 13.673C14.8942 13.8858 15.272 13.4063 15.6195 13.2423C15.7457 13.1919 15.6421 14.1715 15.822 13.7398L15.7938 13.4058C16.0245 13.804 16.3071 13.3876 16.5368 13.7249C16.5251 13.6495 16.5316 13.5485 16.5075 13.5498C16.5716 13.3081 16.7006 13.5355 16.69 13.7343C16.73 13.7105 16.7088 13.5565 16.7373 13.4539C16.7973 13.31 16.8517 13.7613 16.8917 13.5209C16.899 13.4809 16.8803 13.4421 16.8717 13.4245C16.8999 13.5419 17.0322 13.3939 16.9849 13.6742C17.084 13.5403 17.1546 13.7967 17.2363 13.6309C17.2684 13.9415 17.4029 13.4789 17.394 13.9215C17.41 13.466 17.5749 13.5508 17.6227 13.768C17.6101 13.6316 17.6807 13.6239 17.6686 13.4334C17.7341 13.4388 17.7909 13.5248 17.7673 13.7597C17.9188 13.2139 17.9907 14.198 18.0972 13.4962C18.2826 13.7418 18.4569 13.9052 18.628 14.0108C18.646 13.5554 18.4337 13.9676 18.4655 13.4896C18.624 13.6754 18.7012 14.0677 18.8747 13.9535C18.9219 13.8898 18.8611 13.7561 18.8497 13.6773C19.0081 13.8631 19.1772 13.6335 19.3144 13.8819C19.3181 13.8382 19.3018 13.7928 19.2888 13.7579C19.3174 13.7738 19.3604 13.6894 19.347 13.8981L19.3217 13.8419C19.2588 14.1412 19.4075 14.4684 19.4042 14.6272C19.3838 14.0332 19.5606 14.4777 19.5193 13.7263C19.5361 13.765 19.5557 13.8648 19.5442 14.0026C19.5757 13.9612 19.5884 13.881 19.5675 13.7236C19.668 13.8369 19.6177 14.0561 19.7142 14.0506C19.7186 13.9494 19.7018 13.9108 19.6974 13.7953C19.7351 13.9914 19.775 14.1842 19.86 14.0999C19.8591 14.0389 19.8715 13.9621 19.8474 13.9635C19.9849 13.9919 20.058 14.482 20.2198 14.2924C20.198 13.8574 20.2797 14.1485 20.3071 13.7717L20.3838 13.883L20.3406 14.0655C20.4132 14.058 20.4623 14.3329 20.5305 14.21L20.4855 14.0539L20.6174 14.1258L20.5337 14.2678C20.5954 14.4624 20.5018 14.7457 20.6027 14.639C20.5859 14.6004 20.675 14.6349 20.7235 14.4122C20.7534 14.5331 20.783 14.6574 20.8408 14.5641C20.8608 14.4439 20.8514 14.1487 20.8641 14.0685C20.8837 14.3849 21.029 14.1534 21.0548 14.4906C21.0434 14.4118 21.054 14.213 21.0613 14.173L21.078 14.4282C21.1148 14.3466 21.1221 14.3066 21.1254 14.1478C21.2274 14.0988 21.0694 14.6272 21.1988 14.4179C21.1906 14.397 21.1976 14.3603 21.1789 14.3215C21.3038 14.2135 21.4014 14.4822 21.5178 14.3565C21.5693 13.9784 21.4275 14.2644 21.4802 13.9439C21.6345 14.0109 21.7844 14.3957 21.9417 14.3072L21.9102 14.3486C21.9037 14.8828 22.0384 14.0818 22.1033 14.3343C22.0866 14.2956 22.094 14.039 22.0952 14.0967C22.2042 14.011 22.3023 14.2256 22.4522 14.3938L22.4396 14.2574C22.5078 14.1344 22.6054 14.1866 22.6768 14.1214C22.6894 14.2579 22.7291 14.2375 22.6944 14.4377C22.9398 13.6526 23.0655 14.8544 23.2818 14.2023C23.2599 14.2005 23.2357 14.0834 23.2539 14.0815L23.4034 14.2057C23.3799 14.4406 23.3758 14.3455 23.3346 14.5282C23.3469 14.668 23.3862 14.7728 23.4242 14.7726C23.363 14.6186 23.4433 14.3985 23.4804 14.2662C23.4725 14.3367 23.478 14.415 23.4718 14.4889C23.5743 14.0744 23.4607 14.9584 23.586 14.6778L23.5861 14.556C23.6251 14.6167 23.6536 14.7782 23.7003 14.7448C23.733 14.4734 23.6628 14.6199 23.6713 14.3972C23.734 14.4126 23.7689 14.9062 23.8392 14.638C23.8156 14.5615 23.7776 14.5618 23.7557 14.4889C23.8342 14.1705 23.8374 14.252 23.8855 14.2019L23.881 14.2082L23.9948 14.0654L23.9637 14.1508C24.007 14.855 24.117 14.2787 24.1986 14.739C24.119 14.3025 24.1935 14.4881 24.2031 14.1809C24.2342 14.0955 24.2801 14.0012 24.2732 13.916C24.3106 14.1628 24.3674 13.7208 24.4194 14.0805C24.4275 13.983 24.4741 14.0715 24.4747 13.8245C24.5363 13.9007 24.4505 13.9951 24.45 14.1203C24.5341 14.4556 24.708 13.712 24.8275 14.1721C24.9417 14.3609 24.9481 14.6931 25.0563 14.8578C25.1035 14.6993 25.0423 14.4979 25.0423 14.4979C25.1125 14.3515 25.1581 14.379 25.2127 14.4918C25.2058 14.4066 25.2219 14.3335 25.245 14.2238C25.291 14.2479 25.2593 14.5803 25.3292 14.4372C25.3243 14.3285 25.319 14.1521 25.3021 14.0424C25.3527 14.1312 25.3994 14.3145 25.4539 14.4036C25.4782 14.233 25.4316 14.1445 25.417 14.0316C25.4786 14.1078 25.5779 14.1872 25.5833 14.4584L25.5372 14.5561C25.5602 14.5682 25.5608 14.3211 25.5468 14.2726C25.5026 14.0591 25.461 14.367 25.4526 14.4678L25.4912 14.5319C25.4192 15.1081 25.3289 14.4406 25.2442 14.4741L25.2571 14.8949L25.1901 14.5475C25.1669 14.6572 25.1414 14.892 25.1803 14.9528C25.109 15.1601 25.1348 14.8035 25.0715 15.0351C25.0644 15.0717 25.0667 15.0922 25.0693 15.1094L25.0178 14.9832C25.0244 15.0718 24.9932 15.279 25.0323 15.218C24.916 15.4621 24.8805 14.9041 24.8238 15.2243L24.8318 15.2486C24.6935 15.1085 24.8335 14.9408 24.7438 14.578L24.6303 15.3401L24.6319 15.0323C24.6169 15.0446 24.5852 15.0656 24.5847 15.1908C24.5403 14.9807 24.6019 15.0569 24.5784 14.8586C24.4911 15.139 24.3874 14.7276 24.3446 15.2182C24.3301 14.9835 24.4235 15.0386 24.3553 14.8739C24.3053 15.4011 24.2707 14.7856 24.1927 15.0262C24.198 15.2974 24.2679 15.1543 24.1896 15.3982C24.1741 14.9366 24.0553 15.4987 24.0045 15.4132C24.0211 15.0457 23.8912 15.2616 23.8054 15.1394C23.8052 15.2612 23.6184 15.3438 23.5256 15.4748L23.5245 15.5357C23.5275 15.1636 23.4334 15.237 23.3718 15.1608C23.3633 15.3835 23.3702 15.4687 23.3998 15.5693L23.3382 15.5641C23.3299 15.4484 23.3131 15.3861 23.2765 15.3458L23.2773 15.6234C23.1965 15.6099 23.1304 15.2998 23.0151 15.4831C23.0228 15.2231 23.1352 14.7621 23.0335 14.5911C23.0217 14.7323 23.0058 14.9713 23.0311 15.0275C23.0226 15.0099 23.0029 14.9101 22.9817 14.9726L23.014 15.2088C22.9614 15.3128 22.9985 15.0113 22.9605 15.0352C22.9519 15.2341 22.9246 15.1777 22.9214 15.3365C22.9299 15.3541 22.9582 15.255 22.9699 15.3304C22.9248 15.3673 22.8671 15.4843 22.8426 15.6345C22.8521 15.5203 22.8571 15.365 22.827 15.3422C22.7461 15.3287 22.787 15.5825 22.7343 15.6864C22.722 15.5466 22.662 15.6906 22.6767 15.394C22.6526 15.3953 22.6411 15.5331 22.6282 15.6167C22.5932 15.4851 22.4333 15.5801 22.4976 15.264L22.5093 15.2446C22.5093 15.2446 22.5058 15.2376 22.5024 15.2305C22.3791 14.936 22.2063 15.4021 22.0748 15.2761L22.0704 15.3773C21.994 15.2626 21.892 15.3116 21.8438 15.0978C21.82 15.0958 21.7765 15.2817 21.7806 15.4005C21.723 15.3246 21.7203 15.2127 21.6224 15.3806C21.6759 15.5542 21.5936 15.5338 21.6798 15.5072C21.5945 15.5948 21.5672 15.755 21.494 15.4815C21.5107 15.7368 21.4152 15.8033 21.3817 15.726L21.449 15.5421C21.4081 15.5048 21.3681 15.5286 21.3285 15.549L21.3325 15.8844C21.1443 16.2951 21.0683 15.1922 20.9054 15.8759C20.8731 15.6396 21.0051 15.7116 20.9801 15.4353C20.9002 15.4828 20.796 15.9649 20.7719 15.9663C20.6584 16.1531 20.6988 15.4762 20.5821 15.6052C20.6021 15.4851 20.6327 15.1661 20.556 15.0548C20.4764 15.0989 20.436 15.5592 20.4801 15.6543C20.4974 15.6625 20.5084 15.6262 20.5098 15.5857C20.5322 15.6282 20.5618 15.6814 20.5251 15.8103L20.521 15.6915C20.4769 15.8131 20.3719 15.8009 20.3874 15.9985C20.3349 15.8858 20.3719 15.8009 20.4189 15.7406C20.3125 15.9144 20.2644 15.748 20.1587 15.8644C20.1782 15.7983 20.1999 15.658 20.1838 15.66C20.0274 15.8095 20.1308 15.4323 20.0332 15.3801C19.9659 15.564 20.0308 15.8165 19.9376 15.6632C19.8694 15.7861 19.909 15.9824 19.927 16.0786C19.8462 15.8485 19.7462 16.2328 19.6927 16.2757L19.7367 16.3707C19.7114 16.3145 19.6873 16.3159 19.6632 16.3172L19.7032 16.0769C19.6718 16.1183 19.6477 16.1196 19.6433 16.2208C19.6224 16.0634 19.6865 15.8217 19.6384 15.6078C19.5943 15.7294 19.5293 15.4769 19.5007 15.796C19.6257 15.688 19.4702 16.115 19.5698 16.1673C19.553 16.1287 19.5289 16.13 19.4972 16.1748C19.4901 16.2114 19.4978 16.2391 19.5041 16.26C19.3745 16.5436 19.4699 15.9018 19.3514 15.9088C19.3564 16.0886 19.307 16.2503 19.2882 16.2115C19.3364 16.2088 19.327 15.9136 19.2906 15.7751C19.2071 15.9137 19.2133 15.6706 19.172 15.6874L19.2215 15.6205C19.2145 15.4405 19.1765 15.4644 19.1252 15.4094C19.1134 15.5505 19.1692 15.5044 19.146 15.5668C19.1043 15.252 18.9969 15.8928 18.9244 15.6837C18.8803 15.8053 18.9043 16.0205 18.8656 16.1019C18.7851 15.8684 18.753 16.3497 18.6671 16.1564C18.7071 15.916 18.7083 15.9737 18.6539 15.739L18.8038 15.9072L18.7189 15.5583C18.7672 15.5555 18.8124 15.7082 18.8438 15.6668C18.8062 15.4708 18.8071 15.5318 18.8398 15.3315C18.7557 15.6933 18.7213 15.1219 18.6331 15.365L18.6054 15.9617C18.4772 16.2286 18.4187 15.6585 18.2624 15.8079L18.315 15.704C18.3068 15.4664 18.2256 15.6729 18.1819 15.5745C18.1753 15.7736 18.1433 15.8454 18.1148 15.9716C18.1251 15.8236 18.0056 15.9862 18.0129 15.5874L17.9329 15.8515C17.8079 15.9596 17.8262 15.2842 17.7066 15.3521C17.7307 15.5673 17.6707 15.7112 17.7398 15.8659C17.7015 15.8695 17.6647 15.9036 17.6722 15.7655C17.6437 15.8917 17.5806 15.4973 17.5348 15.6864C17.5243 15.5975 17.5294 15.3915 17.4841 15.408C17.4767 15.448 17.4799 15.5058 17.4799 15.5058C17.4841 15.408 17.4191 15.3721 17.4674 15.1528C17.3174 15.7766 17.1392 15.1085 17.0085 15.6459C16.9281 15.5783 16.8314 15.5161 16.7545 15.5029C16.7554 15.5639 16.7504 15.6007 16.7659 15.5817C16.6524 15.7685 16.7316 15.0103 16.6002 15.2193C16.5234 15.5412 16.6537 15.393 16.6096 15.5145C16.559 16.1702 16.4711 15.4251 16.3712 15.8094L16.3879 15.848C16.3153 16.0721 16.2507 15.5997 16.1487 15.6487C16.1487 15.6487 16.1499 15.7063 16.1445 15.7465C16.0923 15.4139 15.9696 15.3021 15.8774 15.2098C15.8941 15.465 15.9141 15.3449 15.8823 15.6062C15.8415 15.569 15.9173 15.1861 15.8333 15.1148C15.7977 15.254 15.7292 15.3802 15.7063 15.6558L15.7871 15.6693C15.7271 16.0299 15.6819 15.6606 15.6369 15.7211L15.6336 15.8799C15.5119 15.8292 15.5308 15.4348 15.3944 15.464L15.4144 15.3439C15.3613 14.9502 15.3421 15.5646 15.2842 15.2755L15.2409 15.6746C15.1969 15.5796 15.0911 15.2898 15.0093 15.2153C15.0428 15.5092 15.136 15.6625 15.1915 15.8363C15.1433 15.8391 15.0298 15.8093 15.0143 15.6117C15.0311 15.6503 15.051 15.7468 15.0742 15.6844C15.0322 15.3729 14.9611 15.2181 14.8664 15.2271C14.844 16.0003 14.6083 15.4222 14.5063 16.0229C14.352 15.7393 14.1641 16.1467 13.9698 16.1034C14.0698 15.5026 13.9134 16.0852 13.9567 15.4694C13.9118 15.4319 13.8951 15.4406 13.8878 15.4806L13.7291 15.8498C13.6861 16.029 13.7658 15.9849 13.7543 16.1227C13.6523 16.1717 13.6984 16.3854 13.6229 16.5483C13.6473 16.327 13.6053 16.2321 13.5421 16.3182L13.6379 16.0318C13.5154 15.7034 13.4907 16.5508 13.3659 16.2257L13.3999 16.418C13.3334 16.3042 13.1316 16.4228 13.0868 15.9283C13.071 15.9981 13.0448 16.1685 13.0752 16.2116C12.8969 16.2881 12.7171 15.6877 12.5657 15.9932L12.5712 16.1426C12.5408 16.0994 12.529 15.8581 12.4801 16.0131C12.479 16.0739 12.4856 16.1625 12.4709 16.1714C12.4572 16.1195 12.3988 15.9082 12.3516 15.9956L12.3795 16.1638C12.2011 16.3622 12.142 15.7514 12.0047 15.6486C11.9816 16.0934 11.8417 16.2374 11.7717 16.3095L11.7703 16.3736C11.5696 16.4314 11.4549 16.0089 11.2815 15.8354C11.1433 16.318 10.8866 16.0394 10.6921 16.3109C10.7249 16.229 10.7051 15.9634 10.6747 15.9202C10.6271 16.011 10.5723 15.6139 10.5585 16.0188L10.5732 16.0099C10.5201 16.4082 10.4389 16.3033 10.37 16.3145L10.3864 15.7811C10.1677 16.5582 9.9321 15.4996 9.79813 16.1958C9.76113 16.0641 9.70724 16.063 9.67223 15.9314L9.66033 16.2181C9.5362 16.2924 9.47527 16.3279 9.33085 16.2617L9.34979 16.4664C9.26615 16.4865 9.28653 15.6421 9.20995 15.6256L9.16446 16.0516C9.01897 16.0462 8.85177 16.4215 8.72801 16.0355C8.72666 16.0997 8.72451 16.2214 8.74722 16.2368C8.67832 16.248 8.46706 16.5282 8.52203 15.9405C8.50031 16.3211 8.36893 15.9785 8.299 15.8103L8.29759 16.091C8.24957 15.7317 8.25174 15.6337 8.16401 15.535C8.14107 15.5703 8.13333 15.7592 8.1653 15.6874C8.08492 15.8364 8.12163 15.4198 8.02509 15.5708L8.04824 15.7487C7.97255 15.7695 7.98238 15.6756 7.95181 15.4666C7.90916 15.3547 7.80585 15.539 7.78059 15.7941C7.77759 15.6382 7.74873 15.4327 7.69862 15.5064C7.68851 15.6037 7.70162 15.6623 7.70732 15.6899C7.5714 15.8816 7.53654 15.3643 7.43559 15.6402C7.42775 15.7343 7.41986 15.781 7.41166 15.8074C7.51233 15.7989 7.59342 15.7853 7.58716 15.7645C7.57353 16.0239 7.48964 16.0711 7.53595 16.4269C7.48017 16.2328 7.39153 15.8091 7.30744 15.9307C7.30122 15.9572 7.29728 15.9806 7.29193 16.0208L7.29962 16.0485C7.27951 16.0739 7.26559 16.049 7.25108 16.0072C7.22362 16.0489 7.20692 16.0814 7.18254 16.0861C7.16263 16.3011 7.08284 16.203 7.04201 16.2132C7.05958 15.9303 7.00377 15.9765 7.06534 15.7413C7.05771 15.761 7.07048 15.7756 7.09744 15.788C7.10283 15.7952 7.11049 15.7992 7.11306 15.8163C7.11362 15.8096 7.11248 15.7994 7.11105 15.7925C7.1363 15.8014 7.17175 15.8077 7.20947 15.8108C7.1855 15.6667 7.15758 15.5459 7.10444 15.7039C7.09375 15.5203 7.07938 15.333 7.07248 15.2478C6.99746 15.6443 6.87972 15.8578 6.85133 16.1025C6.7366 15.944 6.56594 16.0009 6.51633 15.4688C6.48393 15.4018 6.46771 15.6204 6.4505 15.707C6.46814 15.7592 6.4928 15.7511 6.50026 15.8296C6.43772 15.6924 6.29461 15.7786 6.29762 15.4066C6.20166 15.5746 6.32917 15.7476 6.21199 15.6905L6.2226 15.8031C5.95297 16.3999 5.88386 14.8543 5.5801 15.6209C5.5999 15.5752 5.61179 15.5525 5.61909 15.4888C5.30099 15.8278 5.01332 15.1777 4.6889 15.7125C4.59798 15.82 4.6017 15.5834 4.55869 15.4038L4.52527 15.709L4.45457 15.3579C4.342 15.1015 4.20013 16.1084 4.06662 15.6234L4.09788 15.4162C4.03866 15.4553 3.92392 15.2968 3.9202 15.5334C3.91534 15.4957 3.91204 15.3195 3.88521 15.4255L3.87602 15.5838L3.75067 15.3128C3.63708 15.4286 3.73602 15.9445 3.57526 15.9784C3.52528 15.9066 3.43667 15.5066 3.46576 15.3974C3.49042 15.3893 3.53202 15.298 3.54149 15.1363L3.49234 15.0544C3.50745 14.5852 3.48965 14.1031 3.63903 13.7738L3.71703 14.0612L3.75792 13.8344L3.68105 13.8213C3.73698 13.6059 3.75306 13.7968 3.77815 13.9275C3.7922 13.8068 3.80941 13.7203 3.82921 13.6745L3.89576 14.1234C3.91711 13.9391 3.87411 13.7595 3.94064 13.6568C3.9712 13.8657 3.8784 14.0678 3.94093 14.205C3.99685 13.9897 3.99129 13.8167 4.03401 13.9996C4.04807 13.8789 4.04061 13.8005 4.02297 13.7482C4.06084 13.8935 4.14186 13.8089 4.15318 14.0569C4.21302 13.7945 4.30553 14.1237 4.32265 13.6784C4.33183 13.7841 4.38568 14.0255 4.42597 14.0458C4.37636 13.5137 4.58673 14.0118 4.59407 13.4438C4.62605 13.9237 4.78827 13.6563 4.87617 13.9208C4.87329 13.8834 4.86584 13.8049 4.85566 13.8311C4.91489 13.7921 4.93912 13.6452 4.98043 13.5573C4.96752 13.9522 5.05184 14.0438 5.08555 14.2869C5.17533 13.9052 5.06635 13.8216 5.10879 13.4563C5.08814 13.7761 5.21405 13.7764 5.17576 14.044C5.24159 13.8058 5.22725 13.9298 5.27257 13.6019C5.25721 14.0981 5.31746 13.6869 5.34614 13.9905C5.43635 13.7475 5.39074 13.5271 5.46633 13.6756C5.51495 13.524 5.44756 13.3491 5.44756 13.3491L5.4501 13.3426ZM7.42301 14.1838C7.42301 14.1838 7.42329 14.1805 7.42357 14.1771C7.40598 14.1723 7.39265 14.1644 7.383 14.1602C7.39094 14.1609 7.40229 14.1686 7.42329 14.1805L7.42301 14.1838ZM7.5926 14.1878C7.57162 14.1996 7.54553 14.2008 7.51774 14.1985C7.50763 14.2958 7.50717 14.3973 7.5256 14.3921C7.51901 14.3272 7.56177 14.2699 7.5926 14.1878ZM7.1327 16.1564C7.15741 16.1957 7.17012 16.1392 7.17686 16.0823C7.16523 16.0779 7.15019 16.0665 7.13174 16.048C7.13258 16.038 7.12973 16.0242 7.13057 16.0141C7.13006 16.0682 7.12983 16.119 7.13469 16.1566L7.1327 16.1564Z" fill="#027A48"/>
</g>
<g clip-path="url(#clip1_924_5009)">
<path d="M13.0891 24.0917C13.0771 24.0053 13.4523 24.0602 13.6659 24.0462C13.7695 23.9462 13.3886 23.9928 13.1983 23.9522C13.2964 23.8898 13.6364 23.849 13.6189 23.8001C13.5583 23.7967 13.5353 23.7855 13.4571 23.7951C13.751 23.7337 13.4649 23.594 13.8337 23.5229C13.8003 23.517 13.7701 23.5133 13.7399 23.5096C13.9281 23.5261 14.1169 23.5327 14.252 23.5343C14.2541 23.4965 14.4854 23.4675 14.2399 23.4478C14.2487 23.4723 14.1508 23.4708 14.0726 23.4804L14.176 23.4423C13.8239 23.3966 14.0582 23.4955 13.7985 23.489C13.9108 23.4134 14.196 23.3276 14.0948 23.2641C13.7513 23.2449 13.9857 23.4037 13.6765 23.3145L13.8095 23.4118C13.267 23.3275 13.8502 23.4699 13.267 23.3894C13.1625 23.2638 13.4366 23.2552 13.3322 23.1297C13.5226 23.1064 13.615 23.1455 13.8055 23.1222C14.1425 22.9555 12.9361 22.9638 13.392 22.8457C13.6198 22.8185 14.0524 22.8148 13.8214 22.7181L13.435 22.7403C13.3911 22.6202 13.9921 22.6857 13.7258 22.5551C13.5727 22.5745 13.5991 22.6458 13.5528 22.6272C13.2437 22.5381 13.7719 22.5756 13.7686 22.5136L13.4251 22.4944C13.4762 22.3675 13.7167 22.2334 13.7753 22.093C13.6736 22.0993 13.5677 22.1193 13.4617 22.0834C13.6268 21.9091 13.4052 21.7032 13.1956 21.5258L13.4893 21.4684C13.4868 21.4523 13.356 21.437 13.2977 21.4517C13.1834 21.3815 13.4868 21.4523 13.6 21.4227C13.6189 21.3859 13.4273 21.3692 13.3383 21.3901C13.5844 21.2782 13.8699 21.0667 13.5462 20.9349L13.4605 20.958C13.3376 20.8594 14.0636 20.8641 13.7853 20.7667L13.7338 20.7818C13.5971 20.5686 13.863 20.3441 13.4098 20.1731C13.8366 20.153 13.2123 19.9605 13.8067 19.9618C13.5064 19.8353 13.4033 19.8674 13.1969 19.6923C13.169 19.6468 13.565 19.633 13.6254 19.5806L13.3151 19.5712L13.6398 19.5036L13.2676 19.4548L13.3447 19.4052C13.3638 19.4263 13.4873 19.4531 13.5752 19.452C13.7146 19.3741 13.3501 19.2479 13.1918 19.241L13.4488 19.0539C13.3238 19.0549 13.2815 19.0864 13.2025 19.11C13.5186 19.0139 12.8729 19.0835 13.1616 18.9959C13.2317 19.0098 13.3474 18.9944 13.4083 18.9938C13.2187 18.9413 13.2145 18.8353 13.2897 18.7577L13.0764 18.7677C13.0169 18.6227 13.1675 18.4675 13.1596 18.3075C13.2609 18.367 13.6327 18.3639 13.669 18.318L13.3395 18.2916C13.5435 18.2671 13.4649 18.3445 13.7113 18.2865C13.6708 18.2263 13.3358 18.2375 13.2292 18.2695L13.3412 18.1999C13.2436 18.1944 13.1921 18.2095 13.067 18.2105C13.2711 18.186 12.7334 18.0761 13.0866 18.042L12.9889 18.0365C12.9811 17.8745 13.0931 17.8049 13.1038 17.6738C13.3874 17.6777 13.3227 17.6262 13.551 17.5911C13.4552 17.492 13.2284 17.3795 13.2483 17.2649C13.3878 17.1869 13.4892 17.2465 13.6565 17.2139C13.3971 17.2014 13.4171 17.0868 13.2349 17.1425C13.273 17.0049 13.282 16.9655 13.484 16.7953C13.5909 16.8172 13.6369 16.8397 13.7253 16.8307C13.7676 16.7992 13.6147 16.7547 13.4895 16.7577L13.462 16.7661C13.8441 16.578 12.6914 16.292 13.2264 16.1484L13.1989 16.1568L13.4745 16.0006C13.4281 15.9242 13.283 16.0418 13.1209 15.9808C13.5457 15.8151 13.0487 15.7015 13.33 15.5636C12.5638 15.4329 13.3691 15.1667 12.8783 15.0036L13.06 15.0177C13.2341 14.9836 12.9546 14.9679 12.9124 14.9376C13.0539 14.9455 13.0753 14.9847 13.1712 14.9621C13.3752 14.6363 12.8855 14.2717 12.7122 13.9288C12.6583 13.8041 13.6404 13.881 13.2039 13.7129L12.8708 13.7501C13.2626 13.5087 12.8387 13.2375 13.1696 12.9987C13.0945 13.0124 12.9934 13.0088 12.9954 13.0328C12.752 12.9753 12.9758 12.8402 13.1748 12.8453C13.15 12.806 12.9965 12.8314 12.8933 12.8056C12.7478 12.7496 13.1974 12.683 12.9561 12.6495C12.9159 12.6433 12.8776 12.6631 12.8602 12.6721C12.9768 12.6407 12.8252 12.5125 13.1067 12.5522C12.9702 12.4568 13.2245 12.3792 13.0566 12.302C13.3662 12.2615 12.9001 12.1396 13.3428 12.1365C12.887 12.1329 12.9673 11.9658 13.1831 11.912C13.0471 11.9284 13.0375 11.858 12.8474 11.8753C12.8511 11.8096 12.9354 11.7505 13.1709 11.7677C12.6212 11.6312 13.603 11.5325 12.8985 11.4452C13.1389 11.2531 13.2976 11.0744 13.3985 10.9005C12.9428 10.895 13.3605 11.0959 12.8819 11.0771C13.0633 10.9137 13.4534 10.8258 13.3345 10.6555C13.2695 10.61 13.1375 10.6744 13.0591 10.688C13.2405 10.5246 13.0064 10.3618 13.2509 10.2179C13.2071 10.2154 13.1623 10.2329 13.1277 10.2469C13.1428 10.2178 13.0573 10.1771 13.2663 10.1848L13.2107 10.2116C13.5117 10.2664 13.8347 10.1089 13.9935 10.1078C13.4003 10.1444 13.8399 9.95553 13.0899 10.0173C13.128 9.99949 13.2272 9.97711 13.3653 9.98484C13.3231 9.95454 13.2426 9.94405 13.0858 9.9692C13.1963 9.86564 13.4168 9.90991 13.4087 9.81368C13.3074 9.812 13.2693 9.82982 13.154 9.83733C13.3489 9.79437 13.5406 9.74924 13.4541 9.66658C13.3931 9.66915 13.316 9.65885 13.318 9.68291C13.3427 9.54462 13.8305 9.4582 13.6366 9.30169C13.2024 9.33525 13.4911 9.24566 13.1138 9.22853L13.2229 9.14884L13.4066 9.18706C13.3971 9.1147 13.6705 9.05817 13.5458 8.99333L13.391 9.04253L13.4593 8.90868L13.6035 8.98858C13.7964 8.92156 14.0821 9.00739 13.9727 8.90948C13.9346 8.9273 13.9666 8.83731 13.7427 8.79485C13.8628 8.76167 13.9862 8.72867 13.8914 8.67348C13.7707 8.65675 13.4758 8.67416 13.3953 8.66367C13.7111 8.63546 13.4756 8.49658 13.812 8.46153C13.7336 8.4751 13.5345 8.46995 13.4944 8.46371L13.749 8.44005C13.6665 8.4055 13.6263 8.39926 13.4675 8.40035C13.4157 8.29968 13.9482 8.44322 13.7355 8.31958C13.7147 8.32839 13.6779 8.32234 13.6397 8.34215C13.5283 8.22019 13.7942 8.11536 13.6654 8.0024C13.286 7.96122 13.5758 8.09515 13.254 8.0512C13.3168 7.8951 13.6973 7.73483 13.6046 7.58L13.6468 7.6103C14.181 7.60229 13.3766 7.48942 13.6272 7.41765C13.5891 7.43547 13.3324 7.43507 13.39 7.43231C13.3013 7.32559 13.5132 7.22172 13.6772 7.06729L13.5412 7.08362C13.4165 7.01878 13.4659 6.91979 13.3989 6.85019C13.5349 6.83387 13.5135 6.79475 13.7145 6.82396C12.9231 6.60009 14.121 6.44168 13.4633 6.24325C13.462 6.26513 13.3457 6.29254 13.3433 6.27445L13.4633 6.12155C13.6988 6.13872 13.6039 6.14538 13.7876 6.1816C13.927 6.16546 14.0307 6.12338 14.0295 6.0854C13.8772 6.1507 13.655 6.07641 13.5218 6.04301C13.5924 6.04896 13.6705 6.04136 13.7446 6.04551C13.3274 5.95432 14.2142 6.04386 13.9303 5.92621L13.8085 5.92937C13.8682 5.88882 14.0288 5.85591 13.9942 5.81008C13.722 5.78486 13.8703 5.85103 13.6475 5.84853C13.6612 5.78545 14.1537 5.7372 13.8836 5.67419C13.8078 5.69988 13.8091 5.73786 13.7368 5.76175C13.4164 5.69194 13.4978 5.68652 13.4464 5.63975L13.4529 5.6441L13.307 5.53418L13.3932 5.56295C14.096 5.50052 13.5169 5.40626 13.9748 5.31217C13.5407 5.4036 13.7241 5.32408 13.4168 5.32284C13.3306 5.29407 13.2351 5.25081 13.1501 5.26002C13.3958 5.21591 12.9524 5.17114 13.3105 5.10939C13.2129 5.10392 13.3001 5.05493 13.0531 5.06106C13.1276 4.99739 13.2243 5.08062 13.3495 5.07765C13.6823 4.98455 12.9343 4.83094 13.3909 4.69888C13.5767 4.57958 13.9086 4.56424 14.0702 4.45158C13.9105 4.40872 13.7108 4.47536 13.7108 4.47536C13.5625 4.4092 13.5888 4.36278 13.7001 4.30516C13.6151 4.31437 13.5416 4.30028 13.4313 4.28014C13.4541 4.23353 13.7873 4.25617 13.6424 4.19019C13.5338 4.19809 13.3576 4.20818 13.2484 4.228C13.3358 4.17503 13.5177 4.12336 13.6054 4.06641C13.4342 4.04686 13.347 4.09585 13.2345 4.1135C13.309 4.04983 13.3857 3.94837 13.6566 3.9356L13.7555 3.97905C13.767 3.95574 13.52 3.96188 13.4719 3.97714C13.2596 4.02711 13.5686 4.06036 13.6696 4.06602L13.7326 4.02565C14.3105 4.08194 13.6457 4.19038 13.6816 4.2742L14.1018 4.24983L13.7564 4.32627C13.8667 4.34641 14.1021 4.36557 14.1618 4.32502C14.3709 4.3906 14.0137 4.37459 14.247 4.43155C14.2838 4.4376 14.3043 4.43475 14.3213 4.43171L14.1966 4.48659C14.285 4.47757 14.493 4.50317 14.4309 4.46578C14.6781 4.57539 14.1213 4.62603 14.4429 4.67396L14.467 4.66533C14.3307 4.80734 14.1592 4.67205 13.799 4.7716L14.564 4.8643L14.2562 4.87101C14.2689 4.88569 14.2908 4.91684 14.4159 4.91387C14.2071 4.96404 14.2816 4.90037 14.084 4.92922C14.3667 5.00888 13.9583 5.1237 14.4498 5.15321C14.2156 5.17401 14.2682 5.07919 14.1054 5.15188C14.6337 5.18744 14.0194 5.23885 14.262 5.31029C14.533 5.29753 14.388 5.23155 14.634 5.30318C14.173 5.33125 14.7381 5.43471 14.6541 5.48787C14.2862 5.48124 14.5056 5.60526 14.3858 5.69432C14.5076 5.69116 14.5952 5.87564 14.7287 5.96492L14.7895 5.96433C14.4176 5.97144 14.4935 6.06348 14.419 6.12715C14.6418 6.12965 14.7267 6.12044 14.8265 6.08811L14.8231 6.14977C14.7076 6.16126 14.6457 6.17975 14.6065 6.21746L14.8839 6.20904C14.8726 6.29022 14.5644 6.36475 14.7508 6.47494C14.4907 6.47435 14.0268 6.37456 13.8587 6.48087C14.0001 6.48879 14.2394 6.49819 14.295 6.47137C14.2776 6.48038 14.1784 6.50276 14.2415 6.52225L14.4767 6.48354C14.582 6.53333 14.2796 6.50443 14.3046 6.54174C14.5037 6.54491 14.448 6.57372 14.6068 6.57263C14.6242 6.56363 14.5243 6.53808 14.5994 6.52433C14.6375 6.56836 14.756 6.62288 14.9069 6.6433C14.7924 6.63689 14.6371 6.63618 14.6151 6.66687C14.6038 6.74804 14.8564 6.70033 14.9617 6.75012C14.8223 6.76626 14.9678 6.82229 14.6709 6.81565C14.673 6.8397 14.811 6.84743 14.8949 6.85811C14.7644 6.8967 14.8637 7.05389 14.5459 6.9982L14.5262 6.98712C14.5262 6.98712 14.5193 6.99072 14.5123 6.99432C14.2212 7.12568 14.6919 7.2857 14.5695 7.42052L14.6708 7.42219C14.5582 7.50169 14.61 7.60235 14.3976 7.65631C14.3962 7.68017 14.5832 7.71858 14.7019 7.71125C14.6276 7.77094 14.5158 7.77665 14.6862 7.86999C14.8584 7.81179 14.8402 7.89458 14.8112 7.80915C14.9012 7.892 15.062 7.91497 14.7907 7.99555C15.0454 7.9719 15.1144 8.06555 15.0381 8.10119L14.8524 8.03892C14.8163 8.08079 14.8411 8.12009 14.8626 8.1592L15.1977 8.14603C15.6135 8.32294 14.5131 8.42895 15.2009 8.57319C14.9656 8.6119 15.0339 8.47805 14.7585 8.51052C14.8081 8.58912 15.2928 8.6801 15.2949 8.70415C15.4847 8.81255 14.807 8.79057 14.9391 8.90372C14.8185 8.88699 14.4988 8.8651 14.3896 8.94479C14.4359 9.0232 14.8971 9.05101 14.9909 9.00438C14.9987 8.98686 14.9621 8.97683 14.9216 8.97656C14.9634 8.95296 15.0158 8.92198 15.1457 8.95519L15.0271 8.96251C15.1498 9.0033 15.1405 9.10853 15.3376 9.08764C15.2264 9.14327 15.1405 9.10853 15.0789 9.06318C15.2556 9.16485 15.0905 9.21746 15.2097 9.31991C15.1432 9.30222 15.0023 9.28436 15.0048 9.30046C15.1584 9.45271 14.7785 9.35962 14.7291 9.45861C14.9147 9.52088 15.1653 9.44911 15.0146 9.54642C15.1394 9.61127 15.3344 9.56632 15.4302 9.54574C15.2024 9.63275 15.5892 9.72224 15.6336 9.7746L15.7274 9.72798C15.6718 9.7548 15.6738 9.77886 15.6759 9.80291L15.4345 9.76945C15.4768 9.79975 15.4788 9.8238 15.58 9.82548C15.4232 9.85062 15.1799 9.79311 14.9674 9.84706C15.0901 9.88784 14.8395 9.95961 15.1593 9.97951C15.0479 9.85755 15.479 10.0014 15.5285 9.90041C15.4904 9.91823 15.4924 9.94229 15.538 9.97277C15.5748 9.97882 15.6023 9.97039 15.623 9.96356C15.91 10.0854 15.2658 10.0074 15.2761 10.1257C15.4557 10.1158 15.6187 10.1609 15.5804 10.1807C15.5764 10.1325 15.2815 10.15 15.1441 10.1902C15.2849 10.2699 15.0417 10.2702 15.0597 10.3111L14.9914 10.2634C14.8117 10.2753 14.8366 10.3126 14.783 10.3655C14.9244 10.3734 14.8768 10.3189 14.9398 10.3403C14.6262 10.3906 15.2698 10.4805 15.0627 10.5587C15.1854 10.5995 15.3999 10.5696 15.4823 10.6061C15.2511 10.693 15.7331 10.712 15.5422 10.803C15.3009 10.7696 15.3584 10.7668 15.1253 10.8276L15.2894 10.6732L14.9429 10.7675C14.9389 10.7194 15.0903 10.67 15.048 10.6397C14.8531 10.6827 14.914 10.6801 14.7129 10.6529C15.0769 10.7271 14.5066 10.777 14.752 10.8586L15.3493 10.87C15.6195 10.9909 15.0513 11.0649 15.2049 11.2171L15.0996 11.1673C14.8623 11.182 15.0709 11.2575 14.9737 11.3039C15.1729 11.3051 15.2456 11.3351 15.3725 11.3602C15.2242 11.3539 15.3901 11.4689 14.9913 11.4725L15.2574 11.5453C15.3688 11.6672 14.6933 11.6673 14.7644 11.785C14.9788 11.7551 15.1243 11.8112 15.2771 11.7379C15.2817 11.7761 15.3168 11.812 15.1785 11.8082C15.3055 11.8333 14.9129 11.9071 15.1032 11.9477C15.0146 11.9607 14.8085 11.9611 14.8263 12.006C14.8665 12.0122 14.9242 12.0075 14.9242 12.0075C14.8263 12.006 14.7922 12.0719 14.5716 12.0296C15.1993 12.1625 14.5363 12.3589 15.077 12.4749C15.0116 12.5571 14.9521 12.6555 14.941 12.7327C15.002 12.7301 15.0389 12.7342 15.0195 12.7191C15.2093 12.8275 14.4492 12.769 14.6617 12.8946C14.9856 12.9627 14.8339 12.8364 14.9566 12.8772C15.6134 12.91 14.871 13.0181 15.2578 13.1076L15.296 13.0898C15.522 13.1563 15.0515 13.2337 15.1033 13.3344C15.1033 13.3344 15.1608 13.3316 15.2011 13.3359C14.87 13.3971 14.7617 13.5228 14.6719 13.6175C14.9266 13.5938 14.8059 13.5771 15.068 13.6018C15.0319 13.6436 14.6471 13.5782 14.5781 13.6641C14.7182 13.6959 14.8463 13.7609 15.1224 13.7764L15.1337 13.6952C15.4957 13.7454 15.1278 13.8006 15.1896 13.844L15.3484 13.8429C15.301 13.966 14.9062 13.9578 14.9392 14.0934L14.8185 14.0766C14.4265 14.1405 15.0411 14.143 14.7537 14.2087L15.1538 14.241C15.06 14.2877 14.7733 14.4013 14.7011 14.4851C14.9939 14.4436 15.1446 14.3463 15.3168 14.2861C15.3209 14.3342 15.2942 14.4484 15.0972 14.4693C15.1353 14.4515 15.2312 14.4289 15.1682 14.4075C14.858 14.4579 14.7051 14.5332 14.7167 14.6276C15.4902 14.629 14.9188 14.8803 15.522 14.966C15.2427 15.1279 15.6551 15.3046 15.6171 15.5C15.0137 15.4164 15.6004 15.557 14.9837 15.5304C14.9474 15.5763 14.9566 15.5928 14.9968 15.599L15.3702 15.7476C15.5504 15.7856 15.5042 15.7072 15.6422 15.7149C15.694 15.8156 15.9064 15.7636 16.0713 15.8347C15.8494 15.8163 15.7557 15.8609 15.8435 15.9217L15.5545 15.8337C15.2296 15.9652 16.0774 15.9667 15.7558 16.1004L15.9471 16.0612C15.8351 16.1308 15.9591 16.3292 15.4661 16.3874C15.5362 16.4014 15.7073 16.4229 15.7496 16.3913C15.831 16.5675 15.2356 16.7636 15.5451 16.9066L15.6943 16.897C15.652 16.9286 15.4111 16.947 15.5674 16.9917C15.6282 16.9911 15.7165 16.9821 15.7259 16.9966C15.6744 17.0116 15.4647 17.0757 15.5534 17.1206L15.7208 17.0881C15.9239 17.2611 15.315 17.3367 15.2159 17.4768C15.6612 17.4878 15.809 17.6237 15.8829 17.6917L15.9471 17.6913C16.0103 17.8904 15.5911 18.0166 15.4224 18.1947C15.9085 18.3197 15.637 18.5838 15.9137 18.7709C15.8309 18.7403 15.566 18.7674 15.5236 18.7989C15.6157 18.844 15.2202 18.9096 15.6254 18.9124L15.6161 18.8979C16.0157 18.9402 15.913 19.0242 15.9261 19.0928L15.3925 19.0909C16.1752 19.2883 15.1234 19.5527 15.823 19.6677C15.6923 19.7082 15.6927 19.7621 15.5622 19.8007L15.8491 19.8048C15.9267 19.9269 15.9639 19.9868 15.9016 20.133L16.1057 20.1085C16.128 20.1915 15.2834 20.1941 15.269 20.2711L15.6961 20.305C15.6947 20.4506 16.0744 20.6075 15.6919 20.7417C15.7561 20.7413 15.8778 20.7402 15.8926 20.7171C15.9056 20.7856 16.1915 20.9892 15.6025 20.9502C15.9836 20.9616 15.6447 21.1022 15.4784 21.1767L15.7591 21.1705C15.4012 21.2283 15.3032 21.2288 15.2069 21.3192C15.2429 21.3411 15.4319 21.3437 15.3592 21.3137C15.5104 21.39 15.0929 21.3646 15.2465 21.457L15.4237 21.4291C15.4465 21.5042 15.3524 21.4969 15.1443 21.5331C15.0336 21.5788 15.2207 21.6771 15.4764 21.6954C15.3206 21.7026 15.116 21.7371 15.191 21.7851C15.2885 21.7926 15.3468 21.7779 15.3742 21.7715C15.5695 21.9021 15.0533 21.951 15.3319 22.0444C15.4261 22.0497 15.4731 22.0563 15.4997 22.0638C15.4884 21.9634 15.4726 21.8827 15.452 21.8895C15.7117 21.8961 15.7612 21.9787 16.1156 21.9227C15.923 21.9837 15.5019 22.0839 15.6258 22.1646C15.6525 22.1701 15.6759 22.1734 15.7162 22.1777L15.7437 22.1692C15.7697 22.1887 15.7452 22.2032 15.7038 22.2189C15.7462 22.2452 15.7791 22.261 15.7845 22.2853C15.9999 22.2993 15.9041 22.3817 15.9154 22.4223C15.6322 22.4124 15.6798 22.4669 15.443 22.4118C15.4629 22.4189 15.4771 22.4057 15.4888 22.3784C15.4959 22.3729 15.4997 22.3651 15.5168 22.3621C15.51 22.3617 15.4998 22.3631 15.493 22.3647C15.5011 22.3392 15.5065 22.3036 15.5086 22.2658C15.3652 22.2937 15.2452 22.3249 15.4046 22.3737C15.2213 22.3894 15.0345 22.4089 14.9495 22.4181C15.3479 22.4823 15.5646 22.5942 15.8099 22.6159C15.6546 22.7349 15.7161 22.9039 15.1856 22.968C15.1195 23.0022 15.3385 23.0125 15.4255 23.0273C15.4772 23.0083 15.4684 22.9839 15.5467 22.9743C15.4112 23.0405 15.5013 23.1812 15.1293 23.1883C15.2999 23.2797 15.4694 23.1475 15.4155 23.2662L15.5277 23.2525C16.1317 23.5058 14.5885 23.617 15.3631 23.8998C15.3169 23.8812 15.2939 23.87 15.23 23.8644C15.5775 24.1731 14.9355 24.4784 15.4789 24.7881C15.5888 24.8761 15.3522 24.8788 15.1739 24.9267L15.4799 24.9518L15.1308 25.032C14.8776 25.1515 15.8879 25.266 15.4068 25.4126L15.1988 25.387C15.2395 25.4451 15.0842 25.5641 15.3208 25.5614C15.2833 25.5673 15.1072 25.5754 15.2139 25.5993L15.3724 25.6042L15.1049 25.7369C15.2237 25.8473 15.7367 25.7344 15.7751 25.8941C15.7046 25.946 15.3072 26.0455 15.1972 26.0194C15.1884 25.995 15.096 25.9559 14.9342 25.9508L14.8536 26.0022C14.3842 25.9998 13.9028 26.0308 13.5695 25.8904L13.8546 25.8046L13.6269 25.7699L13.6158 25.8471C13.399 25.797 13.5894 25.7758 13.7194 25.7471C13.5984 25.7364 13.5114 25.7215 13.4651 25.703L13.912 25.6242C13.7272 25.6079 13.5488 25.6558 13.4443 25.5921C13.6524 25.5558 13.8569 25.6431 13.9924 25.5769C13.7756 25.5268 13.6028 25.5371 13.7845 25.4894C13.6635 25.4786 13.5852 25.4882 13.5335 25.5073C13.6777 25.4655 13.5909 25.3868 13.8385 25.3687C13.5746 25.316 13.9012 25.2146 13.4556 25.2096C13.561 25.1976 13.8008 25.1372 13.82 25.0963C13.2894 25.1604 13.7816 24.9366 13.2137 24.9447C13.6925 24.8996 13.4208 24.7448 13.6828 24.6497C13.6455 24.6536 13.5672 24.6632 13.5937 24.6726C13.5531 24.6145 13.4056 24.5943 13.3165 24.5554C13.7116 24.5575 13.8009 24.4708 14.043 24.4304C13.659 24.3511 13.5785 24.4623 13.2121 24.4298C13.5323 24.4418 13.5292 24.3159 13.7977 24.3469C13.5579 24.2876 13.6822 24.2985 13.3532 24.2621C13.8497 24.264 13.4369 24.2149 13.7396 24.178C13.4943 24.0945 13.2753 24.146 13.4216 24.0664C13.2687 24.022 13.0958 24.0941 13.0958 24.0941L13.0891 24.0917ZM13.8764 22.0966C13.8764 22.0966 13.873 22.0965 13.8697 22.0963C13.8653 22.114 13.8578 22.1275 13.8539 22.1373C13.8543 22.1293 13.8617 22.1178 13.873 22.0965L13.8764 22.0966ZM13.8758 21.927C13.8881 21.9477 13.89 21.9737 13.8885 22.0016C13.986 22.009 14.0875 22.0067 14.0818 21.9884C14.0171 21.9968 13.9586 21.9556 13.8758 21.927ZM15.8562 22.3332C15.8948 22.3074 15.838 22.2962 15.7808 22.291C15.7768 22.3028 15.7658 22.3181 15.7479 22.3371C15.7377 22.3365 15.7241 22.3397 15.714 22.3392C15.7681 22.3382 15.8188 22.3371 15.8563 22.3312L15.8562 22.3332Z" fill="#027A48"/>
</g>
<defs>
<clipPath id="clip0_924_5009">
<rect width="28" height="4" fill="white" transform="matrix(0.996546 0.083039 0.083039 -0.996546 0.382324 15.8308)"/>
</clipPath>
<clipPath id="clip1_924_5009">
<rect width="28" height="4" fill="white" transform="matrix(0.0955537 -0.995424 -0.995424 -0.0955537 15.1531 29.1271)"/>
</clipPath>
</defs>
</svg>
