<svg width="16" height="18" viewBox="0 0 16 18" fill="none" xmlns="http://www.w3.org/2000/svg">
<path d="M7.58333 18C7.27846 18 6.9939 17.9375 6.72967 17.8125C6.46544 17.6875 6.23611 17.5069 6.04167 17.2708L0 9.95833L0.5625 9.375C0.798611 9.13889 1.08681 8.99653 1.42708 8.94792C1.76736 8.89931 2.08333 8.96528 2.375 9.14583L5 10.6875V2.75C5 2.5375 5.07145 2.35937 5.21435 2.21562C5.35727 2.07187 5.53435 2 5.7456 2C5.95687 2 6.13542 2.07187 6.28125 2.21562C6.42708 2.35937 6.5 2.5375 6.5 2.75V13.3125L3.02083 11.25L7.20833 16.3125C7.26389 16.3681 7.32292 16.4132 7.38542 16.4479C7.44792 16.4826 7.51389 16.5 7.58333 16.5H13C13.4125 16.5 13.7656 16.3531 14.0594 16.0594C14.3531 15.7656 14.5 15.4125 14.5 15V3.75C14.5 3.5375 14.5715 3.35937 14.7144 3.21562C14.8573 3.07187 15.0344 3 15.2456 3C15.4569 3 15.6354 3.07187 15.7812 3.21562C15.9271 3.35937 16 3.5375 16 3.75V15C16 15.8333 15.7083 16.5417 15.125 17.125C14.5417 17.7083 13.8333 18 13 18H7.58333ZM8.16667 9V0.75C8.16667 0.5375 8.23812 0.359375 8.38102 0.215624C8.52394 0.0718745 8.70102 0 8.91227 0C9.12354 0 9.30208 0.0718745 9.44792 0.215624C9.59375 0.359375 9.66667 0.5375 9.66667 0.75V9H8.16667ZM11.3333 9V1.75C11.3333 1.5375 11.4048 1.35937 11.5477 1.21562C11.6906 1.07187 11.8677 1 12.0789 1C12.2902 1 12.4688 1.07187 12.6146 1.21562C12.7604 1.35937 12.8333 1.5375 12.8333 1.75V9H11.3333Z" fill="#F04438"/>
</svg>
