<svg width="135" height="61" viewBox="0 0 135 61" fill="none" xmlns="http://www.w3.org/2000/svg">
<rect y="6" width="135" height="55" rx="6" fill="#12B76A" fill-opacity="0.2"/>
<path d="M24.1491 45V20.2727H29.3771V30.4751H39.9901V20.2727H45.206V45H39.9901V34.7855H29.3771V45H24.1491ZM56.5114 45.3622C54.6038 45.3622 52.9617 44.9759 51.5853 44.2031C50.2169 43.4223 49.1625 42.3196 48.422 40.8949C47.6814 39.4621 47.3112 37.7678 47.3112 35.8118C47.3112 33.9041 47.6814 32.2299 48.422 30.7891C49.1625 29.3482 50.2049 28.2254 51.5491 27.4205C52.9014 26.6155 54.4871 26.2131 56.3062 26.2131C57.5297 26.2131 58.6686 26.4103 59.7231 26.8047C60.7856 27.1911 61.7113 27.7746 62.5001 28.5554C63.297 29.3362 63.9168 30.3182 64.3595 31.5014C64.8022 32.6766 65.0235 34.053 65.0235 35.6307V37.0433H49.3637V33.8558H60.1819C60.1819 33.1153 60.0209 32.4593 59.6989 31.8878C59.377 31.3163 58.9302 30.8696 58.3587 30.5476C57.7953 30.2176 57.1393 30.0526 56.3907 30.0526C55.6099 30.0526 54.9177 30.2337 54.314 30.5959C53.7184 30.95 53.2515 31.429 52.9134 32.0327C52.5754 32.6283 52.4023 33.2924 52.3943 34.0249V37.0554C52.3943 37.973 52.5633 38.7659 52.9014 39.4339C53.2475 40.102 53.7345 40.6172 54.3623 40.9794C54.9901 41.3416 55.7347 41.5227 56.596 41.5227C57.1675 41.5227 57.6907 41.4422 58.1656 41.2812C58.6405 41.1203 59.047 40.8788 59.385 40.5568C59.7231 40.2348 59.9807 39.8404 60.1578 39.3736L64.9149 39.6875C64.6734 40.8305 64.1784 41.8286 63.4298 42.6818C62.6892 43.527 61.7314 44.187 60.5562 44.6619C59.3891 45.1288 58.0408 45.3622 56.5114 45.3622ZM72.1635 20.2727V45H67.0201V20.2727H72.1635ZM80.0672 20.2727V45H74.9237V20.2727H80.0672ZM91.2067 45.3622C89.3312 45.3622 87.7093 44.9638 86.3409 44.1669C84.9806 43.362 83.9301 42.2431 83.1896 40.8104C82.4491 39.3696 82.0788 37.6993 82.0788 35.7997C82.0788 33.884 82.4491 32.2098 83.1896 30.777C83.9301 29.3362 84.9806 28.2173 86.3409 27.4205C87.7093 26.6155 89.3312 26.2131 91.2067 26.2131C93.0821 26.2131 94.7 26.6155 96.0604 27.4205C97.4287 28.2173 98.4832 29.3362 99.2237 30.777C99.9642 32.2098 100.335 33.884 100.335 35.7997C100.335 37.6993 99.9642 39.3696 99.2237 40.8104C98.4832 42.2431 97.4287 43.362 96.0604 44.1669C94.7 44.9638 93.0821 45.3622 91.2067 45.3622ZM91.2308 41.3778C92.084 41.3778 92.7964 41.1364 93.3679 40.6534C93.9394 40.1624 94.37 39.4943 94.6598 38.6491C94.9576 37.804 95.1065 36.8421 95.1065 35.7635C95.1065 34.6849 94.9576 33.723 94.6598 32.8778C94.37 32.0327 93.9394 31.3646 93.3679 30.8736C92.7964 30.3826 92.084 30.1371 91.2308 30.1371C90.3695 30.1371 89.6451 30.3826 89.0575 30.8736C88.478 31.3646 88.0393 32.0327 87.7415 32.8778C87.4517 33.723 87.3068 34.6849 87.3068 35.7635C87.3068 36.8421 87.4517 37.804 87.7415 38.6491C88.0393 39.4943 88.478 40.1624 89.0575 40.6534C89.6451 41.1364 90.3695 41.3778 91.2308 41.3778ZM108.465 20.2727L107.994 37.5866H103.575L103.092 20.2727H108.465ZM105.784 45.3139C104.987 45.3139 104.303 45.0322 103.732 44.4688C103.16 43.8973 102.878 43.2131 102.886 42.4162C102.878 41.6274 103.16 40.9512 103.732 40.3878C104.303 39.8243 104.987 39.5426 105.784 39.5426C106.549 39.5426 107.221 39.8243 107.8 40.3878C108.38 40.9512 108.674 41.6274 108.682 42.4162C108.674 42.9474 108.533 43.4344 108.259 43.8771C107.994 44.3118 107.644 44.6619 107.209 44.9276C106.774 45.1851 106.299 45.3139 105.784 45.3139Z" fill="#344054"/>
<path d="M105.25 16.4059C105.337 15.6212 106.512 14.8672 107.012 14.3165C108.021 13.2067 105.027 13.3077 104.507 13.2467C104.063 13.1944 101.719 13.2492 102.028 12.5544C102.546 11.3888 104.576 10.9038 105.552 10.1882C108.288 8.18194 102.964 10.1685 103.488 8.75329C103.668 8.26796 111.595 2.13356 109.328 1" stroke="#027A48" stroke-width="0.75" stroke-linecap="round"/>
<path d="M21.1013 18.8134C20.0328 17.9586 17.9745 17.5664 16.6457 17.3408C14.4299 16.9645 12.2382 17.001 10 17.001" stroke="#027A48" stroke-width="0.75" stroke-linecap="round"/>
<path d="M24.9219 15.9822C24.9219 13.0002 25.1672 10.477 27.1874 8.05273" stroke="#027A48" stroke-width="0.75" stroke-linecap="round"/>
<path d="M63 46.6113C63 52 69.8447 53.5812 73.5 53.5C82.5 53.5 84.5 48.3813 84.5 44.5" stroke="#027A48" stroke-width="0.75" stroke-linecap="round"/>
</svg>
