<svg width="21" height="18" viewBox="0 0 21 18" fill="none" xmlns="http://www.w3.org/2000/svg">
<path d="M10.7139 16.2447C10.7213 16.7645 10.7288 17.1433 10.7362 17.3289C10.7436 17.3512 10.7436 17.3809 10.7362 17.4032C10.7362 17.4329 10.7362 17.4552 10.7362 17.4552C10.7362 17.5592 10.751 17.6631 10.7807 17.7597C10.8104 17.6631 10.8253 17.5592 10.8253 17.4552C10.8253 17.4181 10.8402 16.8759 10.8624 16.007C10.855 16.0144 10.8476 16.0219 10.8476 16.0293C10.7956 16.0961 10.751 16.1704 10.7139 16.2447ZM9.16917 5.40185C9.288 5.27559 9.39939 5.12706 9.48109 4.9711C9.42167 5.10478 9.19145 5.60979 9.41425 5.65435C9.65932 5.69891 9.93411 5.62464 10.4317 4.99338C10.4168 4.18389 10.402 3.47836 10.3946 2.94365H10.1272C10.1123 2.94365 10.1049 2.94365 10.0901 2.94365C9.94154 2.94365 9.69646 2.92879 9.53307 2.68371C9.35484 2.41636 9.34741 2.14157 9.33998 1.94106C9.33255 1.65142 9.25829 1.12413 8.89439 0.827067C8.64188 0.626549 7.95864 0.47059 7.32737 0.723094C7.11943 0.804787 6.70354 1.02016 6.29508 1.22068C5.92375 1.40634 5.44845 1.63657 5.29992 1.63657C5.54499 1.52517 5.87176 1.36178 6.22824 1.16126C6.6367 0.938466 7.06744 0.700815 7.28282 0.611695C7.71356 0.440884 8.53791 0.388898 8.96122 0.730521C9.36226 1.05729 9.44395 1.62171 9.45138 1.9262C9.45881 2.12672 9.46623 2.3718 9.62219 2.61687C9.7633 2.82482 9.98609 2.82482 10.1198 2.82482H10.1495H10.3871C10.3871 2.75798 10.3871 2.69857 10.3871 2.63173C10.1495 2.64658 9.80786 2.66143 9.65932 2.34209C9.48109 1.95591 9.67418 0.968172 9.08005 0.552283C8.48592 0.136394 7.53532 0.240366 6.68869 0.730521C5.84948 1.21325 4.7355 1.84451 3.36158 2.39408C1.98766 2.94364 1.1336 3.16644 0.970214 3.18872C0.814256 3.21843 1.09647 3.3224 1.68317 3.33725C2.26987 3.35211 2.76002 3.30755 2.76002 3.30755L7.06744 1.34693C7.06744 1.34693 3.35415 3.19615 3.04223 3.39667C2.73032 3.59718 2.47781 3.66402 2.50009 3.84969C2.52237 4.03535 2.76002 4.01307 3.41356 3.99822C4.0671 3.98337 4.20821 3.92395 4.431 3.85712C4.6538 3.79028 7.06744 2.67629 7.06744 2.67629C7.06744 2.67629 4.48299 3.96109 4.11166 4.25815C3.74033 4.55521 4.14137 4.65176 4.39387 4.65919C4.6538 4.66661 5.34448 4.62948 5.73066 4.43639C6.11684 4.2433 7.31995 3.47093 7.31995 3.47093C7.31995 3.47093 6.13169 4.32499 5.90147 4.51808C5.71581 4.67404 5.61926 4.80772 5.66382 4.9711C5.73066 5.17905 6.08714 5.15677 6.56244 4.98596C6.56244 4.98596 7.05259 4.81515 7.23826 4.65176C7.42392 4.48095 7.94378 4.0205 7.94378 4.0205C7.94378 4.0205 7.32738 4.65919 7.17142 4.93397C7.02289 5.20875 6.99318 5.27559 7.06744 5.43155C7.17142 5.65435 7.95864 5.42413 8.18143 5.18648C8.34482 5.00081 8.50078 4.80772 8.64188 4.59977C8.64188 4.59977 8.40423 4.98596 8.35224 5.20876C8.30026 5.43155 8.24085 5.60979 8.45622 5.63207C8.69387 5.6692 8.91667 5.67663 9.16917 5.40185ZM10.6396 10.4594C10.6619 10.4445 10.6842 10.4296 10.7065 10.4148C10.751 10.3851 10.7882 10.3628 10.8179 10.3331C10.8773 10.296 10.9367 10.2514 10.9961 10.2143C11.0035 9.79096 11.0184 9.36022 11.0258 8.9369C10.907 8.88492 10.7807 8.83293 10.6471 8.78094C10.6396 8.78094 10.6322 8.77352 10.6248 8.77352C10.6099 8.76609 10.6025 8.76609 10.5876 8.75866C10.4985 8.72896 10.4168 8.69183 10.3203 8.66212C10.2089 8.61756 10.0975 8.58043 9.98609 8.53587C9.24344 8.92948 9.0949 9.11514 9.0949 9.47904C9.0949 9.99148 9.53307 10.2217 10.2906 10.7044C10.4094 10.6153 10.5282 10.5336 10.6396 10.4594ZM9.72616 9.54588C9.72616 9.54588 9.67418 9.21911 10.5134 8.84036C10.5357 8.83293 10.5579 8.81808 10.5802 8.81065C10.5876 9.32309 10.5951 9.83552 10.6099 10.348C10.194 10.0657 9.72616 9.79839 9.72616 9.54588ZM10.9961 15.8511C10.959 15.8956 10.9218 15.9402 10.8847 15.9773C11.1001 16.2669 11.0852 16.5492 10.9664 16.9131C11.0778 16.7868 11.3006 16.4675 11.1149 16.0516C11.0778 15.9847 11.0407 15.9179 10.9961 15.8511ZM10.6545 12.8062C10.7362 12.8878 10.8327 12.9844 10.9293 13.0809C10.9887 13.1404 11.0481 13.1998 11.1149 13.2666C11.1224 13.274 11.1372 13.2815 11.1521 13.2963C11.6571 12.8581 12.1175 12.4423 12.1175 11.9224C12.1175 11.5139 11.7239 11.1426 11.3303 10.8455C11.2932 10.8678 11.256 10.8901 11.2189 10.9198C11.1298 10.9792 11.0481 11.0312 10.9738 11.0832C10.9738 11.0832 10.9664 11.0832 10.9664 11.0906C10.9516 11.1055 10.9293 11.1129 10.9144 11.1277C10.8104 11.202 10.7139 11.2689 10.6248 11.3357C10.6396 11.8333 10.6471 12.3309 10.6545 12.8062ZM10.9738 11.1649C11.464 11.5214 11.6571 11.7516 11.6571 12.0041C11.6571 12.264 11.3823 12.5685 10.9367 13.0141C10.9441 12.42 10.959 11.8036 10.9738 11.1649ZM13.6845 4.02793C13.6845 4.02793 14.2044 4.48838 14.3901 4.65919C14.5757 4.83 15.0659 4.99338 15.0659 4.99338C15.5412 5.1642 15.8977 5.18647 15.9645 4.97853C16.0165 4.81515 15.9125 4.67404 15.7268 4.52551C15.4966 4.33242 14.3084 3.47836 14.3084 3.47836C14.3084 3.47836 15.5115 4.25072 15.8977 4.44382C16.2838 4.63691 16.9745 4.67404 17.2344 4.66661C17.4944 4.65919 17.888 4.56264 17.5167 4.26558C17.1453 3.96851 14.5609 2.68371 14.5609 2.68371C14.5609 2.68371 16.9671 3.80513 17.1973 3.86454C17.4201 3.93138 17.5612 3.98337 18.2148 4.00565C18.8683 4.0205 19.0985 4.04278 19.1282 3.85712C19.1579 3.67888 18.898 3.61204 18.5861 3.40409C18.2742 3.20358 14.5609 1.35435 14.5609 1.35435L18.8683 3.31497C18.8683 3.31497 19.3585 3.35953 19.9452 3.34468C20.5319 3.32983 20.8141 3.22586 20.6581 3.19615C20.5021 3.16644 19.6407 2.95107 18.2667 2.4015C16.8928 1.85194 15.7788 1.2281 14.9396 0.737948C14.1004 0.25522 13.1424 0.143821 12.5483 0.55971C11.9541 0.975599 12.1472 1.95591 11.969 2.34952C11.8205 2.66886 11.4788 2.65401 11.2412 2.63915C11.2412 2.69857 11.2412 2.76541 11.2338 2.83225H11.4788H11.5085C11.6422 2.83225 11.865 2.83225 12.0061 2.6243C12.1621 2.38665 12.1695 2.13415 12.1769 1.93363C12.1844 1.62914 12.2661 1.06472 12.6671 0.737948C13.0904 0.396325 13.9148 0.448311 14.3455 0.619123C14.5609 0.700815 14.9916 0.938465 15.4001 1.16869C15.7566 1.36921 16.0833 1.53259 16.3284 1.64399C16.1724 1.64399 15.7046 1.41377 15.3332 1.2281C14.9322 1.02016 14.5163 0.812214 14.3009 0.730521C13.6697 0.478017 12.9864 0.633975 12.7339 0.834493C12.3626 1.13156 12.2958 1.65884 12.2883 1.94848C12.2809 2.149 12.2735 2.43121 12.0952 2.69114C11.9393 2.93622 11.6942 2.95107 11.5383 2.95107C11.5234 2.95107 11.516 2.95107 11.5011 2.95107H11.2338C11.2189 3.48579 11.2041 4.18389 11.1892 4.97853C11.6942 5.62464 11.9838 5.70634 12.2215 5.65435C12.4443 5.60979 12.2215 5.10478 12.1547 4.9711C12.2438 5.12706 12.3478 5.26817 12.4666 5.40185C12.7117 5.67663 12.9419 5.6692 13.1647 5.6395C13.3875 5.60979 13.3206 5.43898 13.2686 5.21618C13.2167 4.99338 12.979 4.6072 12.979 4.6072C13.1201 4.80772 13.2761 5.00824 13.4395 5.1939C13.6623 5.43155 14.4495 5.6692 14.5534 5.43898C14.6203 5.29045 14.598 5.21618 14.4495 4.9414C14.3084 4.66661 13.6845 4.02793 13.6845 4.02793ZM10.8253 1.75539C10.9441 1.75539 11.063 1.71826 11.1595 1.65142C11.256 1.58458 11.3377 1.48803 11.3823 1.38406C11.4269 1.27266 11.4417 1.15384 11.4194 1.03501C11.3971 0.916186 11.3377 0.812213 11.256 0.723094C11.1743 0.641402 11.063 0.581989 10.9441 0.55971C10.8253 0.53743 10.7065 0.544856 10.5951 0.596843C10.4837 0.641402 10.3871 0.723095 10.3277 0.81964C10.2609 0.916186 10.2237 1.03501 10.2237 1.15384C10.2237 1.23553 10.2386 1.3098 10.2683 1.38406C10.298 1.45833 10.3426 1.52517 10.402 1.57715C10.4614 1.63656 10.5208 1.68112 10.5951 1.71083C10.6619 1.74054 10.7436 1.75539 10.8253 1.75539ZM12.8008 6.27076C12.8008 6.27076 12.7859 5.85487 12.1101 5.81031C11.4194 5.76575 11.3897 6.06281 11.4046 6.17421C11.4566 6.17421 11.5011 6.18906 11.5011 6.20392C11.5011 6.21877 11.464 6.23362 11.4194 6.23362C11.4566 6.34502 11.5605 6.4787 11.8576 6.62723C12.1027 6.74606 12.2215 6.73863 12.3626 6.71635C12.3626 6.71635 12.526 6.8129 12.526 6.96886C12.526 7.11739 12.2661 7.40703 11.0481 8.01601C11.1224 4.73345 11.1892 1.85194 11.1892 1.85194H11.2635C11.2932 1.85194 11.3229 1.83708 11.3452 1.8148C11.3674 1.79252 11.3823 1.76282 11.3823 1.73311V1.69598C11.3823 1.68112 11.3823 1.66627 11.3749 1.65142C11.3674 1.63656 11.36 1.62171 11.3452 1.61429C11.2783 1.68855 11.2041 1.74796 11.1149 1.79252C11.0258 1.83708 10.9293 1.85194 10.8327 1.85194C10.7362 1.85194 10.6396 1.82966 10.5505 1.79252C10.4614 1.75539 10.3797 1.68855 10.3203 1.61429C10.3054 1.62914 10.298 1.63656 10.2906 1.65142C10.2832 1.66627 10.2832 1.68112 10.2832 1.69598V1.73311C10.2832 1.76282 10.298 1.79252 10.3203 1.8148C10.3426 1.83708 10.3723 1.85194 10.402 1.85194H10.4763C10.4763 1.85194 10.5282 4.65176 10.5802 7.8749C10.6842 7.92689 10.7882 7.97887 10.907 8.03829C10.9218 8.04571 10.9441 8.05314 10.959 8.06057C11.2338 8.19424 11.464 8.30564 11.6571 8.40961C12.3106 8.15711 12.9493 7.86747 13.1424 7.45901C13.484 6.7015 12.8008 6.27076 12.8008 6.27076ZM11.8947 6.09995C11.8205 6.09995 11.7611 6.06281 11.7611 6.01825C11.7611 5.97369 11.8205 5.93656 11.8947 5.93656C11.969 5.93656 12.0284 5.97369 12.0284 6.01825C12.0284 6.06281 11.969 6.09995 11.8947 6.09995ZM10.7139 15.502C10.7733 15.4277 10.8253 15.3535 10.8847 15.2866C10.8921 14.8633 10.907 14.388 10.9144 13.8756C10.8402 13.8013 10.7585 13.7271 10.6693 13.6454C10.6396 13.6231 10.6174 13.5934 10.5876 13.5711C10.5505 13.534 10.5134 13.5043 10.4763 13.4745C10.2683 13.6676 9.85984 14.0984 9.85984 14.4697C9.85984 14.9079 10.2832 15.3535 10.6025 15.6728C10.6322 15.606 10.6693 15.554 10.7139 15.502ZM10.6693 13.7345C10.6842 14.3657 10.6916 14.945 10.699 15.4426C10.454 15.1158 10.194 14.7816 10.194 14.5514C10.194 14.336 10.3203 14.091 10.6693 13.7345ZM10.8402 8.13483C9.39197 7.43673 9.0949 7.11739 9.0949 6.96143C9.0949 6.80547 9.25829 6.70893 9.25829 6.70893C9.39939 6.73863 9.51822 6.73863 9.7633 6.61981C10.0604 6.4787 10.1643 6.3376 10.2015 6.2262C10.1569 6.2262 10.1198 6.21134 10.1198 6.19649C10.1198 6.18164 10.1643 6.16679 10.2163 6.16679V6.15936C10.2237 6.04796 10.1866 5.75832 9.50337 5.80288C8.82755 5.84744 8.81269 6.26333 8.81269 6.26333C8.81269 6.26333 8.12945 6.7015 8.48592 7.44416C8.79784 8.10512 10.2609 8.45417 11.1075 8.83293C11.9467 9.21169 11.8947 9.53846 11.8947 9.53846C11.8947 9.82067 11.3303 10.1177 10.8847 10.4296C10.4391 10.7416 9.49594 11.2837 9.49594 11.9224C9.49594 12.5091 10.0826 12.9621 10.6545 13.4671C11.2338 13.9721 11.4194 14.2766 11.4194 14.5588C11.4194 14.945 10.7807 15.4649 10.454 16.111C10.1272 16.7571 10.7733 17.7597 10.5728 17.2324C10.3649 16.7051 10.4762 16.3338 10.7436 15.9625C11.0704 15.5094 11.7685 15.0638 11.7685 14.4623C11.7685 13.9573 11.0332 13.3631 11.0332 13.3631C10.3797 12.7096 9.96381 12.3383 9.96381 12.0115C9.96381 11.6847 10.2757 11.3951 11.1521 10.8233C12.021 10.2588 12.5334 10.036 12.5334 9.48647C12.5334 9.00374 12.2883 8.83293 10.8402 8.13483ZM9.72616 5.94399C9.80043 5.94399 9.85984 5.98112 9.85984 6.02568C9.85984 6.07024 9.80043 6.10737 9.72616 6.10737C9.6519 6.10737 9.59249 6.07024 9.59249 6.02568C9.59249 5.98112 9.6519 5.94399 9.72616 5.94399Z" fill="#64758B"/>
</svg>
