<svg width="45" height="42" viewBox="0 0 45 42" fill="none" xmlns="http://www.w3.org/2000/svg">
<path d="M22.1265 37.6197C31.8322 37.6197 39.7003 29.7517 39.7003 20.046C39.7003 10.3402 31.8322 2.47217 22.1265 2.47217C12.4208 2.47217 4.55273 10.3402 4.55273 20.046C4.55273 29.7517 12.4208 37.6197 22.1265 37.6197Z" fill="#FFD21E"/>
<path d="M39.7 20.0459C39.7 10.3402 31.8319 2.4721 22.1262 2.4721C12.4205 2.4721 4.55245 10.3402 4.55245 20.0459C4.55245 29.7516 12.4205 37.6197 22.1262 37.6197C31.8319 37.6197 39.7 29.7516 39.7 20.0459ZM2.52954 20.0459C2.52954 9.22296 11.3033 0.449219 22.1262 0.449219C32.9492 0.449219 41.7229 9.22296 41.7229 20.0459C41.7229 30.8688 32.9492 39.6426 22.1262 39.6426C11.3033 39.6426 2.52954 30.8688 2.52954 20.0459Z" fill="#FF9D0B"/>
<path d="M27.835 15.2629C28.4795 15.4904 28.7359 16.8154 29.387 16.4692C30.62 15.8136 31.0881 14.2825 30.4325 13.0495C29.7769 11.8165 28.2458 11.3484 27.0128 12.004C25.7797 12.6596 25.3116 14.1907 25.9673 15.4237C26.2767 16.0057 27.2589 15.0594 27.835 15.2629Z" fill="#3A3B45"/>
<path d="M15.9215 15.2629C15.2771 15.4904 15.0207 16.8154 14.3696 16.4692C13.1365 15.8136 12.6684 14.2825 13.3241 13.0495C13.9797 11.8165 15.5108 11.3484 16.7438 12.004C17.9768 12.6596 18.4449 14.1907 17.7893 15.4237C17.4799 16.0057 16.4977 15.0594 15.9215 15.2629Z" fill="#3A3B45"/>
<path d="M21.9992 27.399C26.9696 27.399 28.5735 22.9675 28.5735 20.6918C28.5735 19.509 27.7785 19.8813 26.5051 20.5117C25.3283 21.0943 23.743 21.8973 21.9992 21.8973C18.3682 21.8973 15.4248 18.4161 15.4248 20.6918C15.4248 22.9675 17.0287 27.399 21.9992 27.399Z" fill="#3A3B45"/>
<mask id="mask0_954_668" style="mask-type:alpha" maskUnits="userSpaceOnUse" x="15" y="19" width="14" height="9">
<path d="M21.9992 27.399C26.9696 27.399 28.5735 22.9675 28.5735 20.6918C28.5735 19.509 27.7785 19.8813 26.5051 20.5117C25.3283 21.0943 23.743 21.8973 21.9992 21.8973C18.3682 21.8973 15.4248 18.4161 15.4248 20.6918C15.4248 22.9675 17.0287 27.399 21.9992 27.399Z" fill="white"/>
</mask>
<g mask="url(#mask0_954_668)">
<path d="M22.1255 32.5631C24.5478 32.5631 26.5116 30.5993 26.5116 28.177C26.5116 26.2902 25.3202 24.6817 23.6488 24.0627C23.5872 24.0399 23.5251 24.0184 23.4623 23.9983C23.0408 23.8636 22.5917 25.3122 22.1255 25.3122C21.6899 25.3122 21.2692 23.8544 20.872 23.9726C19.0604 24.5119 17.7394 26.1902 17.7394 28.177C17.7394 30.5993 19.7031 32.5631 22.1255 32.5631Z" fill="#F94040"/>
</g>
<path d="M34.01 17.6436C34.9178 17.6436 35.6536 16.9078 35.6536 16C35.6536 15.0923 34.9178 14.3564 34.01 14.3564C33.1023 14.3564 32.3665 15.0923 32.3665 16C32.3665 16.9078 33.1023 17.6436 34.01 17.6436Z" fill="#FF9D0B"/>
<path d="M10.4947 17.6436C11.4024 17.6436 12.1383 16.9078 12.1383 16C12.1383 15.0923 11.4024 14.3564 10.4947 14.3564C9.5869 14.3564 8.85107 15.0923 8.85107 16C8.85107 16.9078 9.5869 17.6436 10.4947 17.6436Z" fill="#FF9D0B"/>
<path d="M7.11142 23.2065C6.29265 23.2065 5.56088 23.5428 5.0506 24.1527C4.73503 24.5305 4.4053 25.1394 4.3785 26.0512C4.03512 25.9526 3.70488 25.8975 3.39639 25.8975C2.61253 25.8975 1.90452 26.1979 1.40385 26.7436C0.760576 27.444 0.474844 28.3047 0.599251 29.166C0.658421 29.5761 0.795471 29.9437 1.00029 30.2841C0.568402 30.6336 0.250304 31.1201 0.096565 31.7052C-0.0237965 32.1639 -0.147192 33.1192 0.497096 34.1033C0.456132 34.1675 0.417698 34.2343 0.381792 34.3026C-0.00559044 35.0379 -0.030371 35.8688 0.311496 36.6425C0.82986 37.8153 2.11793 38.7392 4.61922 39.731C6.17533 40.3479 7.59893 40.7424 7.61157 40.7459C9.66884 41.2795 11.5294 41.5505 13.1401 41.5505C16.1006 41.5505 18.2201 40.6438 19.4399 38.8556C21.4031 35.976 21.1224 33.3422 18.5822 30.8035C17.1763 29.3986 16.2417 27.3272 16.047 26.8725C15.6546 25.5263 14.6168 24.0299 12.8918 24.0299C12.7467 24.0299 12.5995 24.0415 12.4549 24.0642C11.6993 24.1831 11.0388 24.618 10.567 25.2724C10.0577 24.6392 9.56315 24.1356 9.11559 23.8513C8.44095 23.4235 7.76683 23.2065 7.11142 23.2065ZM7.11142 25.2294C7.36933 25.2294 7.6844 25.3392 8.03183 25.5597C9.11053 26.2439 11.1921 29.8219 11.9542 31.2136C12.2096 31.6799 12.646 31.8771 13.039 31.8771C13.8188 31.8771 14.4277 31.1019 13.1103 30.1167C11.1294 28.6344 11.8242 26.2115 12.7699 26.0623C12.8114 26.0558 12.8524 26.0527 12.8918 26.0527C13.7515 26.0527 14.1308 27.5345 14.1308 27.5345C14.1308 27.5345 15.2424 30.3261 17.152 32.2342C19.0616 34.1427 19.1602 35.6746 17.7685 37.7157C16.8192 39.1074 15.0022 39.5277 13.1401 39.5277C11.2088 39.5277 9.22887 39.0755 8.11932 38.7878C8.0647 38.7736 1.31687 36.8676 2.17154 35.2452C2.31516 34.9726 2.55184 34.8634 2.84971 34.8634C4.05332 34.8634 6.24259 36.6547 7.18373 36.6547C7.39411 36.6547 7.54229 36.5651 7.60298 36.3467C8.00401 34.9079 1.5055 34.3031 2.0532 32.219C2.14979 31.8503 2.41175 31.7006 2.77992 31.7011C4.37041 31.7011 7.93877 34.4983 8.68674 34.4983C8.74388 34.4983 8.78485 34.4816 8.8071 34.4462C9.18184 33.8413 8.97651 33.4191 6.33513 31.8205C3.69376 30.2214 1.83978 29.2595 2.89421 28.1115C3.01558 27.979 3.18753 27.9204 3.39639 27.9204C5.00003 27.9209 8.78889 31.3689 8.78889 31.3689C8.78889 31.3689 9.81146 32.4324 10.43 32.4324C10.5721 32.4324 10.6929 32.3763 10.7749 32.2377C11.2133 31.4983 6.70229 28.0797 6.44791 26.6692C6.27546 25.7134 6.56878 25.2294 7.11142 25.2294Z" fill="#FF9D0B"/>
<path d="M17.7687 37.7162C19.1604 35.6751 19.0618 34.1433 17.1522 32.2347C15.2426 30.3267 14.131 27.5351 14.131 27.5351C14.131 27.5351 13.7158 25.9137 12.7701 26.0629C11.8244 26.2121 11.1301 28.635 13.111 30.1173C15.0919 31.599 12.7165 32.6059 11.9544 31.2142C11.1923 29.8224 9.11123 26.2445 8.03203 25.5602C6.95332 24.876 6.19373 25.2593 6.44811 26.6698C6.70249 28.0802 11.214 31.4989 10.7751 32.2388C10.3361 32.9781 8.78909 31.3694 8.78909 31.3694C8.78909 31.3694 3.94833 26.9641 2.89439 28.1121C1.84046 29.2601 3.69395 30.222 6.33533 31.8211C8.97722 33.4196 9.18203 33.8419 8.80729 34.4468C8.43205 35.0516 2.60107 30.1355 2.05337 32.2196C1.50618 34.3036 8.00421 34.9085 7.60317 36.3473C7.20214 37.7865 3.02587 33.624 2.17171 35.2458C1.31704 36.8681 8.0649 38.7742 8.11951 38.7884C10.2992 39.3538 15.8348 40.5518 17.7687 37.7162Z" fill="#FFD21E"/>
<path d="M37.393 23.2065C38.2117 23.2065 38.9435 23.5428 39.4538 24.1527C39.7693 24.5305 40.0991 25.1394 40.1259 26.0512C40.4693 25.9526 40.7995 25.8975 41.108 25.8975C41.8919 25.8975 42.5999 26.1979 43.1005 26.7436C43.7438 27.444 44.0295 28.3047 43.9051 29.166C43.846 29.5761 43.7089 29.9437 43.5041 30.2841C43.936 30.6336 44.2541 31.1201 44.4078 31.7052C44.5282 32.1639 44.6516 33.1192 44.0073 34.1033C44.0482 34.1675 44.0867 34.2343 44.1226 34.3026C44.51 35.0379 44.5347 35.8688 44.1929 36.6425C43.6745 37.8153 42.3864 38.7392 39.8852 39.731C38.3291 40.3479 36.9054 40.7424 36.8928 40.7459C34.8355 41.2795 32.975 41.5505 31.3643 41.5505C28.4038 41.5505 26.2843 40.6438 25.0645 38.8556C23.1013 35.976 23.382 33.3422 25.9222 30.8035C27.3281 29.3986 28.2627 27.3272 28.4574 26.8725C28.8498 25.5263 29.8876 24.0299 31.6126 24.0299C31.7577 24.0299 31.9049 24.0415 32.0495 24.0642C32.8051 24.1831 33.4655 24.618 33.9374 25.2724C34.4466 24.6392 34.9412 24.1356 35.3888 23.8513C36.0634 23.4235 36.7375 23.2065 37.393 23.2065ZM37.393 25.2294C37.135 25.2294 36.82 25.3392 36.4726 25.5597C35.3938 26.2439 33.3123 29.8219 32.5502 31.2136C32.2948 31.6799 31.8584 31.8771 31.4654 31.8771C30.6856 31.8771 30.0767 31.1019 31.3941 30.1167C33.375 28.6344 32.6802 26.2115 31.7345 26.0623C31.693 26.0558 31.652 26.0527 31.6126 26.0527C30.7529 26.0527 30.3736 27.5345 30.3736 27.5345C30.3736 27.5345 29.262 30.3261 27.3524 32.2342C25.4428 34.1427 25.3442 35.6746 26.7359 37.7157C27.6852 39.1074 29.5022 39.5277 31.3643 39.5277C33.2956 39.5277 35.2755 39.0755 36.3851 38.7878C36.4397 38.7736 43.1875 36.8676 42.3328 35.2452C42.1892 34.9726 41.9525 34.8634 41.6547 34.8634C40.4511 34.8634 38.2618 36.6547 37.3206 36.6547C37.1103 36.6547 36.9621 36.5651 36.9014 36.3467C36.5004 34.9079 42.9989 34.3031 42.4512 32.219C42.3546 31.8503 42.0926 31.7006 41.7245 31.7011C40.134 31.7011 36.5656 34.4983 35.8176 34.4983C35.7605 34.4983 35.7195 34.4816 35.6973 34.4462C35.3225 33.8413 35.5279 33.4191 38.1692 31.8205C40.8106 30.2214 42.6646 29.2595 41.6102 28.1115C41.4888 27.979 41.3168 27.9204 41.108 27.9204C39.5043 27.9209 35.7155 31.3689 35.7155 31.3689C35.7155 31.3689 34.6929 32.4324 34.0744 32.4324C33.9323 32.4324 33.8114 32.3763 33.7295 32.2377C33.2911 31.4983 37.8021 28.0797 38.0565 26.6692C38.2289 25.7134 37.9356 25.2294 37.393 25.2294Z" fill="#FF9D0B"/>
<path d="M26.735 37.7162C25.3432 35.6751 25.4419 34.1433 27.3515 32.2347C29.2611 30.3267 30.3726 27.5351 30.3726 27.5351C30.3726 27.5351 30.7878 25.9137 31.7335 26.0629C32.6792 26.2121 33.3736 28.635 31.3927 30.1173C29.4118 31.599 31.7871 32.6059 32.5493 31.2142C33.3114 29.8224 35.3924 26.2445 36.4716 25.5602C37.5503 24.876 38.3099 25.2593 38.0555 26.6698C37.8012 28.0802 33.2896 31.4989 33.7286 32.2388C34.1676 32.9781 35.7146 31.3694 35.7146 31.3694C35.7146 31.3694 40.5553 26.9641 41.6092 28.1121C42.6632 29.2601 40.8097 30.222 38.1683 31.8211C35.5264 33.4196 35.3216 33.8419 35.6964 34.4468C36.0716 35.0516 41.9026 30.1355 42.4503 32.2196C42.9974 34.3036 36.4994 34.9085 36.9005 36.3473C37.3015 37.7865 41.4778 33.624 42.3319 35.2458C43.1866 36.8681 36.4388 38.7742 36.3841 38.7884C34.2045 39.3538 28.6689 40.5518 26.735 37.7162Z" fill="#FFD21E"/>
</svg>
