<svg width="83" height="34" viewBox="0 0 83 34" fill="none" xmlns="http://www.w3.org/2000/svg">
<g clip-path="url(#clip0_924_4893)">
<path d="M16.1389 31.0951V33.3846H0V31.0951H16.1389ZM41.3603 31.095C39.7414 32.573 37.6208 33.3905 35.4217 33.3844L18.4445 33.3618V31.095H41.3603ZM65.3571 31.095L64.552 33.3844L63.7541 31.095H65.3571ZM57.6389 31.0951V33.3846H46.1111V31.0951H57.6389ZM83 31.0951V33.3846H71.4722V31.0951H83ZM43.9716 26.7244C43.7738 27.5275 43.4615 28.2984 43.0441 29.0138H18.4445V26.7244H43.9716ZM66.9022 26.7244L66.0929 29.0139H63.0183L62.209 26.7244H66.9022ZM57.6389 26.7244V29.0138H46.1111V26.7244H57.6389ZM83 26.7244V29.0138H71.4722V26.7244H83ZM16.1389 26.7244V29.0138H0V26.7244H16.1389ZM11.5278 22.3536V24.6431H4.61109V22.3536H11.5278ZM29.9722 22.3536V24.6431H23.0556V22.3536H29.9722ZM43.9164 22.3536C44.1207 23.0999 44.2244 23.8697 44.2248 24.6431H36.4697V22.3536H43.9164ZM68.4475 22.3536L67.638 24.6431H61.4732L60.6637 22.3536H68.4475ZM57.6389 22.3536V24.6431H50.7222V22.3536H57.6389ZM78.3889 22.3536V24.6431H71.4722V22.3536H78.3889ZM11.5278 17.9829V20.2724H4.61109V17.9829H11.5278ZM57.6389 17.9829V20.2724H50.7222V17.9829H57.6389ZM78.3889 17.9829V20.2724H71.4722V17.9829H78.3889ZM41.1184 17.9828C41.8862 18.6315 42.5367 19.4058 43.0415 20.2722H23.0555V17.9828H41.1184ZM69.9926 17.9828L69.1833 20.2723H59.9278L59.1186 17.9828H69.9926ZM63.9074 13.6123L64.5556 15.4628L65.2035 13.6123H78.3888V15.9017H71.4723V13.798L70.7285 15.9017H58.3827L57.6388 13.7977V15.9017H50.7223V13.6123H63.9074ZM23.0556 13.6122L43.0417 13.6123C42.5368 14.4788 41.8863 15.2531 41.1184 15.9017H23.0556V13.6122ZM11.5278 13.6122V15.9016H4.61109V13.6122H11.5278ZM11.5278 9.24146V11.5309H4.61109V9.24146H11.5278ZM29.9722 9.24146V11.5309H23.0556V9.24146H29.9722ZM44.2248 9.24148C44.2244 10.0148 44.1207 10.7847 43.9164 11.5309H36.4697V9.24148H44.2248ZM62.3768 9.24146L63.1786 11.5309H50.7223V9.24146H62.3768ZM78.3888 9.24146V11.5309H65.9326L66.7343 9.24146H78.3888ZM16.1389 4.87072V7.16016H0V4.87072H16.1389ZM43.0441 4.87072C43.4615 5.58611 43.7738 6.35702 43.9716 7.1601H18.4445V4.87072H43.0441ZM83 4.87065V7.1601H67.4632L68.2649 4.87065H83ZM60.8463 4.87065L61.648 7.1601H46.1112V4.87065H60.8463ZM16.1389 0.500016V2.78945H0V0.500016H16.1389ZM35.4217 0.500008C37.6202 0.497067 39.7397 1.31415 41.3602 2.78942H18.4445V0.500008H35.4217ZM83 0.500093V2.78955H68.9938L69.7955 0.500093H83ZM59.3157 0.500093L60.1174 2.78955H46.1112V0.500093H59.3157Z" fill="black"/>
</g>
<defs>
<clipPath id="clip0_924_4893">
<rect width="83" height="33" fill="white" transform="translate(0 0.5)"/>
</clipPath>
</defs>
</svg>
