<svg width="27" height="28" viewBox="0 0 27 28" fill="none" xmlns="http://www.w3.org/2000/svg">
<g filter="url(#filter0_dd_1_13202)">
<rect x="1" y="1" width="25" height="25" rx="12.5" fill="#2E90FA"/>
<rect x="1.13744" y="1.13744" width="24.7251" height="24.7251" rx="12.3626" stroke="#EAECF0" stroke-width="0.274884"/>
<mask id="mask0_1_13202" style="mask-type:alpha" maskUnits="userSpaceOnUse" x="8" y="8" width="11" height="11">
<rect x="8.28271" y="8.28296" width="10.4342" height="10.4342" fill="white"/>
</mask>
<g mask="url(#mask0_1_13202)">
<path d="M13.5001 13.5001C13.0218 13.5001 12.6124 13.3298 12.2719 12.9892C11.9313 12.6486 11.761 12.2392 11.761 11.761C11.761 11.2828 11.9313 10.8734 12.2719 10.5328C12.6124 10.1923 13.0218 10.022 13.5001 10.022C13.9783 10.022 14.3877 10.1923 14.7283 10.5328C15.0688 10.8734 15.2391 11.2828 15.2391 11.761C15.2391 12.2392 15.0688 12.6486 14.7283 12.9892C14.3877 13.3298 13.9783 13.5001 13.5001 13.5001ZM10.022 16.9781V15.7608C10.022 15.5144 10.0854 15.288 10.2122 15.0815C10.339 14.875 10.5075 14.7174 10.7176 14.6087C11.1668 14.3841 11.6233 14.2156 12.0871 14.1033C12.5508 13.991 13.0218 13.9348 13.5001 13.9348C13.9783 13.9348 14.4493 13.991 14.913 14.1033C15.3768 14.2156 15.8333 14.3841 16.2825 14.6087C16.4927 14.7174 16.6611 14.875 16.7879 15.0815C16.9147 15.288 16.9781 15.5144 16.9781 15.7608V16.9781H10.022ZM10.8915 16.1086H16.1086V15.7608C16.1086 15.6811 16.0887 15.6086 16.0488 15.5434C16.009 15.4782 15.9564 15.4275 15.8912 15.3913C15.5 15.1956 15.105 15.0489 14.7065 14.9511C14.308 14.8532 13.9058 14.8043 13.5001 14.8043C13.0943 14.8043 12.6921 14.8532 12.2936 14.9511C11.8951 15.0489 11.5002 15.1956 11.1089 15.3913C11.0437 15.4275 10.9911 15.4782 10.9513 15.5434C10.9114 15.6086 10.8915 15.6811 10.8915 15.7608V16.1086ZM13.5001 12.6305C13.7392 12.6305 13.9439 12.5454 14.1142 12.3751C14.2844 12.2048 14.3696 12.0001 14.3696 11.761C14.3696 11.5219 14.2844 11.3172 14.1142 11.1469C13.9439 10.9766 13.7392 10.8915 13.5001 10.8915C13.2609 10.8915 13.0562 10.9766 12.886 11.1469C12.7157 11.3172 12.6305 11.5219 12.6305 11.761C12.6305 12.0001 12.7157 12.2048 12.886 12.3751C13.0562 12.5454 13.2609 12.6305 13.5001 12.6305Z" fill="white"/>
</g>
</g>
<defs>
<filter id="filter0_dd_1_13202" x="0.175349" y="0.450232" width="26.6493" height="26.6493" filterUnits="userSpaceOnUse" color-interpolation-filters="sRGB">
<feFlood flood-opacity="0" result="BackgroundImageFix"/>
<feColorMatrix in="SourceAlpha" type="matrix" values="0 0 0 0 0 0 0 0 0 0 0 0 0 0 0 0 0 0 127 0" result="hardAlpha"/>
<feOffset dy="0.274884"/>
<feGaussianBlur stdDeviation="0.274884"/>
<feColorMatrix type="matrix" values="0 0 0 0 0.0627451 0 0 0 0 0.0941176 0 0 0 0 0.156863 0 0 0 0.06 0"/>
<feBlend mode="normal" in2="BackgroundImageFix" result="effect1_dropShadow_1_13202"/>
<feColorMatrix in="SourceAlpha" type="matrix" values="0 0 0 0 0 0 0 0 0 0 0 0 0 0 0 0 0 0 127 0" result="hardAlpha"/>
<feOffset dy="0.274884"/>
<feGaussianBlur stdDeviation="0.412326"/>
<feColorMatrix type="matrix" values="0 0 0 0 0.0627451 0 0 0 0 0.0941176 0 0 0 0 0.156863 0 0 0 0.1 0"/>
<feBlend mode="normal" in2="effect1_dropShadow_1_13202" result="effect2_dropShadow_1_13202"/>
<feBlend mode="normal" in="SourceGraphic" in2="effect2_dropShadow_1_13202" result="shape"/>
</filter>
</defs>
</svg>
