<svg width="20" height="20" viewBox="0 0 20 20" fill="none" xmlns="http://www.w3.org/2000/svg">
<circle cx="10" cy="10" r="10" fill="#64758B"/>
<path d="M3.79256 6.75293C4.7063 6.75293 5.62003 6.75612 6.53376 6.75612C6.77338 6.75612 6.75421 6.72418 6.7574 6.97657C6.7574 7.23216 6.75421 7.48775 6.7606 7.74014C6.76379 7.83918 6.72545 7.87433 6.62961 7.87113C6.49542 7.86794 6.36443 7.86794 6.23025 7.87113C6.08648 7.87433 6.07689 7.88072 6.07689 8.02768C6.07689 8.58998 6.07689 9.15228 6.07689 9.71777C6.07689 9.86154 6.07689 10.0053 6.07689 10.1491C6.07689 10.312 6.08328 10.3152 6.24942 10.3152C6.37721 10.3152 6.50501 10.3184 6.6328 10.3152C6.71906 10.312 6.7574 10.344 6.7574 10.4334C6.75421 10.721 6.75421 11.0085 6.7574 11.2928C6.7574 11.3727 6.72865 11.411 6.64558 11.4079C6.60405 11.4047 6.55932 11.4079 6.51779 11.4079C5.61044 11.4079 4.7031 11.4047 3.79256 11.4047C3.79256 11.0436 3.79256 10.6826 3.79256 10.3216C3.98106 10.3152 4.17275 10.3024 4.36125 10.3024C4.4571 10.3024 4.49224 10.2673 4.49224 10.1714C4.48904 9.4494 4.48904 8.72736 4.49224 8.00532C4.49224 7.89669 4.44112 7.86794 4.34527 7.87113C4.15997 7.88072 3.97467 7.8903 3.78937 7.89669C3.79256 7.5165 3.79256 7.13631 3.79256 6.75293Z" fill="white"/>
<path d="M10.6454 2.9561C10.6965 2.96888 10.7445 2.99124 10.7956 2.99763C12.0895 3.12223 13.2748 3.54715 14.3387 4.29794C15.0479 4.79954 15.6486 5.40656 16.1438 6.12221C16.1629 6.14777 16.1789 6.17333 16.1949 6.20208C16.1981 6.20847 16.1981 6.22125 16.1981 6.23084C16.0384 6.28515 15.9776 6.27237 15.8882 6.14458C15.5208 5.6334 15.0927 5.17973 14.6007 4.78676C14.5112 4.71327 14.4441 4.71008 14.3483 4.77398C14.2045 4.87302 14.0479 4.95289 13.8946 5.03915C13.7476 5.12222 13.7444 5.15417 13.8467 5.29155C14.0416 5.55353 14.2364 5.8187 14.4313 6.08387C14.4665 6.1286 14.492 6.17972 14.524 6.23084C14.3547 6.29793 14.3131 6.28515 14.2109 6.15416C14.0064 5.88899 13.7987 5.62701 13.5943 5.36503C13.5304 5.28196 13.4601 5.26599 13.3579 5.30433C13.0192 5.43212 12.6805 5.55353 12.3387 5.67174C12.262 5.69729 12.246 5.72924 12.2684 5.79634C12.2972 5.8826 12.3323 5.96566 12.3643 6.04873C12.3898 6.11263 12.4154 6.17333 12.4409 6.23723C12.2365 6.29154 12.2173 6.28196 12.1342 6.11263C12.0991 6.04234 12.0575 5.97205 12.0288 5.89857C11.9904 5.80273 11.9297 5.77717 11.8275 5.79634C11.5208 5.85065 11.2109 5.90177 10.9042 5.94649C10.7381 5.97205 10.5687 5.98803 10.3994 5.99122C10.294 5.99442 10.2684 6.04234 10.262 6.13819C10.2556 6.2564 10.2269 6.27557 10.1215 6.26598C10.0384 6.25959 10.0224 6.21167 10.016 6.13819C10.0096 5.99442 9.99685 5.98164 9.85947 5.97525C9.37705 5.95288 8.90101 5.90496 8.43137 5.79953C8.33232 5.77717 8.26843 5.80273 8.23009 5.89857C8.20453 5.96247 8.17258 6.02317 8.14383 6.08707C8.05437 6.28515 8.05437 6.28515 7.81476 6.25959C7.87226 6.12541 7.93297 5.99761 7.98089 5.86343C8.0352 5.71646 8.02881 5.71646 7.88185 5.66535C7.56556 5.55353 7.24926 5.4449 6.93936 5.32349C6.83074 5.28196 6.76045 5.29474 6.69336 5.3842C6.49847 5.63659 6.30039 5.88579 6.1087 6.13819C6.00007 6.28196 5.99368 6.28835 5.78601 6.2532C5.81796 6.19569 5.84352 6.13499 5.87867 6.08707C6.07036 5.8187 6.26205 5.55353 6.46013 5.28835C6.55917 5.15736 6.55917 5.15097 6.40901 5.0711C6.24608 4.98164 6.07994 4.89858 5.92659 4.79315C5.81796 4.71966 5.74129 4.73883 5.65822 4.81551C5.39624 5.06471 5.12787 5.30433 4.87867 5.56311C4.70934 5.73883 4.56238 5.93372 4.41861 6.1318C4.33554 6.24681 4.24289 6.29154 4.08954 6.24362C4.1119 6.20208 4.12788 6.16055 4.15344 6.12221C4.5496 5.54394 5.01286 5.03276 5.55598 4.59187C6.61349 3.73564 7.82115 3.22766 9.16299 3.02638C9.30676 3.00402 9.45372 2.97527 9.59749 2.94971C9.94254 2.9561 10.294 2.9561 10.6454 2.9561ZM10.016 4.95608C10.0128 4.95608 10.0128 4.95608 10.0096 4.95608C10.0096 4.72925 10.0096 4.49922 10.0096 4.27238C10.0096 4.18293 9.97449 4.1382 9.87864 4.135C9.76363 4.13181 9.64542 4.11903 9.5336 4.09347C9.42178 4.06791 9.35149 4.09986 9.29079 4.18932C9.02561 4.58548 8.75724 4.97845 8.49846 5.37781C8.40581 5.52158 8.43137 5.56631 8.60389 5.59506C8.82753 5.6334 9.05437 5.67174 9.27801 5.6941C9.48248 5.71327 9.68695 5.71327 9.89142 5.72285C9.99366 5.72924 10.0128 5.68132 10.0128 5.58867C10.0128 5.381 10.016 5.16695 10.016 4.95608ZM10.5847 5.71646C10.5847 5.72285 10.5847 5.72605 10.5847 5.73244C10.6646 5.72605 10.7413 5.71966 10.8211 5.71007C11.1183 5.66535 11.4154 5.61423 11.7125 5.5695C11.8115 5.55353 11.8275 5.51519 11.7764 5.43212C11.6933 5.29474 11.623 5.15097 11.5368 5.01998C11.3483 4.73883 11.1502 4.46088 10.9553 4.18612C10.9042 4.11583 10.8499 4.06472 10.7445 4.09347C10.6326 4.12542 10.5144 4.13181 10.3994 4.14139C10.3004 4.15098 10.2588 4.1989 10.262 4.29794C10.2684 4.45769 10.2844 4.61423 10.2812 4.77398C10.2812 5.02957 10.262 5.28196 10.2684 5.53436C10.2716 5.74841 10.2876 5.75161 10.4921 5.72924C10.524 5.72285 10.5528 5.71966 10.5847 5.71646ZM11.5655 3.79635C11.4473 3.84747 11.3259 3.89858 11.2109 3.95929C11.1917 3.97207 11.1853 4.04874 11.2013 4.08069C11.2397 4.15417 11.3004 4.21807 11.3451 4.29155C11.5751 4.65257 11.8051 5.01679 12.0352 5.381C12.0671 5.43212 12.0863 5.48963 12.1662 5.46087C12.5016 5.34586 12.8403 5.23723 13.1726 5.11583C13.2684 5.08068 13.2748 5.03276 13.2013 4.96247C13.0927 4.85385 12.9777 4.75161 12.8626 4.64938C12.5304 4.35864 12.1694 4.10625 11.7828 3.89219C11.7157 3.85705 11.6454 3.83149 11.5655 3.79635ZM8.70932 3.80913C8.66779 3.8251 8.61986 3.83469 8.58152 3.85705C8.04479 4.15417 7.55917 4.52478 7.11508 4.94331C7.00006 5.05193 7.00965 5.09985 7.15661 5.15417C7.43457 5.2564 7.71891 5.34905 8.00006 5.4417C8.163 5.49602 8.16619 5.48643 8.25245 5.34905C8.50804 4.9465 8.76683 4.54714 9.02561 4.14459C9.04478 4.11264 9.07034 4.08069 9.07353 4.04555C9.07673 4.01679 9.06076 3.96568 9.03839 3.95609C8.93616 3.90178 8.82753 3.86024 8.70932 3.80913ZM10.1374 3.91456C10.2141 3.90817 10.3068 3.89858 10.4026 3.889C10.8052 3.85066 11.1853 3.74523 11.5304 3.53756C11.5783 3.50881 11.671 3.48964 11.6422 3.40977C11.6262 3.37143 11.5528 3.34268 11.5016 3.33629C11.2045 3.29475 10.9074 3.25322 10.6071 3.22766C9.99685 3.17015 9.38983 3.21169 8.78919 3.3299C8.72529 3.34268 8.62945 3.36504 8.61347 3.40657C8.58152 3.49603 8.69015 3.52159 8.74766 3.55673C9.16619 3.81232 9.63264 3.89219 10.1374 3.91456ZM8.40261 3.65897C8.37386 3.61743 8.35788 3.58868 8.33552 3.56632C8.23967 3.46728 8.12466 3.48006 8.00964 3.52159C7.45054 3.71967 6.90422 3.9529 6.39943 4.26919C6.30678 4.32989 6.21093 4.3874 6.12467 4.45769C6.03202 4.53436 6.03521 4.5727 6.13745 4.6334C6.29719 4.72925 6.46013 4.81871 6.61987 4.91136C6.70614 4.96247 6.77003 4.94011 6.84352 4.87302C7.03201 4.6973 7.22371 4.51839 7.42818 4.36184C7.70613 4.15098 7.99686 3.95609 8.28121 3.75481C8.32594 3.72926 8.36108 3.69411 8.40261 3.65897ZM12.0927 3.48006C12.0192 3.49283 11.9425 3.52478 11.9074 3.59827C11.8659 3.68453 11.9489 3.71648 12.0064 3.75162C12.0863 3.80274 12.1694 3.85066 12.2492 3.90178C12.671 4.17973 13.0639 4.48963 13.4186 4.85065C13.4984 4.93372 13.5687 4.9497 13.6678 4.88899C13.8147 4.79634 13.9713 4.71647 14.1214 4.62382C14.2396 4.55353 14.2428 4.51839 14.1342 4.44491C13.639 4.10625 13.115 3.81871 12.5432 3.62063C12.3962 3.56951 12.2492 3.52798 12.0927 3.48006Z" fill="white"/>
<path d="M14.0482 6.70947C14.4827 6.71267 14.9012 6.79254 15.3006 6.97145C15.8437 7.21426 16.2239 7.59445 16.39 8.17911C16.5945 8.89796 16.5753 9.60402 16.2942 10.2973C16.1312 10.7063 15.8533 11.013 15.4571 11.1983C14.5849 11.604 13.6999 11.6392 12.8054 11.2622C12.1281 10.9746 11.7447 10.4507 11.6137 9.73821C11.521 9.243 11.5434 8.74141 11.6712 8.25579C11.8341 7.63918 12.2047 7.19509 12.8054 6.95228C13.2079 6.78615 13.6201 6.70947 14.0482 6.70947ZM14.8661 9.05131C14.8405 8.83406 14.8149 8.57528 14.7734 8.31969C14.7351 8.08646 14.5817 7.94908 14.3581 7.88518C14.1376 7.82129 13.9172 7.83726 13.6999 7.90435C13.4891 7.97145 13.3549 8.11522 13.3197 8.33566C13.291 8.50179 13.275 8.67112 13.2654 8.84045C13.2431 9.21744 13.2431 9.59444 13.3517 9.96185C13.406 10.1472 13.5274 10.2622 13.7031 10.3197C13.9204 10.39 14.1376 10.39 14.3613 10.3293C14.5945 10.2654 14.751 10.1248 14.783 9.88517C14.8245 9.62639 14.8405 9.36121 14.8661 9.05131Z" fill="white"/>
<path d="M7.05441 10.5632C7.05441 10.3299 7.05761 10.0967 7.05122 9.86348C7.04802 9.75805 7.08636 9.7229 7.19179 9.7261C7.41543 9.73249 7.63908 9.72929 7.85952 9.7261C7.9362 9.7261 7.98412 9.75166 8.02885 9.81875C8.33236 10.2564 8.77325 10.429 9.28443 10.4481C9.43779 10.4545 9.59114 10.4322 9.74449 10.4194C9.79561 10.413 9.84993 10.397 9.89465 10.3715C10.032 10.3044 10.0416 10.183 9.91382 10.1031C9.84354 10.0584 9.76047 10.0296 9.6806 10.0041C9.21415 9.86028 8.7477 9.71651 8.27805 9.57913C7.94578 9.48329 7.65186 9.32674 7.39627 9.08712C6.79883 8.52483 6.91384 7.34592 7.71575 6.95295C7.9969 6.81557 8.29083 6.71973 8.60073 6.71973C8.8691 6.71973 9.14066 6.74529 9.40903 6.77404C9.67101 6.80279 9.90743 6.91142 10.1343 7.0456C10.2653 7.12228 10.2876 7.1127 10.2908 6.96254C10.294 6.8603 10.3355 6.83794 10.425 6.83794C10.6518 6.84113 10.8819 6.84113 11.1087 6.83794C11.2109 6.83474 11.2525 6.87308 11.2525 6.97532C11.2493 7.40982 11.2493 7.84752 11.2525 8.28202C11.2525 8.36828 11.2205 8.40662 11.1311 8.40662C10.8915 8.40342 10.6518 8.40981 10.4154 8.40342C10.3611 8.40023 10.294 8.36189 10.2557 8.32036C9.83395 7.83474 9.28124 7.71333 8.67421 7.73889C8.65185 7.73889 8.63268 7.74528 8.61351 7.75167C8.51766 7.78362 8.42821 7.82835 8.41862 7.93697C8.40904 8.04879 8.49211 8.11269 8.58476 8.14464C8.84354 8.22771 9.10233 8.30119 9.36111 8.37786C9.66143 8.46732 9.96494 8.54719 10.2621 8.64304C10.7189 8.78681 11.0736 9.06476 11.2812 9.49607C11.5847 10.1255 11.3579 11.0679 10.4474 11.3747C9.71255 11.6239 9.00329 11.5312 8.31319 11.2117C8.28763 11.2021 8.26527 11.1862 8.24291 11.1734C8.07358 11.0839 8.0608 11.0839 8.0576 11.2788C8.05441 11.3778 8.01927 11.4098 7.92661 11.4066C7.67741 11.4034 7.42821 11.4034 7.17901 11.4066C7.08317 11.4098 7.04802 11.3747 7.04802 11.2756C7.05761 11.0424 7.05441 10.8028 7.05441 10.5632Z" fill="white"/>
<path d="M5.7862 14.0981C5.95553 14.0502 6.04499 14.1045 6.12806 14.2259C6.31336 14.4911 6.52102 14.7403 6.71911 14.9927C6.77022 15.0598 6.82454 15.0949 6.92358 15.0566C7.26543 14.9256 7.61048 14.8042 7.95552 14.6828C8.09929 14.6316 8.10248 14.6221 8.03859 14.4783C7.98427 14.3537 7.92677 14.2323 7.86926 14.1045C8.08332 14.0598 8.0929 14.0598 8.17277 14.2131C8.21431 14.293 8.25584 14.3729 8.29418 14.4559C8.32932 14.5358 8.38363 14.5614 8.46989 14.5486C8.79897 14.4975 9.12804 14.4495 9.45711 14.4048C9.61366 14.3824 9.7734 14.3793 9.92995 14.3601C10.0609 14.3441 10.0705 14.3313 10.0609 14.2035C10.0546 14.0693 10.0801 14.047 10.2079 14.0598C10.2686 14.0662 10.291 14.0949 10.2942 14.1524C10.2942 14.1844 10.2974 14.2163 10.2974 14.2483C10.291 14.3409 10.3453 14.3665 10.4252 14.3697C10.9076 14.3761 11.3804 14.4559 11.8533 14.5422C12.0226 14.5741 12.0226 14.5773 12.0961 14.4272C12.144 14.3313 12.1919 14.2387 12.2398 14.1428C12.2686 14.0821 12.3101 14.0566 12.3772 14.0598C12.4858 14.063 12.505 14.0789 12.4667 14.1812C12.4315 14.2802 12.3836 14.3761 12.3453 14.4751C12.2814 14.6316 12.2846 14.6348 12.4379 14.6892C12.7574 14.801 13.0801 14.9128 13.3964 15.0342C13.505 15.0757 13.5753 15.0566 13.6424 14.9671C13.8341 14.7115 14.0322 14.4655 14.2239 14.2099C14.3357 14.0598 14.3421 14.0502 14.5529 14.0789C14.5401 14.1141 14.5306 14.1492 14.5114 14.178C14.3069 14.4623 14.1024 14.7435 13.8948 15.0278C13.8756 15.0534 13.8532 15.0757 13.8341 15.1013C13.7862 15.162 13.7862 15.2163 13.8596 15.2578C14.0577 15.3697 14.2558 15.4847 14.4539 15.5965C14.5401 15.6444 14.604 15.6061 14.6679 15.5518C15.0737 15.2227 15.4283 14.8425 15.7478 14.4304C15.8085 14.3505 15.8692 14.2706 15.9299 14.1908C16.0353 14.0502 16.0353 14.0502 16.2398 14.1045C16.1663 14.2195 16.0992 14.3281 16.0226 14.4336C15.013 15.801 13.6935 16.7211 12.0481 17.1652C11.5753 17.293 11.0961 17.3633 10.6073 17.3952C9.32292 17.4815 8.10887 17.2163 6.95872 16.6572C6.10569 16.2419 5.36129 15.6732 4.73829 14.9543C4.53062 14.7147 4.34212 14.4559 4.15043 14.2035C4.12487 14.1716 4.11848 14.1301 4.10251 14.0917C4.14085 14.0885 4.18238 14.0885 4.21752 14.0789C4.31976 14.047 4.36129 14.1141 4.40602 14.1812C4.77663 14.6955 5.19515 15.1652 5.69355 15.5614C5.7862 15.6348 5.85969 15.654 5.96192 15.5869C6.11208 15.4879 6.27182 15.4048 6.42837 15.3122C6.56575 15.2291 6.56895 15.1939 6.4731 15.063C6.27502 14.801 6.08013 14.5358 5.88525 14.2706C5.84691 14.2195 5.82135 14.162 5.7862 14.0981ZM10.4603 14.5933C10.3197 14.6125 10.2974 14.6285 10.2974 14.785C10.2974 15.2195 10.3069 15.654 10.3101 16.0885C10.3101 16.1716 10.3421 16.2163 10.4284 16.2259C10.553 16.2419 10.6775 16.2578 10.8021 16.2802C10.9044 16.2994 10.9747 16.2674 11.0322 16.1812C11.1983 15.9352 11.3772 15.6987 11.5402 15.4527C11.6424 15.2994 11.7319 15.1364 11.8213 14.9735C11.9044 14.8265 11.8948 14.8074 11.7255 14.7626C11.6999 14.7562 11.6743 14.7499 11.6488 14.7467C11.2558 14.6987 10.8565 14.6476 10.4603 14.5933ZM10.0673 15.4655C10.0641 15.4655 10.0577 15.4655 10.0546 15.4655C10.0546 15.2259 10.0609 14.9895 10.0514 14.7499C10.0482 14.6125 10.0386 14.6125 9.89481 14.6189C9.83091 14.6221 9.76701 14.638 9.70631 14.638C9.32932 14.6285 8.96191 14.7051 8.59449 14.7786C8.49865 14.7978 8.48906 14.8489 8.5306 14.9288C8.58172 15.0214 8.62964 15.1173 8.68715 15.2067C8.91079 15.539 9.14082 15.8713 9.36765 16.2035C9.40919 16.2642 9.4603 16.2994 9.54018 16.2866C9.67117 16.2642 9.79896 16.2419 9.92995 16.2291C10.0322 16.2195 10.0641 16.1716 10.0641 16.0757C10.0641 15.8713 10.0673 15.67 10.0673 15.4655ZM9.1536 16.3505C9.13443 16.3185 9.12484 16.293 9.10887 16.2706C8.83091 15.8361 8.55296 15.4048 8.2782 14.9703C8.23028 14.8968 8.17597 14.8649 8.0929 14.8968C7.7798 15.0086 7.46351 15.1173 7.15041 15.2355C7.04179 15.277 7.0354 15.3313 7.11847 15.4144C7.2207 15.5166 7.32933 15.6093 7.43795 15.7019C7.79578 16.0118 8.17597 16.2898 8.5913 16.5166C8.63922 16.5422 8.70632 16.5677 8.75424 16.5518C8.86925 16.5166 8.98107 16.4623 9.09289 16.4112C9.11845 16.4016 9.13443 16.3697 9.1536 16.3505ZM11.6264 16.5582C11.6775 16.5358 11.7287 16.5198 11.7734 16.4911C11.9683 16.3729 12.1696 16.2642 12.3517 16.1268C12.6456 15.9032 12.9267 15.6604 13.2047 15.4176C13.3293 15.3058 13.3165 15.2546 13.16 15.1971C12.866 15.0917 12.5689 15.0023 12.2718 14.9032C12.1855 14.8745 12.144 14.9032 12.0961 14.9799C11.8309 15.4016 11.5593 15.8169 11.291 16.2355C11.2718 16.2674 11.2494 16.2994 11.243 16.3345C11.2398 16.3601 11.2526 16.4048 11.2718 16.4112C11.3836 16.4655 11.5018 16.5102 11.6264 16.5582ZM10.8469 17.13C10.8469 17.1364 10.8469 17.1396 10.8501 17.146C11.1057 17.1045 11.3613 17.0661 11.6168 17.0214C11.6488 17.015 11.6999 16.9831 11.6999 16.9639C11.6999 16.9288 11.6775 16.8808 11.6456 16.8617C11.5721 16.8105 11.4922 16.7658 11.4124 16.7275C10.9779 16.5102 10.5146 16.4495 10.0354 16.4687C9.57851 16.4879 9.14401 16.6029 8.75424 16.8489C8.7159 16.8744 8.69354 16.9224 8.66159 16.9607C8.69993 16.9831 8.73826 17.015 8.7798 17.0214C9.31015 17.13 9.84688 17.1812 10.39 17.1684C10.5402 17.1652 10.6935 17.1428 10.8469 17.13ZM12.1216 16.8872C12.1696 16.8744 12.1983 16.8712 12.2207 16.8617C12.4411 16.785 12.6648 16.7179 12.882 16.6316C13.3453 16.4463 13.783 16.2099 14.1887 15.916C14.3069 15.8297 14.3005 15.7786 14.1791 15.7083C14.0449 15.6316 13.9108 15.5582 13.7766 15.4815C13.5977 15.3824 13.5657 15.3856 13.4156 15.5294C13.0098 15.9288 12.5689 16.2834 12.0865 16.5869C12.0513 16.6093 12.0066 16.6284 11.9843 16.6604C11.9651 16.6923 11.9491 16.7594 11.9683 16.7786C12.013 16.8297 12.0769 16.8585 12.1216 16.8872ZM8.24945 16.8872C8.29418 16.8521 8.37085 16.8201 8.40919 16.7594C8.45712 16.6828 8.37085 16.654 8.31654 16.6221C7.79258 16.3058 7.31335 15.932 6.87885 15.4975C6.80856 15.4272 6.74147 15.408 6.65201 15.4591C6.49227 15.5518 6.32614 15.6412 6.16959 15.7339C6.08333 15.785 6.08333 15.8393 6.15361 15.9096C6.17917 15.9352 6.21432 15.9543 6.24307 15.9735C6.81176 16.3537 7.41878 16.6476 8.07373 16.8457C8.12485 16.8585 8.17277 16.8681 8.24945 16.8872Z" fill="white"/>
<path d="M9.59756 12.7C9.60395 12.3773 9.67105 12.0802 9.96178 11.9076C10.4186 11.6361 11.211 11.7159 11.3228 12.4955C11.3547 12.7095 11.342 12.93 11.2557 13.1345C11.1567 13.3709 10.9746 13.521 10.7285 13.5754C10.4857 13.6265 10.2429 13.6201 10.0161 13.5083C9.7637 13.3837 9.65827 13.16 9.61354 12.898C9.59756 12.831 9.60076 12.7607 9.59756 12.7ZM10.0768 12.6904C10.0928 12.8054 10.0992 12.9204 10.1311 13.0322C10.1854 13.2175 10.3004 13.2814 10.5241 13.2718C10.6615 13.2655 10.7669 13.1792 10.8084 13.0163C10.8659 12.799 10.8691 12.5786 10.8084 12.3613C10.7605 12.192 10.6391 12.0993 10.473 12.0961C10.31 12.0929 10.1758 12.1792 10.1279 12.3453C10.0992 12.454 10.0928 12.5722 10.0768 12.6904Z" fill="white"/>
<path d="M11.5082 12.6713C11.5082 12.4764 11.5498 12.2911 11.6552 12.1249C11.8149 11.8757 12.0546 11.7703 12.3421 11.7799C12.4763 11.7831 12.6201 11.7895 12.7447 11.8342C13.0737 11.9492 13.2111 12.2208 13.2399 12.5467C13.2558 12.7 13.2335 12.863 13.2015 13.0163C13.1408 13.3134 12.9459 13.5115 12.652 13.5658C12.4699 13.601 12.2686 13.601 12.0897 13.5594C11.7511 13.4828 11.5562 13.2272 11.5242 12.8789C11.5146 12.8086 11.5114 12.7415 11.5082 12.6713ZM12.7734 12.7096C12.7574 12.5882 12.751 12.4828 12.7255 12.3805C12.6776 12.1888 12.5562 12.093 12.3772 12.093C12.2015 12.093 12.0737 12.192 12.029 12.3805C11.9811 12.5818 11.9843 12.7895 12.029 12.9907C12.0354 13.0227 12.0482 13.0515 12.061 13.0802C12.1344 13.2527 12.2846 13.2751 12.4443 13.2655C12.5849 13.2559 12.6712 13.1729 12.7095 13.0483C12.7447 12.9364 12.7542 12.815 12.7734 12.7096Z" fill="white"/>
<path d="M6.49218 13.2711C6.54329 13.2743 6.59441 13.2807 6.64234 13.2807C6.83722 13.2807 7.0353 13.2839 7.23019 13.2807C7.32923 13.2775 7.35799 13.3254 7.35799 13.418C7.35479 13.5426 7.34201 13.5714 7.23339 13.5746C6.7893 13.5778 6.34202 13.5778 5.89793 13.5746C5.85959 13.5746 5.78931 13.5426 5.78611 13.5203C5.77653 13.45 5.78611 13.3733 5.80847 13.3062C5.82125 13.2679 5.87557 13.2423 5.91071 13.2104C6.16311 12.9899 6.4155 12.7759 6.6647 12.5522C6.75416 12.4724 6.8532 12.3733 6.79888 12.2391C6.74138 12.0954 6.59761 12.0922 6.47301 12.105C6.33563 12.1177 6.20144 12.1529 6.07045 12.188C5.981 12.2136 5.9203 12.2136 5.88835 12.1082C5.84681 11.974 5.8532 11.9356 5.96502 11.8941C6.2909 11.7695 6.62317 11.7312 6.95863 11.8558C7.34521 11.9963 7.44105 12.3158 7.16629 12.6257C6.99058 12.8238 6.77972 12.9835 6.58163 13.1625C6.54968 13.1912 6.51774 13.2168 6.48579 13.2423C6.48579 13.2455 6.48898 13.2583 6.49218 13.2711Z" fill="white"/>
<path d="M8.69028 12.111C8.60082 12.111 8.51456 12.111 8.42511 12.111C8.23022 12.111 8.03214 12.111 7.83725 12.111C7.69668 12.111 7.69348 12.1078 7.69348 11.9705C7.69348 11.8267 7.69987 11.8139 7.84364 11.8139C8.14076 11.8107 8.43789 11.8139 8.73501 11.8139C8.87878 11.8139 9.02255 11.8171 9.16632 11.8139C9.26216 11.8107 9.31008 11.8555 9.29411 11.9481C9.28133 12.0248 9.26855 12.1078 9.23021 12.1749C8.97462 12.6158 8.71264 13.0535 8.44747 13.488C8.42191 13.5296 8.36121 13.5647 8.31009 13.5711C8.21744 13.5839 8.1184 13.5775 8.02255 13.5743C7.91393 13.5679 7.90115 13.5455 7.95866 13.4465C8.09603 13.2069 8.2398 12.9705 8.37718 12.734C8.489 12.5423 8.60082 12.3507 8.71264 12.159C8.70306 12.1398 8.69667 12.1238 8.69028 12.111Z" fill="white"/>
<path d="M14.0513 12.2812C13.9587 12.3163 13.8724 12.3834 13.8085 12.3674C13.719 12.3451 13.6456 12.262 13.5401 12.1885C13.7574 12.0511 13.9427 11.917 14.144 11.8179C14.2334 11.7732 14.3612 11.7924 14.473 11.8019C14.5529 11.8083 14.5593 11.8818 14.5593 11.9489C14.5593 12.1246 14.5593 12.3003 14.5593 12.4729C14.5593 12.786 14.5593 13.0991 14.5593 13.4122C14.5593 13.5527 14.5433 13.5719 14.4059 13.5719C14.0002 13.5751 14.0673 13.5943 14.0641 13.2524C14.0609 12.9809 14.0641 12.7125 14.0641 12.4409C14.0577 12.3898 14.0545 12.3419 14.0513 12.2812Z" fill="white"/>
</svg>
