<svg width="50" height="50" viewBox="0 0 50 50" fill="none" xmlns="http://www.w3.org/2000/svg">
<path d="M46.2425 24.9173L44.4711 23.9506C43.6941 20.1304 41.8348 16.7171 39.2263 14.0208C37.7556 12.4945 36.0536 11.2088 34.1666 10.2005V9.07662C34.1666 8.48462 33.0427 7.95275 31.2251 7.57812C29.5231 7.21738 27.2198 7 24.6807 7C23.7881 7 22.9232 7.02775 22.0861 7.074C18.1086 7.31912 15.1948 8.1285 15.1948 9.06275V10.1866C13.9276 10.8619 12.7436 11.6713 11.6475 12.5916C8.26197 15.473 5.82459 19.4366 4.88572 23.9506L3.11434 24.9173C2.30497 25.3474 1.87484 26.2585 2.03209 27.1511L3.64622 36.2161C3.80347 37.1365 4.55272 37.8303 5.47772 37.9459L8.18797 38.2789C9.65872 39.8652 11.518 41.1047 13.664 42.0112C16.5453 43.2369 19.9355 43.8844 23.58 43.9861C23.9453 44 24.32 44 24.6807 44C27.4603 44 30.1151 43.6994 32.5386 43.0796C35.7113 42.2564 38.4771 40.8735 40.5676 38.8848C40.8127 38.6535 41.0578 38.4084 41.2891 38.1494L43.8421 37.9043C44.7948 37.8164 45.558 37.1134 45.7291 36.1606L47.3293 27.1373C47.482 26.2585 47.0518 25.3474 46.2425 24.9173Z" fill="url(#paint0_linear_939_1470)"/>
<path d="M24.6808 39.0541C19.8661 39.0541 15.9164 38.0598 13.2663 36.1728C10.6855 34.3413 9.43213 31.6772 9.43213 28.0281C9.43213 19.6106 16.2771 12.7656 24.6946 12.7656C33.1121 12.7656 39.9571 19.6106 39.9571 28.0281C39.9571 31.6726 38.7038 34.3274 36.123 36.1728C33.4451 38.0598 29.4954 39.0541 24.6808 39.0541Z" fill="white"/>
<path d="M24.6807 35.5413C21.6837 35.5413 18.8995 33.7838 17.5906 31.0735L20.0141 29.9219C20.8928 31.7395 22.6827 32.8772 24.6853 32.8772C26.6879 32.8772 28.4917 31.7534 29.3566 29.9219L31.7801 31.0735C30.462 33.7791 27.6777 35.5413 24.6807 35.5413Z" fill="#121826"/>
<defs>
<linearGradient id="paint0_linear_939_1470" x1="13.6793" y1="40.8489" x2="38.4639" y2="13.8666" gradientUnits="userSpaceOnUse">
<stop stop-color="#FF61D3"/>
<stop offset="0.5" stop-color="#B318FF"/>
<stop offset="1" stop-color="#00F0FF"/>
</linearGradient>
</defs>
</svg>
