<svg width="20" height="20" viewBox="0 0 20 20" fill="none" xmlns="http://www.w3.org/2000/svg">
<g id="key">
<mask id="mask0_1_15712" style="mask-type:alpha" maskUnits="userSpaceOnUse" x="0" y="0" width="20" height="20">
<rect id="Bounding box" width="20" height="20" fill="#D9D9D9"/>
</mask>
<g mask="url(#mask0_1_15712)">
<path id="key_2" d="M6 12C5.44444 12 4.97222 11.8056 4.58333 11.4167C4.19444 11.0278 4 10.5556 4 10C4 9.44444 4.19444 8.97222 4.58333 8.58333C4.97222 8.19444 5.44444 8 6 8C6.55556 8 7.02778 8.19444 7.41667 8.58333C7.80556 8.97222 8 9.44444 8 10C8 10.5556 7.80556 11.0278 7.41667 11.4167C7.02778 11.8056 6.55556 12 6 12ZM6 15C4.61111 15 3.43056 14.5139 2.45833 13.5417C1.48611 12.5694 1 11.3889 1 10C1 8.61111 1.48611 7.43056 2.45833 6.45833C3.43056 5.48611 4.61111 5 6 5C6.90278 5 7.73611 5.22569 8.5 5.67708C9.26389 6.12847 9.875 6.73611 10.3333 7.5H17.5L20 10L16.25 13.5L14.5 12.25L13 13.5L11 12H10.5833C10.25 12.9444 9.65625 13.6806 8.80208 14.2083C7.94792 14.7361 7.01389 15 6 15ZM6 13.5C6.875 13.5 7.64583 13.2188 8.3125 12.6562C8.97917 12.0938 9.36111 11.375 9.45833 10.5H11.5L12.9583 11.5833L14.4375 10.3542L16.125 11.5625L17.8333 9.97917L16.875 9H9.35417C9.09028 8.26389 8.65625 7.66319 8.05208 7.19792C7.44792 6.73264 6.76389 6.5 6 6.5C5.02778 6.5 4.20139 6.84028 3.52083 7.52083C2.84028 8.20139 2.5 9.02778 2.5 10C2.5 10.9722 2.84028 11.7986 3.52083 12.4792C4.20139 13.1597 5.02778 13.5 6 13.5Z" fill="#667085"/>
</g>
</g>
</svg>
