<svg width="19" height="17" viewBox="0 0 19 17" fill="none" xmlns="http://www.w3.org/2000/svg">
<path d="M15 16.125L9.35417 10.4792C8.90972 11.2708 8.29861 11.8889 7.52083 12.3333C6.74306 12.7778 5.90278 13 5 13C3.61111 13 2.43056 12.5139 1.45833 11.5417C0.486111 10.5694 0 9.38889 0 8C0 7.09722 0.222222 6.26389 0.666667 5.5C1.11111 4.73611 1.72917 4.11806 2.52083 3.64583L0.875 2L1.9375 0.9375L16.0625 15.0625L15 16.125ZM16.5 5.5L19 8L15.25 11.5L13.5 10.25L13.4375 10.3125L12.3542 9.25L13.4167 8.35417L15.1042 9.5625L16.8333 7.95833L15.875 7H10.125L8.625 5.5H16.5ZM5 11.5C5.70833 11.5 6.35417 11.3056 6.9375 10.9167C7.52083 10.5278 7.95139 10.0069 8.22917 9.35417L3.64583 4.77083C2.97917 5.04861 2.45486 5.47917 2.07292 6.0625C1.69097 6.64583 1.5 7.29167 1.5 8C1.5 8.97222 1.84028 9.79861 2.52083 10.4792C3.20139 11.1597 4.02778 11.5 5 11.5ZM5 10C4.44444 10 3.97222 9.80556 3.58333 9.41667C3.19444 9.02778 3 8.55556 3 8C3 7.45833 3.18056 6.98958 3.54167 6.59375C3.90278 6.19792 4.34722 6 4.875 6C5.45833 6 5.95833 6.19097 6.375 6.57292C6.79167 6.95486 7 7.43056 7 8C7 8.55556 6.80556 9.02778 6.41667 9.41667C6.02778 9.80556 5.55556 10 5 10Z" fill="#F04438"/>
</svg>
