<svg width="139" height="38" viewBox="0 0 139 38" fill="none" xmlns="http://www.w3.org/2000/svg">
<path d="M66.5467 30C66.2138 29.0012 65.767 27.7483 65.2062 26.2413H56.8214L55.5072 30H48.9098L56.2695 10.9174H65.9422L73.3544 30H66.5467ZM63.708 22.1409C63.0421 20.301 62.3587 18.4611 61.6578 16.6211L61.027 14.9126C60.4137 16.5072 59.5112 18.9167 58.3197 22.1409H63.708ZM85.6388 10.9437C89.1259 10.9437 91.5528 11.5657 92.9196 12.8099C94.2864 14.0365 94.9698 15.7713 94.9698 18.0142C94.9698 19.5563 94.6982 20.8705 94.155 21.9569C93.6118 23.0258 92.6568 23.8669 91.29 24.4802C89.9232 25.076 88.0394 25.3739 85.6388 25.3739H80.1716V30H73.7056C73.8458 26.6005 73.9159 23.4201 73.9159 20.4587C73.9159 17.4973 73.8458 14.3169 73.7056 10.9174H80.1716V10.9437H85.6388ZM83.7989 20.301C85.2533 20.301 86.3397 20.2484 87.0581 20.1433C87.7941 20.0206 88.3023 19.8103 88.5827 19.5125C88.8805 19.2146 89.0295 18.7765 89.0295 18.1982C89.0295 17.62 88.8893 17.1906 88.6089 16.9103C88.3461 16.6124 87.8467 16.4109 87.1107 16.3057C86.3923 16.2006 85.2883 16.148 83.7989 16.148H80.1716V20.301H83.7989ZM102.216 25.1899C108.874 25.1549 113.702 25.0585 116.699 24.9008C116.576 25.6192 116.497 26.364 116.462 27.135C116.444 27.8885 116.436 28.8435 116.436 30H96.0126C96.1527 26.6005 96.2228 23.4201 96.2228 20.4587C96.2228 17.4973 96.1527 14.3169 96.0126 10.9174H116.436V15.6749H102.216V18.1982C103.057 18.2157 104.301 18.2245 105.948 18.2245C108.734 18.2245 111.617 18.1719 114.596 18.0668V22.5877C111.617 22.4826 108.734 22.43 105.948 22.43C104.301 22.43 103.057 22.4388 102.216 22.4563V25.1899ZM130.251 20.2221L137.926 30H130.33L126.545 24.8482L122.734 30H115.138L122.813 20.2221L115.401 10.9174H122.997L126.545 15.6486L130.067 10.9174H137.664L130.251 20.2221Z" fill="#1D2939"/>
<path d="M17.2793 24.7548L9.70557 18.6355L13.6011 11.6866L17.7926 4.73772L26.8785 16.2157L28.1525 18.7587L29.4264 24.7548H17.2793Z" fill="white"/>
<path fill-rule="evenodd" clip-rule="evenodd" d="M27.2171 16.8409L25.3339 13.3277L19.0004 1L12.6669 13.3277L10.7019 16.8541C15.334 16.3475 18.9453 12.4595 19.0169 7.7089C19.0879 12.4201 22.6402 16.283 27.2171 16.8409ZM27.2857 16.969C23.0133 17.4578 19.619 20.8245 19.0881 25.084L24.1143 36.9735H37.6389L33.7062 29.3087L28.8195 19.8304L27.2857 16.969ZM18.9103 24.8287C18.273 20.6564 14.8794 17.3945 10.6442 16.9577L9.05495 19.8096L4.05927 29.2776L0 36.9735H13.5247L18.9103 24.8287Z" fill="url(#paint0_angular_2223_772)"/>
<defs>
<radialGradient id="paint0_angular_2223_772" cx="0" cy="0" r="1" gradientUnits="userSpaceOnUse" gradientTransform="translate(18.9589 8.73099) rotate(90.283) scale(28.2428 27.0463)">
<stop stop-color="#34C582"/>
<stop offset="1" stop-color="#006528"/>
</radialGradient>
</defs>
</svg>
