<svg width="18" height="12" viewBox="0 0 18 12" fill="none" xmlns="http://www.w3.org/2000/svg">
<path d="M2.08632 8.04983C2.08632 8.71668 2.23268 9.22866 2.42399 9.53839C2.67482 9.94409 3.04894 10.116 3.43034 10.116C3.92228 10.116 4.37231 9.99389 5.23957 8.79442C5.93436 7.83301 6.75304 6.48353 7.30389 5.63752L8.23675 4.20422C8.88477 3.2088 9.63482 2.10225 10.4948 1.3522C11.1969 0.740007 11.9542 0.399902 12.7164 0.399902C13.9961 0.399902 15.215 1.14145 16.1478 2.53224C17.1687 4.05542 17.6643 5.97398 17.6643 7.95387C17.6643 9.13088 17.4323 9.99571 17.0376 10.679C16.6562 11.3397 15.9128 11.9999 14.6623 11.9999V10.116C15.733 10.116 16.0002 9.13209 16.0002 8.0061C16.0002 6.40154 15.6261 4.62084 14.802 3.34849C14.2171 2.446 13.4592 1.89454 12.6253 1.89454C11.7234 1.89454 10.9977 2.57475 10.182 3.78759C9.74839 4.43197 9.30322 5.21724 8.80339 6.10334L8.25315 7.0781C7.1478 9.03796 6.86783 9.48434 6.31516 10.221C5.34646 11.511 4.51928 11.9999 3.43034 11.9999C2.13855 11.9999 1.32169 11.4406 0.815784 10.5976C0.402799 9.91069 0.199951 9.00941 0.199951 7.98242L2.08632 8.04983Z" fill="#0081FB"/>
<path d="M1.68738 2.66524C2.55222 1.33215 3.80028 0.399902 5.23175 0.399902C6.06076 0.399902 6.88491 0.645264 7.74549 1.34794C8.68685 2.11622 9.69016 3.38128 10.9419 5.46625L11.3907 6.21448C12.4742 8.01946 13.0906 8.94807 13.4514 9.38596C13.9154 9.94834 14.2403 10.116 14.6624 10.116C15.7331 10.116 16.0003 9.13209 16.0003 8.0061L17.6644 7.95387C17.6644 9.13088 17.4324 9.99571 17.0376 10.679C16.6562 11.3397 15.9129 11.9999 14.6624 11.9999C13.885 11.9999 13.1963 11.8311 12.4347 11.1126C11.8492 10.5611 11.1648 9.58152 10.6382 8.70089L9.0719 6.08451C8.28602 4.77146 7.56512 3.79245 7.14788 3.3491C6.69906 2.87234 6.1221 2.29659 5.20139 2.29659C4.45619 2.29659 3.82336 2.8195 3.29377 3.61936L1.68738 2.66524Z" fill="url(#paint0_linear_838_4351)"/>
<path d="M5.20131 2.29659C4.45612 2.29659 3.82328 2.8195 3.29369 3.61936C2.54485 4.7496 2.08632 6.43312 2.08632 8.04983C2.08632 8.71668 2.23268 9.22866 2.42399 9.53839L0.815784 10.5976C0.402799 9.91069 0.199951 9.00941 0.199951 7.98242C0.199951 6.11488 0.712538 4.16838 1.6873 2.66524C2.55214 1.33215 3.8002 0.399902 5.23168 0.399902L5.20131 2.29659Z" fill="url(#paint1_linear_838_4351)"/>
<defs>
<linearGradient id="paint0_linear_838_4351" x1="3.90474" y1="7.50566" x2="15.9299" y2="8.11299" gradientUnits="userSpaceOnUse">
<stop stop-color="#0064E1"/>
<stop offset="0.4" stop-color="#0064E1"/>
<stop offset="0.83" stop-color="#0073EE"/>
<stop offset="1" stop-color="#0082FB"/>
</linearGradient>
<linearGradient id="paint1_linear_838_4351" x1="2.93294" y1="8.84179" x2="2.93294" y2="4.40828" gradientUnits="userSpaceOnUse">
<stop stop-color="#0082FB"/>
<stop offset="1" stop-color="#0064E0"/>
</linearGradient>
</defs>
</svg>
