<svg width="4" height="12" viewBox="0 0 4 12" fill="none" xmlns="http://www.w3.org/2000/svg">
<path d="M1.99558 12C1.58186 12 1.22917 11.8527 0.9375 11.5581C0.645833 11.2635 0.5 10.9093 0.5 10.4956C0.5 10.0819 0.647306 9.72917 0.941917 9.4375C1.23654 9.14583 1.59071 9 2.00442 9C2.41814 9 2.77083 9.14731 3.0625 9.44192C3.35417 9.73654 3.5 10.0907 3.5 10.5044C3.5 10.9181 3.3527 11.2708 3.05808 11.5625C2.76346 11.8542 2.40929 12 1.99558 12ZM1.99558 7.5C1.58186 7.5 1.22917 7.35269 0.9375 7.05808C0.645833 6.76346 0.5 6.40929 0.5 5.99558C0.5 5.58186 0.647306 5.22917 0.941917 4.9375C1.23654 4.64583 1.59071 4.5 2.00442 4.5C2.41814 4.5 2.77083 4.64731 3.0625 4.94192C3.35417 5.23654 3.5 5.59071 3.5 6.00442C3.5 6.41814 3.3527 6.77083 3.05808 7.0625C2.76346 7.35417 2.40929 7.5 1.99558 7.5ZM1.99558 3C1.58186 3 1.22917 2.8527 0.9375 2.55808C0.645833 2.26346 0.5 1.90929 0.5 1.49558C0.5 1.08186 0.647306 0.729167 0.941917 0.4375C1.23654 0.145833 1.59071 0 2.00442 0C2.41814 0 2.77083 0.147305 3.0625 0.441916C3.35417 0.736541 3.5 1.09071 3.5 1.50442C3.5 1.91814 3.3527 2.27083 3.05808 2.5625C2.76346 2.85417 2.40929 3 1.99558 3Z" fill="#667085"/>
</svg>
