<svg width="52" height="50" viewBox="0 0 52 50" fill="none" xmlns="http://www.w3.org/2000/svg">
<g clip-path="url(#clip0_924_4830)">
<path d="M26.19 28.5714C34.0798 28.5714 40.4757 22.1755 40.4757 14.2857C40.4757 6.39593 34.0798 0 26.19 0C18.3002 0 11.9043 6.39593 11.9043 14.2857C11.9043 22.1755 18.3002 28.5714 26.19 28.5714Z" fill="#036C70"/>
<path d="M38.0952 40.4757C45.3275 40.4757 51.1905 34.6127 51.1905 27.3804C51.1905 20.1481 45.3275 14.2852 38.0952 14.2852C30.8629 14.2852 25 20.1481 25 27.3804C25 34.6127 30.8629 40.4757 38.0952 40.4757Z" fill="#1A9BA1"/>
<path d="M27.9765 49.9998C33.5651 49.9998 38.0955 45.4693 38.0955 39.8808C38.0955 34.2922 33.5651 29.7617 27.9765 29.7617C22.3879 29.7617 17.8574 34.2922 17.8574 39.8808C17.8574 45.4693 22.3879 49.9998 27.9765 49.9998Z" fill="#37C6D0"/>
<path opacity="0.1" d="M28.5711 12.8934V38.2982C28.5652 39.1809 28.0303 39.974 27.214 40.3101C26.9541 40.42 26.6747 40.4767 26.3925 40.4767H17.8687C17.8568 40.2744 17.8568 40.0839 17.8568 39.8815C17.8529 39.6828 17.8608 39.484 17.8806 39.2862C18.0985 35.4809 20.4429 32.1233 23.9402 30.6077V28.3934C16.1567 27.16 10.8469 19.8504 12.0803 12.0669C12.0888 12.013 12.0977 11.9591 12.1069 11.9053C12.1661 11.5038 12.2496 11.1063 12.3569 10.7148H26.3926C27.5938 10.7194 28.5665 11.6921 28.5711 12.8934Z" fill="black"/>
<path opacity="0.2" d="M25.2023 11.9062H12.1071C10.7842 19.6757 16.0102 27.0464 23.7796 28.3693C24.0148 28.4094 24.2511 28.4435 24.488 28.4717C20.7976 30.2217 18.1083 35.192 17.8797 39.2872C17.8599 39.485 17.8519 39.6837 17.8559 39.8824C17.8559 40.0848 17.8559 40.2753 17.8678 40.4777C17.8893 40.8778 17.941 41.2758 18.0225 41.6681H25.2011C26.0839 41.6622 26.8769 41.1273 27.213 40.311C27.3229 40.0511 27.3796 39.7718 27.3797 39.4896V14.0848C27.3752 12.884 26.4032 11.9115 25.2023 11.9062Z" fill="black"/>
<path opacity="0.2" d="M25.2022 11.9062H12.107C10.7844 19.6764 16.0111 27.0475 23.7813 28.3701C23.9402 28.3972 24.0996 28.4215 24.2594 28.4432C20.6879 30.3194 18.1046 35.2777 17.8808 39.2872H25.2022C26.4016 39.2781 27.3717 38.308 27.3808 37.1086V14.0848C27.3762 12.8835 26.4035 11.9108 25.2022 11.9062Z" fill="black"/>
<path opacity="0.2" d="M24.0123 11.9062H12.1076C10.8587 19.2413 15.4549 26.3051 22.6671 28.1348C19.9362 31.2549 18.2612 35.1583 17.8814 39.2872H24.0124C25.2136 39.2826 26.1863 38.3099 26.1909 37.1086V14.0848C26.1903 12.8819 25.2153 11.9069 24.0123 11.9062Z" fill="black"/>
<path d="M2.18214 11.9062H24.0083C25.2135 11.9062 26.1905 12.8832 26.1905 14.0884V35.9146C26.1905 37.1197 25.2135 38.0967 24.0083 38.0967H2.18214C0.976979 38.0967 0 37.1197 0 35.9146V14.0884C0 12.8832 0.976979 11.9062 2.18214 11.9062Z" fill="url(#paint0_linear_924_4830)"/>
<path d="M9.74659 24.7324C9.23521 24.3932 8.80805 23.9417 8.49777 23.4122C8.19713 22.8587 8.04728 22.2359 8.06324 21.6062C8.03646 20.7537 8.32416 19.9211 8.87156 19.2669C9.44679 18.612 10.1903 18.127 11.0216 17.8646C11.9689 17.5527 12.9612 17.3991 13.9585 17.4098C15.2699 17.3619 16.5796 17.5453 17.8275 17.9515V20.6896C17.2853 20.3611 16.6947 20.1201 16.0775 19.9753C15.4078 19.8111 14.7206 19.7287 14.0311 19.73C13.3039 19.7033 12.5815 19.8563 11.9275 20.1753C11.4226 20.393 11.0952 20.8898 11.0942 21.4396C11.0921 21.7731 11.2203 22.0943 11.4513 22.3348C11.7242 22.6184 12.0471 22.8492 12.4037 23.0158C12.8005 23.2134 13.3958 23.4761 14.1894 23.8039C14.2768 23.8315 14.362 23.8657 14.4442 23.9063C15.2253 24.2115 15.9788 24.5832 16.6966 25.017C17.2401 25.3521 17.6963 25.8115 18.0275 26.3575C18.3671 26.9763 18.5318 27.6759 18.5037 28.3813C18.5425 29.2566 18.2747 30.1179 17.7466 30.817C17.2202 31.4596 16.5163 31.9333 15.7227 32.1789C14.7893 32.4715 13.8151 32.6129 12.837 32.5979C11.9595 32.6019 11.0832 32.5302 10.218 32.3836C9.48742 32.2641 8.77447 32.0546 8.09538 31.7598V28.8729C8.74451 29.3365 9.46971 29.683 10.2382 29.8967C11.0042 30.1354 11.8004 30.2629 12.6025 30.2753C13.3449 30.3223 14.0861 30.1651 14.7454 29.8206C15.2073 29.5599 15.4882 29.0662 15.4763 28.536C15.4794 28.1671 15.3335 27.8125 15.0716 27.5527C14.7459 27.233 14.3688 26.9702 13.9561 26.7753C13.4799 26.5372 12.7787 26.2233 11.8525 25.8336C11.1157 25.5374 10.4103 25.1685 9.74659 24.7324Z" fill="white"/>
</g>
<defs>
<linearGradient id="paint0_linear_924_4830" x1="4.54982" y1="10.2012" x2="21.6407" y2="39.8018" gradientUnits="userSpaceOnUse">
<stop stop-color="#058F92"/>
<stop offset="0.5" stop-color="#038489"/>
<stop offset="1" stop-color="#026D71"/>
</linearGradient>
<clipPath id="clip0_924_4830">
<rect width="51.1905" height="50" fill="white"/>
</clipPath>
</defs>
</svg>
