<svg width="184" height="131" viewBox="0 0 184 131" fill="none" xmlns="http://www.w3.org/2000/svg">
<path d="M183.707 7.29289C184.098 7.68342 184.098 8.31658 183.707 8.70711L177.343 15.0711C176.953 15.4616 176.319 15.4616 175.929 15.0711C175.538 14.6805 175.538 14.0474 175.929 13.6569L181.586 8L175.929 2.34315C175.538 1.95262 175.538 1.31946 175.929 0.928932C176.319 0.538406 176.953 0.538406 177.343 0.928932L183.707 7.29289ZM100.637 53.3981L124.307 22.8752L125.887 24.1008L102.218 54.6237L100.637 53.3981ZM156.707 7H183V9H156.707V7ZM124.307 22.8752C132.073 12.8605 144.034 7 156.707 7V9C144.652 9 133.274 14.5746 125.887 24.1008L124.307 22.8752ZM79 64C87.4634 64 95.4511 60.0862 100.637 53.3981L102.218 54.6237C96.6527 61.8003 88.0816 66 79 66V64Z" fill="url(#paint0_linear_154_3804)"/>
<path d="M183.707 123.707C184.098 123.317 184.098 122.683 183.707 122.293L177.343 115.929C176.953 115.538 176.319 115.538 175.929 115.929C175.538 116.319 175.538 116.953 175.929 117.343L181.586 123L175.929 128.657C175.538 129.047 175.538 129.681 175.929 130.071C176.319 130.462 176.953 130.462 177.343 130.071L183.707 123.707ZM125.097 107.512L125.887 106.899L125.097 107.512ZM0 67H73.3069V65H0V67ZM104.126 82.1008L124.307 108.125L125.887 106.899L105.707 80.8752L104.126 82.1008ZM156.707 124H183V122H156.707V124ZM124.307 108.125C132.073 118.139 144.034 124 156.707 124V122C144.652 122 133.274 116.425 125.887 106.899L124.307 108.125ZM73.3069 67C85.3617 67 96.739 72.5746 104.126 82.1008L105.707 80.8752C97.9406 70.8605 85.9799 65 73.3069 65V67Z" fill="url(#paint1_linear_154_3804)"/>
<defs>
<linearGradient id="paint0_linear_154_3804" x1="153" y1="36.5" x2="79" y2="36.5" gradientUnits="userSpaceOnUse">
<stop stop-color="#31BE7C"/>
<stop offset="1" stop-color="white"/>
</linearGradient>
<linearGradient id="paint1_linear_154_3804" x1="130.212" y1="94.5" x2="0" y2="94.5" gradientUnits="userSpaceOnUse">
<stop stop-color="#F04438"/>
<stop offset="1" stop-color="white"/>
</linearGradient>
</defs>
</svg>
