<svg width="13" height="21" viewBox="0 0 13 21" fill="none" xmlns="http://www.w3.org/2000/svg">
<path d="M0.44043 16.9745V15.1235H1.45063V8.95349C1.45063 7.4624 1.82595 6.15126 2.57659 5.02009C3.32722 3.88891 4.29884 3.18621 5.49144 2.91199V1.54944C5.49144 1.20666 5.58965 0.915295 5.78608 0.675349C5.98251 0.435403 6.22103 0.31543 6.50164 0.31543C6.78225 0.31543 7.02077 0.435403 7.2172 0.675349C7.41363 0.915295 7.51184 1.20666 7.51184 1.54944V2.91199C8.70444 3.18621 9.67606 3.88891 10.4267 5.02009C11.1773 6.15126 11.5526 7.4624 11.5526 8.95349V15.1235H12.5629V16.9745H0.44043ZM6.49718 20.0596C6.07924 20.0596 5.72294 19.8783 5.4283 19.5158C5.13366 19.1533 4.98634 18.7176 4.98634 18.2086H8.01694C8.01694 18.7227 7.86814 19.1598 7.57052 19.5197C7.27289 19.8796 6.91511 20.0596 6.49718 20.0596ZM2.96593 15.1235H10.0373V8.95349C10.0373 7.75376 9.6936 6.73399 9.0061 5.89418C8.3186 5.05437 7.48378 4.63446 6.50164 4.63446C5.5195 4.63446 4.68468 5.05437 3.99718 5.89418C3.30968 6.73399 2.96593 7.75376 2.96593 8.95349V15.1235Z" fill="#FB6514"/>
</svg>
