<svg width="24" height="20" viewBox="0 0 24 20" fill="none" xmlns="http://www.w3.org/2000/svg">
<path d="M0.933105 19.6039L12.2449 0.0654297L23.5566 19.6039H0.933105ZM4.48088 17.5472H20.0088L12.2449 4.17879L4.48088 17.5472ZM12.2449 16.5189C12.5362 16.5189 12.7804 16.4203 12.9775 16.2232C13.1746 16.0261 13.2732 15.7819 13.2732 15.4905C13.2732 15.1992 13.1746 14.9549 12.9775 14.7578C12.7804 14.5607 12.5362 14.4622 12.2449 14.4622C11.9535 14.4622 11.7093 14.5607 11.5122 14.7578C11.3151 14.9549 11.2165 15.1992 11.2165 15.4905C11.2165 15.7819 11.3151 16.0261 11.5122 16.2232C11.7093 16.4203 11.9535 16.5189 12.2449 16.5189ZM11.2165 13.4339H13.2732V8.29216H11.2165V13.4339Z" fill="#FB6514"/>
</svg>
