<svg width="43" height="44" viewBox="0 0 43 44" fill="none" xmlns="http://www.w3.org/2000/svg">
<path fill-rule="evenodd" clip-rule="evenodd" d="M23.6574 0.305556L22.7729 11.4522C22.3546 11.4033 21.9363 11.3789 21.506 11.3789C20.9681 11.3789 20.4422 11.4156 19.9282 11.5011L19.4262 6.09889C19.4143 5.92778 19.5458 5.78111 19.7131 5.78111H20.6095L20.1792 0.317778C20.1673 0.146667 20.2988 0 20.4542 0H23.3825C23.5499 0 23.6813 0.146667 23.6574 0.317778V0.305556ZM16.2708 0.855556C16.2229 0.696667 16.0556 0.598889 15.9002 0.66L13.1511 1.68667C12.9958 1.74778 12.924 1.93111 12.9958 2.07778L15.2309 7.06444L14.3822 7.38222C14.2269 7.44333 14.1552 7.62667 14.2269 7.77333L16.5098 12.6744C17.3345 12.21 18.231 11.8556 19.1752 11.6356L16.2827 0.855556H16.2708ZM9.52951 3.96L15.8524 13.0778C15.0516 13.6156 14.3225 14.2511 13.701 14.9844L9.91199 11.1711C9.79247 11.0489 9.80442 10.8533 9.92394 10.7433L10.6172 10.1567L6.85213 6.25778C6.73261 6.13556 6.74456 5.94 6.87604 5.83L9.11117 3.91111C9.24265 3.80111 9.42194 3.82556 9.51756 3.96H9.52951ZM4.22257 9.24C4.09109 9.14222 3.89985 9.19111 3.81618 9.33778L2.35797 11.9289C2.2743 12.0756 2.33407 12.2589 2.4775 12.3322L7.33024 14.6789L6.87604 15.4733C6.79237 15.62 6.85213 15.8156 7.00752 15.8767L11.8364 18.1378C12.183 17.2211 12.6491 16.3656 13.2229 15.5956L4.22257 9.24ZM0.648754 16.28C0.672659 16.1089 0.839995 16.0111 0.995379 16.0478L11.5734 18.8711C11.2985 19.7878 11.1431 20.7533 11.1192 21.7556L5.82421 21.3156C5.65688 21.3033 5.53735 21.1444 5.57321 20.9733L5.72859 20.0689L0.385798 19.5556C0.218462 19.5433 0.110889 19.3844 0.134794 19.2133L0.636802 16.2678L0.648754 16.28ZM0.25432 23.5889C0.0869837 23.6011 -0.0205893 23.76 0.00331578 23.9311L0.517276 26.8767C0.541181 27.0478 0.708517 27.1456 0.8639 27.1089L6.05131 25.7278L6.2067 26.6322C6.2306 26.8033 6.39794 26.9011 6.55332 26.8644L11.669 25.4222C11.3702 24.5178 11.179 23.5522 11.1312 22.5622L0.242367 23.5889H0.25432ZM1.95158 31.3378C1.86792 31.1911 1.92768 31.0078 2.07111 30.9344L11.9439 26.1433C12.3145 27.0478 12.8165 27.8911 13.4141 28.6489L9.08726 31.8022C8.95579 31.9 8.76454 31.8633 8.68088 31.7167L8.22668 30.91L3.81618 34.0267C3.68471 34.1244 3.49346 34.0756 3.4098 33.9289L1.93963 31.3378H1.95158ZM13.9161 29.2356L6.2306 37.1922C6.11108 37.3144 6.12303 37.51 6.25451 37.62L8.50159 39.5389C8.63307 39.6489 8.81236 39.6244 8.90798 39.49L12.0156 35.0167L12.7089 35.6156C12.8404 35.7256 13.0316 35.7011 13.1272 35.5544L16.1393 31.0811C15.3265 30.5678 14.5735 29.9444 13.9281 29.2356H13.9161ZM12.3981 42.0078C12.2427 41.9467 12.171 41.7633 12.2427 41.6167L16.7967 31.4478C17.6333 31.8878 18.5417 32.2178 19.486 32.4011L18.1473 37.6567C18.1114 37.8156 17.9322 37.9133 17.7768 37.8522L16.9281 37.5344L15.5058 42.8267C15.458 42.9856 15.2906 43.0833 15.1353 43.0222L12.3862 41.9956L12.3981 42.0078ZM20.239 32.5356L19.3545 43.6822C19.3426 43.8533 19.474 44 19.6294 44H22.5578C22.7251 44 22.8566 43.8533 22.8327 43.6822L22.4024 38.2189H23.2989C23.4662 38.2189 23.5977 38.0722 23.5857 37.9011L23.0837 32.4989C22.5698 32.5844 22.0438 32.6211 21.506 32.6211C21.0757 32.6211 20.6573 32.5967 20.239 32.5356ZM30.7812 2.35889C30.8529 2.2 30.7812 2.02889 30.6258 1.96778L27.8767 0.941111C27.7213 0.88 27.554 0.977778 27.5062 1.13667L26.0838 6.42889L25.2352 6.11111C25.0798 6.05 24.9125 6.14778 24.8646 6.30667L23.526 11.5622C24.4822 11.7578 25.3786 12.0878 26.2153 12.5156L30.7812 2.35889ZM36.7814 6.79556L29.0959 14.7522C28.4504 14.0433 27.7094 13.42 26.8846 12.9067L29.8967 8.43333C29.9923 8.29889 30.1835 8.26222 30.315 8.37222L31.0083 8.97111L34.1159 4.49778C34.2116 4.36333 34.4028 4.33889 34.5223 4.44889L36.7694 6.36778C36.9009 6.47778 36.9009 6.67333 36.7933 6.79556H36.7814ZM40.9408 13.0533C41.0962 12.98 41.144 12.7967 41.0604 12.65L39.5902 10.0589C39.5065 9.91222 39.3153 9.87556 39.1838 9.96111L34.7733 13.0778L34.3191 12.2833C34.2355 12.1367 34.0442 12.0878 33.9127 12.1978L29.5859 15.3511C30.1835 16.1089 30.6736 16.9522 31.0561 17.8567L40.9289 13.0656L40.9408 13.0533ZM42.4947 17.1111L42.9967 20.0567C43.0206 20.2278 42.913 20.3744 42.7457 20.3989L31.8569 21.4378C31.8091 20.4356 31.6178 19.4822 31.319 18.5778L36.4347 17.1356C36.5901 17.0867 36.7575 17.1967 36.7814 17.3678L36.9367 18.2722L42.1241 16.8911C42.2795 16.8544 42.4469 16.9522 42.4708 17.1233L42.4947 17.1111ZM42.0046 27.9278C42.16 27.9644 42.3273 27.8667 42.3512 27.6956L42.8533 24.75C42.8772 24.5789 42.7696 24.4322 42.6023 24.4078L37.2595 23.8944L37.4148 22.99C37.4387 22.8189 37.3312 22.6722 37.1638 22.6478L31.8689 22.2078C31.8449 23.21 31.6896 24.1756 31.4147 25.0922L41.9927 27.9156L42.0046 27.9278ZM39.1838 34.65C39.1002 34.7967 38.9089 34.8333 38.7774 34.7478L29.7772 28.3922C30.3509 27.6222 30.817 26.7667 31.1637 25.85L35.9925 28.1111C36.1479 28.1844 36.2076 28.3678 36.124 28.5144L35.6698 29.3089L40.5225 31.6556C40.6659 31.7289 40.7257 31.9122 40.642 32.0589L39.1838 34.65ZM27.1476 30.8978L33.4705 40.0156C33.5661 40.15 33.7574 40.1744 33.8769 40.0644L36.112 38.1456C36.2435 38.0356 36.2435 37.84 36.1359 37.7178L32.3709 33.8189L33.0641 33.2322C33.1956 33.1222 33.1956 32.9267 33.0761 32.8044L29.2871 28.9911C28.6536 29.7244 27.9365 30.3722 27.1356 30.8978H27.1476ZM27.0878 43.3156C26.9324 43.3767 26.7651 43.2789 26.7173 43.12L23.8248 32.34C24.769 32.12 25.6655 31.7656 26.4902 31.3011L28.7731 36.2022C28.8449 36.3611 28.7731 36.5444 28.6178 36.5933L27.7691 36.9111L30.0043 41.8978C30.076 42.0567 30.0043 42.2278 29.8489 42.2889L27.0998 43.3156H27.0878Z" fill="#1D2939"/>
</svg>
