<svg width="50" height="50" viewBox="0 0 50 50" fill="none" xmlns="http://www.w3.org/2000/svg">
<path d="M23.5214 8.54306C19.8519 8.54306 16.592 10.9023 15.4559 14.3865C13.0967 14.872 11.0599 16.3472 9.86638 18.4377C8.02607 21.6143 8.44677 25.6081 10.9116 28.3306C10.1499 30.612 10.4113 33.1065 11.627 35.1729C13.4562 38.3605 17.1368 39.9951 20.7377 39.2353C22.3334 41.033 24.6259 42.0578 27.0315 42.0486C30.701 42.0486 33.9609 39.6893 35.0988 36.2052C37.4618 35.7178 39.4948 34.2425 40.6772 32.1557C42.5287 28.9792 42.108 24.9854 39.6431 22.2611V22.2499C40.4048 19.9686 40.1435 17.4722 38.9277 15.3965C37.0985 12.22 33.4179 10.5854 29.8281 11.3452C28.2232 9.55124 25.9269 8.53194 23.5214 8.54306ZM23.5214 10.7207L23.5103 10.7318C24.9873 10.7318 26.4069 11.2414 27.543 12.1848C27.4967 12.207 27.4059 12.2645 27.3391 12.2978L20.6581 16.1452C20.3171 16.338 20.1132 16.7012 20.1132 17.0978V26.1289L17.2387 24.472V17.007C17.2369 13.5395 20.0483 10.7262 23.5214 10.7207ZM31.5683 13.3505C33.8219 13.3468 35.905 14.5458 37.03 16.4974C37.7564 17.7687 38.0289 19.255 37.7787 20.695C37.7324 20.6617 37.6434 20.6153 37.5859 20.582L30.9067 16.7235C30.5657 16.5307 30.1469 16.5307 29.8059 16.7235L21.9776 21.2399V17.9262L28.44 14.1937C29.3907 13.6433 30.4693 13.3523 31.5683 13.3505ZM15.0463 16.7791V24.7093C15.0463 25.1059 15.2502 25.458 15.5912 25.6618L23.4065 30.1653L20.5209 31.8333L14.0678 28.1119C11.0655 26.3735 10.0387 22.5353 11.7734 19.5349C12.5092 18.2635 13.6656 17.2887 15.0463 16.7791ZM30.019 18.7435L36.4832 22.4649C39.4948 24.2015 40.516 28.0359 38.7776 31.0419L38.7887 31.053C38.0511 32.3244 36.891 33.2992 35.5177 33.7996V25.8676C35.5177 25.471 35.3138 25.1077 34.9728 24.915L27.1464 20.3985L30.019 18.7435ZM25.2709 21.4771L28.566 23.3823V27.1834L25.2709 29.0886L21.9757 27.1834V23.3823L25.2709 21.4771ZM30.4508 24.472L33.3252 26.1289V33.5828C33.3252 37.054 30.5083 39.8691 27.0426 39.8691V39.858C25.5767 39.858 24.1459 39.3465 23.021 38.405C23.0673 38.3828 23.1693 38.3253 23.2249 38.292L29.9041 34.4464C30.2451 34.2537 30.4601 33.8904 30.449 33.4938L30.4508 24.472ZM28.5753 29.3517V32.6654L22.111 36.3868C19.0994 38.1122 15.2613 37.091 13.5229 34.0943H13.534C12.7964 32.834 12.5333 31.3366 12.7835 29.8966C12.8298 29.93 12.9206 29.9763 12.9762 30.0096L19.6554 33.8682C19.9964 34.0609 20.4153 34.0609 20.7563 33.8682L28.5753 29.3517Z" fill="#74AA9C"/>
</svg>
