<svg width="42" height="42" viewBox="0 0 42 42" fill="none" xmlns="http://www.w3.org/2000/svg">
<path d="M41.7629 20.8815C41.7629 26.4196 39.5629 31.7309 35.6469 35.6469C31.7309 39.5629 26.4196 41.7629 20.8815 41.7629C15.3434 41.7629 10.0321 39.5629 6.11604 35.6469C2.20001 31.7309 0 26.4196 0 20.8815C0 15.3434 2.20001 10.0321 6.11604 6.11604C10.0321 2.20001 15.3434 0 20.8815 0C26.4196 0 31.7309 2.20001 35.6469 6.11604C39.5629 10.0321 41.7629 15.3434 41.7629 20.8815Z" fill="#FA582D"/>
<path d="M24.1822 12.6639L20.8986 15.9466L22.53 17.5804L14.2981 25.8163L17.5816 29.0999L20.8652 25.8163L19.2338 24.185L27.4657 15.9466L24.1822 12.6639ZM9.38037 20.8978L17.6143 12.6639L20.8982 15.9466L12.6639 24.1813L9.38037 20.8978ZM20.8648 25.8163L29.0991 17.5816L32.3826 20.8652L24.1487 29.0991L20.8648 25.8163Z" fill="white"/>
</svg>
