<svg width="20" height="20" viewBox="0 0 20 20" fill="none" xmlns="http://www.w3.org/2000/svg">
<mask id="mask0_430_10984" style="mask-type:alpha" maskUnits="userSpaceOnUse" x="0" y="0" width="20" height="20">
<rect width="20" height="20" fill="#D9D9D9"/>
</mask>
<g mask="url(#mask0_430_10984)">
<path d="M8.58333 19C8.27846 19 7.9939 18.9375 7.72967 18.8125C7.46544 18.6875 7.23611 18.5069 7.04167 18.2708L1 10.9583L1.5625 10.375C1.79861 10.1389 2.08681 9.99653 2.42708 9.94792C2.76736 9.89931 3.08333 9.96528 3.375 10.1458L6 11.6875V3.75C6 3.5375 6.07145 3.35937 6.21435 3.21562C6.35727 3.07187 6.53435 3 6.7456 3C6.95687 3 7.13542 3.07187 7.28125 3.21562C7.42708 3.35937 7.5 3.5375 7.5 3.75V14.3125L4.02083 12.25L8.20833 17.3125C8.26389 17.3681 8.32292 17.4132 8.38542 17.4479C8.44792 17.4826 8.51389 17.5 8.58333 17.5H14C14.4125 17.5 14.7656 17.3531 15.0594 17.0594C15.3531 16.7656 15.5 16.4125 15.5 16V4.75C15.5 4.5375 15.5715 4.35937 15.7144 4.21562C15.8573 4.07187 16.0344 4 16.2456 4C16.4569 4 16.6354 4.07187 16.7812 4.21562C16.9271 4.35937 17 4.5375 17 4.75V16C17 16.8333 16.7083 17.5417 16.125 18.125C15.5417 18.7083 14.8333 19 14 19H8.58333ZM9.16667 10V1.75C9.16667 1.5375 9.23812 1.35937 9.38102 1.21562C9.52394 1.07187 9.70102 1 9.91227 1C10.1235 1 10.3021 1.07187 10.4479 1.21562C10.5938 1.35937 10.6667 1.5375 10.6667 1.75V10H9.16667ZM12.3333 10V2.75C12.3333 2.5375 12.4048 2.35937 12.5477 2.21562C12.6906 2.07187 12.8677 2 13.0789 2C13.2902 2 13.4688 2.07187 13.6146 2.21562C13.7604 2.35937 13.8333 2.5375 13.8333 2.75V10H12.3333Z" fill="#F04438"/>
</g>
</svg>
