<svg width="20" height="15" viewBox="0 0 20 15" fill="none" xmlns="http://www.w3.org/2000/svg">
<path d="M7.46143 9.59557C7.46143 9.18103 7.79748 8.84497 8.21202 8.84497C8.62656 8.84497 8.96262 9.18103 8.96262 9.59557V10.979C8.96262 11.3935 8.62656 11.7296 8.21202 11.7296C7.79748 11.7296 7.46143 11.3935 7.46143 10.979V9.59557Z" fill="black"/>
<path d="M12.0585 8.84497C11.6439 8.84497 11.3079 9.18103 11.3079 9.59557V10.979C11.3079 11.3935 11.6439 11.7296 12.0585 11.7296C12.473 11.7296 12.8091 11.3935 12.8091 10.979V9.59557C12.8091 9.18103 12.473 8.84497 12.0585 8.84497Z" fill="black"/>
<path fill-rule="evenodd" clip-rule="evenodd" d="M19.3846 8.88462V10.9535C19.3841 11.2206 19.2517 11.481 19.0362 11.6388C16.4917 13.5016 13.3522 15 10.1539 15C6.61548 15 3.07285 12.9611 1.27156 11.6388C1.05603 11.481 0.923617 11.2206 0.923096 10.9535V8.88462C0.923096 8.61231 1.00964 8.34923 1.17002 8.13L1.73194 7.36962C2.03289 6.96165 2.48045 6.85385 2.95733 6.85385C3.13733 4.8 3.5631 3.33462 4.58079 2.26154C6.51925 0.207692 9.09233 0 10.1539 0C11.2154 0 13.7885 0.207692 15.7269 2.26154C16.7435 3.33462 17.1704 4.8 17.3504 6.85385C17.8282 6.85385 18.2738 6.95981 18.5746 7.36962L19.1366 8.13115C19.2981 8.35038 19.3846 8.61231 19.3846 8.88462ZM15.8631 7.94423C15.8384 7.47302 15.4558 7.28812 15.0577 7.15731C14.638 7.42065 14.1254 7.52423 13.635 7.52423C13.1135 7.52423 12.1408 7.39962 11.3319 6.59192C11.1277 6.38885 10.9881 6.07038 10.8935 5.71731C10.6481 5.69235 10.4017 5.67927 10.155 5.67808C9.93579 5.67808 9.6831 5.69077 9.41425 5.71731C9.31963 6.07038 9.18002 6.38885 8.97579 6.59192C8.1681 7.39962 7.19425 7.52423 6.67271 7.52423C6.18217 7.52423 5.66833 7.42181 5.24887 7.15731C4.85206 7.28769 4.47102 7.47571 4.44579 7.94423C4.40354 8.82985 4.39987 9.71462 4.39619 10.5998C4.39427 11.0441 4.39252 11.4884 4.38579 11.9331C4.38752 12.1912 4.54313 12.4309 4.7781 12.5377C6.68771 13.4077 8.49348 13.8462 10.155 13.8462C11.8142 13.8462 13.62 13.4077 15.5285 12.5377C15.7634 12.4309 15.919 12.1912 15.9208 11.9331C15.9437 10.6048 15.9252 9.27117 15.8619 7.94423H15.8631ZM4.80002 6.09231C5.11156 6.40385 5.70002 6.61154 6.33463 6.61154C6.81925 6.61154 7.74233 6.50769 8.50387 5.73462C8.83848 5.41154 9.04617 4.60385 9.0231 3.78462C9.00002 3.12692 8.8154 2.58462 8.53848 2.35385C8.23848 2.08846 7.55771 1.97308 6.79617 2.04231C5.98848 2.12308 5.30771 2.38846 4.96156 2.75769C4.21156 3.57692 4.3731 5.65385 4.80002 6.09231ZM9.50771 4.07308C9.53079 4.2 9.54233 4.33846 9.55386 4.48846C9.55386 4.59231 9.55387 4.69615 9.54233 4.81154C9.7731 4.78846 9.96925 4.78846 10.1539 4.78846C10.3385 4.78846 10.5346 4.78846 10.7654 4.81154C10.7539 4.69615 10.7539 4.59233 10.7539 4.48848C10.7654 4.33848 10.7769 4.2 10.8 4.07308C10.5577 4.05 10.3385 4.03846 10.1539 4.03846C9.96925 4.03846 9.75002 4.05 9.50771 4.07308ZM11.2846 3.78462C11.2616 4.60385 11.4692 5.41154 11.8039 5.73462C12.5654 6.50769 13.4885 6.61154 13.9731 6.61154C14.6077 6.61154 15.1962 6.40385 15.5077 6.09231C15.9346 5.65385 16.0962 3.57692 15.3462 2.75769C15 2.38846 14.3192 2.12308 13.5116 2.04231C12.75 1.97308 12.0693 2.08846 11.7692 2.35385C11.4923 2.58462 11.3077 3.12692 11.2846 3.78462Z" fill="black"/>
</svg>
