<svg width="31" height="22" viewBox="0 0 31 22" fill="none" xmlns="http://www.w3.org/2000/svg">
<path d="M23.2442 0.526322C23.6083 1.42286 23.9706 2.31998 24.3358 3.21651C24.9323 4.68075 25.5288 6.14555 26.1311 7.60748C26.205 7.7869 26.1992 7.90748 26.0579 8.06498C25.2894 8.92113 24.5469 9.79921 23.9475 10.7875C23.861 10.9306 23.7663 11.0684 23.6758 11.2092C23.6527 11.2034 23.6296 11.1982 23.6065 11.1925C23.6008 11.0834 23.5904 10.975 23.5904 10.8659C23.5892 9.35094 23.5898 7.83536 23.5898 6.32036C23.5898 6.24363 23.5863 6.1669 23.5898 6.09017C23.5956 5.94825 23.5379 5.87844 23.3885 5.87901C22.5825 5.88132 21.7765 5.88132 20.9706 5.87901C20.839 5.87901 20.7738 5.93209 20.7796 6.06709C20.7831 6.14382 20.7796 6.22055 20.7796 6.29728C20.7796 8.31132 20.7802 10.3254 20.7773 12.3388C20.7773 12.4381 20.7461 12.5373 20.7288 12.6365C20.6452 12.58 20.5546 12.5309 20.4796 12.4646C20.3573 12.3573 20.2483 12.235 20.1277 12.1248C20.029 12.0348 19.95 11.8767 19.7694 11.9944C19.7625 11.999 19.6823 11.9309 19.6788 11.8923C19.6661 11.759 19.6679 11.624 19.6719 11.4902C19.676 11.3517 19.6315 11.3136 19.4838 11.3327C18.8094 11.4192 18.1333 11.5006 17.4502 11.4654C17.0931 11.4469 16.7469 11.384 16.4158 11.245C15.9 11.0286 15.6058 10.6334 15.5394 10.0894C15.4806 9.60709 15.5538 9.13575 15.7569 8.6869C15.9669 8.22305 16.3367 7.95421 16.8121 7.82844C17.2408 7.71536 17.6763 7.67786 18.1217 7.75286C18.5365 7.82267 18.9571 7.85671 19.3736 7.91671C19.4988 7.93459 19.5583 7.90344 19.5583 7.77651C19.5583 7.27805 19.5583 6.77901 19.5583 6.28055C19.5583 6.17786 19.5104 6.12075 19.4088 6.10401C19.2202 6.07344 19.0327 6.03248 18.8429 6.0094C18.1771 5.92863 17.5113 5.85248 16.8375 5.88017C15.3802 5.94075 14.1883 6.53036 13.3027 7.6894C12.9167 8.19421 12.7235 8.78613 12.7085 9.42998C12.6958 9.96824 12.739 10.4967 12.8561 11.0263C13.0667 11.9759 13.654 12.5719 14.5235 12.9325C15.1961 13.2117 15.9017 13.3346 16.6252 13.3507C17.0181 13.36 17.4115 13.3381 17.8044 13.3363C17.8644 13.3363 17.9486 13.349 17.981 13.3888C18.3467 13.8411 18.7044 14.3004 19.0944 14.7954C18.7996 14.8911 18.5388 14.9794 18.2763 15.0613C17.1686 15.4069 16.0604 15.7502 14.9527 16.0946C12.9202 16.7275 10.8883 17.3604 8.85634 17.9944C8.36191 18.1484 7.86807 18.3042 7.37653 18.4663C7.23114 18.5142 7.15557 18.4969 7.0973 18.3371C6.65076 17.1129 6.19441 15.8915 5.74095 14.6696C5.58403 14.2473 5.42711 13.8256 5.27018 13.4032C5.24364 13.3311 5.21884 13.259 5.19287 13.1863C5.15307 13.0738 5.20384 13.0225 5.3123 13.0167C5.38903 13.0121 5.46576 13.0127 5.54249 13.0127C6.12807 13.0127 6.71307 13.0144 7.29864 13.0115C7.56518 13.0104 7.57557 13 7.5773 12.7369C7.58018 12.2673 7.57614 11.7971 7.57903 11.3269C7.58076 11.0632 7.59576 11.0488 7.8548 11.0459C8.18076 11.0425 8.50787 11.0598 8.83326 11.0419C9.35826 11.0125 9.88268 10.9859 10.3886 10.8048C11.0538 10.5665 11.4888 10.1021 11.7011 9.45074C11.9135 8.79825 11.9117 8.12844 11.6694 7.47536C11.4681 6.93248 11.089 6.55921 10.5536 6.34401C10.1567 6.18421 9.73787 6.12248 9.31614 6.11901C7.93441 6.10863 6.55268 6.11382 5.17095 6.11498C4.88826 6.11498 4.8848 6.11901 4.8848 6.40632C4.88364 8.20921 4.88422 10.0121 4.88422 11.815C4.88422 11.9194 4.88422 12.0238 4.88422 12.1282C4.8698 12.1334 4.85537 12.1386 4.84153 12.1438C4.81211 12.0954 4.77461 12.0498 4.75499 11.9973C4.32922 10.8573 3.90461 9.71613 3.48114 8.57555C2.80326 6.7519 2.12595 4.92825 1.44864 3.10401C1.30499 2.71748 1.16018 2.33209 1.01999 1.9444C0.925374 1.68363 0.957682 1.62998 1.22018 1.61786C1.77518 1.59248 2.33076 1.57921 2.88576 1.54978C3.78403 1.50132 4.68172 1.44305 5.57999 1.39055C5.96249 1.36805 6.34499 1.34728 6.72749 1.33055C7.31134 1.30575 7.89576 1.29248 8.47903 1.26132C9.35826 1.21401 10.2363 1.15459 11.1156 1.10267C11.5073 1.07959 11.8996 1.05882 12.2919 1.04209C12.8948 1.01671 13.4988 1.00401 14.1011 0.971707C14.9515 0.92613 15.8013 0.865553 16.6511 0.814784C17.0429 0.79113 17.4352 0.772668 17.8275 0.755361C18.3635 0.731707 18.8994 0.712668 19.4354 0.688437C20.2771 0.650361 21.1188 0.609399 21.9606 0.567284C22.0056 0.564976 22.05 0.539014 22.0944 0.523438C22.4781 0.523438 22.8623 0.523438 23.246 0.523438L23.2442 0.526322ZM23.7052 3.73517C23.7058 2.8294 23.0186 2.09267 22.129 2.10709C21.2094 2.12209 20.486 2.81267 20.4888 3.75421C20.4911 4.62709 21.2285 5.35459 22.1152 5.35228C22.999 5.34998 23.7715 4.57401 23.7058 3.73574L23.7052 3.73517Z" fill="#64758B"/>
<path d="M30.6726 6.05144C30.4488 6.23029 30.2099 6.39298 30.0046 6.59029C29.5136 7.06163 29.0198 7.5324 28.5611 8.03433C27.6934 8.98394 26.929 10.0126 26.2673 11.1186C25.249 12.8199 24.2151 14.5126 23.1951 16.2134C23.0838 16.3986 22.9586 16.4695 22.7411 16.4851C22.1792 16.5266 21.619 16.6005 21.0594 16.6732C20.9348 16.6893 20.8609 16.6507 20.7899 16.5601C20.1519 15.7466 19.5115 14.9343 18.8723 14.1214C18.7067 13.9109 18.5434 13.6986 18.3755 13.4891C18.2924 13.3853 18.2959 13.3109 18.4142 13.2324C18.8607 12.9347 19.3049 12.633 19.7451 12.3266C19.8715 12.2389 19.954 12.2891 20.0457 12.3757C20.3244 12.6387 20.6071 12.8972 20.8857 13.1597C21.2763 13.5272 21.6646 13.8976 22.0557 14.2651C22.208 14.4082 22.2167 14.4059 22.3182 14.2178C22.7411 13.4343 23.1513 12.6439 23.5874 11.8674C24.184 10.8047 24.8457 9.78529 25.6724 8.88183C26.4738 8.00606 27.2734 7.12856 28.073 6.25106C28.118 6.20144 28.1648 6.1524 28.2011 6.09644C28.283 5.97067 28.3973 5.92856 28.5438 5.92971C29.2534 5.9349 29.963 5.9349 30.6732 5.93663V6.05202L30.6726 6.05144Z" fill="#64758B"/>
<path d="M15.8746 19.2901C15.8746 18.6774 15.8728 18.0641 15.8751 17.4514C15.8763 17.1583 15.8855 17.1497 16.1878 17.1491C16.8103 17.1474 17.434 17.1641 18.0559 17.1451C18.9519 17.1174 19.6396 17.6568 19.8317 18.5741C19.9349 19.0679 19.9384 19.5618 19.8322 20.0545C19.6586 20.8604 19.0044 21.4074 18.1753 21.4229C17.4951 21.4356 16.8149 21.4287 16.1347 21.4258C15.8953 21.4247 15.8774 21.4062 15.8763 21.1576C15.8728 20.5351 15.8751 19.9126 15.8751 19.2901H15.8746ZM17.2661 19.2774C17.2661 19.5929 17.2621 19.9085 17.2678 20.2241C17.2713 20.4122 17.3053 20.4393 17.4922 20.4237C17.6446 20.411 17.7963 20.3931 17.9474 20.3718C18.2134 20.3343 18.3819 20.1797 18.4465 19.9229C18.5474 19.5174 18.548 19.1083 18.4447 18.7033C18.3697 18.4097 18.1546 18.2337 17.8528 18.1991C17.7392 18.1864 17.6255 18.1731 17.5119 18.1593C17.303 18.1333 17.2719 18.1535 17.2684 18.3595C17.2632 18.6653 17.2672 18.9716 17.2672 19.2774H17.2661Z" fill="#64758B"/>
<path d="M22.2778 21.5224C21.9576 21.4751 21.6323 21.4491 21.3184 21.3753C20.7207 21.2345 20.4138 20.6391 20.3221 20.1505C20.3024 20.0466 20.3382 19.978 20.449 19.971C20.7928 19.9497 21.1367 19.9312 21.4805 19.9128C21.6005 19.9064 21.6398 19.9912 21.6796 20.0841C21.8642 20.5139 22.1463 20.6512 22.6003 20.537C22.7532 20.4983 22.853 20.406 22.8865 20.2485C22.9182 20.0962 22.8536 19.978 22.7296 19.907C22.6067 19.8366 22.4705 19.7847 22.3349 19.7426C21.9969 19.637 21.6501 19.5568 21.3178 19.438C21.0351 19.337 20.7928 19.1674 20.6273 18.9008C20.2892 18.3574 20.5228 17.6178 21.1142 17.3045C21.2723 17.2208 21.4523 17.1545 21.6288 17.1326C22.1619 17.0651 22.699 17.0299 23.2234 17.1943C23.693 17.342 23.9873 17.6547 24.0853 18.1422C24.1228 18.3297 24.1107 18.3747 23.9186 18.3931C23.5949 18.4237 23.2684 18.4278 22.943 18.4226C22.8819 18.4214 22.8034 18.3378 22.7659 18.2737C22.6026 17.9945 22.2357 17.8555 21.9536 17.9945C21.8769 18.0326 21.788 18.126 21.7811 18.201C21.7748 18.2691 21.8573 18.3724 21.9282 18.4133C22.0326 18.4739 22.1601 18.4999 22.2801 18.5293C22.7076 18.6343 23.1409 18.7116 23.543 18.9083C24.0149 19.1391 24.2717 19.5181 24.2694 20.0235C24.2676 20.5283 24.038 20.9483 23.588 21.2172C23.1853 21.4572 22.7446 21.5195 22.2784 21.5206L22.2778 21.5224Z" fill="#64758B"/>
<path d="M26.5903 21.5266C26.2615 21.4747 25.9223 21.4562 25.6055 21.3633C25.0113 21.1891 24.7661 20.7074 24.6403 20.146C24.6167 20.0404 24.664 19.977 24.7719 19.9706C25.1157 19.9499 25.4596 19.9314 25.8034 19.9141C25.9246 19.9077 25.9696 19.9943 25.9978 20.09C26.1507 20.6145 26.584 20.5897 26.9503 20.5256C27.0923 20.5008 27.1771 20.39 27.2053 20.2447C27.2324 20.1056 27.1805 19.9902 27.0663 19.9227C26.9446 19.85 26.8107 19.7924 26.6757 19.7497C26.329 19.6406 25.973 19.5587 25.6309 19.437C25.3482 19.336 25.1071 19.1652 24.9421 18.8981C24.6063 18.3535 24.844 17.6133 25.4353 17.3041C25.594 17.221 25.774 17.1547 25.9505 17.1327C26.4738 17.0687 27.0017 17.0318 27.518 17.1881C27.9865 17.33 28.2928 17.6312 28.3967 18.1204C28.4417 18.3322 28.4232 18.3841 28.2034 18.4031C27.889 18.4302 27.5711 18.4314 27.2555 18.4233C27.1949 18.4216 27.1188 18.3356 27.0813 18.2704C26.9215 17.9958 26.5424 17.855 26.2667 17.9975C26.1905 18.0368 26.1034 18.132 26.0982 18.2064C26.0936 18.2745 26.1784 18.376 26.2499 18.4164C26.3549 18.4764 26.4824 18.5012 26.6024 18.5312C27.0294 18.6374 27.4632 18.7141 27.8653 18.912C28.3367 19.1439 28.5911 19.5252 28.5876 20.03C28.5842 20.5343 28.3534 20.9537 27.9023 21.2214C27.499 21.4602 27.0576 21.5208 26.5909 21.526L26.5903 21.5266Z" fill="#64758B"/>
<path d="M7.57954 8.58294C7.57954 8.3441 7.5807 8.10467 7.57954 7.86583C7.57896 7.74352 7.61819 7.66333 7.75723 7.65987C8.18935 7.6489 8.618 7.66737 9.03166 7.8064C9.35704 7.91544 9.54512 8.2114 9.54396 8.58871C9.54281 8.9389 9.34493 9.24121 9.03396 9.34102C8.63012 9.47083 8.21185 9.50371 7.78954 9.50544C7.62339 9.50602 7.57493 9.42237 7.57839 9.27179C7.58358 9.04217 7.57954 8.81256 7.57954 8.58352V8.58294Z" fill="#64758B"/>
<path d="M25.5611 12.7439C26.0965 11.8704 26.6024 11.0437 27.1332 10.1777C27.1921 10.2735 27.2313 10.3214 27.2538 10.3762C27.4488 10.8435 27.6432 11.3114 27.833 11.781C27.9317 12.025 27.923 12.0458 27.6726 12.1254C27.0444 12.3262 26.4144 12.5218 25.7844 12.7174C25.7336 12.7329 25.6776 12.7312 25.5611 12.7445V12.7439Z" fill="#64758B"/>
<path d="M17.2661 19.2769C17.2661 18.9712 17.262 18.6648 17.2672 18.3591C17.2707 18.1531 17.3018 18.1329 17.5107 18.1589C17.6243 18.1727 17.738 18.186 17.8517 18.1987C18.1534 18.2327 18.3686 18.4092 18.4436 18.7029C18.5468 19.1079 18.5463 19.5169 18.4453 19.9225C18.3813 20.1792 18.2122 20.3339 17.9463 20.3714C17.7951 20.3927 17.6434 20.4106 17.4911 20.4233C17.3042 20.4389 17.2701 20.4112 17.2667 20.2237C17.2615 19.9081 17.2649 19.5925 17.2649 19.2769H17.2661Z" fill="white"/>
</svg>
