<svg width="16" height="16" viewBox="0 0 16 16" fill="none" xmlns="http://www.w3.org/2000/svg">
<g clip-path="url(#clip0_26_8570)">
<path d="M14.1657 10.1268C13.7681 11.0671 13.1462 11.8957 12.3544 12.5401C11.5625 13.1846 10.6249 13.6252 9.62346 13.8236C8.622 14.0219 7.5872 13.9719 6.60952 13.6779C5.63185 13.384 4.74107 12.855 4.01507 12.1372C3.28907 11.4195 2.74994 10.5348 2.44483 9.56054C2.13972 8.58629 2.07791 7.55213 2.26481 6.54847C2.4517 5.54481 2.88162 4.60222 3.51696 3.80309C4.1523 3.00397 4.97373 2.37265 5.90943 1.96432" stroke="#1849A9" stroke-linecap="round" stroke-linejoin="round"/>
<path d="M14.6592 7.69479C14.6592 6.87403 14.4975 6.06131 14.1834 5.30302C13.8693 4.54474 13.409 3.85574 12.8286 3.27538C12.2482 2.69501 11.5592 2.23464 10.801 1.92055C10.0427 1.60645 9.22994 1.44479 8.40918 1.44479V7.69479H14.6592Z" stroke="#1849A9" stroke-linecap="round" stroke-linejoin="round"/>
</g>
<defs>
<clipPath id="clip0_26_8570">
<rect width="15" height="15" fill="white" transform="translate(0.90918 0.194794)"/>
</clipPath>
</defs>
</svg>
