<svg width="17" height="22" viewBox="0 0 17 22" fill="none" xmlns="http://www.w3.org/2000/svg">
<path d="M7.26367 14.5512L13.0738 8.74108L11.6084 7.27569L7.26367 11.6204L5.10415 9.46092L3.63877 10.9263L7.26367 14.5512ZM8.34342 21.184C5.9611 20.5841 3.9944 19.2173 2.44332 17.0835C0.892239 14.9497 0.116699 12.5802 0.116699 9.97509V3.70221L8.34342 0.617188L16.5701 3.70221V9.97509C16.5701 12.5802 15.7946 14.9497 14.2435 17.0835C12.6924 19.2173 10.7257 20.5841 8.34342 21.184ZM8.34342 19.0245C10.1259 18.4589 11.5998 17.3277 12.7653 15.631C13.9307 13.9342 14.5135 12.0489 14.5135 9.97509V5.11618L8.34342 2.80241L2.17338 5.11618V9.97509C2.17338 12.0489 2.75611 13.9342 3.92156 15.631C5.08701 17.3277 6.56097 18.4589 8.34342 19.0245Z" fill="#FB6514"/>
</svg>
