<svg width="29" height="35" viewBox="0 0 29 35" fill="none" xmlns="http://www.w3.org/2000/svg">
<g clip-path="url(#clip0_939_1501)">
<path d="M20.6432 14.9643C22.2644 13.0272 21.8571 9.65463 19.8569 8.02036C18.5244 6.93174 16.9329 6.41945 15.2861 6.04857C12.4889 5.41888 9.65527 5.40687 6.80814 5.55629C6.12434 5.59231 5.96789 5.83912 5.96924 6.47815C5.98812 15.558 5.98407 24.6392 5.98003 33.719C5.98003 35.1092 6.10816 34.9144 4.76484 34.9251C3.49031 34.9357 2.21308 34.8931 0.939892 34.9411C0.272279 34.9664 0.0645778 34.7783 0.0672753 34.0926C0.0929008 27.0272 0.0915521 19.9632 0.0794137 12.8978C0.0699727 9.17836 0.0187216 5.4589 -0.000160319 1.73811C-0.00555517 0.652154 0.0200703 0.674834 1.09364 0.564104C4.74596 0.191891 8.39962 -0.133628 12.0762 0.0544796C15.0717 0.207901 17.9579 0.804241 20.7107 2.04628C28.3943 5.5136 28.3093 13.5262 25.3273 17.9781C24.8445 18.6985 24.8539 19.1467 25.3448 19.8605C27.5554 23.073 28.517 26.7164 28.8447 30.5426C28.9526 31.798 28.9284 33.064 28.9958 34.3234C29.0241 34.861 28.807 35.0038 28.2931 34.9958C26.6598 34.9704 25.0265 34.9638 23.3946 34.9984C22.8106 35.0105 22.7108 34.789 22.6973 34.2634C22.6326 31.7432 22.5732 29.2218 22.406 26.7084C22.2994 25.1101 21.4187 23.796 20.4854 22.53C20.1887 22.1271 19.9136 22.3419 19.6142 22.4633C17.641 23.2624 15.6139 23.7387 13.4627 23.4425C10.2163 22.9943 8.16494 20.9824 7.85204 17.942C7.50542 14.5868 9.90613 12.1254 13.3076 12.3468C15.7541 12.5056 17.9674 13.3474 20.0377 14.6055C20.2265 14.7202 20.4166 14.8296 20.6419 14.963L20.6432 14.9643ZM16.4514 18.5571C15.4358 17.6806 14.342 17.0429 12.9569 17.1709C12.6818 17.1963 12.2542 17.4591 12.2165 17.6699C12.1666 17.9434 12.3527 18.3663 12.5793 18.5651C13.4924 19.3655 15.3886 19.3495 16.4528 18.5584L16.4514 18.5571Z" fill="#FF3500"/>
</g>
<defs>
<clipPath id="clip0_939_1501">
<rect width="29" height="35" fill="white"/>
</clipPath>
</defs>
</svg>
