<svg width="25" height="25" viewBox="0 0 25 25" fill="none" xmlns="http://www.w3.org/2000/svg">
<circle cx="12.9709" cy="12.0264" r="11.5" stroke="#64758B"/>
<path d="M8.78641 7.99662C8.76432 7.77382 8.66949 7.60073 8.50193 7.47736C8.33437 7.35399 8.10696 7.29231 7.81972 7.29231C7.62454 7.29231 7.45974 7.31993 7.32532 7.37517C7.1909 7.42857 7.08779 7.50314 7.01598 7.59889C6.94601 7.69464 6.91102 7.80328 6.91102 7.9248C6.90734 8.02608 6.92851 8.11446 6.97455 8.18996C7.02242 8.26545 7.08779 8.33082 7.17065 8.38606C7.25351 8.43946 7.34926 8.48641 7.4579 8.52692C7.56653 8.56559 7.68254 8.59873 7.80591 8.62635L8.31411 8.74788C8.56085 8.80312 8.78734 8.87677 8.99356 8.96884C9.19979 9.06091 9.3784 9.17415 9.52939 9.30856C9.68038 9.44298 9.7973 9.60134 9.88016 9.78363C9.96487 9.96592 10.0081 10.1749 10.01 10.4106C10.0081 10.7568 9.91975 11.0569 9.74483 11.311C9.57174 11.5633 9.32132 11.7594 8.99356 11.8993C8.66765 12.0374 8.27453 12.1065 7.81419 12.1065C7.35754 12.1065 6.95982 12.0365 6.62101 11.8966C6.28405 11.7566 6.02074 11.5495 5.83108 11.2751C5.64326 10.9989 5.54475 10.6573 5.53555 10.2504H6.69282C6.70571 10.4401 6.76003 10.5984 6.85578 10.7255C6.95337 10.8507 7.08318 10.9455 7.24522 11.01C7.4091 11.0726 7.59415 11.1039 7.80038 11.1039C8.00293 11.1039 8.17878 11.0744 8.32792 11.0155C8.47891 10.9566 8.59584 10.8746 8.6787 10.7697C8.76156 10.6647 8.80299 10.5441 8.80299 10.4078C8.80299 10.2808 8.76524 10.174 8.68974 10.0874C8.61609 10.0009 8.50745 9.92725 8.36383 9.86649C8.22205 9.80572 8.04804 9.75048 7.84181 9.70077L7.22589 9.5461C6.74898 9.43009 6.37243 9.24872 6.09623 9.00198C5.82003 8.75524 5.68285 8.42288 5.68469 8.0049C5.68285 7.66242 5.774 7.3632 5.95813 7.10725C6.14411 6.85131 6.39913 6.65153 6.7232 6.5079C7.04728 6.36428 7.41554 6.29247 7.828 6.29247C8.24783 6.29247 8.61425 6.36428 8.92728 6.5079C9.24214 6.65153 9.48704 6.85131 9.66197 7.10725C9.83689 7.3632 9.92712 7.65965 9.93264 7.99662H8.78641ZM11.6603 12.0264H10.3787L12.3314 6.3698H13.8726L15.8226 12.0264H14.541L13.1241 7.66242H13.0799L11.6603 12.0264ZM11.5802 9.80296H14.6073V10.7365H11.5802V9.80296ZM16.5034 12.0264V6.3698H20.315V7.35583H17.6994V8.70369H20.1189V9.68972H17.6994V11.0403H20.326V12.0264H16.5034ZM11.4497 13.3698V19.0264H10.2537V14.505H10.2206L8.92521 15.317V14.2564L10.3255 13.3698H11.4497ZM14.965 19.1037C14.6741 19.1019 14.3933 19.0531 14.1226 18.9573C13.8538 18.8616 13.6125 18.706 13.3989 18.4905C13.1854 18.2751 13.0159 17.9897 12.8907 17.6343C12.7674 17.2789 12.7057 16.8425 12.7057 16.3251C12.7075 15.8501 12.7618 15.4256 12.8686 15.0519C12.9773 14.6762 13.132 14.3577 13.3327 14.0962C13.5352 13.8347 13.7773 13.6359 14.0591 13.4996C14.3408 13.3615 14.6566 13.2925 15.0064 13.2925C15.3839 13.2925 15.7172 13.3661 16.0063 13.5134C16.2954 13.6589 16.5274 13.8568 16.7023 14.1073C16.8791 14.3577 16.9859 14.6385 17.0227 14.9497H15.8433C15.7973 14.7526 15.7006 14.598 15.5533 14.4856C15.406 14.3733 15.2237 14.3172 15.0064 14.3172C14.6382 14.3172 14.3583 14.4774 14.1668 14.7978C13.9771 15.1181 13.8805 15.5536 13.8768 16.1042H13.9154C14.0001 15.9366 14.1143 15.7939 14.2579 15.6761C14.4034 15.5564 14.5682 15.4652 14.7523 15.4026C14.9383 15.3382 15.1344 15.306 15.3406 15.306C15.6758 15.306 15.974 15.3851 16.2355 15.5435C16.497 15.7 16.7032 15.9154 16.8542 16.1898C17.0052 16.4642 17.0807 16.7781 17.0807 17.1316C17.0807 17.5146 16.9914 17.8553 16.8128 18.1536C16.636 18.4519 16.3883 18.6857 16.0698 18.8551C15.7531 19.0227 15.3848 19.1055 14.965 19.1037ZM14.9595 18.1646C15.1436 18.1646 15.3084 18.1204 15.4539 18.032C15.5993 17.9437 15.7135 17.824 15.7964 17.673C15.8792 17.522 15.9206 17.3526 15.9206 17.1648C15.9206 16.977 15.8792 16.8085 15.7964 16.6593C15.7153 16.5102 15.603 16.3914 15.4594 16.303C15.3158 16.2147 15.1519 16.1705 14.9678 16.1705C14.8297 16.1705 14.7017 16.1962 14.5838 16.2478C14.4678 16.2994 14.3656 16.3712 14.2773 16.4632C14.1907 16.5553 14.1226 16.6621 14.0729 16.7836C14.0232 16.9033 13.9983 17.0313 13.9983 17.1675C13.9983 17.3498 14.0397 17.5165 14.1226 17.6675C14.2073 17.8185 14.3215 17.9391 14.4651 18.0293C14.6105 18.1195 14.7753 18.1646 14.9595 18.1646Z" fill="#667085"/>
</svg>
