<svg width="16" height="16" viewBox="0 0 16 16" fill="none" xmlns="http://www.w3.org/2000/svg">
<g clip-path="url(#clip0_26_8516)">
<path d="M10.2842 7.69479H7.15918" stroke="#1849A9" stroke-linecap="round" stroke-linejoin="round"/>
<path d="M10.2842 5.19479H7.15918" stroke="#1849A9" stroke-linecap="round" stroke-linejoin="round"/>
<path d="M12.7842 10.8198V3.31979C12.7842 2.98827 12.6525 2.67033 12.4181 2.43591C12.1836 2.20149 11.8657 2.06979 11.5342 2.06979H3.40918" stroke="#1849A9" stroke-linecap="round" stroke-linejoin="round"/>
<path d="M5.90918 13.3198H13.4092C13.7407 13.3198 14.0586 13.1881 14.2931 12.9537C14.5275 12.7193 14.6592 12.4013 14.6592 12.0698V11.4448C14.6592 11.279 14.5933 11.1201 14.4761 11.0029C14.3589 10.8856 14.1999 10.8198 14.0342 10.8198H7.78418C7.61842 10.8198 7.45945 10.8856 7.34224 11.0029C7.22503 11.1201 7.15918 11.279 7.15918 11.4448V12.0698C7.15918 12.4013 7.02748 12.7193 6.79306 12.9537C6.55864 13.1881 6.2407 13.3198 5.90918 13.3198ZM5.90918 13.3198C5.57766 13.3198 5.25972 13.1881 5.0253 12.9537C4.79088 12.7193 4.65918 12.4013 4.65918 12.0698V3.31979C4.65918 2.98827 4.52748 2.67033 4.29306 2.43591C4.05864 2.20149 3.7407 2.06979 3.40918 2.06979C3.07766 2.06979 2.75972 2.20149 2.5253 2.43591C2.29088 2.67033 2.15918 2.98827 2.15918 3.31979V4.56979C2.15918 4.73555 2.22503 4.89453 2.34224 5.01174C2.45945 5.12895 2.61842 5.19479 2.78418 5.19479H4.65918" stroke="#1849A9" stroke-linecap="round" stroke-linejoin="round"/>
</g>
<defs>
<clipPath id="clip0_26_8516">
<rect width="15" height="15" fill="white" transform="translate(0.90918 0.194794)"/>
</clipPath>
</defs>
</svg>
