<svg width="16" height="16" viewBox="0 0 16 16" fill="none" xmlns="http://www.w3.org/2000/svg">
<path d="M12.5 8.72917L14 10.2292V14.5C14 14.9125 13.8531 15.2656 13.5594 15.5594C13.2656 15.8531 12.9125 16 12.5 16H1.5C1.0875 16 0.734375 15.8531 0.440625 15.5594C0.146875 15.2656 0 14.9125 0 14.5V3.5C0 3.0875 0.146875 2.73438 0.440625 2.44063C0.734375 2.14688 1.0875 2 1.5 2H5.72917C5.65972 2.23611 5.60417 2.47569 5.5625 2.71875C5.52083 2.96181 5.5 3.22222 5.5 3.5H1.5V14.5H12.5V8.72917ZM13.4375 5.375L15.5 7.5L14.4375 8.5625L12.375 6.4375C12.0972 6.63194 11.8028 6.77431 11.4917 6.86458C11.1806 6.95486 10.85 7 10.5 7C9.52778 7 8.70139 6.65972 8.02083 5.97917C7.34028 5.29861 7 4.47222 7 3.5C7 2.52778 7.34028 1.70139 8.02083 1.02083C8.70139 0.340278 9.52778 0 10.5 0C11.4722 0 12.2986 0.340278 12.9792 1.02083C13.6597 1.70139 14 2.52778 14 3.5C14 3.83333 13.9549 4.15972 13.8646 4.47917C13.7743 4.79861 13.6319 5.09722 13.4375 5.375ZM10.4953 5.5C11.054 5.5 11.5278 5.30712 11.9167 4.92135C12.3056 4.5356 12.5 4.06338 12.5 3.50469C12.5 2.94601 12.3071 2.47222 11.9214 2.08333C11.5356 1.69444 11.0634 1.5 10.5047 1.5C9.94601 1.5 9.47222 1.69288 9.08333 2.07865C8.69444 2.4644 8.5 2.93662 8.5 3.49531C8.5 4.05399 8.69288 4.52778 9.07865 4.91667C9.4644 5.30556 9.93662 5.5 10.4953 5.5ZM1.5 14.5V3.5V8.5V8.25V14.5Z" fill="#1570EF"/>
</svg>
