<svg width="95" height="95" viewBox="0 0 95 95" fill="none" xmlns="http://www.w3.org/2000/svg">
<g filter="url(#filter0_dd_1_13597)">
<rect x="3.56055" y="3" width="87.3506" height="87.3506" rx="43.6753" fill="#F04438"/>
<mask id="mask0_1_13597" style="mask-type:alpha" maskUnits="userSpaceOnUse" x="21" y="21" width="52" height="52">
<rect x="21.6915" y="21.1309" width="51.0888" height="51.0888" fill="white"/>
</mask>
<g mask="url(#mask0_1_13597)">
<path d="M47.2246 54.3381C47.7642 54.3381 48.2203 54.1556 48.5929 53.7905C48.9654 53.4255 49.1516 52.9731 49.1516 52.4335C49.1516 51.8938 48.9691 51.4377 48.6041 51.0652C48.239 50.6927 47.7867 50.5064 47.247 50.5064C46.7074 50.5064 46.2513 50.6889 45.8788 51.054C45.5062 51.4191 45.32 51.8714 45.32 52.411C45.32 52.9507 45.5025 53.4068 45.8675 53.7793C46.2326 54.1518 46.685 54.3381 47.2246 54.3381ZM45.32 46.6748H49.1516V36.457H45.32V46.6748ZM47.2358 67.1103C42.4462 65.9395 38.4815 63.2282 35.3417 58.9764C32.2019 54.7245 30.632 50.0031 30.632 44.8122V32.6254L47.2358 26.2393L63.8397 32.6254V44.8122C63.8397 50.0031 62.2697 54.7245 59.1299 58.9764C55.9901 63.2282 52.0254 65.9395 47.2358 67.1103Z" fill="white"/>
</g>
</g>
<defs>
<filter id="filter0_dd_1_13597" x="0.286283" y="0.817157" width="93.8991" height="93.8991" filterUnits="userSpaceOnUse" color-interpolation-filters="sRGB">
<feFlood flood-opacity="0" result="BackgroundImageFix"/>
<feColorMatrix in="SourceAlpha" type="matrix" values="0 0 0 0 0 0 0 0 0 0 0 0 0 0 0 0 0 0 127 0" result="hardAlpha"/>
<feOffset dy="1.09142"/>
<feGaussianBlur stdDeviation="1.09142"/>
<feColorMatrix type="matrix" values="0 0 0 0 0.0627451 0 0 0 0 0.0941176 0 0 0 0 0.156863 0 0 0 0.06 0"/>
<feBlend mode="normal" in2="BackgroundImageFix" result="effect1_dropShadow_1_13597"/>
<feColorMatrix in="SourceAlpha" type="matrix" values="0 0 0 0 0 0 0 0 0 0 0 0 0 0 0 0 0 0 127 0" result="hardAlpha"/>
<feOffset dy="1.09142"/>
<feGaussianBlur stdDeviation="1.63713"/>
<feColorMatrix type="matrix" values="0 0 0 0 0.0627451 0 0 0 0 0.0941176 0 0 0 0 0.156863 0 0 0 0.1 0"/>
<feBlend mode="normal" in2="effect1_dropShadow_1_13597" result="effect2_dropShadow_1_13597"/>
<feBlend mode="normal" in="SourceGraphic" in2="effect2_dropShadow_1_13597" result="shape"/>
</filter>
</defs>
</svg>
