<svg width="87" height="34" viewBox="0 0 87 34" fill="none" xmlns="http://www.w3.org/2000/svg">
<mask id="mask0_924_4958" style="mask-type:alpha" maskUnits="userSpaceOnUse" x="0" y="0" width="87" height="34">
<path fill-rule="evenodd" clip-rule="evenodd" d="M16.7321 0.237183C7.49124 0.237183 0 7.74216 0 17C0 26.2578 7.49124 33.7628 16.7321 33.7628C22.2097 33.7628 27.0725 31.1258 30.1248 27.0499C33.177 31.1258 38.0399 33.7628 43.5175 33.7628C48.9845 33.7628 53.8392 31.1359 56.8925 27.0733C59.9459 31.1359 64.8005 33.7628 70.2679 33.7628C79.5086 33.7628 87 26.2578 87 17C87 7.74216 79.5086 0.237183 70.2679 0.237183C64.8005 0.237183 59.9459 2.86404 56.8925 6.92663C53.8392 2.86404 48.9845 0.237183 43.5175 0.237183C38.0399 0.237183 33.177 2.87415 30.1248 6.95007C27.0725 2.87415 22.2097 0.237183 16.7321 0.237183ZM6.69286 17C6.69286 22.5547 11.1876 27.0577 16.7321 27.0577C22.2765 27.0577 26.7715 22.5547 26.7715 17C26.7715 11.4453 22.2765 6.94228 16.7321 6.94228C11.1876 6.94228 6.69286 11.4453 6.69286 17ZM60.2419 17.52C60.2468 17.3473 60.2497 17.1739 60.2497 17C60.2497 16.826 60.2468 16.6527 60.2419 16.48C60.5119 11.1669 64.8973 6.94228 70.2679 6.94228C75.8124 6.94228 80.307 11.4453 80.307 17C80.307 22.5547 75.8124 27.0577 70.2679 27.0577C64.8973 27.0577 60.5119 22.833 60.2419 17.52ZM53.5435 16.48C53.2735 11.1669 48.8881 6.94228 43.5175 6.94228C37.973 6.94228 33.4784 11.4453 33.4784 17C33.4784 22.5547 37.973 27.0577 43.5175 27.0577C48.8881 27.0577 53.2735 22.833 53.5435 17.52C53.5382 17.3473 53.5357 17.1739 53.5357 17C53.5357 16.826 53.5382 16.6527 53.5435 16.48Z" fill="#1E961B"/>
</mask>
<g mask="url(#mask0_924_4958)">
<g filter="url(#filter0_d_924_4958)">
<path fill-rule="evenodd" clip-rule="evenodd" d="M6.69286 17C6.69286 22.5547 11.1876 27.0577 16.7321 27.0577C22.2765 27.0577 26.7715 22.5547 26.7715 17C26.7715 11.4453 22.2765 6.94228 16.7321 6.94228C11.1876 6.94228 6.69286 11.4453 6.69286 17ZM16.7321 0.237183C7.49124 0.237183 0 7.74216 0 17C0 26.2578 7.49124 33.7628 16.7321 33.7628C25.9731 33.7628 33.4642 26.2578 33.4642 17C33.4642 7.74216 25.9731 0.237183 16.7321 0.237183Z" fill="url(#paint0_linear_924_4958)"/>
</g>
<path fill-rule="evenodd" clip-rule="evenodd" d="M60.2288 16.9992C60.2288 22.5539 64.7234 27.0569 70.2679 27.0569C75.8124 27.0569 80.3071 22.5539 80.3071 16.9992C80.3071 11.4445 75.8124 6.94155 70.2679 6.94155C64.7234 6.94155 60.2288 11.4445 60.2288 16.9992ZM70.2679 0.23645C61.0271 0.23645 53.5358 7.74142 53.5358 16.9992C53.5358 26.2571 61.0271 33.762 70.2679 33.762C79.5087 33.762 87.0001 26.2571 87.0001 16.9992C87.0001 7.74142 79.5087 0.23645 70.2679 0.23645Z" fill="url(#paint1_linear_924_4958)"/>
<path fill-rule="evenodd" clip-rule="evenodd" d="M33.4785 16.9992C33.4785 22.5539 37.9732 27.0569 43.5177 27.0569C49.0622 27.0569 53.5572 22.5539 53.5572 16.9992C53.5572 11.4445 49.0622 6.94155 43.5177 6.94155C37.9732 6.94155 33.4785 11.4445 33.4785 16.9992ZM43.5177 0.23645C34.2769 0.23645 26.7859 7.74142 26.7859 16.9992C26.7859 26.2571 34.2769 33.762 43.5177 33.762C52.7588 33.762 60.2498 26.2571 60.2498 16.9992C60.2498 7.74142 52.7588 0.23645 43.5177 0.23645Z" fill="#1E961B"/>
<path d="M43.4969 27.0581C37.9523 27.0581 33.4577 22.5552 33.4577 17.0006H33.4655C33.4655 7.74275 25.9742 0.237793 16.7334 0.237793C7.49258 0.237793 0.00134277 7.74275 0.00134277 17.0006H6.6942C6.6942 11.4459 11.1889 6.94291 16.7334 6.94291C22.2779 6.94291 26.7725 11.4458 26.7725 17.0004H26.7647C26.7647 26.2582 34.2561 33.7632 43.4969 33.7632C52.7376 33.7632 60.229 26.2583 60.229 17.0006H60.2297C60.2297 11.4459 64.7243 6.94291 70.2689 6.94291C75.8134 6.94291 80.308 11.4459 80.308 17.0006H87.001C87.001 7.74275 79.5096 0.237793 70.2689 0.237793C61.0281 0.237793 53.5371 7.74264 53.5367 17.0004H53.536C53.536 22.5551 49.0414 27.0581 43.4969 27.0581Z" fill="#F2F8FF"/>
<path d="M43.4969 27.0581C37.9523 27.0581 33.4577 22.5552 33.4577 17.0006H33.4655C33.4655 7.74275 25.9742 0.237793 16.7334 0.237793C7.49258 0.237793 0.00134277 7.74275 0.00134277 17.0006H6.6942C6.6942 11.4459 11.1889 6.94291 16.7334 6.94291C22.2779 6.94291 26.7725 11.4458 26.7725 17.0004H26.7647C26.7647 26.2582 34.2561 33.7632 43.4969 33.7632C52.7376 33.7632 60.229 26.2583 60.229 17.0006H60.2297C60.2297 11.4459 64.7243 6.94291 70.2689 6.94291C75.8134 6.94291 80.308 11.4459 80.308 17.0006H87.001C87.001 7.74275 79.5096 0.237793 70.2689 0.237793C61.0281 0.237793 53.5371 7.74264 53.5367 17.0004H53.536C53.536 22.5551 49.0414 27.0581 43.4969 27.0581Z" fill="#2ED02A"/>
</g>
<defs>
<filter id="filter0_d_924_4958" x="-8" y="-3.76282" width="41.4641" height="41.5255" filterUnits="userSpaceOnUse" color-interpolation-filters="sRGB">
<feFlood flood-opacity="0" result="BackgroundImageFix"/>
<feColorMatrix in="SourceAlpha" type="matrix" values="0 0 0 0 0 0 0 0 0 0 0 0 0 0 0 0 0 0 127 0" result="hardAlpha"/>
<feOffset dx="-4"/>
<feGaussianBlur stdDeviation="2"/>
<feColorMatrix type="matrix" values="0 0 0 0 0 0 0 0 0 0 0 0 0 0 0 0 0 0 0.23 0"/>
<feBlend mode="normal" in2="BackgroundImageFix" result="effect1_dropShadow_924_4958"/>
<feBlend mode="normal" in="SourceGraphic" in2="effect1_dropShadow_924_4958" result="shape"/>
</filter>
<linearGradient id="paint0_linear_924_4958" x1="8.83635" y1="7.3409" x2="40.6296" y2="20.9419" gradientUnits="userSpaceOnUse">
<stop offset="0.285554" stop-color="#2ED02A"/>
<stop offset="0.572917" stop-color="#1E961B"/>
</linearGradient>
<linearGradient id="paint1_linear_924_4958" x1="85.5044" y1="10.2856" x2="52.5848" y2="23.1936" gradientUnits="userSpaceOnUse">
<stop offset="0.285554" stop-color="#2ED02A"/>
<stop offset="0.762026" stop-color="#1E961B"/>
</linearGradient>
</defs>
</svg>
