<svg width="49" height="49" viewBox="0 0 49 49" fill="none" xmlns="http://www.w3.org/2000/svg">
<g clip-path="url(#clip0_924_4905)">
<path fill-rule="evenodd" clip-rule="evenodd" d="M24.6493 2.53577C19.7224 2.54671 14.9114 4.03058 10.8343 6.79671C6.75715 9.56284 3.60026 13.4849 1.76921 18.0589C-0.0618373 22.6329 -0.483405 27.6499 0.558675 32.4653C1.60075 37.2808 4.05888 41.6746 7.61721 45.0823C8.45805 45.885 9.55882 46.3597 10.7197 46.4201C11.8806 46.4805 13.0247 46.1226 13.9443 45.4115C16.9834 43.1575 20.6669 41.9405 24.4506 41.9405C28.2344 41.9405 31.9178 43.1575 34.9569 45.4115C35.8849 46.146 37.0484 46.5177 38.2304 46.4571C39.4123 46.3965 40.5317 45.9079 41.3797 45.0823C44.9204 41.6925 47.3726 37.3261 48.4244 32.5385C49.4761 27.751 49.0799 22.7588 47.2861 18.1971C45.4923 13.6354 42.3821 9.71038 38.3511 6.92152C34.32 4.13266 29.5505 2.606 24.6493 2.53577ZM24.5115 39.4963C22.8821 39.5491 21.2591 39.2685 19.7421 38.6716C18.225 38.0747 16.8459 37.1742 15.6893 36.0253C14.5327 34.8764 13.6231 33.5033 13.0161 31.9902C12.4092 30.4772 12.1177 28.8561 12.1597 27.2264C12.1045 25.5796 12.3812 23.9385 12.9733 22.4008C13.5654 20.8631 14.4609 19.4603 15.6063 18.2758C16.7518 17.0913 18.1238 16.1494 19.6408 15.5061C21.1578 14.8628 22.7887 14.5313 24.4365 14.5313C26.0842 14.5313 27.7151 14.8628 29.2321 15.5061C30.7491 16.1494 32.1211 17.0913 33.2666 18.2758C34.412 19.4603 35.3075 20.8631 35.8996 22.4008C36.4917 23.9385 36.7684 25.5796 36.7133 27.2264C36.7567 28.8495 36.469 30.4645 35.8677 31.9728C35.2665 33.4811 34.3643 34.8511 33.2161 35.9992C32.068 37.1473 30.698 38.0496 29.1897 38.6508C27.6814 39.2521 26.0665 39.5397 24.4433 39.4963" fill="#81B5A1"/>
</g>
<defs>
<clipPath id="clip0_924_4905">
<rect width="49" height="49" fill="white"/>
</clipPath>
</defs>
</svg>
