<svg width="16" height="16" viewBox="0 0 16 16" fill="none" xmlns="http://www.w3.org/2000/svg">
<path d="M6.01446 15.9166L5.71798 13.4198C5.53636 13.3312 5.32482 13.2195 5.08336 13.0849C4.8419 12.9503 4.6357 12.8199 4.46476 12.6939L2.15546 13.6666L0.169922 10.2292L2.14107 8.73397C2.13572 8.62393 2.12904 8.50294 2.12103 8.37099C2.11301 8.23905 2.10901 8.11805 2.10901 8.00801C2.10901 7.9033 2.11301 7.78631 2.12103 7.65703C2.12904 7.52775 2.13572 7.39741 2.14107 7.26601L0.169922 5.77082L2.15546 2.34939L4.45673 3.31414C4.64371 3.18272 4.85124 3.05104 5.07934 2.91909C5.30745 2.78714 5.51766 2.67415 5.70996 2.58014L6.01446 0.0833435H9.98555L10.282 2.58816C10.4904 2.69285 10.6992 2.80583 10.9087 2.92709C11.1181 3.04836 11.3189 3.17737 11.5112 3.31414L13.8445 2.34939L15.8301 5.77082L13.8477 7.29003C13.8638 7.41077 13.8731 7.5331 13.8758 7.65703C13.8784 7.78096 13.8798 7.89528 13.8798 7.99999C13.8798 8.09935 13.8771 8.211 13.8718 8.33493C13.8664 8.45886 13.8611 8.58921 13.8557 8.72597L15.8221 10.2292L13.8365 13.6666L11.5112 12.6858C11.3189 12.8226 11.1154 12.9543 10.9006 13.0809C10.6859 13.2075 10.4797 13.3178 10.282 13.4118L9.98555 15.9166H6.01446ZM7.96794 10.5625C8.67521 10.5625 9.2791 10.3122 9.77963 9.81168C10.2802 9.31114 10.5304 8.70724 10.5304 7.99999C10.5304 7.29274 10.2802 6.68884 9.77963 6.1883C9.2791 5.68777 8.67521 5.43751 7.96794 5.43751C7.26604 5.43751 6.66348 5.68777 6.16028 6.1883C5.65708 6.68884 5.40548 7.29274 5.40548 7.99999C5.40548 8.70724 5.65708 9.31114 6.16028 9.81168C6.66348 10.3122 7.26604 10.5625 7.96794 10.5625ZM7.96794 9.22916C7.63461 9.22916 7.34641 9.10763 7.10336 8.86457C6.8603 8.62152 6.73878 8.33332 6.73878 7.99999C6.73878 7.66666 6.8603 7.37846 7.10336 7.13541C7.34641 6.89235 7.63461 6.77082 7.96794 6.77082C8.30128 6.77082 8.58947 6.89235 8.83253 7.13541C9.07558 7.37846 9.19711 7.66666 9.19711 7.99999C9.19711 8.33332 9.07558 8.62152 8.83253 8.86457C8.58947 9.10763 8.30128 9.22916 7.96794 9.22916ZM7.16667 14.5833H8.82532L9.08334 12.3926C9.48077 12.2815 9.85897 12.1202 10.2179 11.9086C10.5769 11.6971 10.9199 11.4306 11.2468 11.109L13.2757 11.9792L14.117 10.6042L12.3301 9.24197C12.3996 9.02616 12.4469 8.8181 12.472 8.61778C12.4971 8.41746 12.5096 8.21153 12.5096 7.99999C12.5096 7.81089 12.4971 7.62232 12.472 7.43428C12.4469 7.24625 12.4065 7.03311 12.351 6.79486L14.1539 5.39582L13.3125 4.02082L11.2596 4.90384C10.9669 4.60576 10.6258 4.34241 10.2364 4.11378C9.84695 3.88514 9.46687 3.72328 9.09615 3.6282L8.83334 1.41666H7.15865L6.90386 3.62018C6.50642 3.72061 6.12767 3.87445 5.76763 4.08172C5.40759 4.28898 5.06411 4.55608 4.73719 4.88301L2.70834 4.02082L1.86698 5.39582L3.62501 6.75801C3.56945 6.96954 3.52778 7.18214 3.50001 7.39582C3.47223 7.6095 3.45834 7.81357 3.45834 8.00801C3.45834 8.19711 3.47223 8.39235 3.50001 8.59374C3.52778 8.79513 3.56678 9.00426 3.61698 9.22114L1.86698 10.6042L2.70834 11.9792L4.72917 11.125C5.04541 11.4359 5.38355 11.695 5.74359 11.9022C6.10363 12.1095 6.48771 12.2687 6.89584 12.3798L7.16667 14.5833Z" fill="#667085"/>
</svg>
