<svg width="16" height="16" viewBox="0 0 16 16" fill="none" xmlns="http://www.w3.org/2000/svg">
<g clip-path="url(#clip0_26_8497)">
<path d="M13.4221 8.32007C13.4221 11.4451 11.2346 13.0076 8.63462 13.9138C8.49847 13.96 8.35058 13.9578 8.21587 13.9076C5.60962 13.0076 3.42212 11.4451 3.42212 8.32007V3.94507C3.42212 3.77931 3.48797 3.62034 3.60518 3.50313C3.72239 3.38592 3.88136 3.32007 4.04712 3.32007C5.29712 3.32007 6.85962 2.57007 7.94712 1.62007C8.07953 1.50695 8.24797 1.44479 8.42212 1.44479C8.59627 1.44479 8.76471 1.50695 8.89712 1.62007C9.99087 2.57632 11.5471 3.32007 12.7971 3.32007C12.9629 3.32007 13.1219 3.38592 13.2391 3.50313C13.3563 3.62034 13.4221 3.77931 13.4221 3.94507V8.32007Z" stroke="#1849A9" stroke-linecap="round" stroke-linejoin="round"/>
<path d="M6.54712 7.69479L7.79712 8.94479L10.2971 6.44479" stroke="#1849A9" stroke-linecap="round" stroke-linejoin="round"/>
</g>
<defs>
<clipPath id="clip0_26_8497">
<rect width="15" height="15" fill="white" transform="translate(0.922119 0.194794)"/>
</clipPath>
</defs>
</svg>
