<svg width="21" height="20" viewBox="0 0 21 20" fill="none" xmlns="http://www.w3.org/2000/svg">
<path d="M2.3335 1.66675L19.0002 18.3334" stroke="#98A1B2" stroke-linecap="round" stroke-linejoin="round"/>
<path d="M4.83382 4.16675C4.61281 4.16675 4.40085 4.25455 4.24457 4.41083C4.08829 4.56711 4.00049 4.77907 4.00049 5.00008V10.8334C4.00049 15.0001 6.91716 17.0834 10.3922 18.2834C10.5718 18.3503 10.769 18.3533 10.9505 18.2917C12.9088 17.6084 14.6838 16.6501 15.8672 15.2001" stroke="#98A1B2" stroke-linecap="round" stroke-linejoin="round"/>
<path d="M8.42432 3.0433C8.99637 2.71506 9.53528 2.33216 10.0335 1.89997C10.21 1.74913 10.4346 1.66626 10.6668 1.66626C10.899 1.66626 11.1236 1.74913 11.3001 1.89997C12.7585 3.17497 14.8335 4.16663 16.5001 4.16663C16.7212 4.16663 16.9331 4.25443 17.0894 4.41071C17.2457 4.56699 17.3335 4.77895 17.3335 4.99997V10.8333C17.334 11.1855 17.3118 11.5373 17.2668 11.8866" stroke="#98A1B2" stroke-linecap="round" stroke-linejoin="round"/>
</svg>
