<svg width="37" height="27" viewBox="0 0 37 27" fill="none" xmlns="http://www.w3.org/2000/svg">
<path d="M30.0002 14.6484C30.0002 20.3974 26.2815 23.272 21.8615 24.9392C21.63 25.0241 21.3786 25.02 21.1496 24.9277C16.719 23.272 13.0002 20.3974 13.0002 14.6484V6.59975C13.0002 6.2948 13.1122 6.00234 13.3114 5.78671C13.5107 5.57108 13.781 5.44994 14.0627 5.44994C16.1877 5.44994 18.844 4.07017 20.6927 2.32246C20.9178 2.11435 21.2042 2 21.5002 2C21.7963 2 22.0826 2.11435 22.3077 2.32246C24.1671 4.08167 26.8127 5.44994 28.9377 5.44994C29.2195 5.44994 29.4898 5.57108 29.689 5.78671C29.8883 6.00234 30.0002 6.2948 30.0002 6.59975V14.6484Z" stroke="#22C55D" stroke-width="2.025" stroke-linecap="round" stroke-linejoin="round"/>
<path d="M18.0002 13H25.0002" stroke="#22C55D" stroke-width="2.025" stroke-linecap="round" stroke-linejoin="round"/>
</svg>
