<svg width="21" height="20" viewBox="0 0 21 20" fill="none" xmlns="http://www.w3.org/2000/svg">
<path d="M17.3338 10.8333C17.3338 15 14.4172 17.0833 10.9505 18.2916C10.769 18.3532 10.5718 18.3502 10.3922 18.2833C6.91715 17.0833 4.00049 15 4.00049 10.8333V4.99997C4.00049 4.77895 4.08829 4.56699 4.24457 4.41071C4.40085 4.25443 4.61281 4.16663 4.83382 4.16663C6.50049 4.16663 8.58382 3.16663 10.0338 1.89997C10.2104 1.74913 10.4349 1.66626 10.6672 1.66626C10.8994 1.66626 11.1239 1.74913 11.3005 1.89997C12.7588 3.17497 14.8338 4.16663 16.5005 4.16663C16.7215 4.16663 16.9335 4.25443 17.0897 4.41071C17.246 4.56699 17.3338 4.77895 17.3338 4.99997V10.8333Z" stroke="#98A1B2" stroke-linecap="round" stroke-linejoin="round"/>
<path d="M8.16699 10H13.167" stroke="#98A1B2" stroke-linecap="round" stroke-linejoin="round"/>
</svg>
