<svg width="25" height="25" viewBox="0 0 25 25" fill="none" xmlns="http://www.w3.org/2000/svg">
<g clip-path="url(#clip0_1_14767)">
<path d="M11.9233 16.8015L10.926 19.0858C10.5426 19.9638 9.32753 19.9638 8.94417 19.0858L7.94684 16.8015C7.05929 14.7687 5.46177 13.1506 3.46906 12.2661L0.723917 11.0475C-0.148859 10.6601 -0.148857 9.39044 0.723917 9.00303L3.38332 7.82255C5.42728 6.91525 7.05346 5.23717 7.92584 3.13502L8.9361 0.700723C9.31098 -0.202649 10.5591 -0.202651 10.934 0.700721L11.9443 3.13505C12.8167 5.23717 14.4428 6.91525 16.4868 7.82255L19.1462 9.00303C20.019 9.39044 20.019 10.6601 19.1462 11.0475L16.401 12.2661C14.4084 13.1506 12.8108 14.7687 11.9233 16.8015Z" fill="url(#paint0_radial_1_14767)"/>
<path d="M21.1918 24.0044L20.9113 24.6472C20.706 25.1178 20.0544 25.1178 19.8491 24.6472L19.5686 24.0044C19.0686 22.8582 18.1681 21.9457 17.0444 21.4464L16.1803 21.0625C15.713 20.8549 15.713 20.1757 16.1803 19.9681L16.9961 19.6056C18.1487 19.0935 19.0654 18.1472 19.5568 16.9621L19.8448 16.2674C20.0455 15.7833 20.7149 15.7833 20.9156 16.2674L21.2036 16.9621C21.695 18.1472 22.6117 19.0935 23.7644 19.6056L24.5801 19.9681C25.0475 20.1757 25.0475 20.8549 24.5801 21.0625L23.716 21.4464C22.5923 21.9457 21.6917 22.8582 21.1918 24.0044Z" fill="url(#paint1_radial_1_14767)"/>
</g>
<defs>
<radialGradient id="paint0_radial_1_14767" cx="0" cy="0" r="1" gradientUnits="userSpaceOnUse" gradientTransform="translate(15.5195 10.9724) rotate(78.858) scale(15.4051 15.4126)">
<stop stop-color="#1BA1E3"/>
<stop offset="0.0001" stop-color="#1BA1E3"/>
<stop offset="0.300221" stop-color="#5489D6"/>
<stop offset="0.545524" stop-color="#9B72CB"/>
<stop offset="0.825372" stop-color="#D96570"/>
<stop offset="1" stop-color="#F49C46"/>
</radialGradient>
<radialGradient id="paint1_radial_1_14767" cx="0" cy="0" r="1" gradientUnits="userSpaceOnUse" gradientTransform="translate(15.5196 10.9726) rotate(78.858) scale(15.4051 15.4126)">
<stop stop-color="#1BA1E3"/>
<stop offset="0.0001" stop-color="#1BA1E3"/>
<stop offset="0.300221" stop-color="#5489D6"/>
<stop offset="0.545524" stop-color="#9B72CB"/>
<stop offset="0.825372" stop-color="#D96570"/>
<stop offset="1" stop-color="#F49C46"/>
</radialGradient>
<clipPath id="clip0_1_14767">
<rect width="25" height="25" fill="white"/>
</clipPath>
</defs>
</svg>
