<svg width="16" height="14" viewBox="0 0 16 14" fill="none" xmlns="http://www.w3.org/2000/svg">
<path d="M5.68848 8.93237C5.68848 8.58777 5.96784 8.30841 6.31244 8.30841C6.65704 8.30841 6.9364 8.58777 6.9364 8.93237V10.0824C6.9364 10.427 6.65704 10.7064 6.31244 10.7064C5.96784 10.7064 5.68848 10.427 5.68848 10.0824V8.93237Z" fill="black"/>
<path d="M9.50971 8.30841C9.1651 8.30841 8.88574 8.58777 8.88574 8.93237V10.0824C8.88574 10.427 9.1651 10.7064 9.50971 10.7064C9.85431 10.7064 10.1337 10.427 10.1337 10.0824V8.93237C10.1337 8.58777 9.85431 8.30841 9.50971 8.30841Z" fill="black"/>
<path fill-rule="evenodd" clip-rule="evenodd" d="M15.5998 8.34137V10.0612C15.5993 10.2832 15.4893 10.4997 15.3101 10.6309C13.195 12.1794 10.5851 13.425 7.92636 13.425C4.98494 13.425 2.03999 11.7301 0.542604 10.6309C0.363435 10.4997 0.253363 10.2832 0.25293 10.0612V8.34137C0.25293 8.115 0.32487 7.89631 0.458196 7.71406L0.925315 7.08196C1.17549 6.74283 1.54754 6.65321 1.94396 6.65321C2.09359 4.94587 2.44753 3.72772 3.29353 2.83568C4.90495 1.12834 7.04392 0.955688 7.92636 0.955688C8.8088 0.955688 10.9478 1.12834 12.5592 2.83568C13.4042 3.72772 13.7591 4.94587 13.9088 6.65321C14.306 6.65321 14.6764 6.7413 14.9264 7.08196L15.3936 7.71502C15.5279 7.89727 15.5998 8.115 15.5998 8.34137ZM12.6724 7.55964C12.6519 7.16792 12.3338 7.01421 12.0029 6.90547C11.6539 7.12439 11.2279 7.21049 10.8202 7.21049C10.3867 7.21049 9.57807 7.1069 8.90568 6.43548C8.73591 6.26666 8.61985 6.00193 8.54119 5.70842C8.33721 5.68767 8.13235 5.6768 7.92732 5.67581C7.74508 5.67581 7.53502 5.68636 7.31153 5.70842C7.23287 6.00193 7.11681 6.26666 6.94704 6.43548C6.27561 7.1069 5.46607 7.21049 5.03252 7.21049C4.62474 7.21049 4.19758 7.12535 3.84889 6.90547C3.51903 7.01386 3.20228 7.17016 3.1813 7.55964C3.14618 8.29584 3.14313 9.03133 3.14007 9.76719C3.13848 10.1365 3.13702 10.5059 3.13143 10.8755C3.13287 11.0901 3.26223 11.2894 3.45755 11.3781C5.04499 12.1013 6.5461 12.4658 7.92732 12.4658C9.30662 12.4658 10.8077 12.1013 12.3942 11.3781C12.5895 11.2894 12.7189 11.0901 12.7203 10.8755C12.7394 9.77136 12.724 8.66271 12.6714 7.55964H12.6724ZM3.47577 6.02015C3.73475 6.27913 4.22393 6.45178 4.75148 6.45178C5.15433 6.45178 5.92168 6.36546 6.55474 5.72281C6.8329 5.45424 7.00555 4.78281 6.98637 4.1018C6.96718 3.55506 6.81371 3.10425 6.58351 2.91241C6.33412 2.6918 5.76821 2.59588 5.13515 2.65343C4.46373 2.72058 3.89781 2.94119 3.61006 3.24813C2.98659 3.92914 3.12087 5.65566 3.47577 6.02015ZM7.38922 4.34159C7.4084 4.4471 7.418 4.5622 7.42759 4.68689C7.42759 4.77322 7.42759 4.85955 7.418 4.95546C7.60983 4.93628 7.77289 4.93628 7.92636 4.93628C8.07981 4.93628 8.24289 4.93628 8.43473 4.95546C8.42513 4.85955 8.42513 4.77324 8.42513 4.68691C8.43473 4.56222 8.44432 4.4471 8.4635 4.34159C8.26207 4.32241 8.07983 4.31281 7.92636 4.31281C7.77289 4.31281 7.59065 4.32241 7.38922 4.34159ZM8.86636 4.1018C8.84717 4.78281 9.01982 5.45424 9.29799 5.72281C9.93104 6.36546 10.6984 6.45178 11.1012 6.45178C11.6288 6.45178 12.118 6.27913 12.377 6.02015C12.7318 5.65566 12.8661 3.92914 12.2427 3.24813C11.9549 2.94119 11.389 2.72058 10.7176 2.65343C10.0845 2.59588 9.5186 2.6918 9.26921 2.91241C9.03901 3.10425 8.88554 3.55506 8.86636 4.1018Z" fill="black"/>
</svg>
