<svg width="49" height="49" viewBox="0 0 49 49" fill="none" xmlns="http://www.w3.org/2000/svg">
<path fill-rule="evenodd" clip-rule="evenodd" d="M19.4358 5.51251C17.3366 5.51406 15.6377 7.21423 15.6392 9.30924C15.6377 11.4042 17.3381 13.1044 19.4373 13.106H23.2355V9.31079C23.237 7.21577 21.5365 5.51561 19.4358 5.51251C19.4373 5.51251 19.4373 5.51251 19.4358 5.51251M19.4358 15.6392H9.31057C7.21137 15.6407 5.5109 17.3409 5.51246 19.4359C5.50935 21.5309 7.20982 23.2311 9.30902 23.2342H19.4358C21.535 23.2326 23.2355 21.5325 23.2339 19.4374C23.2355 17.3409 21.535 15.6407 19.4358 15.6392Z" fill="#36C5F0"/>
<path fill-rule="evenodd" clip-rule="evenodd" d="M43.4868 19.4359C43.4884 17.3409 41.7879 15.6407 39.6887 15.6392C37.5895 15.6407 35.889 17.3409 35.8906 19.4359V23.2342H39.6887C41.7879 23.2326 43.4884 21.5325 43.4868 19.4359ZM33.3601 19.4359V9.30924C33.3616 7.21577 31.6627 5.51561 29.5635 5.51251C27.4643 5.51406 25.7638 7.21423 25.7654 9.30924V19.4359C25.7623 21.5309 27.4627 23.2311 29.562 23.2342C31.6612 23.2326 33.3616 21.5325 33.3601 19.4359Z" fill="#2EB67D"/>
<path fill-rule="evenodd" clip-rule="evenodd" d="M29.5635 43.4877C31.6627 43.4862 33.3632 41.786 33.3616 39.691C33.3632 37.596 31.6627 35.8958 29.5635 35.8943H25.7654V39.691C25.7638 41.7844 27.4643 43.4846 29.5635 43.4877ZM29.5635 33.3595H39.6903C41.7895 33.3579 43.4899 31.6578 43.4884 29.5628C43.4915 27.4678 41.791 25.7676 39.6918 25.7645H29.5651C27.4658 25.766 25.7654 27.4662 25.7669 29.5612C25.7654 31.6578 27.4643 33.3579 29.5635 33.3595Z" fill="#ECB22E"/>
<path fill-rule="evenodd" clip-rule="evenodd" d="M5.51245 29.5625C5.5109 31.6575 7.21137 33.3577 9.31057 33.3593C11.4098 33.3577 13.1102 31.6575 13.1087 29.5625V25.7658H9.31057C7.21137 25.7674 5.5109 27.4675 5.51245 29.5625ZM15.6392 29.5625V39.6892C15.6361 41.7842 17.3366 43.4844 19.4358 43.4875C21.535 43.4859 23.2355 41.7858 23.2339 39.6907V29.5656C23.237 27.4706 21.5365 25.7705 19.4373 25.7674C17.3366 25.7674 15.6377 27.4675 15.6392 29.5625C15.6392 29.5641 15.6392 29.5625 15.6392 29.5625Z" fill="#E01E5A"/>
</svg>
