<svg width="16" height="16" viewBox="0 0 16 16" fill="none" xmlns="http://www.w3.org/2000/svg">
<path fill-rule="evenodd" clip-rule="evenodd" d="M5.93299 0.25C5.07618 0.250632 4.38274 0.944577 4.38338 1.79968C4.38274 2.65479 5.07681 3.34874 5.93363 3.34937H7.48388V1.80032C7.48451 0.945209 6.79045 0.251264 5.93299 0.25C5.93363 0.25 5.93363 0.25 5.93299 0.25M5.93299 4.38333H1.80025C0.943436 4.38396 0.249368 5.07791 0.250002 5.93302C0.248735 6.78812 0.942802 7.48207 1.79962 7.48333H5.93299C6.78981 7.4827 7.48388 6.78875 7.48325 5.93365C7.48388 5.07791 6.78981 4.38396 5.93299 4.38333Z" fill="#36C5F0"/>
<path fill-rule="evenodd" clip-rule="evenodd" d="M15.7498 5.93302C15.7505 5.07791 15.0564 4.38396 14.1996 4.38333C13.3428 4.38396 12.6487 5.07791 12.6493 5.93302V7.48333H14.1996C15.0564 7.4827 15.7505 6.78875 15.7498 5.93302ZM11.6165 5.93302V1.79968C11.6171 0.945209 10.9237 0.251264 10.0669 0.25C9.21004 0.250632 8.51597 0.944577 8.5166 1.79968V5.93302C8.51534 6.78812 9.2094 7.48207 10.0662 7.48333C10.923 7.4827 11.6171 6.78875 11.6165 5.93302Z" fill="#2EB67D"/>
<path fill-rule="evenodd" clip-rule="evenodd" d="M10.0669 15.7501C10.9237 15.7494 11.6177 15.0555 11.6171 14.2004C11.6177 13.3453 10.9237 12.6513 10.0669 12.6507H8.5166V14.2004C8.51597 15.0549 9.21004 15.7488 10.0669 15.7501ZM10.0669 11.6161H14.2002C15.057 11.6155 15.7511 10.9215 15.7505 10.0664C15.7517 9.21132 15.0577 8.51738 14.2009 8.51611H10.0675C9.21067 8.51675 8.5166 9.21069 8.51724 10.0658C8.5166 10.9215 9.21004 11.6155 10.0669 11.6161Z" fill="#ECB22E"/>
<path fill-rule="evenodd" clip-rule="evenodd" d="M0.25 10.0663C0.249367 10.9214 0.943434 11.6153 1.80025 11.616C2.65707 11.6153 3.35114 10.9214 3.3505 10.0663V8.5166H1.80025C0.943434 8.51723 0.249367 9.21118 0.25 10.0663ZM4.38337 10.0663V14.1996C4.38211 15.0547 5.07617 15.7487 5.93299 15.7499C6.78981 15.7493 7.48388 15.0554 7.48324 14.2003V10.0675C7.48451 9.21244 6.79044 8.5185 5.93363 8.51723C5.07617 8.51723 4.38274 9.21118 4.38337 10.0663C4.38337 10.0669 4.38337 10.0663 4.38337 10.0663Z" fill="#E01E5A"/>
</svg>
