<svg width="20" height="20" viewBox="0 0 20 20" fill="none" xmlns="http://www.w3.org/2000/svg">
<g id="slow_motion_video">
<mask id="mask0_1084_6349" style="mask-type:alpha" maskUnits="userSpaceOnUse" x="0" y="0" width="20" height="20">
<rect id="Bounding box" width="20" height="20" fill="#D9D9D9"/>
</mask>
<g mask="url(#mask0_1084_6349)">
<path id="slow_motion_video_2" d="M3.81248 15.1042C3.31248 14.4931 2.90623 13.823 2.59373 13.0938C2.28123 12.3647 2.09026 11.5834 2.02081 10.7501H3.52081C3.59026 11.3751 3.74651 11.9619 3.98956 12.5105C4.23262 13.0591 4.5347 13.5626 4.89581 14.0209L3.81248 15.1042ZM2.02081 9.25008C2.09026 8.41675 2.28123 7.6355 2.59373 6.90633C2.90623 6.17717 3.31248 5.50703 3.81248 4.89591L4.89581 5.97925C4.5347 6.43758 4.23262 6.94105 3.98956 7.48967C3.74651 8.03828 3.59026 8.62508 3.52081 9.25008H2.02081ZM9.22915 17.9584C8.39581 17.889 7.61456 17.698 6.8854 17.3855C6.15623 17.073 5.48609 16.6667 4.87498 16.1667L5.95831 15.0834C6.43054 15.4445 6.93748 15.7466 7.47915 15.9897C8.02081 16.2327 8.60415 16.389 9.22915 16.4584V17.9584ZM5.95831 4.91675L4.87498 3.83341C5.48609 3.33341 6.15623 2.92716 6.8854 2.61466C7.61456 2.30216 8.39581 2.11119 9.22915 2.04175V3.54175C8.60415 3.61119 8.02081 3.76744 7.47915 4.0105C6.93748 4.25355 6.43054 4.55564 5.95831 4.91675ZM7.99998 13.5001V6.50008L13.5 10.0001L7.99998 13.5001ZM10.7291 17.9584V16.4584C12.3541 16.264 13.7187 15.5591 14.8229 14.3438C15.9271 13.1286 16.4791 11.6806 16.4791 10.0001C16.4791 8.31953 15.9271 6.87161 14.8229 5.65633C13.7187 4.44105 12.3541 3.73619 10.7291 3.54175V2.04175C12.7708 2.23619 14.4896 3.08689 15.8854 4.59383C17.2812 6.10078 17.9791 7.90286 17.9791 10.0001C17.9791 12.0973 17.2812 13.8994 15.8854 15.4063C14.4896 16.9133 12.7708 17.764 10.7291 17.9584Z" fill="#475467"/>
</g>
</g>
</svg>
