<svg width="12" height="18" viewBox="0 0 12 18" fill="none" xmlns="http://www.w3.org/2000/svg">
<path d="M4.10031 0.666504C4.28834 1.91509 4.46911 3.11451 4.65087 4.32252H7.08536C7.26481 3.132 7.44822 1.92696 7.63526 0.674421C7.70453 0.792516 7.75138 0.869048 7.79492 0.947558C8.40981 2.04868 9.04845 3.13959 9.52347 4.30999C9.62969 4.57092 9.76428 4.68934 10.0348 4.73553C10.3686 4.79227 10.6926 4.90376 11.0221 4.98689C11.1098 5.00899 11.1448 5.04495 11.1448 5.14292C11.1417 7.94137 11.1399 10.7395 11.1392 13.5373C11.1382 13.5679 11.1309 13.5979 11.1178 13.6255C11.1047 13.6532 11.0861 13.6778 11.063 13.6979C9.33775 14.9099 7.61074 16.1194 5.88197 17.3266C5.87262 17.3296 5.86302 17.3319 5.85327 17.3332L3.91887 15.9807C2.84854 15.2314 1.77754 14.4829 0.705879 13.7352C0.613184 13.6709 0.583496 13.6033 0.583496 13.4934C0.586575 10.7225 0.586575 7.95149 0.583496 5.18053C0.583496 5.06243 0.611535 5.00339 0.73161 4.97535C1.14231 4.87869 1.55168 4.77511 1.95974 4.66757C2.01384 4.65339 2.08542 4.61248 2.10323 4.5663C2.53207 3.45198 3.12387 2.41815 3.69753 1.37607C3.82156 1.15208 3.95153 0.930735 4.10031 0.666504ZM5.86712 4.70617L4.38037 4.76818C4.3698 4.74292 4.36152 4.71675 4.35563 4.69C4.24237 3.90864 4.12966 3.12716 4.01751 2.34557C3.9898 2.15622 3.95879 1.96721 3.92283 1.73464C3.77307 2.00316 3.63584 2.22154 3.525 2.45278C3.11365 3.31046 2.71054 4.17243 2.30446 5.03308C1.88915 5.13204 1.47416 5.23397 1.05786 5.32996C0.944711 5.35602 0.91634 5.41837 0.91667 5.52789C0.919309 8.09301 0.921509 10.6581 0.923268 13.2232C0.925679 13.2642 0.93643 13.3043 0.954865 13.341C0.973299 13.3777 0.999028 13.4103 1.03048 13.4367C1.60149 13.8451 2.17911 14.2442 2.75639 14.644C2.79822 14.6667 2.84248 14.6845 2.88834 14.6971L3.38316 15.0956C3.96242 15.508 4.5419 15.9201 5.1216 16.332C5.36604 16.5048 5.61642 16.6701 5.86349 16.839C5.87372 16.8374 5.88692 16.839 5.8945 16.8337C6.71018 16.2472 7.52585 15.6604 8.34152 15.0732L8.86933 14.6645C8.94298 14.6302 9.01458 14.5916 9.08375 14.549C9.58813 14.1974 10.0882 13.8388 10.5959 13.4934C10.7087 13.4162 10.7536 13.337 10.7529 13.1995C10.748 11.847 10.75 10.4945 10.75 9.14399C10.75 7.94621 10.7476 6.7481 10.7532 5.54999C10.7532 5.40913 10.7133 5.34283 10.5728 5.31314C10.3689 5.26993 10.1717 5.19801 9.96847 5.15249C9.77055 5.10829 9.57262 5.0819 9.3747 5.04759C9.0976 4.40532 8.8337 3.75711 8.53912 3.12144C8.32701 2.65962 8.07729 2.21692 7.82692 1.72937C7.80646 1.81018 7.79393 1.84482 7.78898 1.88045C7.71905 2.36339 7.65175 2.84666 7.57984 3.32959C7.50793 3.81253 7.43173 4.2925 7.3575 4.77379L5.86712 4.70617Z" fill="#FBFBFC"/>
<path d="M8.87087 14.6666L8.34307 15.0753C8.25356 14.2836 8.16394 13.4925 8.07422 12.7022C8.04089 12.774 8.0179 12.8502 8.00593 12.9285C7.91291 13.3636 7.74566 13.7532 7.36399 14.021C7.3221 14.0504 7.30626 14.12 7.28218 14.1714C7.19411 14.3624 7.14067 14.5805 7.01399 14.7408C6.72634 15.1037 6.31894 15.2386 5.86141 15.2287C5.85019 15.2287 5.83931 15.227 5.82842 15.2287C5.26367 15.2472 4.53629 14.8803 4.45547 14.1566C4.44293 14.0999 4.41007 14.0498 4.36311 14.0157C4.12428 13.836 3.94153 13.6169 3.85246 13.3279C3.79704 13.1482 3.74657 12.9651 3.69379 12.7856C3.67697 12.7919 3.66839 12.7929 3.66806 12.7952C3.60835 13.3382 3.55161 13.8818 3.48795 14.4244C3.46156 14.6501 3.41966 14.8744 3.38503 15.099L2.89021 14.7006C2.89819 14.6744 2.90447 14.6477 2.90901 14.6207C3.02579 13.5575 3.1429 12.4943 3.25439 11.4308C3.25447 11.3674 3.23398 11.3057 3.19601 11.255C3.03107 11.0148 2.86052 10.7803 2.69393 10.5421C2.57927 10.3858 2.52112 10.1952 2.529 10.0015C2.55671 9.41 2.56198 8.81391 2.624 8.22772C2.68173 7.69135 2.71472 7.17212 2.43399 6.68423C2.42953 6.67421 2.42589 6.66384 2.42311 6.65323C2.06684 5.67349 2.04804 6.02349 2.30435 5.03452C2.71043 4.17388 3.11354 3.31191 3.52489 2.45423C3.63573 2.22332 3.77296 2.00461 3.92272 1.73609C3.95868 1.96865 3.9887 2.15767 4.0174 2.34702C4.13088 3.12839 4.24391 3.90986 4.35651 4.69145C4.36215 4.71772 4.3701 4.74344 4.38026 4.76831C4.43898 5.21233 4.41325 5.68207 4.74313 6.00766L5.8647 5.84437C6.20382 5.90177 6.5426 5.96048 6.88204 6.01458C6.9246 6.02151 6.99486 6.02019 7.01102 5.99545C7.09844 5.8635 7.20895 5.73155 7.24392 5.58509C7.30758 5.32118 7.32342 5.04508 7.35904 4.77392C7.43327 4.29263 7.50947 3.81134 7.58138 3.32972C7.65329 2.8481 7.72059 2.36351 7.79052 1.88058C7.7958 1.84495 7.80801 1.81031 7.82846 1.72949C8.07949 2.21705 8.32855 2.66073 8.54066 3.12157C8.83359 3.75724 9.09749 4.40545 9.37525 5.04838C9.42187 5.21749 9.46838 5.3865 9.51479 5.5554C9.57864 5.76653 9.56531 5.99348 9.47718 6.19569C9.32841 6.54964 9.20239 6.91251 9.07176 7.27537C9.04648 7.34138 9.03525 7.41194 9.03877 7.48253C9.09419 8.18847 9.15555 8.89374 9.21295 9.59935C9.24792 10.0338 9.18425 10.4405 8.88637 10.7869C8.77199 10.9206 8.66821 11.063 8.57596 11.2128C8.53109 11.285 8.49448 11.383 8.5024 11.4645C8.57695 12.213 8.66008 12.9605 8.74485 13.7076C8.78213 14.0266 8.82864 14.3463 8.87087 14.6666ZM3.71853 11.003C3.80298 11.1171 3.87621 11.2418 3.97451 11.3421C4.11042 11.4813 4.15265 11.6363 4.15924 11.8273C4.17574 12.2931 4.22291 12.7576 4.39379 13.1976C4.51617 13.5133 4.80877 13.6997 5.11061 13.6661C5.41244 13.6324 5.63841 13.4071 5.68624 13.0795C5.69713 13.0033 5.65127 12.9192 5.63148 12.8391L5.43356 12.9186C5.42135 12.91 5.38935 12.8892 5.35999 12.8658C5.01758 12.592 5.00043 12.5158 5.18978 12.1222C5.19828 12.1022 5.20577 12.0817 5.21221 12.0609L5.86371 12.0569L6.54128 12.0589C6.55975 12.1048 6.57625 12.1513 6.59769 12.1955C6.73261 12.4746 6.71612 12.5613 6.4819 12.7635C6.41593 12.8196 6.34995 12.8714 6.29882 12.911C6.22097 12.878 6.16687 12.845 6.11442 12.841C6.09628 12.841 6.06032 12.9169 6.05504 12.9611C6.01909 13.2636 6.23516 13.5714 6.5304 13.6469C6.87545 13.7353 7.22116 13.5453 7.35212 13.1851C7.5253 12.7101 7.57149 12.2146 7.5893 11.7135C7.59676 11.6236 7.62733 11.5371 7.67803 11.4625C7.78293 11.3032 7.90433 11.1547 8.0188 11.0007C8.22596 10.712 8.43609 10.4254 8.63731 10.1328C8.66799 10.0882 8.6703 10.0166 8.66766 9.95825C8.6614 9.75043 8.65183 9.54228 8.63468 9.33512C8.59443 8.81721 8.54429 8.3003 8.51064 7.78206C8.49437 7.57743 8.50112 7.37162 8.53077 7.16849C8.54049 7.12206 8.54051 7.07411 8.5308 7.02767C8.52109 6.98123 8.50187 6.9373 8.47436 6.89865C8.30414 6.63211 8.1392 6.36238 7.97954 6.08947C7.91554 5.97962 7.87134 5.85855 7.81823 5.7431C7.63119 6.0479 7.45042 6.34083 7.27097 6.63376C7.22116 6.71524 7.16244 6.69974 7.08822 6.66675C6.69953 6.50019 6.28413 6.40466 5.86174 6.38471C5.45576 6.40277 5.05666 6.49606 4.68474 6.65982C4.56565 6.71227 4.49935 6.69281 4.4337 6.58164C4.27206 6.30521 4.1002 6.03504 3.95274 5.79555C3.75482 6.13631 3.55689 6.49653 3.3362 6.84026C3.24912 6.97551 3.15906 7.07942 3.2412 7.25162C3.27419 7.3199 3.26363 7.41392 3.2567 7.49474C3.22372 7.8708 3.17786 8.24554 3.15444 8.62193C3.12475 9.09695 3.11123 9.57296 3.09572 10.049C3.0954 10.104 3.11173 10.1578 3.14257 10.2034C3.33125 10.4752 3.52588 10.7391 3.71853 11.003ZM2.94233 6.4421C3.38799 5.89088 3.95769 4.26954 3.59581 3.51907C3.52984 3.65465 3.45694 3.77769 3.40515 3.90865C3.17291 4.4932 2.94497 5.0795 2.72131 5.66755C2.70235 5.72969 2.70374 5.79627 2.72527 5.85756C2.78927 6.04955 2.86514 6.23758 2.94233 6.4421ZM8.14349 3.5095L8.10819 3.51775C8.07785 3.76054 7.99636 4.01026 8.02671 4.24546C8.11281 4.91214 8.29292 5.55771 8.62049 6.15379C8.66898 6.24253 8.72638 6.32599 8.79796 6.44111C8.858 6.28541 8.89693 6.15907 8.95433 6.04328C9.05329 5.84701 9.04999 5.6537 8.97181 5.45511C8.80423 5.03188 8.64193 4.60634 8.46677 4.18641C8.36913 3.95616 8.25136 3.73481 8.14349 3.5095ZM6.68379 14.1813C6.58483 14.2199 6.4951 14.2321 6.43638 14.2803C6.13718 14.5346 5.60146 14.5442 5.3115 14.2803C5.22771 14.2038 5.15316 14.1863 5.05255 14.2229C5.1624 14.5257 5.51174 14.7108 5.92276 14.6949C6.21239 14.6854 6.64222 14.5158 6.68379 14.1813ZM6.19788 14.1286C5.9762 13.9659 5.76673 13.9656 5.53813 14.1262C5.76013 14.2473 5.97455 14.246 6.19788 14.1286Z" fill="#363255"/>
<path d="M2.30397 5.03223C2.04765 6.02186 2.06646 5.6712 2.42272 6.65093C2.42551 6.66154 2.42915 6.67191 2.43361 6.68194C2.71433 7.17015 2.68135 7.68905 2.62362 8.22543C2.56028 8.81327 2.55764 9.4077 2.52861 9.99917C2.52073 10.1929 2.57889 10.3835 2.69355 10.5398C2.85849 10.778 3.03201 11.0126 3.19562 11.2527C3.2336 11.3035 3.25408 11.3651 3.25401 11.4285C3.14251 12.492 3.02541 13.5552 2.90863 14.6184C2.90409 14.6454 2.89781 14.6721 2.88983 14.6983C2.84397 14.6856 2.7997 14.6678 2.75788 14.6451C2.18059 14.2453 1.60331 13.8462 1.03196 13.4378C1.00052 13.4114 0.974786 13.3788 0.956352 13.3421C0.937917 13.3054 0.927165 13.2654 0.924755 13.2244C0.919477 10.6593 0.917278 8.09414 0.918157 5.52902C0.918157 5.41785 0.946198 5.35551 1.05935 5.33109C1.47367 5.23411 1.88865 5.13119 2.30397 5.03223Z" fill="#DADADA"/>
<path d="M8.87134 14.6665C8.82911 14.3462 8.7826 14.0266 8.74598 13.7059C8.66121 12.9584 8.57808 12.2109 8.50352 11.4628C8.49561 11.3813 8.53222 11.2833 8.57709 11.2111C8.66934 11.0613 8.77312 10.9189 8.8875 10.7852C9.18439 10.4392 9.25037 10.0324 9.21408 9.59766C9.15668 8.89206 9.09532 8.18678 9.0399 7.48085C9.03638 7.41025 9.04761 7.33969 9.07289 7.27369C9.20484 6.9128 9.32888 6.54796 9.47831 6.19565C9.56644 5.99345 9.57977 5.76649 9.51591 5.55536C9.46907 5.38646 9.42256 5.21746 9.37638 5.04834C9.5743 5.08133 9.77487 5.10904 9.97015 5.15324C10.1734 5.19876 10.3706 5.27068 10.5745 5.31389C10.715 5.34358 10.7556 5.40988 10.7549 5.55074C10.7493 6.74885 10.7516 7.94696 10.7516 9.14639C10.7516 10.4989 10.7497 11.8514 10.7546 13.2019C10.7546 13.3394 10.7104 13.4186 10.5976 13.4958C10.0899 13.8425 9.58981 14.2011 9.08543 14.5514C9.01636 14.5939 8.94487 14.6324 8.87134 14.6665Z" fill="#C5C5C6"/>
<path d="M5.86133 15.2287C6.31887 15.2386 6.72626 15.1043 7.01392 14.7408C7.14059 14.5805 7.19403 14.3624 7.28211 14.1714C7.30619 14.1193 7.32202 14.0504 7.36391 14.021C7.74558 13.7538 7.91283 13.3635 8.00585 12.9284C8.01782 12.8502 8.04081 12.774 8.07414 12.7021C8.16386 13.4939 8.25348 14.2849 8.34299 15.0753C7.52665 15.6622 6.71164 16.2491 5.89794 16.8358C5.89036 16.8414 5.87716 16.8395 5.86694 16.8411L5.86133 15.2287Z" fill="#3C3A66"/>
<path d="M5.86148 15.2284L5.8651 16.8415C5.61737 16.6726 5.36765 16.5073 5.12321 16.3345C4.54241 15.9241 3.96293 15.512 3.38477 15.0981C3.41775 14.8734 3.4613 14.6491 3.48769 14.4235C3.55135 13.8808 3.60809 13.3372 3.6678 12.7942C3.6678 12.7919 3.67671 12.7909 3.69353 12.7847C3.74631 12.9658 3.79678 13.1475 3.8522 13.327C3.94127 13.616 4.12402 13.835 4.36285 14.0148C4.40981 14.0489 4.44267 14.099 4.45521 14.1556C4.53603 14.8794 5.26341 15.2462 5.82816 15.2277C5.83937 15.2267 5.85026 15.2281 5.86148 15.2284Z" fill="#54527D"/>
<path d="M7.35713 4.77368C7.32151 5.04484 7.30567 5.32061 7.24201 5.58485C7.20671 5.7323 7.09653 5.86392 7.00911 5.99521C6.99295 6.01995 6.92268 6.02127 6.88013 6.01434C6.54069 5.96024 6.20191 5.90153 5.86279 5.84413L5.86675 4.70605L7.35713 4.77368Z" fill="#C5C5C5"/>
<path d="M5.86682 4.70605L5.86286 5.84413L4.74128 6.00742C4.41338 5.68183 4.43813 5.21208 4.37842 4.76807L5.86682 4.70605Z" fill="#D9D9DA"/>
<path d="M5.86157 6.38721C6.28397 6.40717 6.69937 6.5027 7.08805 6.66926C7.16227 6.70225 7.22 6.71709 7.2708 6.63627C7.45026 6.34268 7.63103 6.04975 7.81807 5.74561C7.87118 5.86106 7.91538 5.98213 7.97938 6.09198C8.13904 6.36489 8.30397 6.63462 8.47419 6.90116C8.50171 6.93981 8.52092 6.98374 8.53063 7.03018C8.54034 7.07662 8.54033 7.12457 8.5306 7.171C8.50096 7.37413 8.49421 7.57994 8.51048 7.78457C8.54347 8.30281 8.59427 8.81972 8.63451 9.33763C8.65035 9.54479 8.65991 9.75294 8.6675 9.96076C8.66948 10.0192 8.6675 10.0907 8.63715 10.1353C8.43592 10.4279 8.22579 10.7145 8.01863 11.0032C7.55483 10.9372 7.20186 10.6984 6.93664 10.3154C6.86472 10.2118 6.76708 10.1257 6.6602 10.0083C6.64767 10.1824 6.63645 10.3183 6.62721 10.4546C6.5973 10.9896 6.56806 11.5248 6.53947 12.0601L5.86289 12.0584C5.86267 10.1672 5.86223 8.27675 5.86157 6.38721ZM7.1184 9.08956H6.75554C6.71199 9.08956 6.66779 9.0922 6.62359 9.08956C6.49394 9.079 6.47481 9.1529 6.49757 9.2545C6.56784 9.56656 6.93928 9.81529 7.27509 9.78032C7.44936 9.76517 7.61183 9.68598 7.73112 9.55803C7.85041 9.43009 7.91806 9.26248 7.92099 9.08758H7.58418L7.34667 9.08329L7.1184 9.08956ZM6.50945 8.75968C6.84856 8.75968 7.13918 8.76265 7.4298 8.75968C7.54064 8.75968 7.68678 8.56803 7.68084 8.4374C7.67358 8.28202 7.54889 8.27246 7.44135 8.27246C7.06628 8.27279 6.78061 8.45521 6.51011 8.75968H6.50945Z" fill="#3C3A66"/>
<path d="M5.86172 6.38701C5.86172 8.27698 5.86172 10.1668 5.86172 12.0566L5.21022 12.0606C5.1703 11.3906 5.13005 10.7209 5.0875 10.0077C4.9793 10.1245 4.88958 10.2007 4.82657 10.2931C4.55607 10.6853 4.19848 10.9367 3.71884 11.0026C3.5262 10.7387 3.33157 10.4748 3.14255 10.2057C3.11171 10.1601 3.09538 10.1063 3.09571 10.0513C3.11121 9.57526 3.12474 9.09925 3.15443 8.62423C3.17785 8.24784 3.22469 7.8731 3.25669 7.49704C3.26362 7.41622 3.27384 7.32221 3.24118 7.25392C3.15905 7.08173 3.2491 6.97782 3.33619 6.84257C3.55787 6.49884 3.75381 6.13861 3.95273 5.79785C4.10018 6.03734 4.27205 6.30751 4.43369 6.58395C4.49966 6.69643 4.56564 6.7159 4.68472 6.66213C5.05664 6.49836 5.45574 6.40508 5.86172 6.38701ZM4.45447 9.09365L4.08896 9.08936C4.03981 9.08936 3.99 9.08936 3.94118 9.08672C3.8343 9.08078 3.80923 9.13323 3.82869 9.22988C3.88774 9.52149 4.17308 9.76164 4.48647 9.78012C4.8081 9.79925 5.13995 9.59374 5.23034 9.31829C5.29994 9.10783 5.28345 9.0854 5.06045 9.08573H4.91267H4.67186L4.45447 9.09365ZM5.1802 8.75948L5.19867 8.71891C4.96083 8.46325 4.68538 8.27357 4.31427 8.27093C4.20046 8.27093 4.06884 8.2739 4.05532 8.43422C4.0441 8.56419 4.20673 8.7575 4.32351 8.75882C4.60753 8.76146 4.8932 8.75948 5.17855 8.75948H5.1802Z" fill="#54527D"/>
<path d="M3.71826 11.0027C4.1979 10.9367 4.55549 10.6854 4.82731 10.2932C4.89328 10.2008 4.98004 10.1246 5.08824 10.0078C5.13079 10.721 5.17104 11.3907 5.21095 12.0606C5.20451 12.0814 5.19702 12.1019 5.18852 12.122C4.99917 12.5155 5.01632 12.5917 5.35874 12.8655C5.38809 12.889 5.42009 12.9097 5.4323 12.9183L5.63022 12.8388C5.65002 12.919 5.6962 13.0037 5.68498 13.0793C5.63814 13.4069 5.40723 13.6332 5.10935 13.6658C4.81147 13.6985 4.51557 13.5131 4.39253 13.1974C4.22165 12.7573 4.17448 12.2929 4.15799 11.8271C4.15139 11.6361 4.10916 11.481 3.97326 11.3418C3.87594 11.2415 3.80271 11.1169 3.71826 11.0027Z" fill="#DCB49C"/>
<path d="M6.54075 12.0587C6.56978 11.5236 6.59903 10.9884 6.6285 10.4532C6.63608 10.3169 6.6473 10.181 6.66148 10.0068C6.76836 10.1243 6.86601 10.2104 6.93792 10.314C7.20182 10.6969 7.55611 10.9348 8.01991 11.0017C7.90545 11.1548 7.78405 11.3032 7.67915 11.4636C7.62844 11.5382 7.59788 11.6247 7.59041 11.7146C7.5726 12.2157 7.52642 12.7112 7.35323 13.1862C7.22128 13.5461 6.87656 13.7361 6.53151 13.648C6.23627 13.5725 6.0202 13.2647 6.05616 12.9622C6.06144 12.918 6.09739 12.8408 6.11554 12.8421C6.16964 12.8451 6.22209 12.8797 6.29994 12.9121C6.34942 12.8725 6.41803 12.8207 6.48302 12.7646C6.71723 12.5624 6.73372 12.4756 6.59881 12.1966C6.57571 12.1514 6.5579 12.1048 6.54075 12.0587Z" fill="#C99678"/>
<path d="M2.9423 6.44208C2.86511 6.23755 2.78924 6.04952 2.72524 5.85754C2.7037 5.79624 2.70232 5.72967 2.72128 5.66753C2.9445 5.07969 3.17244 4.49339 3.40512 3.90863C3.45691 3.77668 3.52882 3.65462 3.59578 3.51904C3.95766 4.26951 3.38796 5.88986 2.9423 6.44208Z" fill="#DBB39B"/>
<path d="M8.1434 3.50928C8.25127 3.73458 8.36903 3.95593 8.46503 4.18618C8.64019 4.60612 8.80249 5.03166 8.97007 5.45489C9.04825 5.65281 9.0522 5.84678 8.95258 6.04306C8.89386 6.15884 8.85626 6.28519 8.79622 6.44089C8.72464 6.32576 8.66724 6.24296 8.61875 6.15357C8.29283 5.55748 8.11272 4.91191 8.02497 4.24523C7.99462 4.01003 8.0761 3.76031 8.10645 3.51752L8.1434 3.50928Z" fill="#C79578"/>
<path d="M6.68373 14.1812C6.64216 14.5156 6.21234 14.6852 5.9227 14.6961C5.51168 14.7119 5.16399 14.5269 5.05249 14.224C5.15145 14.1874 5.22765 14.2049 5.31144 14.2814C5.6014 14.5453 6.13613 14.5361 6.43632 14.2814C6.49504 14.232 6.58543 14.2197 6.68373 14.1812Z" fill="#BC8C6E"/>
<path d="M6.19833 14.1282C5.975 14.2457 5.76058 14.247 5.53857 14.1259C5.76619 13.9653 5.97665 13.9656 6.19833 14.1282Z" fill="#F4F4F5"/>
<path d="M7.58391 9.08936H7.92236C7.91943 9.26426 7.85178 9.43187 7.73249 9.55981C7.6132 9.68775 7.45073 9.76694 7.27646 9.7821C6.94065 9.81838 6.56921 9.56834 6.49894 9.25627C6.47618 9.15401 6.49532 9.08012 6.62496 9.09133C6.6685 9.09463 6.7127 9.09133 6.75691 9.09133C6.79484 9.35952 6.95648 9.51391 7.18971 9.50401C7.4127 9.49312 7.56148 9.33676 7.58391 9.08936Z" fill="#353255"/>
<path d="M6.51025 8.75969C6.78075 8.45554 7.06643 8.27312 7.44215 8.27246C7.5487 8.27246 7.67307 8.28071 7.68164 8.4374C7.68758 8.56935 7.54145 8.75837 7.43061 8.75969C7.13999 8.76233 6.84937 8.75969 6.51025 8.75969Z" fill="#C89678"/>
<path d="M7.58402 9.08974C7.56159 9.33813 7.41281 9.4945 7.18817 9.50373C6.95495 9.51363 6.79232 9.35925 6.75537 9.09106L7.11823 9.08941C7.10042 9.16528 7.08294 9.24148 7.05952 9.34209C7.10669 9.40807 7.19147 9.44633 7.29043 9.3863C7.4204 9.31009 7.38543 9.19662 7.3442 9.08545L7.58402 9.08974Z" fill="#F5F5F6"/>
<path d="M7.34645 9.08447C7.38769 9.19564 7.42265 9.30912 7.29268 9.38532C7.19075 9.44536 7.10729 9.40841 7.06177 9.34112C7.08519 9.2405 7.10267 9.1643 7.12049 9.08843L7.34645 9.08447Z" fill="#3D3A5C"/>
<path d="M4.91276 9.08936H5.06055C5.28354 9.08936 5.30004 9.11146 5.23043 9.32192C5.14005 9.59637 4.80819 9.80189 4.48656 9.78374C4.17318 9.76527 3.88784 9.52512 3.82879 9.23351C3.80933 9.13686 3.8344 9.08441 3.94128 9.09035C3.99043 9.09298 4.04024 9.09232 4.08906 9.09298C4.12799 9.35688 4.28699 9.51127 4.51361 9.505C4.74024 9.49873 4.89726 9.33709 4.91276 9.08936Z" fill="#363256"/>
<path d="M5.17866 8.75957C4.89332 8.75957 4.60765 8.76155 4.32099 8.75957C4.20421 8.75957 4.04158 8.56495 4.0528 8.43498C4.06632 8.27466 4.19794 8.27004 4.31175 8.27169C4.68286 8.27433 4.95831 8.46401 5.19615 8.71966L5.17866 8.75957Z" fill="#DAB39C"/>
<path d="M4.91257 9.08969C4.89706 9.33808 4.74367 9.49708 4.51342 9.50368C4.28317 9.51028 4.12779 9.35656 4.08887 9.09166L4.45437 9.09463C4.43458 9.16688 4.41446 9.23912 4.3884 9.33478C4.4392 9.41494 4.52925 9.44991 4.63547 9.37932C4.75159 9.3018 4.72751 9.19492 4.67209 9.08936L4.91257 9.08969Z" fill="#F4F3F5"/>
<path d="M4.67163 9.08936C4.72705 9.19492 4.75113 9.3018 4.63502 9.37932C4.5288 9.44991 4.43709 9.41494 4.38794 9.33478C4.41433 9.23912 4.43445 9.16688 4.45391 9.09463L4.67163 9.08936Z" fill="#3B375A"/>
</svg>
