<svg width="20" height="21" viewBox="0 0 20 21" fill="none" xmlns="http://www.w3.org/2000/svg">
<g clip-path="url(#clip0_939_2158)">
<path d="M9.55198 20.0266C9.53342 20.0192 9.51511 20.0066 9.49605 20.0056C9.33615 19.9954 9.17552 19.9907 9.01587 19.9773C8.86043 19.9642 8.70401 19.9519 8.55104 19.9236C8.18324 19.8558 7.81395 19.7915 7.4511 19.7029C6.98677 19.5892 6.53679 19.4279 6.09547 19.242C5.53906 19.0076 5.01162 18.7197 4.50669 18.3918C4.23443 18.2148 3.97652 18.0153 3.71787 17.8188C3.3065 17.5062 2.94142 17.1411 2.59342 16.7619C2.34096 16.4869 2.10706 16.1921 1.88925 15.8887C1.65931 15.5679 1.44471 15.2343 1.24844 14.8917C1.07493 14.5885 0.924194 14.2707 0.784844 13.9502C0.657128 13.6561 0.558123 13.35 0.44699 13.0487C0.435604 13.0178 0.425704 12.9861 0.419763 12.9539C0.410605 12.9037 0.427931 12.8638 0.477929 12.8445C0.516293 12.8297 0.555153 12.8156 0.594755 12.8042C1.0576 12.6708 1.5207 12.5386 1.98355 12.4052C2.19715 12.3436 2.41026 12.2802 2.62361 12.2176C2.78425 12.1703 2.81445 12.1849 2.86939 12.3421C3.00181 12.7198 3.15354 13.0891 3.33942 13.4438C3.57505 13.8937 3.85227 14.3157 4.17082 14.7118C4.40422 15.0019 4.66312 15.2677 4.93662 15.5172C5.25591 15.8085 5.6007 16.0684 5.96974 16.2971C6.24324 16.4666 6.52218 16.624 6.81153 16.7644C7.28081 16.9923 7.76965 17.1636 8.27853 17.275C8.52704 17.3295 8.7795 17.3666 9.03147 17.4037C9.39407 17.4572 9.75915 17.4846 10.1257 17.4743C10.3307 17.4683 10.5351 17.4403 10.74 17.4312C11.021 17.4188 11.2942 17.3614 11.5682 17.3067C11.9895 17.2228 12.3969 17.0918 12.7949 16.9322C13.2629 16.7443 13.7114 16.5161 14.1292 16.2355C14.3985 16.0545 14.6559 15.854 14.9044 15.6456C15.1121 15.4711 15.3086 15.2808 15.493 15.0818C15.6853 14.8739 15.8645 14.6526 16.0363 14.4274C16.294 14.0895 16.5192 13.7286 16.7061 13.3472C16.8417 13.0703 16.9521 12.7812 17.0722 12.4968C17.0944 12.4438 17.1073 12.3869 17.1274 12.3327C17.1655 12.2297 17.1885 12.2183 17.2942 12.2503C17.7437 12.3856 18.1931 12.5215 18.6426 12.6572C18.9067 12.7369 19.1711 12.8163 19.4354 12.895C19.5468 12.9282 19.5715 12.9653 19.5374 13.074C19.425 13.4321 19.3003 13.7861 19.1352 14.1232C18.9778 14.4449 18.8193 14.767 18.6426 15.0783C18.5028 15.3249 18.3402 15.559 18.1775 15.7917C18.0387 15.9904 17.887 16.1803 17.7387 16.3723C17.6835 16.4439 17.6261 16.5144 17.5635 16.5795C17.3041 16.8503 17.0509 17.1277 16.7791 17.3856C16.4566 17.6913 16.1098 17.9713 15.743 18.2222C15.4581 18.4173 15.1609 18.5952 14.8624 18.7695C14.3985 19.04 13.9067 19.2529 13.403 19.437C12.9112 19.6167 12.408 19.7581 11.8932 19.8538C11.5823 19.9118 11.2702 19.964 10.9534 19.9808C10.8428 19.9868 10.7321 19.9962 10.6217 20.0063C10.6027 20.008 10.5846 20.0202 10.566 20.0276H9.55124L9.55198 20.0266ZM13.7013 17.9141C13.7404 17.8586 13.7669 17.827 13.7864 17.7916C13.804 17.7596 13.8243 17.7242 13.8263 17.6893C13.8357 17.529 13.6971 17.3899 13.5369 17.4064C13.3454 17.4262 13.1857 17.528 13.0233 17.6168C13.1538 17.9668 13.3585 18.4012 13.4404 18.4947C13.4778 18.4759 13.5181 18.4556 13.5619 18.4339C13.5072 18.3042 13.4582 18.1878 13.411 18.0757C13.5065 17.9846 13.5152 17.9814 13.6045 18.0428C13.6686 18.0868 13.7297 18.1356 13.7896 18.1851C13.8882 18.2663 13.9792 18.268 14.0938 18.1821C13.9644 18.0938 13.8372 18.0067 13.7015 17.9141H13.7013ZM4.43169 16.4547C4.2921 16.6406 4.15398 16.7968 4.03419 16.9772C4.07825 17.0107 4.11191 17.0367 4.14928 17.0649C4.17552 17.0367 4.1926 17.0201 4.20769 17.0018C4.27551 16.9191 4.33987 16.8332 4.4114 16.7537C4.46461 16.6948 4.53812 16.6951 4.59975 16.7438C4.68218 16.8089 4.69257 16.8478 4.63614 16.9317C4.58589 17.0067 4.52723 17.0763 4.47402 17.1493C4.44852 17.1844 4.42674 17.222 4.40001 17.2636C4.43937 17.2983 4.46882 17.3243 4.5057 17.3567C4.53367 17.3262 4.55644 17.304 4.57599 17.2792C4.63515 17.2055 4.6896 17.1275 4.75296 17.0577C4.79727 17.0089 4.85321 16.9693 4.92746 16.9975C5.02523 17.0349 5.05617 17.1339 4.99478 17.2324C4.95815 17.2916 4.90964 17.3431 4.86756 17.399C4.83143 17.447 4.78143 17.4881 4.7797 17.5673C4.81064 17.5856 4.84405 17.6054 4.88538 17.6299C4.97647 17.5119 5.06582 17.4047 5.14502 17.2906C5.24898 17.1406 5.19255 16.9738 5.02176 16.9126C4.9683 16.8933 4.91162 16.8834 4.8594 16.8701C4.85048 16.8552 4.84083 16.8453 4.83836 16.8339C4.81187 16.7099 4.73143 16.6436 4.61164 16.6184C4.56807 16.6092 4.54258 16.5857 4.52278 16.5431C4.50743 16.5107 4.46907 16.4894 4.43169 16.4543V16.4547ZM9.73168 19.1722C9.72846 19.1529 9.72772 19.1326 9.72128 19.1145C9.65718 18.9319 9.59183 18.7497 9.52748 18.5673C9.49035 18.4623 9.45644 18.3564 9.41684 18.2524C9.38962 18.1809 9.31833 18.1465 9.25967 18.1794C9.22972 18.1962 9.20522 18.2297 9.18765 18.2611C9.04904 18.5091 8.91216 18.7581 8.77603 19.0076C8.76143 19.0343 8.7545 19.065 8.74188 19.0997C8.7691 19.1051 8.7847 19.1091 8.80054 19.1111C8.86703 19.12 8.91621 19.0936 8.94805 19.0318C8.99954 18.9326 9.07478 18.897 9.19482 18.9153C9.24334 18.9227 9.29284 18.9383 9.34061 18.9348C9.43986 18.9279 9.49258 18.9732 9.5255 19.0623C9.57426 19.1942 9.57971 19.1947 9.73143 19.1722H9.73168ZM12.2575 17.8727C12.0682 17.8725 11.9719 17.9435 11.9286 18.124C11.8766 18.3415 11.9281 18.5425 12.0526 18.721C12.1278 18.8286 12.232 18.9029 12.3788 18.8737C12.6194 18.8257 12.6939 18.7155 12.6875 18.4457C12.6838 18.2953 12.6263 18.1497 12.538 18.0193C12.4684 17.9166 12.3771 17.871 12.2573 17.8725L12.2575 17.8727ZM14.6153 17.1193C14.8299 17.3859 15.0022 17.6547 15.2119 17.9054C15.2559 17.8713 15.2868 17.8473 15.3252 17.8173C15.2539 17.7146 15.1871 17.6188 15.1091 17.5067C15.1609 17.4926 15.194 17.4827 15.2279 17.4745C15.368 17.4413 15.4762 17.3379 15.4881 17.2094C15.5022 17.0587 15.4467 16.931 15.3173 16.85C15.1864 16.7681 15.0886 16.7575 14.9522 16.8587C14.9138 16.8872 14.8824 16.9272 14.8539 16.9666C14.8198 17.0139 14.7933 17.0609 14.7218 17.0609C14.6916 17.0609 14.6611 17.0931 14.6156 17.1193H14.6153ZM15.9675 15.981C16.0163 16.0639 16.3519 16.3612 16.4593 16.4119C16.4828 16.3793 16.5078 16.3451 16.5368 16.3053C16.4964 16.2701 16.4653 16.2441 16.4353 16.2169C16.3838 16.1699 16.3296 16.1248 16.2828 16.0733C16.2252 16.0097 16.2078 15.9253 16.2497 15.855C16.3009 15.7689 16.3764 15.6974 16.4472 15.6127C16.4932 15.6427 16.5279 15.6627 16.5598 15.6867C16.6125 15.7261 16.6618 15.7699 16.7152 15.8082C16.8501 15.9055 16.9707 15.8771 17.0529 15.7305C17.0905 15.6635 17.084 15.6484 16.9977 15.6068C16.9791 15.6268 16.9615 15.6498 16.94 15.6682C16.8974 15.7045 16.8487 15.708 16.8034 15.6763C16.7427 15.634 16.6841 15.5887 16.6274 15.5412C16.5801 15.5018 16.5712 15.4528 16.6058 15.3984C16.6227 15.3719 16.6368 15.3437 16.6558 15.3093C16.6207 15.29 16.5937 15.2751 16.5776 15.2664C16.5271 15.3058 16.488 15.3605 16.4457 15.363C16.3955 15.3659 16.3427 15.3241 16.2779 15.2959C16.2549 15.3318 16.2323 15.3669 16.2096 15.4023C16.2319 15.4273 16.2457 15.4422 16.2588 15.4575C16.3301 15.5397 16.3331 15.5672 16.2497 15.6419C16.1789 15.7055 16.139 15.7823 16.12 15.8719C16.0608 15.9011 15.9789 15.8944 15.9675 15.981ZM10.5156 18.247C10.3309 18.1448 10.1631 18.1453 9.99429 18.2346C9.89578 18.2868 9.85073 18.3915 9.86509 18.5037C9.88266 18.6418 9.98266 18.6925 10.094 18.7329C10.152 18.7536 10.2131 18.766 10.2695 18.7898C10.344 18.821 10.3742 18.8702 10.3663 18.9296C10.3579 18.9935 10.3067 19.045 10.2339 19.0581C10.1668 19.0705 10.1049 19.0554 10.0433 19.0247C9.9339 18.9702 9.91657 18.9794 9.86583 19.1012C10.0166 19.2205 10.223 19.2457 10.3851 19.1613C10.4893 19.1071 10.5356 19.0177 10.5423 18.9007C10.5485 18.7866 10.498 18.7118 10.401 18.6631C10.368 18.6465 10.3334 18.6334 10.2985 18.6212C10.2443 18.6019 10.1883 18.5868 10.1346 18.5663C10.0653 18.5395 10.0393 18.4982 10.0465 18.4361C10.0537 18.3745 10.0918 18.3279 10.1576 18.3225C10.2136 18.3178 10.2713 18.3274 10.3274 18.3358C10.3586 18.3405 10.3883 18.3561 10.4262 18.3695C10.4547 18.3302 10.4804 18.2948 10.5153 18.2465L10.5156 18.247ZM8.73965 18.1829C8.61366 18.0188 8.31912 17.9807 8.17532 18.0826C8.05453 18.1683 8.02681 18.3576 8.12879 18.4641C8.17903 18.5165 8.24512 18.5539 8.30526 18.5967C8.34214 18.623 8.38521 18.6418 8.41788 18.6717C8.49189 18.7395 8.47976 18.8435 8.38942 18.8848C8.34808 18.9036 8.29165 18.9118 8.24883 18.8999C8.19636 18.8853 8.15007 18.846 8.10255 18.815C8.04859 18.7799 7.99884 18.7866 7.96295 18.8361C7.93499 18.8747 7.94291 18.914 7.99884 18.9482C8.13522 19.0311 8.27606 19.0873 8.44313 19.037C8.57258 18.9979 8.63272 18.9103 8.64658 18.7871C8.65846 18.6826 8.62258 18.5935 8.52704 18.5366C8.48471 18.5113 8.44189 18.4866 8.39981 18.4611C8.36467 18.4398 8.32853 18.4195 8.29561 18.3952C8.2523 18.3636 8.22334 18.3148 8.24858 18.2673C8.26937 18.2279 8.31442 18.1826 8.35402 18.1769C8.41046 18.169 8.47332 18.1901 8.5305 18.2079C8.56787 18.2195 8.6003 18.2475 8.65228 18.2784C8.68173 18.2457 8.70846 18.2163 8.73915 18.1824L8.73965 18.1829ZM3.29091 15.3499C3.22977 15.2635 3.17507 15.1914 3.12631 15.1157C3.04092 14.9833 3.05379 14.938 3.1919 14.8647C3.21294 14.8536 3.2367 14.8479 3.27036 14.8355C3.36071 14.9583 3.44981 15.0788 3.53768 15.1979C3.64485 15.1437 3.65129 15.1296 3.60253 15.0526C3.5607 14.9865 3.51837 14.9209 3.47308 14.8573C3.41219 14.7717 3.34833 14.6883 3.28101 14.5974C3.00775 14.7865 2.74564 14.9677 2.47511 15.1548C2.51001 15.2021 2.53773 15.2397 2.57213 15.2862C2.68747 15.211 2.79217 15.1427 2.90776 15.0672C3.00256 15.1914 3.09067 15.3068 3.18151 15.4261C3.22235 15.3976 3.25155 15.3771 3.29066 15.3499H3.29091ZM7.11918 18.4913C7.10953 18.4871 7.09963 18.4829 7.08998 18.4787C7.08552 18.4598 7.07859 18.441 7.07686 18.422C7.06745 18.3116 7.06003 18.2012 7.05087 18.0908C7.04221 17.9893 7.00409 17.9658 6.89593 17.9911C6.90756 18.2 6.92365 18.4086 6.92885 18.6175C6.93281 18.7727 6.85261 18.8311 6.70015 18.8004C6.68084 18.7965 6.66054 18.7972 6.63307 18.7952C6.61698 18.8289 6.60213 18.8601 6.58778 18.89C6.76772 19.0096 6.8937 18.9836 7.03379 18.8168C7.18948 18.6311 7.3511 18.4507 7.50951 18.2675C7.52981 18.244 7.54738 18.218 7.56693 18.1923C7.45902 18.1316 7.41744 18.1393 7.34863 18.2215C7.27289 18.3121 7.19567 18.4012 7.11918 18.4908V18.4913ZM3.45476 16.2634C3.64163 16.2669 3.80351 16.1102 3.8092 15.9258C3.81464 15.7563 3.65624 15.53 3.42927 15.5288C3.22779 15.5276 3.08498 15.6481 3.07533 15.8634C3.06518 16.0855 3.31071 16.2798 3.45476 16.2637V16.2634ZM15.4428 16.6188C15.442 16.8235 15.5764 16.9505 15.7789 16.9597C15.967 16.9681 16.1702 16.7443 16.1633 16.5817C16.1546 16.3798 16.0244 16.2451 15.8237 16.2379C15.6301 16.231 15.4163 16.4213 15.4428 16.6191V16.6188ZM5.78311 17.8527C5.90514 17.7205 5.91033 17.5431 5.80663 17.4176C5.70465 17.2941 5.46555 17.2634 5.31952 17.3552C5.18859 17.4374 5.13413 17.6361 5.20468 17.7822C5.27695 17.9314 5.45169 18.0517 5.65738 17.9752C5.66183 17.9153 5.62792 17.8866 5.57372 17.8772C5.54154 17.8715 5.50738 17.8762 5.4757 17.8693C5.34105 17.8408 5.28908 17.7344 5.35764 17.6052C5.49798 17.6869 5.63832 17.7683 5.78336 17.8527H5.78311ZM14.675 17.5351C14.6582 17.4396 14.6104 17.3906 14.5485 17.3532C14.3666 17.2431 14.1193 17.3334 14.0416 17.5441C14.0213 17.599 14.0136 17.6656 14.0228 17.7233C14.0458 17.87 14.204 18.0059 14.3414 18.0002C14.5512 17.9916 14.6847 17.9067 14.7361 17.719C14.6369 17.6804 14.6361 17.6804 14.5871 17.7547C14.5173 17.8599 14.4411 17.8945 14.327 17.8732C14.2869 17.8658 14.2565 17.85 14.2624 17.7866C14.3943 17.7062 14.5337 17.6215 14.6748 17.5354L14.675 17.5351ZM11.2893 19.0712C11.4279 19.0858 11.4586 19.0719 11.491 18.9687C11.5477 18.7885 11.5999 18.6069 11.6531 18.4257C11.6774 18.343 11.7034 18.2604 11.7217 18.1764C11.7457 18.0675 11.6984 18.0205 11.5912 18.0393C11.4378 18.0666 11.2843 18.0925 11.1311 18.1213C11.0358 18.1391 11.0329 18.1465 11.0576 18.2628C11.0831 18.2628 11.1113 18.2665 11.1383 18.2621C11.2314 18.247 11.3239 18.2287 11.4165 18.2121C11.5185 18.194 11.5452 18.222 11.519 18.3205C11.5115 18.3482 11.5004 18.375 11.4922 18.4027C11.4254 18.6222 11.3588 18.8418 11.2893 19.0712ZM16.9494 14.7781C16.8907 14.8244 16.839 14.8573 16.7972 14.8999C16.7311 14.9672 16.6969 15.0501 16.7073 15.1469C16.717 15.2372 16.7677 15.2882 16.8581 15.2979C16.9227 15.3048 16.9769 15.29 17.0254 15.24C17.0675 15.1966 17.1197 15.1612 17.1729 15.132C17.191 15.1221 17.2338 15.1333 17.2494 15.1499C17.264 15.1652 17.2655 15.2028 17.2588 15.2268C17.2442 15.2796 17.2135 15.3226 17.1598 15.3464C17.1311 15.359 17.1058 15.3793 17.0702 15.4018C17.0915 15.4429 17.109 15.4771 17.1288 15.5154C17.1709 15.4885 17.2036 15.4706 17.2325 15.4481C17.3249 15.3771 17.3835 15.2855 17.3949 15.1677C17.4028 15.0865 17.3721 15.0224 17.3016 14.9798C17.233 14.9385 17.1682 14.9469 17.1078 14.9979C17.0734 15.0271 17.041 15.059 17.0041 15.0848C16.9657 15.1115 16.9234 15.1323 16.8729 15.1612C16.8566 15.1192 16.8308 15.0838 16.8395 15.0699C16.8796 15.0058 16.9291 14.9476 16.9853 14.8744C16.9793 14.8585 16.9672 14.8259 16.9491 14.7774L16.9494 14.7781ZM6.52689 18.5074C6.66129 18.1901 6.79593 17.8715 6.9338 17.5463C6.88652 17.5223 6.85138 17.5044 6.8041 17.4804C6.77737 17.5292 6.75188 17.5695 6.73257 17.6129C6.70732 17.6688 6.68826 17.7275 6.66426 17.7841C6.58555 17.969 6.50436 18.1527 6.42739 18.3381C6.38679 18.4356 6.40709 18.47 6.52738 18.5076L6.52689 18.5074ZM3.70029 16.651C3.76688 16.5862 3.82257 16.533 3.87727 16.4785C4.05201 16.305 4.07775 16.3028 4.27675 16.4545C4.30398 16.4189 4.3312 16.3835 4.3713 16.3307C4.28517 16.2951 4.21933 16.2681 4.14582 16.2377C4.14978 16.1632 4.12404 16.1008 4.02701 16.0815C3.88296 16.2327 3.73693 16.3859 3.58471 16.5458C3.62629 16.5837 3.65549 16.6104 3.70005 16.651H3.70029ZM5.96701 18.2505C5.98954 18.223 6.00216 18.2118 6.00934 18.1977C6.04919 18.121 6.08607 18.0423 6.1274 17.9663C6.18631 17.8574 6.25512 17.8304 6.37269 17.8648C6.40338 17.8737 6.43456 17.8809 6.47615 17.8916C6.48852 17.8487 6.49917 17.8119 6.50832 17.7809C6.43159 17.7124 6.35264 17.7282 6.26972 17.7388C6.26007 17.6567 6.21057 17.6233 6.12542 17.6136C6.0326 17.8044 5.94003 17.995 5.84251 18.1953C5.88929 18.216 5.92518 18.2319 5.96701 18.2505Z" fill="#64758B"/>
<path d="M2.73028 12.0149C2.69736 12.031 2.65677 12.0582 2.61197 12.0719C2.40703 12.134 2.20134 12.1924 1.99566 12.2518C1.64766 12.352 1.29941 12.4515 0.951654 12.5523C0.797454 12.5968 0.644244 12.6446 0.489796 12.6887C0.392771 12.7164 0.357872 12.7013 0.335348 12.6055C0.269262 12.3256 0.203919 12.0454 0.148476 11.7635C0.108132 11.5585 0.0818952 11.3506 0.0541738 11.1432C0.0385805 11.0254 0.0274425 10.9063 0.0237298 10.7875C0.0125917 10.4172 -0.000773957 10.047 -3.14197e-05 9.67667C0.000711118 9.38535 0.0202646 9.09428 0.067787 8.80593C0.104914 8.5792 0.130408 8.35075 0.170752 8.12477C0.26753 7.5847 0.417027 7.05923 0.608602 6.54465C0.761317 6.13452 0.938289 5.73578 1.13902 5.34818C1.39124 4.86107 1.68627 4.39921 2.02091 3.96508C2.21125 3.71806 2.42262 3.48713 2.6283 3.25224C2.74216 3.1223 2.85948 2.99507 2.98249 2.87379C3.31688 2.5446 3.67429 2.24189 4.05076 1.96171C4.50098 1.62658 4.97744 1.33575 5.47816 1.0823C5.86057 0.888495 6.2509 0.713751 6.65682 0.577619C6.96844 0.473169 7.28228 0.372432 7.60058 0.290505C7.87062 0.220954 8.14684 0.173927 8.42232 0.128632C8.67305 0.0872971 8.92552 0.0509128 9.17847 0.0316068C9.45297 0.0105683 9.72919 0.0110633 10.0047 0.00388543C10.1076 0.00116279 10.2111 -0.00131234 10.3141 0.00462796C10.5188 0.0167561 10.7234 0.0313593 10.9274 0.0514078C11.1437 0.0726939 11.3598 0.0976927 11.5749 0.127889C11.9541 0.181352 12.3258 0.270209 12.6949 0.371194C13.0924 0.480099 13.4802 0.617221 13.8599 0.775877C14.2282 0.92983 14.5869 1.10433 14.9314 1.30654C15.1371 1.42733 15.344 1.54737 15.542 1.68029C15.8801 1.90701 16.2103 2.14561 16.5113 2.42134C16.7417 2.63247 16.9766 2.83964 17.1964 3.06166C17.3781 3.24531 17.5402 3.44827 17.7112 3.64281C18.0055 3.9777 18.256 4.34476 18.4931 4.72073C18.7107 5.06552 18.9052 5.42317 19.0723 5.79667C19.2354 6.16175 19.3965 6.52757 19.5119 6.91047C19.6151 7.25303 19.7124 7.59831 19.7891 7.9473C19.8515 8.23095 19.8792 8.52228 19.924 8.81013C19.9537 9.00121 19.9579 9.19452 19.9769 9.3861C20.0126 9.74474 19.9963 10.1026 19.9925 10.4603C19.9901 10.7053 19.9581 10.9511 19.925 11.1947C19.8819 11.5117 19.8294 11.8278 19.772 12.1424C19.7396 12.3201 19.6908 12.4951 19.6458 12.6706C19.62 12.7711 19.5846 12.7872 19.4829 12.7562C18.9827 12.604 18.4827 12.4508 17.9822 12.2993C17.7852 12.2397 17.5875 12.1835 17.3899 12.1253C17.3662 12.1184 17.3429 12.11 17.3194 12.1025C17.263 12.0847 17.2397 12.0473 17.2528 11.9892C17.2664 11.929 17.2788 11.8686 17.2954 11.8095C17.3659 11.5555 17.4152 11.2976 17.4476 11.0365C17.4704 10.8533 17.4949 10.6707 17.5174 10.4875C17.5214 10.4549 17.5209 10.4217 17.5209 10.3888C17.5214 10.1866 17.5194 9.98458 17.5219 9.78236C17.5246 9.55985 17.4979 9.34006 17.4773 9.11903C17.4392 8.71212 17.3595 8.31437 17.2523 7.92156C17.1568 7.57183 17.0333 7.23199 16.8873 6.89934C16.7009 6.4751 16.4732 6.07537 16.2088 5.69618C16.0135 5.41599 15.8083 5.14373 15.5715 4.89647C15.4947 4.81627 15.4245 4.72989 15.3477 4.64994C15.0564 4.346 14.7309 4.0824 14.3923 3.83365C14.0728 3.599 13.7352 3.39332 13.3798 3.21982C12.8419 2.95721 12.2845 2.7441 11.6984 2.6144C11.4301 2.555 11.1591 2.51094 10.8861 2.47233C10.4339 2.40872 9.98041 2.41441 9.52994 2.43693C8.98467 2.46416 8.44584 2.55945 7.91814 2.71217C7.44564 2.84904 6.98923 3.02354 6.55286 3.24952C6.21624 3.42377 5.89671 3.62549 5.58954 3.84875C5.22892 4.11086 4.89032 4.39773 4.58167 4.71801C4.17526 5.13952 3.81612 5.59866 3.51737 6.10482C3.23124 6.5897 3.00452 7.09982 2.82978 7.63395C2.70677 8.00993 2.61469 8.39382 2.55133 8.78415C2.52311 8.9579 2.5189 9.13536 2.49663 9.31036C2.44737 9.69672 2.47782 10.0841 2.47683 10.4709C2.47633 10.642 2.50455 10.8147 2.534 10.984C2.59241 11.3197 2.66073 11.6536 2.73028 12.0164V12.0149Z" fill="#64758B"/>
<path d="M9.2845 12.1854C9.32311 12.9495 8.67364 13.5141 7.95808 13.5007C7.29029 13.4883 6.67398 12.9431 6.67646 12.1881C6.67894 11.4622 7.27148 10.8662 8.03035 10.8862C8.68106 10.9033 9.31395 11.4313 9.2845 12.1854ZM7.2195 12.1815C7.23188 12.2708 7.23534 12.3626 7.25861 12.4488C7.30935 12.6359 7.39845 12.8005 7.57171 12.9059C7.72888 13.0015 7.90165 13.0361 8.08184 13.0168C8.33207 12.9901 8.52018 12.8631 8.64022 12.6396C8.7521 12.431 8.76745 12.2065 8.72463 11.981C8.69542 11.827 8.62884 11.6867 8.51152 11.5706C8.39642 11.457 8.25757 11.404 8.10659 11.3758C7.83284 11.3243 7.47716 11.4548 7.33979 11.7303C7.26876 11.8728 7.22 12.0189 7.2195 12.1815Z" fill="#64758B"/>
<path d="M11.3491 12.653C11.5456 12.6491 11.7375 12.6459 11.9332 12.6545C11.9436 12.7402 11.907 12.7971 11.8766 12.853C11.6442 13.2802 11.2719 13.4743 10.7972 13.4946C10.4482 13.5094 10.1353 13.4065 9.87419 13.1768C9.65465 12.9835 9.5299 12.7303 9.47545 12.4417C9.42075 12.1526 9.4606 11.8744 9.58064 11.6105C9.68509 11.3813 9.84499 11.19 10.069 11.0694C10.5509 10.8098 11.0316 10.8175 11.4984 11.1105C11.6687 11.2175 11.7932 11.3712 11.884 11.5499C11.9087 11.5989 11.9179 11.6558 11.935 11.712C11.906 11.7226 11.8909 11.7328 11.8761 11.7328C11.7033 11.7338 11.5305 11.7335 11.3664 11.7335C11.3063 11.6635 11.2568 11.5974 11.1989 11.5402C11.0425 11.3863 10.8474 11.3489 10.6395 11.3796C10.3808 11.4177 10.1828 11.5563 10.0826 11.7981C9.95018 12.1172 9.96651 12.4345 10.1613 12.7293C10.2989 12.9374 10.6113 13.0567 10.8571 13.0109C11.0739 12.9706 11.2358 12.8582 11.3491 12.6528V12.653Z" fill="#64758B"/>
<path d="M6.45188 11.6126C6.36278 11.6418 6.03259 11.648 5.87938 11.6237C5.87369 11.6084 5.86627 11.5898 5.86008 11.571C5.81008 11.4233 5.71454 11.3468 5.56059 11.3416C5.49549 11.3394 5.42718 11.3408 5.36555 11.3587C5.27422 11.3854 5.2064 11.4428 5.19724 11.5495C5.18684 11.669 5.20863 11.773 5.32471 11.8334C5.37941 11.8619 5.43559 11.8888 5.49351 11.9089C5.66454 11.9685 5.83854 12.02 6.00809 12.0829C6.14818 12.1349 6.26922 12.2146 6.36327 12.3381C6.47713 12.4876 6.50089 12.6539 6.47638 12.8291C6.42416 13.2004 6.13234 13.4199 5.83161 13.4724C5.50267 13.5296 5.1908 13.4984 4.91037 13.3021C4.74182 13.1841 4.66335 13.0101 4.62672 12.8135C4.6245 12.8017 4.62598 12.7888 4.62796 12.7767C4.62994 12.7648 4.63514 12.7536 4.6386 12.7432C4.73018 12.717 5.05145 12.7131 5.1762 12.7363C5.18115 12.7428 5.18882 12.7484 5.19056 12.7556C5.26704 13.0521 5.44648 13.0732 5.70538 13.0343C5.83607 13.0148 5.92592 12.8989 5.93384 12.7757C5.94077 12.6663 5.85661 12.539 5.73211 12.4905C5.62123 12.4472 5.5049 12.4185 5.39228 12.3794C5.2064 12.3146 5.01235 12.2688 4.85518 12.1378C4.7537 12.0532 4.6834 11.9524 4.65172 11.8232C4.56014 11.4497 4.74281 11.1139 5.06507 10.9822C5.42965 10.8334 5.78855 10.8428 6.1311 11.0478C6.34298 11.1745 6.43134 11.3752 6.45114 11.6126H6.45188Z" fill="#64758B"/>
<path d="M13.9324 12.9976H14.9388V13.4213C14.8482 13.4481 13.3094 13.4555 13.1493 13.4288C13.1278 13.307 13.1352 13.1805 13.1456 13.0553C13.1481 13.0261 13.1862 12.9966 13.2127 12.9729C13.4733 12.7402 13.7391 12.513 13.9948 12.2749C14.1245 12.1541 14.2238 12.0066 14.2995 11.8437C14.3522 11.7301 14.3631 11.6133 14.3465 11.4937C14.3238 11.3304 14.2144 11.2284 14.0621 11.2167C13.8631 11.2014 13.7421 11.2712 13.6842 11.4412C13.6619 11.5068 13.65 11.5759 13.6297 11.6588C13.4703 11.6657 13.3129 11.6685 13.1466 11.6558C13.1196 11.4754 13.1656 11.3185 13.2448 11.1739C13.3839 10.9197 13.6075 10.7938 13.8941 10.7645C14.0641 10.7472 14.229 10.7551 14.3911 10.8098C14.6869 10.9096 14.8584 11.1769 14.8799 11.4719C14.9059 11.8269 14.7633 12.1095 14.5497 12.3741C14.3804 12.5843 14.174 12.7533 13.971 12.9268C13.9555 12.9402 13.9369 12.9501 13.9198 12.9615C13.924 12.9736 13.9282 12.9857 13.9324 12.9976Z" fill="#64758B"/>
<path d="M10.8483 6.67267C10.7661 6.74024 10.6916 6.80162 10.6065 6.87167C10.5644 6.83553 10.5263 6.80682 10.4926 6.77341C10.3394 6.62143 10.1604 6.51253 9.94733 6.47788C9.57482 6.41699 9.09539 6.52738 8.86446 6.93157C8.65729 7.29392 8.70581 7.71643 8.98822 8.01716C9.184 8.22556 9.42508 8.30724 9.70551 8.32209C10.0246 8.33917 10.283 8.22111 10.5114 8.01295C10.5381 7.98869 10.5676 7.96741 10.598 7.94265C10.6894 8.00231 10.78 8.04983 10.8361 8.14661C10.7324 8.30402 10.5869 8.40996 10.4287 8.49832C10.254 8.59609 10.0691 8.65104 9.86317 8.64609C9.62284 8.64039 9.3882 8.61911 9.15875 8.54163C8.88723 8.44981 8.69417 8.27185 8.55111 8.02829C8.39122 7.75578 8.35434 7.45877 8.39419 7.15631C8.42166 6.94741 8.51448 6.75534 8.662 6.59594C8.81496 6.4306 8.98401 6.28977 9.20182 6.21675C9.33102 6.17344 9.4627 6.15091 9.59858 6.13458C9.82531 6.10735 10.0419 6.13581 10.2515 6.21452C10.4862 6.30264 10.6938 6.43233 10.8483 6.67242V6.67267Z" fill="#64758B"/>
<path d="M13.7681 6.06787C13.8005 6.11391 13.8173 6.13198 13.8277 6.15326C14.2163 6.93986 14.6044 7.72695 14.9915 8.51428C14.998 8.52765 14.9943 8.54597 14.995 8.55884C14.8522 8.68556 14.619 8.59596 14.5361 8.41132C14.4671 8.25737 14.3903 8.10663 14.3193 7.95367C14.2794 7.86803 14.2203 7.83981 14.123 7.84328C13.8802 7.85219 13.6364 7.85169 13.3936 7.84328C13.2956 7.83981 13.2394 7.87149 13.1988 7.95639C13.1169 8.12742 13.0305 8.29623 12.9454 8.46577C12.8758 8.60438 12.6852 8.66155 12.5587 8.57814C12.5412 8.56651 12.5285 8.52765 12.5335 8.50587C12.5422 8.46651 12.5647 8.43013 12.5832 8.39325C12.9486 7.66309 13.3137 6.93293 13.68 6.20351C13.7008 6.16193 13.7307 6.12505 13.7681 6.06837V6.06787ZM13.7651 6.84605C13.6475 7.07327 13.5433 7.27474 13.4377 7.47943C13.5669 7.51384 13.9829 7.50988 14.079 7.47374C13.9785 7.27276 13.8785 7.07277 13.7651 6.84605Z" fill="#64758B"/>
<path d="M4.95935 8.57846C4.99524 8.49331 5.01974 8.42401 5.05266 8.35891C5.37715 7.71489 5.70313 7.0716 6.0286 6.42807C6.07885 6.32857 6.1281 6.22882 6.1786 6.12957C6.18751 6.112 6.20063 6.0969 6.22389 6.06299C6.25013 6.10234 6.27216 6.12858 6.28701 6.15853C6.51274 6.61222 6.73798 7.06616 6.96222 7.52059C7.12063 7.84161 7.27681 8.16387 7.43373 8.48564C7.44438 8.50742 7.4523 8.53069 7.46096 8.55222C7.32928 8.6636 7.11543 8.62029 7.02682 8.46411C6.99465 8.40718 6.97658 8.34233 6.94688 8.28367C6.88747 8.16586 6.81619 8.05348 6.76619 7.93196C6.73327 7.8525 6.67783 7.84062 6.611 7.84038C6.3474 7.83914 6.0838 7.84161 5.8202 7.84038C5.75015 7.83988 5.70535 7.86636 5.67441 7.93047C5.58457 8.1161 5.49125 8.30001 5.39869 8.4844C5.34002 8.60098 5.32295 8.60841 5.18558 8.59702C5.14919 8.59405 5.11182 8.60445 5.07543 8.60197C5.04251 8.59999 5.01009 8.5891 4.95985 8.57846H4.95935ZM6.537 7.4951C6.48106 7.32035 6.27636 6.93027 6.20632 6.87087C6.10335 7.07705 6.00138 7.2805 5.89421 7.4951H6.537Z" fill="#64758B"/>
<path d="M11.7086 6.15869C11.9099 6.16933 12.1136 6.16414 12.3118 6.19384C12.7029 6.2525 12.8932 6.46412 12.9115 6.83242C12.9256 7.11582 12.8061 7.33462 12.4811 7.45417C12.3329 7.50863 12.1757 7.51729 12.0198 7.52595C11.921 7.5314 11.8217 7.52595 11.7227 7.52867C11.6218 7.5314 11.6094 7.54303 11.6089 7.64525C11.6074 7.90093 11.6084 8.15686 11.6084 8.41254C11.6084 8.44546 11.6099 8.47887 11.6064 8.51155C11.6044 8.5311 11.5987 8.55412 11.5864 8.56798C11.5126 8.64916 11.424 8.59941 11.3426 8.58753C11.2802 8.57862 11.2594 8.52689 11.2591 8.46749C11.2591 8.43036 11.2582 8.39323 11.2582 8.35611C11.2582 7.68782 11.2582 7.01954 11.2582 6.3515C11.2582 6.33096 11.2577 6.31017 11.2582 6.28963C11.2619 6.19656 11.2827 6.17032 11.374 6.16686C11.4851 6.1624 11.5968 6.16587 11.7081 6.16587C11.7081 6.16364 11.7081 6.16141 11.7084 6.15919L11.7086 6.15869ZM11.6091 6.84628H11.6084C11.6084 6.92029 11.6076 6.99454 11.6084 7.06855C11.6099 7.18141 11.6255 7.20369 11.7346 7.20146C11.9027 7.198 12.0712 7.19255 12.2383 7.17399C12.4148 7.15443 12.5408 7.01558 12.5457 6.85643C12.5507 6.6948 12.4502 6.55867 12.2678 6.53541C12.0735 6.51041 11.8747 6.51783 11.6777 6.51437C11.6267 6.51338 11.6089 6.55224 11.6089 6.59902C11.6089 6.68144 11.6089 6.76361 11.6089 6.84603L11.6091 6.84628Z" fill="#64758B"/>
<path d="M7.99487 8.56279C7.89091 8.64199 7.80181 8.60091 7.71617 8.5816C7.69191 8.57615 7.66741 8.53729 7.6585 8.50883C7.64662 8.47071 7.64661 8.42789 7.64661 8.38705C7.64612 7.70788 7.64612 7.02871 7.64612 6.34953C7.64612 6.32899 7.64562 6.30844 7.64661 6.2879C7.64736 6.27156 7.6476 6.25449 7.65255 6.23914C7.67359 6.17528 7.73349 6.154 7.85453 6.16563C7.94635 6.17454 7.98595 6.20449 7.99313 6.27503C7.9966 6.3077 7.99462 6.34087 7.99462 6.37379C7.99462 7.02425 7.99462 7.67447 7.99462 8.32493C7.99462 8.40611 7.99462 8.48754 7.99462 8.56279H7.99487Z" fill="#64758B"/>
<path d="M13.6378 17.6991C13.642 17.7471 13.6204 17.7894 13.5737 17.8164C13.5383 17.8367 13.5011 17.8555 13.463 17.8699C13.3583 17.9097 13.2922 17.8783 13.2526 17.7736C13.2222 17.6929 13.238 17.6493 13.315 17.6147C13.3635 17.5929 13.4128 17.5706 13.464 17.5575C13.5615 17.5323 13.6353 17.5922 13.638 17.6991H13.6378Z" fill="#64758B"/>
<path d="M9.29308 18.3809C9.36362 18.5187 9.37699 18.6484 9.42402 18.7672C9.30645 18.8029 9.20794 18.7992 9.10992 18.7536C9.15274 18.6296 9.21487 18.515 9.29308 18.3809Z" fill="#64758B"/>
<path d="M12.5242 18.4494C12.5257 18.5903 12.5128 18.6776 12.4078 18.717C12.3242 18.7484 12.2472 18.7316 12.1972 18.6432C12.1452 18.5516 12.1118 18.4492 12.0757 18.3494C12.0517 18.2828 12.0527 18.214 12.0747 18.1445C12.0967 18.0747 12.1383 18.0341 12.2103 18.018C12.2848 18.0014 12.3375 18.0286 12.3826 18.0841C12.4801 18.2039 12.5197 18.3435 12.5244 18.4494H12.5242Z" fill="#64758B"/>
<path d="M15.321 17.1552C15.3217 17.2923 15.243 17.378 15.1141 17.3797C14.9987 17.3812 14.8995 17.2866 14.897 17.1733C14.8945 17.0589 15.0131 16.9362 15.1242 16.9421C15.225 16.9475 15.3413 17.0542 15.321 17.1552Z" fill="#64758B"/>
<path d="M3.23803 15.8984C3.2363 15.7774 3.32516 15.6756 3.4353 15.6729C3.54693 15.6702 3.66054 15.7791 3.66227 15.8907C3.66376 15.9999 3.56302 16.1108 3.45758 16.1152C3.36773 16.1189 3.22764 16.0338 3.23803 15.8981V15.8984Z" fill="#64758B"/>
<path d="M15.5895 16.5934C15.5917 16.4684 15.6761 16.3862 15.8021 16.3862C15.9325 16.3862 16.0184 16.4758 16.0137 16.6065C16.01 16.7144 15.9018 16.8134 15.7914 16.81C15.6669 16.806 15.5872 16.7204 15.5895 16.5932V16.5934Z" fill="#64758B"/>
<path d="M5.69433 17.6736C5.60225 17.6182 5.50944 17.5623 5.41711 17.5071C5.47676 17.393 5.54137 17.3789 5.65176 17.4444C5.74655 17.5006 5.76338 17.5764 5.69433 17.6739V17.6736Z" fill="#64758B"/>
<path d="M14.4747 17.5139C14.3846 17.5837 14.2955 17.6533 14.178 17.6768C14.1443 17.5526 14.1705 17.4914 14.2671 17.4464C14.3552 17.405 14.4158 17.4229 14.4745 17.5142L14.4747 17.5139Z" fill="#64758B"/>
</g>
<defs>
<clipPath id="clip0_939_2158">
<rect width="20" height="20.0265" fill="white"/>
</clipPath>
</defs>
</svg>
