<svg width="22" height="23" viewBox="0 0 22 23" fill="none" xmlns="http://www.w3.org/2000/svg">
<g clip-path="url(#clip0_939_2385)">
<path d="M10.4933 22.0265C10.4729 22.0184 10.4528 22.0045 10.4319 22.0034C10.2562 21.9923 10.0797 21.9871 9.90436 21.9724C9.73361 21.958 9.56176 21.9444 9.39373 21.9134C8.98968 21.8389 8.584 21.7682 8.18539 21.6709C7.6753 21.5461 7.18098 21.3688 6.69617 21.1646C6.08493 20.9071 5.5055 20.5909 4.95082 20.2306C4.65173 20.0362 4.3684 19.817 4.08426 19.6011C3.63236 19.2577 3.2313 18.8567 2.84901 18.4401C2.57166 18.138 2.31471 17.8142 2.07544 17.4808C1.82284 17.1284 1.5871 16.7619 1.37148 16.3856C1.18088 16.0525 1.01529 15.7034 0.862205 15.3513C0.721903 15.0283 0.613142 14.6919 0.491057 14.361C0.478549 14.327 0.467673 14.2922 0.461147 14.2569C0.451087 14.2017 0.47012 14.1579 0.525045 14.1367C0.56719 14.1204 0.609879 14.1049 0.653383 14.0924C1.16184 13.9458 1.67058 13.8006 2.17903 13.6541C2.41369 13.5863 2.6478 13.5167 2.88218 13.4479C3.05864 13.396 3.09182 13.4121 3.15218 13.5847C3.29765 13.9996 3.46432 14.4053 3.66852 14.795C3.92738 15.2893 4.23191 15.7529 4.58185 16.1879C4.83825 16.5066 5.12266 16.7986 5.42312 17.0727C5.77387 17.3927 6.15264 17.6782 6.55804 17.9295C6.8585 18.1157 7.16493 18.2886 7.48279 18.4428C7.99832 18.6932 8.53533 18.8814 9.09436 19.0038C9.36735 19.0636 9.6447 19.1044 9.92149 19.1451C10.3198 19.2039 10.7209 19.2341 11.1236 19.2226C11.3487 19.2161 11.5733 19.1854 11.7984 19.1753C12.1071 19.1617 12.4072 19.0986 12.7082 19.0386C13.171 18.9464 13.6186 18.8025 14.0558 18.6272C14.57 18.4208 15.0626 18.1701 15.5216 17.8618C15.8175 17.663 16.1002 17.4428 16.3732 17.2138C16.6013 17.0221 16.8172 16.813 17.0198 16.5944C17.2311 16.366 17.4279 16.1229 17.6166 15.8755C17.8997 15.5044 18.1471 15.1079 18.3524 14.6889C18.5014 14.3847 18.6227 14.0671 18.7546 13.7547C18.779 13.6965 18.7932 13.6339 18.8152 13.5744C18.8571 13.4613 18.8823 13.4488 18.9985 13.4838C19.4922 13.6326 19.986 13.7818 20.4798 13.9308C20.7699 14.0184 21.0603 14.1057 21.3507 14.1921C21.473 14.2286 21.5002 14.2694 21.4627 14.3887C21.3393 14.7822 21.2022 15.171 21.0209 15.5413C20.8479 15.8948 20.6739 16.2486 20.4798 16.5906C20.3262 16.8614 20.1475 17.1186 19.9689 17.3742C19.8163 17.5926 19.6497 17.8011 19.4868 18.0121C19.4262 18.0907 19.3631 18.1682 19.2943 18.2397C19.0093 18.5372 18.7312 18.842 18.4326 19.1253C18.0783 19.4611 17.6974 19.7686 17.2944 20.0443C16.9815 20.2586 16.6549 20.4541 16.327 20.6455C15.8175 20.9427 15.2772 21.1765 14.7239 21.3788C14.1836 21.5762 13.6308 21.7315 13.0652 21.8367C12.7237 21.9003 12.3809 21.9577 12.0328 21.9762C11.9113 21.9827 11.7897 21.9931 11.6685 22.0042C11.6475 22.0061 11.6277 22.0194 11.6073 22.0276H10.4925L10.4933 22.0265ZM15.0515 19.7058C15.0945 19.6449 15.1236 19.6101 15.145 19.5712C15.1643 19.5361 15.1866 19.4973 15.1888 19.4589C15.1991 19.2827 15.0469 19.1299 14.871 19.1481C14.6605 19.1699 14.4851 19.2816 14.3068 19.3793C14.45 19.7637 14.6749 20.2409 14.7649 20.3437C14.806 20.323 14.8503 20.3007 14.8984 20.2768C14.8383 20.1343 14.7845 20.0065 14.7326 19.8834C14.8375 19.7833 14.847 19.7798 14.9452 19.8472C15.0156 19.8956 15.0828 19.9492 15.1486 20.0035C15.2568 20.0927 15.3568 20.0946 15.4827 20.0003C15.3405 19.9032 15.2008 19.8075 15.0518 19.7058H15.0515ZM4.86843 18.1027C4.71508 18.3069 4.56336 18.4784 4.43176 18.6767C4.48016 18.7134 4.51713 18.7419 4.55819 18.7729C4.58701 18.7419 4.60578 18.7237 4.62236 18.7036C4.69686 18.6128 4.76756 18.5184 4.84614 18.4311C4.9046 18.3664 4.98535 18.3667 5.05306 18.4203C5.1436 18.4918 5.15502 18.5345 5.09303 18.6266C5.03783 18.709 4.97339 18.7854 4.91493 18.8656C4.88692 18.9042 4.863 18.9456 4.83363 18.9912C4.87686 19.0293 4.90922 19.0579 4.94973 19.0935C4.98046 19.06 5.00547 19.0356 5.02695 19.0084C5.09194 18.9274 5.15176 18.8417 5.22137 18.765C5.27004 18.7115 5.33149 18.668 5.41306 18.699C5.52046 18.74 5.55445 18.8488 5.48702 18.957C5.44677 19.022 5.39348 19.0785 5.34726 19.14C5.30756 19.1927 5.25263 19.2379 5.25073 19.3249C5.28472 19.345 5.32143 19.3667 5.36683 19.3937C5.46689 19.264 5.56505 19.1462 5.65206 19.0209C5.76626 18.8561 5.70427 18.6728 5.51665 18.6057C5.45792 18.5845 5.39566 18.5736 5.33828 18.5589C5.3285 18.5426 5.31789 18.5317 5.31517 18.5192C5.28608 18.383 5.19771 18.3101 5.06611 18.2824C5.01825 18.2723 4.99025 18.2465 4.96849 18.1997C4.95164 18.1641 4.90949 18.1407 4.86843 18.1021V18.1027ZM10.6907 21.0879C10.6872 21.0667 10.6864 21.0444 10.6793 21.0245C10.6089 20.8239 10.5371 20.6238 10.4664 20.4234C10.4256 20.3081 10.3884 20.1917 10.3448 20.0775C10.3149 19.9989 10.2366 19.9611 10.1722 19.9973C10.1393 20.0158 10.1124 20.0525 10.0931 20.087C9.9408 20.3595 9.79043 20.633 9.64089 20.9071C9.62485 20.9364 9.61723 20.9702 9.60336 21.0082C9.63327 21.0142 9.6504 21.0186 9.66781 21.0207C9.74086 21.0305 9.79488 21.0015 9.82986 20.9337C9.88642 20.8247 9.96908 20.7855 10.1009 20.8057C10.1542 20.8138 10.2086 20.8309 10.2611 20.8271C10.3701 20.8195 10.428 20.8693 10.4642 20.9672C10.5178 21.1121 10.5238 21.1126 10.6904 21.0879H10.6907ZM13.4655 19.6604C13.2575 19.6601 13.1517 19.7382 13.1041 19.9364C13.047 20.1754 13.1036 20.3962 13.2403 20.5922C13.323 20.7105 13.4375 20.7921 13.5987 20.76C13.863 20.7072 13.9449 20.5862 13.9378 20.2899C13.9337 20.1245 13.8706 19.9647 13.7736 19.8214C13.6971 19.7085 13.5968 19.6585 13.4652 19.6601L13.4655 19.6604ZM16.0556 18.8327C16.2914 19.1256 16.4806 19.4209 16.7109 19.6963C16.7593 19.6588 16.7933 19.6324 16.8355 19.5995C16.7572 19.4867 16.6837 19.3814 16.5981 19.2583C16.6549 19.2428 16.6914 19.2319 16.7286 19.2229C16.8825 19.1865 17.0013 19.0728 17.0144 18.9317C17.0299 18.7661 16.969 18.6258 16.8268 18.5369C16.6829 18.4469 16.5755 18.4352 16.4257 18.5464C16.3836 18.5777 16.349 18.6217 16.3178 18.665C16.2802 18.7169 16.2511 18.7686 16.1726 18.7686C16.1394 18.7686 16.1059 18.8039 16.0559 18.8327H16.0556ZM17.541 17.5822C17.5946 17.6733 17.9633 17.9999 18.0813 18.0556C18.1072 18.0197 18.1346 17.9822 18.1664 17.9384C18.1221 17.8998 18.0878 17.8713 18.0549 17.8414C17.9984 17.7897 17.9388 17.7402 17.8875 17.6837C17.8241 17.6138 17.8051 17.5211 17.851 17.4438C17.9073 17.3492 17.9902 17.2706 18.068 17.1777C18.1186 17.2106 18.1566 17.2326 18.1917 17.259C18.2496 17.3022 18.3037 17.3503 18.3625 17.3925C18.5107 17.4993 18.6431 17.468 18.7333 17.3071C18.7747 17.2334 18.7676 17.2168 18.6727 17.1711C18.6523 17.1931 18.633 17.2184 18.6094 17.2386C18.5626 17.2785 18.509 17.2823 18.4593 17.2475C18.3927 17.201 18.3282 17.1513 18.2659 17.0991C18.214 17.0558 18.2042 17.002 18.2423 16.9422C18.2608 16.9131 18.2763 16.8821 18.2972 16.8443C18.2586 16.8231 18.229 16.8068 18.2113 16.7973C18.1558 16.8405 18.1129 16.9006 18.0664 16.9033C18.0112 16.9066 17.9533 16.8606 17.882 16.8296C17.8567 16.869 17.832 16.9077 17.807 16.9465C17.8314 16.974 17.8467 16.9903 17.8611 17.0072C17.9394 17.0974 17.9427 17.1276 17.851 17.2097C17.7733 17.2796 17.7295 17.3639 17.7085 17.4623C17.6436 17.4944 17.5536 17.4871 17.541 17.5822ZM11.5518 20.0715C11.349 19.9592 11.1646 19.9598 10.9792 20.0579C10.871 20.1153 10.8215 20.2303 10.8373 20.3535C10.8566 20.5052 10.9664 20.5609 11.0888 20.6053C11.1524 20.6281 11.2196 20.6417 11.2816 20.6678C11.3634 20.7021 11.3966 20.7562 11.3879 20.8214C11.3786 20.8916 11.3223 20.9481 11.2424 20.9626C11.1687 20.9761 11.1007 20.9596 11.033 20.9258C10.9129 20.866 10.8938 20.8761 10.8381 21.0099C11.0037 21.1409 11.2304 21.1687 11.4085 21.0759C11.523 21.0164 11.5739 20.9182 11.5812 20.7896C11.588 20.6643 11.5325 20.5822 11.4259 20.5286C11.3898 20.5104 11.3517 20.496 11.3134 20.4826C11.2538 20.4614 11.1924 20.4448 11.1334 20.4223C11.0572 20.3929 11.0287 20.3475 11.0366 20.2793C11.0445 20.2116 11.0863 20.1604 11.1587 20.1545C11.2201 20.1493 11.2835 20.1599 11.3452 20.1691C11.3794 20.1743 11.4121 20.1914 11.4537 20.2061C11.4849 20.1629 11.5132 20.124 11.5516 20.071L11.5518 20.0715ZM9.60092 20.0011C9.46252 19.8208 9.13895 19.779 8.98098 19.891C8.84829 19.9851 8.81784 20.1931 8.92986 20.31C8.98506 20.3676 9.05765 20.4087 9.12373 20.4557C9.16424 20.4845 9.21155 20.5052 9.24744 20.5381C9.32874 20.6126 9.31542 20.7268 9.21617 20.7722C9.17077 20.7929 9.10877 20.8019 9.06173 20.7888C9.00409 20.7728 8.95324 20.7295 8.90104 20.6955C8.84176 20.6569 8.78711 20.6643 8.74768 20.7187C8.71696 20.7611 8.72566 20.8043 8.78711 20.8418C8.93693 20.9329 9.09164 20.9946 9.27518 20.9394C9.41738 20.8965 9.48346 20.8002 9.49868 20.6648C9.51173 20.5501 9.47231 20.4522 9.36735 20.3896C9.32086 20.3619 9.27382 20.3347 9.22759 20.3067C9.18898 20.2833 9.14929 20.261 9.11312 20.2344C9.06554 20.1996 9.03373 20.146 9.06146 20.0938C9.0843 20.0506 9.13379 20.0008 9.17729 19.9946C9.23929 19.9859 9.30835 20.009 9.37116 20.0286C9.41222 20.0413 9.44784 20.0721 9.50494 20.1061C9.53729 20.0702 9.56666 20.0378 9.60037 20.0006L9.60092 20.0011ZM3.61523 16.8889C3.54807 16.794 3.48798 16.7149 3.43441 16.6317C3.34061 16.4862 3.35475 16.4364 3.50647 16.356C3.52958 16.3437 3.55568 16.3375 3.59266 16.3239C3.69191 16.4587 3.78979 16.5912 3.88632 16.7219C4.00405 16.6624 4.01112 16.6469 3.95756 16.5623C3.91161 16.4897 3.86511 16.4177 3.81535 16.3478C3.74846 16.2537 3.67831 16.1621 3.60435 16.0623C3.30417 16.27 3.01623 16.4691 2.71904 16.6746C2.75737 16.7266 2.78783 16.7679 2.82562 16.819C2.95233 16.7364 3.06734 16.6613 3.19432 16.5784C3.29846 16.7149 3.39526 16.8416 3.49505 16.9726C3.53991 16.9414 3.572 16.9188 3.61496 16.8889H3.61523ZM7.82076 20.3399C7.81016 20.3353 7.79928 20.3306 7.78868 20.326C7.78379 20.3054 7.77617 20.2847 7.77427 20.2638C7.76394 20.1425 7.75578 20.0212 7.74572 19.9C7.7362 19.7885 7.69433 19.7626 7.57551 19.7904C7.58829 20.0199 7.60596 20.2491 7.61167 20.4786C7.61602 20.649 7.52792 20.7132 7.36043 20.6795C7.33922 20.6751 7.31693 20.676 7.28675 20.6738C7.26907 20.7108 7.25276 20.745 7.23699 20.7779C7.43466 20.9093 7.57306 20.8807 7.72696 20.6974C7.89798 20.4935 8.07554 20.2953 8.24956 20.0941C8.27185 20.0683 8.29116 20.0397 8.31264 20.0114C8.19409 19.9448 8.14841 19.9532 8.07282 20.0435C7.98962 20.143 7.90478 20.2409 7.82076 20.3393V20.3399ZM3.79523 17.8925C4.00052 17.8963 4.17834 17.7242 4.1846 17.5216C4.19058 17.3354 4.01656 17.0868 3.76722 17.0855C3.54589 17.0841 3.38901 17.2165 3.3784 17.4531C3.36725 17.697 3.63698 17.9104 3.79523 17.8928V17.8925ZM16.9646 18.2829C16.9638 18.5078 17.1114 18.6473 17.3339 18.6574C17.5405 18.6666 17.7637 18.4208 17.7561 18.2422C17.7466 18.0203 17.6036 17.8724 17.3831 17.8645C17.1704 17.8569 16.9355 18.066 16.9646 18.2832V18.2829ZM6.35303 19.6384C6.48708 19.4932 6.49279 19.2982 6.37886 19.1604C6.26684 19.0247 6.00418 18.991 5.84375 19.0919C5.69992 19.1821 5.6401 19.4005 5.71759 19.5609C5.79699 19.7248 5.98895 19.857 6.2149 19.773C6.2198 19.7072 6.18254 19.6756 6.123 19.6653C6.08765 19.659 6.05013 19.6642 6.01532 19.6566C5.86741 19.6253 5.81031 19.5084 5.88563 19.3665C6.0398 19.4562 6.19396 19.5457 6.3533 19.6384H6.35303ZM16.1212 19.2895C16.1027 19.1846 16.0502 19.1307 15.9822 19.0897C15.7824 18.9687 15.5107 19.0679 15.4254 19.2993C15.4031 19.3597 15.3946 19.4328 15.4047 19.4962C15.43 19.6574 15.6037 19.8067 15.7546 19.8004C15.9852 19.7909 16.1318 19.6977 16.1883 19.4916C16.0793 19.4491 16.0785 19.4491 16.0246 19.5307C15.948 19.6463 15.8642 19.6843 15.7389 19.6609C15.6948 19.6528 15.6614 19.6354 15.6679 19.5658C15.8128 19.4774 15.9659 19.3844 16.1209 19.2898L16.1212 19.2895ZM12.4018 20.977C12.5541 20.993 12.5878 20.9778 12.6234 20.8644C12.6857 20.6664 12.743 20.4669 12.8015 20.2678C12.8281 20.177 12.8567 20.0862 12.8768 19.994C12.9032 19.8744 12.8513 19.8227 12.7335 19.8434C12.5649 19.8733 12.3964 19.9019 12.2281 19.9334C12.1234 19.953 12.1201 19.9611 12.1473 20.0889C12.1753 20.0889 12.2063 20.093 12.2359 20.0881C12.3382 20.0715 12.4399 20.0514 12.5416 20.0332C12.6536 20.0133 12.6829 20.0441 12.6541 20.1523C12.646 20.1827 12.6337 20.2121 12.6248 20.2425C12.5513 20.4837 12.4782 20.7249 12.4018 20.977ZM18.6197 16.2608C18.5553 16.3116 18.4984 16.3478 18.4525 16.3946C18.3799 16.4685 18.3424 16.5596 18.3538 16.6659C18.3644 16.7652 18.4201 16.8212 18.5194 16.8318C18.5903 16.8394 18.6499 16.8231 18.7032 16.7682C18.7494 16.7206 18.8068 16.6817 18.8652 16.6496C18.8851 16.6387 18.9321 16.651 18.9492 16.6692C18.9653 16.686 18.9669 16.7274 18.9596 16.7538C18.9435 16.8117 18.9098 16.859 18.8508 16.8851C18.8193 16.899 18.7915 16.9212 18.7524 16.946C18.7758 16.9911 18.7951 17.0286 18.8168 17.0708C18.863 17.0412 18.8989 17.0216 18.9307 16.9968C19.0322 16.9188 19.0966 16.8182 19.1091 16.6888C19.1178 16.5996 19.0841 16.5292 19.0066 16.4824C18.9313 16.437 18.8601 16.4462 18.7937 16.5022C18.7559 16.5343 18.7203 16.5694 18.6798 16.5977C18.6376 16.627 18.5911 16.6499 18.5357 16.6817C18.5177 16.6355 18.4894 16.5966 18.499 16.5814C18.543 16.5109 18.5974 16.447 18.6591 16.3666C18.6526 16.3492 18.6393 16.3133 18.6194 16.26L18.6197 16.2608ZM7.1701 20.3576C7.31774 20.009 7.46566 19.659 7.61711 19.3018C7.56518 19.2754 7.52656 19.2558 7.47463 19.2294C7.44527 19.283 7.41726 19.3273 7.39605 19.3749C7.36832 19.4364 7.34738 19.5008 7.32101 19.5631C7.23454 19.7662 7.14536 19.9679 7.06079 20.1716C7.0162 20.2787 7.0385 20.3165 7.17064 20.3578L7.1701 20.3576ZM4.06496 18.3183C4.1381 18.247 4.19928 18.1886 4.25937 18.1288C4.45133 17.9382 4.47961 17.9357 4.69822 18.1024C4.72813 18.0632 4.75804 18.0244 4.80209 17.9664C4.70747 17.9273 4.63514 17.8977 4.55439 17.8642C4.55874 17.7824 4.53046 17.7138 4.42387 17.6926C4.26562 17.8588 4.1052 18.0271 3.93798 18.2027C3.98366 18.2443 4.01574 18.2737 4.06469 18.3183H4.06496ZM6.55505 20.0753C6.5798 20.0451 6.59366 20.0329 6.60155 20.0174C6.64532 19.9331 6.68584 19.8467 6.73125 19.7632C6.79596 19.6435 6.87155 19.6139 7.0007 19.6517C7.03442 19.6615 7.06868 19.6694 7.11436 19.6811C7.12795 19.634 7.13965 19.5935 7.14971 19.5595C7.06542 19.4842 6.97868 19.5016 6.88759 19.5133C6.87699 19.423 6.82261 19.3863 6.72907 19.3757C6.62711 19.5854 6.52542 19.7947 6.41829 20.0147C6.46968 20.0375 6.5091 20.0549 6.55505 20.0753Z" fill="#64758B"/>
<path d="M2.99937 13.2252C2.96321 13.2429 2.91862 13.2728 2.8694 13.2877C2.64427 13.356 2.41831 13.4202 2.19236 13.4854C1.81006 13.5955 1.4275 13.7048 1.04547 13.8155C0.876076 13.8645 0.707767 13.9169 0.538099 13.9653C0.431513 13.9958 0.393175 13.9792 0.368432 13.874C0.295833 13.5664 0.224051 13.2587 0.163144 12.949C0.118824 12.7238 0.0900021 12.4954 0.0595489 12.2676C0.042419 12.1381 0.0301833 12.0074 0.0261048 11.8768C0.0138691 11.4701 -0.000813695 11.0633 2.0163e-06 10.6565C0.000817727 10.3365 0.0222981 10.0167 0.0745036 9.69998C0.115289 9.45092 0.143295 9.19995 0.187616 8.9517C0.29393 8.35841 0.45816 7.78115 0.668613 7.21587C0.836378 6.76532 1.03079 6.32729 1.2513 5.90148C1.52837 5.36638 1.85248 4.85901 2.2201 4.38209C2.42919 4.11073 2.6614 3.85704 2.88735 3.599C3.01242 3.45625 3.14131 3.3165 3.27644 3.18326C3.64378 2.82163 4.03641 2.48909 4.44998 2.1813C4.94457 1.81314 5.46799 1.49365 6.01805 1.21522C6.43814 1.00232 6.86693 0.810359 7.31285 0.660812C7.65518 0.546069 7.99995 0.435404 8.34962 0.345404C8.64627 0.268999 8.94971 0.217337 9.25234 0.167579C9.52778 0.122171 9.80512 0.082201 10.083 0.0609925C10.3845 0.0378807 10.688 0.0384245 10.9906 0.0305393C11.1037 0.0275483 11.2174 0.0248293 11.3305 0.031355C11.5554 0.0446783 11.7802 0.0607206 12.0043 0.0827448C12.2419 0.106128 12.4793 0.133591 12.7156 0.166763C13.1321 0.225494 13.5405 0.323108 13.9459 0.434044C14.3826 0.553682 14.8087 0.704317 15.2258 0.878607C15.6304 1.04773 16.0244 1.23942 16.4029 1.46157C16.6288 1.59426 16.8561 1.72613 17.0737 1.87214C17.4451 2.12121 17.8078 2.38332 18.1384 2.68622C18.3916 2.91816 18.6496 3.14574 18.8911 3.38964C19.0906 3.59139 19.2687 3.81435 19.4566 4.02807C19.7799 4.39595 20.0551 4.79919 20.3156 5.21221C20.5546 5.59097 20.7683 5.98387 20.9518 6.39417C21.131 6.79523 21.308 7.19711 21.4347 7.61774C21.5481 7.99406 21.655 8.37336 21.7392 8.75674C21.8078 9.06835 21.8382 9.38838 21.8874 9.7046C21.9201 9.91451 21.9247 10.1269 21.9456 10.3373C21.9848 10.7313 21.9668 11.1245 21.9628 11.5174C21.96 11.7866 21.925 12.0566 21.8885 12.3241C21.8412 12.6724 21.7836 13.0197 21.7205 13.3652C21.6849 13.5605 21.6313 13.7527 21.5818 13.9455C21.5535 14.0559 21.5147 14.0736 21.4029 14.0396C20.8534 13.8723 20.3041 13.704 19.7544 13.5376C19.5379 13.4721 19.3207 13.4104 19.1037 13.3465C19.0776 13.3389 19.052 13.3296 19.0262 13.3215C18.9642 13.3019 18.9386 13.2608 18.953 13.1969C18.968 13.1309 18.9816 13.0645 18.9998 12.9995C19.0773 12.7206 19.1314 12.4372 19.167 12.1504C19.1921 11.9492 19.219 11.7485 19.2437 11.5473C19.2481 11.5114 19.2475 11.475 19.2475 11.4388C19.2481 11.2167 19.2459 10.9948 19.2486 10.7726C19.2516 10.5282 19.2222 10.2867 19.1997 10.0439C19.1578 9.59693 19.0702 9.15998 18.9525 8.72847C18.8476 8.34427 18.7119 7.97094 18.5514 7.6055C18.3467 7.13946 18.0966 6.70034 17.8062 6.28378C17.5916 5.97599 17.3662 5.67689 17.106 5.40526C17.0217 5.31716 16.9445 5.22227 16.8602 5.13444C16.5402 4.80055 16.1826 4.51097 15.8107 4.23771C15.4596 3.97994 15.0888 3.75399 14.6983 3.56338C14.1075 3.27489 13.4951 3.04079 12.8513 2.89831C12.5565 2.83305 12.2588 2.78465 11.9589 2.74223C11.4621 2.67236 10.964 2.67861 10.4691 2.70335C9.87011 2.73326 9.27817 2.83794 8.69847 3.00571C8.17941 3.15607 7.67802 3.34776 7.19865 3.59601C6.82886 3.78743 6.47784 4.00903 6.1404 4.25429C5.74424 4.54224 5.37227 4.85737 5.03321 5.20922C4.58675 5.67227 4.19221 6.17665 3.86403 6.73269C3.5497 7.26535 3.30064 7.82575 3.10868 8.41252C2.97354 8.82554 2.87239 9.24726 2.80279 9.67605C2.77179 9.86693 2.76717 10.0619 2.74269 10.2541C2.68859 10.6786 2.72203 11.1041 2.72094 11.5291C2.7204 11.717 2.7514 11.9067 2.78375 12.0927C2.84792 12.4614 2.92297 12.8282 2.99937 13.2268V13.2252Z" fill="#64758B"/>
<path d="M10.1994 13.4126C10.2418 14.252 9.52832 14.8722 8.74225 14.8575C8.00865 14.8439 7.33161 14.2449 7.33433 13.4156C7.33705 12.6181 7.98799 11.9634 8.82164 11.9854C9.53648 12.0042 10.2317 12.5841 10.1994 13.4126ZM7.93088 13.4083C7.94448 13.5064 7.94829 13.6073 7.97385 13.7019C8.02959 13.9075 8.12747 14.0883 8.3178 14.2041C8.49046 14.3091 8.68025 14.3472 8.8782 14.326C9.15309 14.2966 9.35974 14.1571 9.49161 13.9116C9.61451 13.6824 9.63137 13.4357 9.58433 13.188C9.55225 13.0189 9.4791 12.8647 9.35022 12.7372C9.22379 12.6124 9.07125 12.5542 8.90539 12.5232C8.60466 12.4667 8.21394 12.61 8.06303 12.9126C7.98499 13.0692 7.93143 13.2296 7.93088 13.4083Z" fill="#64758B"/>
<path d="M12.4676 13.9266C12.6835 13.9223 12.8942 13.9188 13.1093 13.9283C13.1207 14.0224 13.0805 14.0849 13.047 14.1463C12.7917 14.6156 12.3828 14.8288 11.8613 14.8511C11.4779 14.8674 11.1342 14.7543 10.8473 14.502C10.6062 14.2896 10.4691 14.0115 10.4093 13.6944C10.3492 13.3769 10.393 13.0712 10.5249 12.7814C10.6396 12.5296 10.8152 12.3194 11.0613 12.187C11.5907 11.9018 12.1188 11.9102 12.6316 12.2321C12.8186 12.3496 12.9554 12.5185 13.0552 12.7148C13.0824 12.7686 13.0924 12.8311 13.1112 12.8929C13.0794 12.9046 13.0628 12.9157 13.0465 12.9157C12.8567 12.9168 12.6669 12.9165 12.4866 12.9165C12.4206 12.8396 12.3662 12.767 12.3026 12.7042C12.1307 12.535 11.9165 12.494 11.6881 12.5277C11.4039 12.5696 11.1864 12.7218 11.0763 12.9875C10.9308 13.338 10.9488 13.6866 11.1627 14.0104C11.3139 14.2391 11.6571 14.3701 11.9271 14.3198C12.1653 14.2755 12.3431 14.1521 12.4676 13.9264V13.9266Z" fill="#64758B"/>
<path d="M7.08772 12.7834C6.98984 12.8154 6.62712 12.8222 6.45881 12.7956C6.45255 12.7787 6.4444 12.7583 6.4376 12.7377C6.38268 12.5753 6.27772 12.4913 6.1086 12.4856C6.03709 12.4832 5.96204 12.4848 5.89434 12.5044C5.794 12.5337 5.7195 12.5968 5.70944 12.714C5.69802 12.8453 5.72195 12.9595 5.84947 13.0259C5.90956 13.0572 5.97129 13.0868 6.03491 13.1088C6.2228 13.1744 6.41394 13.2309 6.6002 13.3C6.7541 13.3571 6.88706 13.4446 6.99038 13.5803C7.11546 13.7445 7.14156 13.9273 7.11464 14.1198C7.05727 14.5276 6.73669 14.7688 6.40633 14.8264C6.04497 14.8892 5.70237 14.855 5.39431 14.6394C5.20914 14.5097 5.12295 14.3185 5.0827 14.1026C5.08026 14.0896 5.08189 14.0754 5.08406 14.0621C5.08624 14.0491 5.09195 14.0368 5.09576 14.0254C5.19636 13.9966 5.54929 13.9922 5.68633 14.0178C5.69177 14.0249 5.7002 14.0311 5.7021 14.039C5.78612 14.3647 5.98325 14.3879 6.26766 14.3452C6.41123 14.3237 6.50993 14.1964 6.51863 14.061C6.52624 13.9408 6.43379 13.8011 6.29703 13.7478C6.17521 13.7002 6.04742 13.6687 5.9237 13.6257C5.7195 13.5545 5.50633 13.5042 5.33367 13.3603C5.22219 13.2673 5.14497 13.1567 5.11017 13.0147C5.00956 12.6044 5.21023 12.2355 5.56425 12.0908C5.96476 11.9274 6.35902 11.9377 6.73534 12.1629C6.96808 12.3021 7.06515 12.5226 7.08691 12.7834H7.08772Z" fill="#64758B"/>
<path d="M15.3055 14.3049H16.411V14.7704C16.3115 14.7998 14.6211 14.8079 14.4452 14.7785C14.4215 14.6448 14.4297 14.5058 14.4411 14.3682C14.4438 14.3362 14.4857 14.3038 14.5148 14.2777C14.8011 14.0221 15.0931 13.7725 15.374 13.5109C15.5165 13.3782 15.6255 13.2162 15.7087 13.0373C15.7666 12.9125 15.7786 12.7841 15.7604 12.6528C15.7353 12.4733 15.6152 12.3613 15.4479 12.3485C15.2293 12.3317 15.0964 12.4084 15.0327 12.5952C15.0083 12.6672 14.9952 12.7431 14.9729 12.8342C14.7978 12.8418 14.6249 12.8448 14.4422 12.8309C14.4125 12.6327 14.4631 12.4603 14.5501 12.3015C14.7029 12.0223 14.9484 11.8839 15.2633 11.8518C15.4501 11.8327 15.6312 11.8414 15.8093 11.9015C16.1342 12.0111 16.3226 12.3048 16.3463 12.6289C16.3749 13.0188 16.2182 13.3293 15.9836 13.62C15.7976 13.8508 15.5708 14.0365 15.3479 14.2271C15.3307 14.2418 15.3104 14.2527 15.2916 14.2652C15.2962 14.2785 15.3008 14.2918 15.3055 14.3049Z" fill="#64758B"/>
<path d="M11.9173 7.35657C11.827 7.4308 11.7452 7.49823 11.6516 7.57518C11.6054 7.53548 11.5635 7.50394 11.5265 7.46723C11.3582 7.30028 11.1617 7.18065 10.9275 7.14258C10.5183 7.07569 9.99165 7.19696 9.73796 7.64098C9.51038 8.03905 9.56367 8.50319 9.87391 8.83355C10.089 9.06249 10.3538 9.15222 10.6619 9.16853C11.0124 9.1873 11.2962 9.0576 11.5472 8.82893C11.5766 8.80228 11.6089 8.7789 11.6424 8.75171C11.7427 8.81724 11.8422 8.86944 11.9039 8.97576C11.79 9.14869 11.6301 9.26506 11.4564 9.36213C11.2644 9.46953 11.0613 9.5299 10.8351 9.52446C10.5711 9.5182 10.3133 9.49482 10.0613 9.40971C9.76298 9.30884 9.55089 9.11334 9.39373 8.84579C9.21808 8.54642 9.17757 8.22013 9.22135 7.88787C9.25153 7.65838 9.35349 7.44739 9.51554 7.27228C9.68358 7.09065 9.86929 6.93593 10.1086 6.85572C10.2505 6.80814 10.3952 6.7834 10.5444 6.76545C10.7935 6.73554 11.0314 6.76681 11.2617 6.85328C11.5195 6.95007 11.7476 7.09255 11.9173 7.3563V7.35657Z" fill="#64758B"/>
<path d="M15.1249 6.69238C15.1605 6.74296 15.179 6.76281 15.1904 6.78619C15.6173 7.6503 16.0437 8.51495 16.4689 9.37988C16.476 9.39456 16.4719 9.41468 16.4727 9.42882C16.3159 9.56804 16.0597 9.46961 15.9686 9.26677C15.8928 9.09764 15.8085 8.93205 15.7304 8.76402C15.6867 8.66994 15.6217 8.63894 15.5148 8.64275C15.2481 8.65254 14.9803 8.65199 14.7135 8.64275C14.6059 8.63894 14.5441 8.67374 14.4995 8.76701C14.4095 8.95489 14.3146 9.14033 14.2211 9.32659C14.1447 9.47885 13.9353 9.54166 13.7964 9.45003C13.7771 9.43725 13.7632 9.39456 13.7687 9.37063C13.7782 9.3274 13.8029 9.28743 13.8233 9.24692C14.2246 8.4448 14.6257 7.64269 15.0281 6.84139C15.051 6.79571 15.0839 6.75519 15.1249 6.69293V6.69238ZM15.1217 7.54725C14.9925 7.79686 14.878 8.01819 14.7619 8.24305C14.9039 8.28084 15.3609 8.27649 15.4664 8.2368C15.356 8.01601 15.2462 7.79631 15.1217 7.54725Z" fill="#64758B"/>
<path d="M5.44814 9.44988C5.48756 9.35635 5.51448 9.28021 5.55064 9.2087C5.90711 8.50121 6.26521 7.79453 6.62276 7.08758C6.67796 6.97828 6.73206 6.8687 6.78753 6.75967C6.79732 6.74036 6.81173 6.72377 6.83729 6.68652C6.86611 6.72976 6.89031 6.75858 6.90663 6.79148C7.1546 7.28988 7.40204 7.78855 7.64838 8.28776C7.8224 8.64042 7.99397 8.99444 8.16636 9.34792C8.17805 9.37184 8.18675 9.3974 8.19627 9.42106C8.05161 9.54342 7.81669 9.49583 7.71935 9.32426C7.684 9.26172 7.66415 9.19049 7.63152 9.12604C7.56627 8.99662 7.48796 8.87317 7.43303 8.73967C7.39687 8.65239 7.33596 8.63934 7.26255 8.63906C6.97297 8.6377 6.68339 8.64042 6.39382 8.63906C6.31687 8.63852 6.26765 8.66761 6.23367 8.73804C6.13496 8.94196 6.03246 9.14399 5.93076 9.34656C5.86632 9.47462 5.84756 9.48278 5.69666 9.47027C5.65669 9.46701 5.61563 9.47843 5.57566 9.47571C5.5395 9.47354 5.50388 9.46157 5.44868 9.44988H5.44814ZM7.18125 8.25976C7.1198 8.06779 6.89494 7.63927 6.81799 7.57402C6.70487 7.80051 6.59285 8.02402 6.47512 8.25976H7.18125Z" fill="#64758B"/>
<path d="M12.8624 6.79248C13.0835 6.80417 13.3072 6.79846 13.525 6.83109C13.9546 6.89553 14.1637 7.12801 14.1839 7.5326C14.1994 7.84393 14.068 8.0843 13.711 8.21562C13.5481 8.27544 13.3755 8.28496 13.2042 8.29448C13.0957 8.30046 12.9867 8.29448 12.8779 8.29747C12.767 8.30046 12.7534 8.31324 12.7528 8.42553C12.7512 8.70641 12.7523 8.98756 12.7523 9.26844C12.7523 9.3046 12.7539 9.34131 12.7501 9.3772C12.7479 9.39868 12.7417 9.42396 12.7281 9.43919C12.6471 9.52838 12.5497 9.47372 12.4603 9.46067C12.3917 9.45088 12.3689 9.39405 12.3686 9.3288C12.3686 9.28801 12.3675 9.24723 12.3675 9.20644C12.3675 8.4723 12.3675 7.73816 12.3675 7.00429C12.3675 6.98173 12.367 6.95889 12.3675 6.93632C12.3716 6.83408 12.3945 6.80526 12.4948 6.80145C12.6169 6.79656 12.7395 6.80037 12.8619 6.80037C12.8619 6.79792 12.8619 6.79547 12.8621 6.79302L12.8624 6.79248ZM12.7531 7.54783H12.7523C12.7523 7.62913 12.7515 7.7107 12.7523 7.792C12.7539 7.91599 12.771 7.94046 12.891 7.93801C13.0756 7.9342 13.2607 7.92822 13.4443 7.90783C13.6381 7.88635 13.7765 7.73381 13.782 7.55898C13.7874 7.38142 13.677 7.23188 13.4766 7.20632C13.2632 7.17886 13.0448 7.18701 12.8284 7.18321C12.7724 7.18212 12.7528 7.22481 12.7528 7.2762C12.7528 7.36674 12.7528 7.45701 12.7528 7.54756L12.7531 7.54783Z" fill="#64758B"/>
<path d="M8.78277 9.4331C8.66857 9.52011 8.57068 9.47498 8.47661 9.45377C8.44996 9.44779 8.42304 9.4051 8.41325 9.37383C8.4002 9.33196 8.4002 9.28492 8.4002 9.24005C8.39966 8.49395 8.39966 7.74785 8.39966 7.00174C8.39966 6.97917 8.39911 6.95661 8.4002 6.93404C8.40102 6.91609 8.40129 6.89733 8.40673 6.88047C8.42984 6.81032 8.49564 6.78694 8.6286 6.79972C8.72948 6.80951 8.77298 6.84241 8.78087 6.9199C8.78467 6.95579 8.7825 6.99222 8.7825 7.02839C8.7825 7.74295 8.7825 8.45724 8.7825 9.17181C8.7825 9.26099 8.7825 9.35045 8.7825 9.4331H8.78277Z" fill="#64758B"/>
<path d="M14.9816 19.4695C14.9863 19.5222 14.9626 19.5687 14.9112 19.5983C14.8723 19.6206 14.8315 19.6413 14.7897 19.6571C14.6746 19.7008 14.6021 19.6663 14.5585 19.5513C14.5251 19.4627 14.5425 19.4148 14.6271 19.3767C14.6804 19.3528 14.7345 19.3283 14.7908 19.3139C14.8979 19.2862 14.9789 19.352 14.9819 19.4695H14.9816Z" fill="#64758B"/>
<path d="M10.2089 20.2183C10.2864 20.3697 10.3011 20.5122 10.3527 20.6427C10.2236 20.6819 10.1154 20.6778 10.0077 20.6277C10.0547 20.4915 10.123 20.3656 10.2089 20.2183Z" fill="#64758B"/>
<path d="M13.7583 20.2942C13.76 20.4489 13.7458 20.5449 13.6305 20.5881C13.5386 20.6226 13.4541 20.6041 13.3991 20.5071C13.342 20.4065 13.3053 20.2939 13.2656 20.1843C13.2393 20.1112 13.2403 20.0356 13.2645 19.9592C13.2887 19.8825 13.3344 19.8379 13.4135 19.8202C13.4954 19.802 13.5533 19.8319 13.6028 19.8928C13.7099 20.0244 13.7534 20.1778 13.7586 20.2942H13.7583Z" fill="#64758B"/>
<path d="M16.8308 18.872C16.8316 19.0227 16.7452 19.1167 16.6035 19.1186C16.4768 19.1203 16.3678 19.0164 16.3651 18.8919C16.3623 18.7663 16.4926 18.6314 16.6147 18.6379C16.7253 18.6439 16.8531 18.7611 16.8308 18.872Z" fill="#64758B"/>
<path d="M3.55704 17.4914C3.55514 17.3585 3.65275 17.2467 3.77375 17.2437C3.89638 17.2407 4.02118 17.3604 4.02309 17.483C4.02472 17.6029 3.91405 17.7247 3.79822 17.7296C3.69952 17.7337 3.54562 17.6401 3.55704 17.4911V17.4914Z" fill="#64758B"/>
<path d="M17.1259 18.2549C17.1283 18.1176 17.221 18.0273 17.3594 18.0273C17.5027 18.0273 17.5971 18.1258 17.5919 18.2693C17.5878 18.3879 17.469 18.4966 17.3477 18.4928C17.211 18.4885 17.1234 18.3944 17.1259 18.2547V18.2549Z" fill="#64758B"/>
<path d="M6.25541 19.4418C6.15427 19.3809 6.0523 19.3194 5.95088 19.2588C6.01641 19.1334 6.08738 19.1179 6.20865 19.19C6.31279 19.2517 6.33128 19.3349 6.25541 19.4421V19.4418Z" fill="#64758B"/>
<path d="M15.9012 19.2663C15.8022 19.343 15.7043 19.4194 15.5752 19.4453C15.5382 19.3088 15.567 19.2416 15.6731 19.1921C15.7699 19.1467 15.8365 19.1663 15.9009 19.2666L15.9012 19.2663Z" fill="#64758B"/>
</g>
<defs>
<clipPath id="clip0_939_2385">
<rect width="21.9709" height="22" fill="white" transform="translate(0 0.0263672)"/>
</clipPath>
</defs>
</svg>
