<svg width="76" height="23" viewBox="0 0 76 23" fill="none" xmlns="http://www.w3.org/2000/svg">
<path d="M10.6591 4.90909C10.5568 4.04545 10.142 3.375 9.41477 2.89773C8.6875 2.42045 7.79545 2.18182 6.73864 2.18182C5.96591 2.18182 5.28977 2.30682 4.71023 2.55682C4.13636 2.80682 3.6875 3.15057 3.36364 3.58807C3.04545 4.02557 2.88636 4.52273 2.88636 5.07954C2.88636 5.54545 2.99716 5.94602 3.21875 6.28125C3.44602 6.6108 3.7358 6.88636 4.08807 7.10795C4.44034 7.32386 4.80966 7.50284 5.19602 7.64489C5.58239 7.78125 5.9375 7.89205 6.26136 7.97727L8.03409 8.45455C8.48864 8.57386 8.99432 8.73864 9.55114 8.94886C10.1136 9.15909 10.6506 9.44602 11.1619 9.80966C11.679 10.1676 12.1051 10.6278 12.4403 11.1903C12.7756 11.7528 12.9432 12.4432 12.9432 13.2614C12.9432 14.2045 12.696 15.0568 12.2017 15.8182C11.7131 16.5795 10.9972 17.1847 10.054 17.6335C9.11648 18.0824 7.97727 18.3068 6.63636 18.3068C5.38636 18.3068 4.30398 18.1051 3.3892 17.7017C2.48011 17.2983 1.7642 16.7358 1.24148 16.0142C0.724432 15.2926 0.431818 14.4545 0.363636 13.5H2.54545C2.60227 14.1591 2.82386 14.7045 3.21023 15.1364C3.60227 15.5625 4.09659 15.8807 4.69318 16.0909C5.29545 16.2955 5.94318 16.3977 6.63636 16.3977C7.44318 16.3977 8.16761 16.267 8.80966 16.0057C9.4517 15.7386 9.96023 15.3693 10.3352 14.8977C10.7102 14.4205 10.8977 13.8636 10.8977 13.2273C10.8977 12.6477 10.7358 12.1761 10.4119 11.8125C10.0881 11.4489 9.66193 11.1534 9.13352 10.9261C8.60511 10.6989 8.03409 10.5 7.42045 10.3295L5.27273 9.71591C3.90909 9.32386 2.82955 8.7642 2.03409 8.03693C1.23864 7.30966 0.840909 6.35795 0.840909 5.18182C0.840909 4.20454 1.10511 3.35227 1.63352 2.625C2.16761 1.89205 2.88352 1.32386 3.78125 0.920454C4.68466 0.511363 5.69318 0.306818 6.80682 0.306818C7.93182 0.306818 8.93182 0.508522 9.80682 0.911931C10.6818 1.30966 11.375 1.85511 11.8864 2.54829C12.4034 3.24148 12.6761 4.02841 12.7045 4.90909H10.6591ZM16.1456 22.9091V4.90909H18.0888V6.98864H18.3274C18.4751 6.76136 18.6797 6.47159 18.9411 6.11932C19.2081 5.76136 19.5888 5.44318 20.0831 5.16477C20.5831 4.88068 21.2592 4.73864 22.1115 4.73864C23.2138 4.73864 24.1854 5.0142 25.0263 5.56534C25.8672 6.11648 26.5234 6.89773 26.995 7.90909C27.4666 8.92045 27.7024 10.1136 27.7024 11.4886C27.7024 12.875 27.4666 14.0767 26.995 15.0938C26.5234 16.1051 25.87 16.8892 25.0348 17.446C24.1996 17.9972 23.2365 18.2727 22.1456 18.2727C21.3047 18.2727 20.6314 18.1335 20.1257 17.8551C19.62 17.571 19.2308 17.25 18.9581 16.892C18.6854 16.5284 18.4751 16.2273 18.3274 15.9886H18.157V22.9091H16.1456ZM18.1229 11.4545C18.1229 12.4432 18.2678 13.3153 18.5575 14.071C18.8473 14.821 19.2706 15.4091 19.8274 15.8352C20.3842 16.2557 21.0661 16.4659 21.8729 16.4659C22.7138 16.4659 23.4155 16.2443 23.978 15.8011C24.5462 15.3523 24.9723 14.75 25.2564 13.9943C25.5462 13.233 25.6911 12.3864 25.6911 11.4545C25.6911 10.5341 25.549 9.70455 25.2649 8.96591C24.9865 8.22159 24.5632 7.63352 23.995 7.2017C23.4325 6.7642 22.7251 6.54545 21.8729 6.54545C21.0547 6.54545 20.3672 6.75284 19.8104 7.16761C19.2536 7.5767 18.8331 8.15057 18.549 8.8892C18.2649 9.62216 18.1229 10.4773 18.1229 11.4545ZM32.782 0.545454V18H30.7706V0.545454H32.782ZM44.7159 12.6477V4.90909H46.7273V18H44.7159V15.7841H44.5795C44.2727 16.4489 43.7955 17.0142 43.1477 17.4801C42.5 17.9403 41.6818 18.1705 40.6932 18.1705C39.875 18.1705 39.1477 17.9915 38.5114 17.6335C37.875 17.2699 37.375 16.7244 37.0114 15.9972C36.6477 15.2642 36.4659 14.3409 36.4659 13.2273V4.90909H38.4773V13.0909C38.4773 14.0455 38.7443 14.8068 39.2784 15.375C39.8182 15.9432 40.5057 16.2273 41.3409 16.2273C41.8409 16.2273 42.3494 16.0994 42.8665 15.8438C43.3892 15.5881 43.8267 15.196 44.179 14.6676C44.5369 14.1392 44.7159 13.4659 44.7159 12.6477ZM52.4226 10.125V18H50.4112V4.90909H52.3544V6.95455H52.5249C52.8317 6.28977 53.2976 5.75568 53.9226 5.35227C54.5476 4.94318 55.3544 4.73864 56.343 4.73864C57.2294 4.73864 58.005 4.92045 58.6697 5.28409C59.3345 5.64205 59.8516 6.1875 60.2209 6.92045C60.5902 7.64773 60.7749 8.56818 60.7749 9.68182V18H58.7635V9.81818C58.7635 8.78977 58.4964 7.98864 57.9624 7.41477C57.4283 6.83523 56.6953 6.54545 55.7635 6.54545C55.1214 6.54545 54.5476 6.68466 54.0419 6.96307C53.5419 7.24148 53.147 7.64773 52.8572 8.18182C52.5675 8.71591 52.4226 9.36364 52.4226 10.125ZM66.3253 13.2273L66.2912 10.7386H66.7003L72.4276 4.90909H74.9162L68.8139 11.0795H68.6435L66.3253 13.2273ZM64.4503 18V0.545454H66.4616V18H64.4503ZM72.7685 18L67.6548 11.5227L69.0866 10.125L75.3253 18H72.7685Z" fill="#334155"/>
</svg>
