<svg width="16" height="16" viewBox="0 0 16 16" fill="none" xmlns="http://www.w3.org/2000/svg">
<g clip-path="url(#clip0_838_4303)">
<path d="M7.15164 4.29959e-05C5.37768 4.29959e-05 3.80173 1.12665 3.25252 2.79045C2.11199 3.02232 1.12736 3.72678 0.550377 4.72506C-0.339287 6.24195 -0.13591 8.14913 1.05569 9.4492C0.687456 10.5386 0.813783 11.7298 1.40152 12.7166C2.28581 14.2388 4.06514 15.0194 5.80594 14.6565C6.57734 15.515 7.68561 16.0044 8.84854 16C10.6225 16 12.1984 14.8734 12.7486 13.2096C13.8909 12.9768 14.8737 12.2723 15.4453 11.2758C16.3404 9.75895 16.137 7.85177 14.9454 6.55082V6.54551C15.3136 5.45607 15.1873 4.26398 14.5996 3.27278C13.7153 1.75588 11.9359 0.975314 10.2005 1.33816C9.42463 0.481483 8.31456 -0.00526701 7.15164 4.29959e-05ZM7.15164 1.03992L7.14626 1.04523C7.86032 1.04523 8.54661 1.2886 9.09582 1.73907C9.07342 1.74969 9.02952 1.77712 8.99727 1.79305L5.76742 3.63032C5.60256 3.72236 5.50401 3.89582 5.50401 4.08521V8.39781L4.11441 7.60662V4.04184C4.11352 2.386 5.47265 1.04257 7.15164 1.03992ZM11.0418 2.29573C12.1313 2.29396 13.1383 2.86656 13.6821 3.79847C14.0333 4.40558 14.165 5.11535 14.0441 5.80299C14.0217 5.78706 13.9787 5.76494 13.9509 5.74901L10.7219 3.90644C10.5571 3.8144 10.3546 3.8144 10.1898 3.90644L6.40532 6.06318V4.4808L9.52945 2.69841C9.98907 2.43556 10.5105 2.29662 11.0418 2.29573ZM3.05452 3.93299V7.7199C3.05452 7.90929 3.15307 8.07745 3.31793 8.1748L7.09609 10.3253L5.70112 11.1218L2.58147 9.34477C1.13005 8.51464 0.633699 6.6818 1.4723 5.24898C1.82798 4.64187 2.38705 4.17636 3.05452 3.93299ZM10.2928 4.87109L13.4178 6.64817C14.8737 7.47741 15.3674 9.30848 14.527 10.744L14.5324 10.7493C14.1758 11.3564 13.6149 11.8219 12.951 12.0608V8.27303C12.951 8.08364 12.8525 7.91018 12.6876 7.81814L8.90409 5.66139L10.2928 4.87109ZM7.9974 6.17646L9.59038 7.08624V8.90138L7.9974 9.81116L6.40443 8.90138V7.08624L7.9974 6.17646ZM10.5015 7.60662L11.8911 8.39781V11.9573C11.8911 13.6149 10.5293 14.9592 8.85392 14.9592V14.9539C8.14523 14.9539 7.45357 14.7096 6.90973 14.2601C6.93213 14.2494 6.98141 14.222 7.00829 14.2061L10.2372 12.3697C10.4021 12.2777 10.506 12.1042 10.5006 11.9148L10.5015 7.60662ZM9.59486 9.93683V11.5192L6.46983 13.2963C5.01393 14.1202 3.15845 13.6326 2.31806 12.2015H2.32344C1.96685 11.5997 1.83963 10.8847 1.96058 10.197C1.98298 10.213 2.02688 10.2351 2.05376 10.251L5.28271 12.0936C5.44757 12.1856 5.65005 12.1856 5.8149 12.0936L9.59486 9.93683Z" fill="#74AA9C"/>
</g>
<defs>
<clipPath id="clip0_838_4303">
<rect width="16" height="16" fill="white"/>
</clipPath>
</defs>
</svg>
