<svg width="54" height="54" viewBox="0 0 54 54" fill="none" xmlns="http://www.w3.org/2000/svg">
<path d="M28.4066 19.5C32.0312 19.5 34.9696 16.5617 34.9696 12.9371C34.9696 9.31246 32.0312 6.37411 28.4066 6.37411C24.782 6.37411 21.8436 9.31246 21.8436 12.9371C21.8436 16.5617 24.782 19.5 28.4066 19.5Z" fill="#7B83EB"/>
<path opacity="0.1" d="M27.9374 14.3438H21.9932L22.0227 14.4745L22.0255 14.4858L22.0564 14.6067C22.4884 16.2446 23.5363 17.6523 24.9814 18.5359C26.4266 19.4195 28.1572 19.7107 29.8119 19.3486V16.2183C29.8104 15.7216 29.6125 15.2456 29.2612 14.8944C28.91 14.5432 28.4341 14.3452 27.9374 14.3438Z" fill="black"/>
<path opacity="0.2" d="M26.5319 15.7491H22.4763C23.0086 16.8714 23.8484 17.8195 24.8981 18.4834C25.9478 19.1473 27.1644 19.4997 28.4065 19.4996V17.6237C28.405 17.127 28.207 16.651 27.8558 16.2998C27.5046 15.9486 27.0286 15.7506 26.5319 15.7491Z" fill="black"/>
<path d="M43.1718 19.9688C45.89 19.9688 48.0936 17.7652 48.0936 15.0469C48.0936 12.3286 45.89 10.125 43.1718 10.125C40.4535 10.125 38.2499 12.3286 38.2499 15.0469C38.2499 17.7652 40.4535 19.9688 43.1718 19.9688Z" fill="#5059C9"/>
<path d="M47.3902 21.3746H36.3357C36.097 21.3746 35.8681 21.4694 35.6993 21.6382C35.5305 21.807 35.4357 22.0359 35.4357 22.2746V33.6793C35.4052 35.3298 35.9428 36.9408 36.9583 38.2423C37.9739 39.5438 39.4058 40.4569 41.0143 40.8286C42.0387 41.0436 43.0982 41.0274 44.1156 40.7812C45.1329 40.535 46.0826 40.065 46.8954 39.4055C47.7083 38.746 48.3638 37.9135 48.8143 36.9686C49.2648 36.0238 49.4989 34.9904 49.4996 33.9436V23.4839C49.4996 22.9245 49.2773 22.388 48.8818 21.9924C48.4862 21.5968 47.9496 21.3746 47.3902 21.3746Z" fill="#5059C9"/>
<path d="M39.6561 23.4839V36.8433C39.6575 39.3191 38.8417 41.7261 37.3352 43.6908C35.8287 45.6555 33.7159 47.068 31.3245 47.7091C28.9332 48.3502 26.3972 48.184 24.1099 47.2364C21.8227 46.2888 19.9122 44.6128 18.6749 42.4683C18.4043 42.0186 18.1692 41.5484 17.9718 41.0621C17.7877 40.6035 17.6327 40.1339 17.5077 39.6558C17.2759 38.7362 17.1578 37.7917 17.1561 36.8433V23.4839C17.1558 23.2068 17.2101 22.9324 17.3159 22.6763C17.4218 22.4202 17.5772 22.1875 17.7731 21.9916C17.9691 21.7956 18.2018 21.6403 18.4578 21.5344C18.7139 21.4285 18.9884 21.3742 19.2655 21.3746H37.5468C37.8239 21.3742 38.0983 21.4285 38.3544 21.5344C38.6105 21.6403 38.8432 21.7956 39.0391 21.9916C39.2351 22.1875 39.3904 22.4202 39.4963 22.6763C39.6022 22.9324 39.6565 23.2068 39.6561 23.4839Z" fill="#7B83EB"/>
<path opacity="0.2" d="M26.5319 15.7491H22.4763C23.0086 16.8714 23.8484 17.8195 24.8981 18.4834C25.9478 19.1473 27.1644 19.4997 28.4065 19.4996V17.6237C28.405 17.127 28.207 16.651 27.8558 16.2998C27.5046 15.9486 27.0286 15.7506 26.5319 15.7491Z" fill="black"/>
<path opacity="0.1" d="M29.8124 21.3746V39.1918C29.8124 39.6157 29.6673 40.0268 29.4012 40.3569C29.1352 40.6869 28.7642 40.9159 28.3499 41.0058C28.2176 41.0452 28.0801 41.0641 27.9421 41.0621H17.9718C17.7877 40.6035 17.6327 40.1339 17.5077 39.6558C17.2759 38.7362 17.1578 37.7917 17.1561 36.8433V23.4839C17.1558 23.2068 17.2101 22.9324 17.3159 22.6763C17.4218 22.4202 17.5772 22.1875 17.7731 21.9916C17.9691 21.7956 18.2018 21.6403 18.4578 21.5344C18.7139 21.4285 18.9884 21.3742 19.2655 21.3746H29.8124Z" fill="black"/>
<path opacity="0.2" d="M28.4061 21.3746V40.598C28.4082 40.736 28.3892 40.8735 28.3499 41.0058C28.26 41.4201 28.0309 41.7911 27.7009 42.0572C27.3709 42.3232 26.9597 42.4683 26.5358 42.4683H18.6749C18.4043 42.0186 18.1692 41.5484 17.9718 41.0621C17.7877 40.6035 17.6327 40.1339 17.5077 39.6558C17.2759 38.7362 17.1578 37.7917 17.1561 36.8433V23.4839C17.1558 23.2068 17.2101 22.9324 17.3159 22.6763C17.4218 22.4202 17.5772 22.1875 17.7731 21.9916C17.9691 21.7956 18.2018 21.6403 18.4578 21.5344C18.7139 21.4285 18.9884 21.3742 19.2655 21.3746H28.4061Z" fill="black"/>
<path opacity="0.2" d="M28.4061 21.3746V37.7855C28.4039 38.2809 28.2061 38.7553 27.8559 39.1056C27.5056 39.4558 27.0312 39.6536 26.5358 39.6558H17.5077C17.2759 38.7362 17.1578 37.7917 17.1561 36.8433V23.4839C17.1558 23.2068 17.2101 22.9324 17.3159 22.6763C17.4218 22.4202 17.5772 22.1875 17.7731 21.9916C17.9691 21.7956 18.2018 21.6403 18.4578 21.5344C18.7139 21.4285 18.9884 21.3742 19.2655 21.3746H28.4061Z" fill="black"/>
<path opacity="0.2" d="M19.2655 21.3746C18.9884 21.3742 18.7139 21.4285 18.4578 21.5344C18.2018 21.6403 17.9691 21.7956 17.7731 21.9916C17.5772 22.1875 17.4218 22.4202 17.3159 22.6763C17.2101 22.9324 17.1558 23.2068 17.1561 23.4839V36.8433C17.1578 37.7917 17.2759 38.7362 17.5077 39.6558H25.1296C25.6249 39.6536 26.0994 39.4558 26.4496 39.1056C26.7999 38.7553 26.9977 38.2809 26.9999 37.7855V21.3746H19.2655Z" fill="black"/>
<path d="M6.37441 15.7491H25.1253C25.6225 15.7491 26.0993 15.9466 26.4508 16.2982C26.8024 16.6497 26.9999 17.1265 26.9999 17.6237V36.3746C26.9999 36.8718 26.8024 37.3486 26.4508 37.7001C26.0993 38.0516 25.6225 38.2491 25.1253 38.2491H6.37441C5.87725 38.2491 5.40046 38.0516 5.04892 37.7001C4.69737 37.3486 4.49988 36.8718 4.49988 36.3746V17.6237C4.49988 17.1265 4.69737 16.6497 5.04892 16.2982C5.40046 15.9466 5.87725 15.7491 6.37441 15.7491Z" fill="#4B53BC"/>
<path d="M21.348 22.7461H17.1434V34.0242H14.3843V22.7461H10.1543V19.9758H21.348V22.7461Z" fill="white"/>
</svg>
