<svg width="20" height="20" viewBox="0 0 20 20" fill="none" xmlns="http://www.w3.org/2000/svg">
<path d="M8.41668 1.81646C9.46239 1.61261 10.5376 1.61261 11.5833 1.81646M14.6667 3.09146C15.5519 3.69001 16.3131 4.45402 16.9083 5.34146M18.1833 8.41646C18.3872 9.46218 18.3872 10.5374 18.1833 11.5831M16.9083 14.6665C16.3098 15.5517 15.5458 16.3129 14.6583 16.9081M11.5833 18.1831C10.5376 18.3868 9.46241 18.3868 8.41668 18.1831M5.33334 16.9081C4.44812 16.3096 3.68693 15.5456 3.09168 14.6581M1.81668 11.5831C1.61282 10.5374 1.61282 9.46218 1.81668 8.41646M3.09168 5.33313C3.69022 4.4479 4.45424 3.68672 5.34168 3.09146M10.8333 9.9998C10.8333 10.46 10.4602 10.8331 10 10.8331C9.53977 10.8331 9.16668 10.46 9.16668 9.9998C9.16668 9.53956 9.53977 9.16646 10 9.16646C10.4602 9.16646 10.8333 9.53956 10.8333 9.9998Z" stroke="#F97315" stroke-width="2" stroke-linecap="round" stroke-linejoin="round"/>
</svg>
