<svg width="20" height="18" viewBox="0 0 20 18" fill="none" xmlns="http://www.w3.org/2000/svg">
<path d="M15 16.5C15 14.7319 14.2976 13.0362 13.0474 11.786C11.7971 10.5357 10.1014 9.83333 8.33333 9.83333M8.33333 9.83333C6.56522 9.83333 4.86953 10.5357 3.61929 11.786C2.36904 13.0362 1.66666 14.7319 1.66666 16.5M8.33333 9.83333C10.6345 9.83333 12.5 7.96785 12.5 5.66667C12.5 3.36548 10.6345 1.5 8.33333 1.5C6.03214 1.5 4.16666 3.36548 4.16666 5.66667C4.16666 7.96785 6.03214 9.83333 8.33333 9.83333ZM18.3333 15.6667C18.3333 12.8583 16.6667 10.25 15 9C15.5478 8.58897 15.9859 8.04924 16.2755 7.42856C16.565 6.80788 16.6971 6.12539 16.66 5.4415C16.6229 4.75761 16.4178 4.0934 16.0629 3.50767C15.7079 2.92193 15.2141 2.43272 14.625 2.08333" stroke="#94A3B8" stroke-width="1.5" stroke-linecap="round" stroke-linejoin="round"/>
</svg>
