<svg width="30" height="35" viewBox="0 0 30 35" fill="none" xmlns="http://www.w3.org/2000/svg">
<g id="Frame 2608548">
<g id="Group 68077">
<rect id="Rectangle 2846" y="5" width="30" height="30" rx="4" fill="#12B76A"/>
</g>
<g id="account_circle">
<mask id="mask0_795_18468" style="mask-type:alpha" maskUnits="userSpaceOnUse" x="3" y="8" width="24" height="24">
<rect id="Bounding box" x="3" y="8" width="24" height="24" fill="white"/>
</mask>
<g mask="url(#mask0_795_18468)">
<path id="account_circle_2" d="M8.85 25.1C9.7 24.45 10.65 23.9375 11.7 23.5625C12.75 23.1875 13.85 23 15 23C16.15 23 17.25 23.1875 18.3 23.5625C19.35 23.9375 20.3 24.45 21.15 25.1C21.7333 24.4167 22.1875 23.6417 22.5125 22.775C22.8375 21.9083 23 20.9833 23 20C23 17.7833 22.2208 15.8958 20.6625 14.3375C19.1042 12.7792 17.2167 12 15 12C12.7833 12 10.8958 12.7792 9.3375 14.3375C7.77917 15.8958 7 17.7833 7 20C7 20.9833 7.1625 21.9083 7.4875 22.775C7.8125 23.6417 8.26667 24.4167 8.85 25.1ZM15 21C14.0167 21 13.1875 20.6625 12.5125 19.9875C11.8375 19.3125 11.5 18.4833 11.5 17.5C11.5 16.5167 11.8375 15.6875 12.5125 15.0125C13.1875 14.3375 14.0167 14 15 14C15.9833 14 16.8125 14.3375 17.4875 15.0125C18.1625 15.6875 18.5 16.5167 18.5 17.5C18.5 18.4833 18.1625 19.3125 17.4875 19.9875C16.8125 20.6625 15.9833 21 15 21ZM15 30C13.6167 30 12.3167 29.7375 11.1 29.2125C9.88333 28.6875 8.825 27.975 7.925 27.075C7.025 26.175 6.3125 25.1167 5.7875 23.9C5.2625 22.6833 5 21.3833 5 20C5 18.6167 5.2625 17.3167 5.7875 16.1C6.3125 14.8833 7.025 13.825 7.925 12.925C8.825 12.025 9.88333 11.3125 11.1 10.7875C12.3167 10.2625 13.6167 10 15 10C16.3833 10 17.6833 10.2625 18.9 10.7875C20.1167 11.3125 21.175 12.025 22.075 12.925C22.975 13.825 23.6875 14.8833 24.2125 16.1C24.7375 17.3167 25 18.6167 25 20C25 21.3833 24.7375 22.6833 24.2125 23.9C23.6875 25.1167 22.975 26.175 22.075 27.075C21.175 27.975 20.1167 28.6875 18.9 29.2125C17.6833 29.7375 16.3833 30 15 30ZM15 28C15.8833 28 16.7167 27.8708 17.5 27.6125C18.2833 27.3542 19 26.9833 19.65 26.5C19 26.0167 18.2833 25.6458 17.5 25.3875C16.7167 25.1292 15.8833 25 15 25C14.1167 25 13.2833 25.1292 12.5 25.3875C11.7167 25.6458 11 26.0167 10.35 26.5C11 26.9833 11.7167 27.3542 12.5 27.6125C13.2833 27.8708 14.1167 28 15 28ZM15 19C15.4333 19 15.7917 18.8583 16.075 18.575C16.3583 18.2917 16.5 17.9333 16.5 17.5C16.5 17.0667 16.3583 16.7083 16.075 16.425C15.7917 16.1417 15.4333 16 15 16C14.5667 16 14.2083 16.1417 13.925 16.425C13.6417 16.7083 13.5 17.0667 13.5 17.5C13.5 17.9333 13.6417 18.2917 13.925 18.575C14.2083 18.8583 14.5667 19 15 19Z" fill="white"/>
</g>
</g>
</g>
</svg>
