<svg width="14" height="18" viewBox="0 0 14 18" fill="none" xmlns="http://www.w3.org/2000/svg">
<path d="M6.12504 11.9584L10.8334 7.25008L9.64587 6.06258L6.12504 9.58341L4.37504 7.83342L3.18754 9.02092L6.12504 11.9584ZM7.00004 17.3334C5.06949 16.8473 3.47574 15.7397 2.21879 14.0105C0.961846 12.2813 0.333374 10.3612 0.333374 8.25008V3.16675L7.00004 0.666748L13.6667 3.16675V8.25008C13.6667 10.3612 13.0382 12.2813 11.7813 14.0105C10.5243 15.7397 8.9306 16.8473 7.00004 17.3334ZM7.00004 15.5834C8.44448 15.1251 9.63893 14.2084 10.5834 12.8334C11.5278 11.4584 12 9.93064 12 8.25008V4.31258L7.00004 2.43758L2.00004 4.31258V8.25008C2.00004 9.93064 2.47226 11.4584 3.41671 12.8334C4.36115 14.2084 5.5556 15.1251 7.00004 15.5834Z" fill="#039855"/>
</svg>
