<svg width="20" height="19" viewBox="0 0 20 19" fill="none" xmlns="http://www.w3.org/2000/svg">
<path d="M6.47984 0.125225H12.1205L6.26493 18.1709C6.20475 18.3563 6.09017 18.5174 5.93733 18.6316C5.78449 18.7457 5.60108 18.8072 5.41291 18.8072H1.02305C0.880486 18.8072 0.739966 18.7719 0.613116 18.7043C0.486266 18.6366 0.376732 18.5385 0.293575 18.418C0.210419 18.2976 0.15603 18.1582 0.134909 18.0116C0.113788 17.865 0.126541 17.7152 0.172114 17.5747L5.6276 0.761545C5.68776 0.576035 5.80235 0.41483 5.95524 0.300635C6.10813 0.18644 6.29161 0.125011 6.47984 0.125V0.125225Z" fill="url(#paint0_linear_501_9291)"/>
<path d="M14.677 12.229H5.73219C5.64903 12.2289 5.56778 12.2549 5.499 12.3035C5.43023 12.3521 5.37713 12.4212 5.34662 12.5016C5.31611 12.5821 5.3096 12.6702 5.32795 12.7546C5.3463 12.839 5.38865 12.9156 5.44949 12.9746L11.1972 18.5546C11.3646 18.7169 11.5849 18.8072 11.8138 18.8072H16.8786L14.677 12.229Z" fill="#0078D4"/>
<path d="M6.48003 0.125495C6.28975 0.124736 6.10422 0.187279 5.95054 0.303989C5.79687 0.420699 5.68309 0.585461 5.62585 0.774208L0.179025 17.5596C0.130387 17.7006 0.115117 17.8518 0.134507 18.0002C0.153898 18.1487 0.207378 18.2901 0.290424 18.4125C0.373471 18.5349 0.48364 18.6347 0.611612 18.7034C0.739584 18.7722 0.881594 18.8079 1.02563 18.8075H5.52879C5.69651 18.7763 5.85327 18.6994 5.98305 18.5846C6.11284 18.4698 6.211 18.3212 6.26751 18.154L7.35371 14.8244L11.2336 18.5885C11.3962 18.7283 11.6002 18.8057 11.8112 18.8075H16.8572L14.6441 12.2293L8.19252 12.2309L12.1411 0.125495H6.48003Z" fill="url(#paint1_linear_501_9291)"/>
<path d="M13.6847 0.760419C13.6246 0.575209 13.5102 0.41427 13.3575 0.300276C13.2049 0.186281 13.0217 0.124977 12.8337 0.125H6.54724C6.73516 0.125011 6.91834 0.186328 7.07099 0.300318C7.22364 0.414307 7.33808 0.575227 7.39818 0.760419L12.8539 17.5742C12.8995 17.7148 12.9123 17.8646 12.8912 18.0112C12.8701 18.1579 12.8157 18.2973 12.7325 18.4178C12.6494 18.5383 12.5398 18.6364 12.413 18.7042C12.2861 18.7719 12.1455 18.8072 12.0029 18.8072H18.2896C18.4322 18.8072 18.5728 18.7718 18.6996 18.7041C18.8264 18.6363 18.936 18.5382 19.0191 18.4177C19.1022 18.2972 19.1566 18.1579 19.1777 18.0112C19.1988 17.8645 19.186 17.7147 19.1404 17.5742L13.6847 0.760419Z" fill="url(#paint2_linear_501_9291)"/>
<defs>
<linearGradient id="paint0_linear_501_9291" x1="8.53569" y1="1.50963" x2="2.25106" y2="19.3598" gradientUnits="userSpaceOnUse">
<stop stop-color="#114A8B"/>
<stop offset="1" stop-color="#0669BC"/>
</linearGradient>
<linearGradient id="paint1_linear_501_9291" x1="10.3658" y1="9.89855" x2="9.00014" y2="10.3425" gradientUnits="userSpaceOnUse">
<stop stop-opacity="0.3"/>
<stop offset="0.071" stop-opacity="0.2"/>
<stop offset="0.321" stop-opacity="0.1"/>
<stop offset="0.623" stop-opacity="0.05"/>
<stop offset="1" stop-opacity="0"/>
</linearGradient>
<linearGradient id="paint2_linear_501_9291" x1="9.62062" y1="0.984392" x2="16.5077" y2="18.6251" gradientUnits="userSpaceOnUse">
<stop stop-color="#3CCBF4"/>
<stop offset="1" stop-color="#2892DF"/>
</linearGradient>
</defs>
</svg>
