<svg width="20" height="17" viewBox="0 0 20 17" fill="none" xmlns="http://www.w3.org/2000/svg">
<path d="M0.83374 16.5003L10.0004 0.666992L19.1671 16.5003H0.83374ZM3.70874 14.8337H16.2921L10.0004 4.00033L3.70874 14.8337ZM10.0004 14.0003C10.2365 14.0003 10.4344 13.9205 10.5942 13.7607C10.7539 13.601 10.8337 13.4031 10.8337 13.167C10.8337 12.9309 10.7539 12.733 10.5942 12.5732C10.4344 12.4135 10.2365 12.3337 10.0004 12.3337C9.7643 12.3337 9.56638 12.4135 9.40666 12.5732C9.24694 12.733 9.16707 12.9309 9.16707 13.167C9.16707 13.4031 9.24694 13.601 9.40666 13.7607C9.56638 13.9205 9.7643 14.0003 10.0004 14.0003ZM9.16707 11.5003H10.8337V7.33366H9.16707V11.5003Z" fill="#F04438"/>
</svg>
