<svg width="50" height="50" viewBox="0 0 50 50" fill="none" xmlns="http://www.w3.org/2000/svg">
<path d="M18.6224 13.7397H37.8144L38.0877 12.5204C38.487 10.6286 37.0576 8.8418 35.1237 8.8418H16.4782C14.0609 8.8418 11.9798 10.5235 11.4543 12.8778L7.37621 31.7125C6.97682 33.6044 8.40623 35.3911 10.3401 35.3911H11.4753L15.6374 16.136C15.9527 14.7487 17.1929 13.7397 18.6224 13.7397Z" fill="#00CDFA"/>
<path d="M38.9486 13.7368H37.8135L33.6512 32.9919C33.357 34.3793 32.1168 35.3882 30.6874 35.3882H11.4953L11.222 36.6075C10.8226 38.4994 12.2521 40.2861 14.186 40.2861H32.8315C35.2488 40.2861 37.3299 38.6045 37.8554 36.2501L41.9336 17.4365C42.3329 15.5236 40.8825 13.7368 38.9486 13.7368Z" fill="url(#paint0_linear_939_1492)"/>
<path d="M33.6508 32.9919L37.813 13.7368H18.6209C17.1915 13.7368 15.9513 14.7248 15.657 16.1332L11.4949 35.3882H30.687C32.1163 35.3882 33.3356 34.3793 33.6508 32.9919Z" fill="#3A00FF"/>
<path d="M17.741 28.0382L16.3522 20.8179H18.5301L19.2009 25.3237L21.4025 20.8179H22.8703L23.7304 25.3237L25.7505 20.8179H27.9285L24.4012 28.0382H22.5783L21.7103 23.8086L19.5875 28.0382H17.741Z" fill="white"/>
<path d="M27.1627 26.8671L28.299 25.5492C28.8121 26.1805 29.4592 26.5041 30.2562 26.5041C30.769 26.5041 31.2188 26.2909 31.2898 25.9358C31.3135 25.7229 31.1715 25.5413 30.84 25.3835C30.7612 25.3441 30.5875 25.2808 30.3114 25.1862C29.7668 24.9732 29.5302 24.8942 29.0566 24.5944C28.3939 24.1841 28.0782 23.6159 28.1886 22.6374C28.4017 21.3038 29.6248 20.562 31.1715 20.562C32.2289 20.562 33.0969 20.9092 33.7993 21.5957L32.6787 22.9057C32.2132 22.4717 31.6765 22.2586 31.0689 22.2586C30.5796 22.2586 30.2877 22.4006 30.2246 22.7084C30.1693 22.9609 30.3035 23.174 30.6192 23.316C30.7217 23.3713 30.9347 23.4581 31.2504 23.5764C31.566 23.6947 31.8344 23.7974 32.0552 23.9236C32.7655 24.2235 33.6019 24.9259 33.3495 25.9989C33.231 26.7013 32.8759 27.2537 32.2763 27.6483C31.6844 28.0428 30.9663 28.24 30.1614 28.24C28.8673 28.2321 27.8651 27.7824 27.1627 26.8671Z" fill="white"/>
<defs>
<linearGradient id="paint0_linear_939_1492" x1="11.1544" y1="27.0144" x2="41.9923" y2="27.0144" gradientUnits="userSpaceOnUse">
<stop stop-color="#FFB3FF"/>
<stop offset="0.5335" stop-color="#FF76DF"/>
<stop offset="1" stop-color="#C239C6"/>
</linearGradient>
</defs>
</svg>
