<svg width="115" height="36" viewBox="0 0 115 36" fill="none" xmlns="http://www.w3.org/2000/svg">
<path fill-rule="evenodd" clip-rule="evenodd" d="M91.1888 13.2967C91.6169 14.0597 91.757 14.9279 91.8032 15.9038L91.864 17.2046V26.3008L91.9261 27.603C92.0503 29.7296 93.5685 31.3021 95.643 31.4358L96.897 31.5V17.2046L96.9591 15.9038C97.0107 14.9388 97.1494 14.0543 97.5841 13.2858C98.0271 12.4976 98.663 11.8436 99.428 11.3896C100.193 10.9355 101.06 10.6974 101.943 10.699C102.825 10.7007 103.691 10.9421 104.455 11.399C105.218 11.8559 105.852 12.5123 106.292 13.3022C106.72 14.0652 106.853 14.9497 106.905 15.9038L106.967 17.2005V26.3008L107.029 27.603C107.159 29.7405 108.665 31.313 110.746 31.4358L112 31.5V15.9038C112 13.146 110.94 10.5011 109.052 8.55059C107.165 6.60012 104.605 5.50382 101.935 5.50273C100.506 5.50118 99.0937 5.81464 97.7914 6.42217C96.4892 7.0297 95.3274 7.91732 94.3838 9.02573C93.4398 7.91776 92.278 7.03036 90.9758 6.42264C89.6737 5.81493 88.2612 5.50086 86.8323 5.50137C84.7419 5.50137 82.8022 6.15656 81.1954 7.28812C80.215 6.15792 78.0216 5.50137 76.7623 5.50137V31.5L78.0216 31.4358C80.1278 31.2925 81.65 29.7624 81.7319 27.603L81.7993 26.3008V17.2046L81.8614 15.9038C81.9143 14.9224 82.0464 14.0597 82.4758 13.2913C82.9192 12.5035 83.5548 11.8497 84.3193 11.3951C85.0837 10.9405 85.9502 10.701 86.8323 10.7005C87.7151 10.7007 88.5822 10.9407 89.3469 11.3964C90.1115 11.8521 90.7467 12.5074 91.1888 13.2967ZM5.03301 31.4372L6.29225 31.5H25.1677L25.1056 30.2033C24.9351 28.0657 23.4698 26.5042 21.3939 26.365L20.1347 26.3008H8.81074L23.9085 10.6992L23.8463 9.40383C23.7486 7.24444 22.2211 5.68428 20.1347 5.56552L18.8754 5.50683L0 5.50137L0.0621033 6.80219C0.227272 8.91926 1.71379 10.5135 3.77245 10.6364L5.03301 10.7005H16.357L1.25924 26.3022L1.32135 27.603C1.44555 29.746 2.94264 31.298 5.03301 31.4358V31.4372ZM71.8218 9.30691C72.9905 10.514 73.9177 11.9471 74.5502 13.5243C75.1827 15.1016 75.5083 16.7921 75.5083 18.4993C75.5083 20.2066 75.1827 21.8971 74.5502 23.4743C73.9177 25.0516 72.9905 26.4847 71.8218 27.6917C69.4606 30.129 66.2592 31.498 62.9212 31.498C59.5833 31.498 56.3819 30.129 54.0206 27.6917C49.1065 22.6154 49.1065 14.3832 54.0206 9.30691C55.1883 8.10024 56.5746 7.14298 58.1004 6.48979C59.6262 5.8366 61.2616 5.50027 62.9133 5.5C64.5676 5.49882 66.2059 5.83456 67.7345 6.48802C69.2632 7.14148 70.6521 8.09983 71.8218 9.30828V9.30691ZM68.2608 12.9882C69.6762 14.4515 70.4713 16.4355 70.4713 18.5041C70.4713 20.5727 69.6762 22.5567 68.2608 24.02C66.8443 25.4821 64.9237 26.3035 62.9212 26.3035C60.9187 26.3035 58.9982 25.4821 57.5817 24.02C56.1662 22.5567 55.3711 20.5727 55.3711 18.5041C55.3711 16.4355 56.1662 14.4515 57.5817 12.9882C58.9982 11.5261 60.9187 10.7047 62.9212 10.7047C64.9237 10.7047 66.8443 11.5261 68.2608 12.9882ZM36.5022 5.5C38.1539 5.50045 39.7894 5.837 41.3152 6.49042C42.841 7.14385 44.2273 8.10136 45.3949 9.30828C50.3103 14.3832 50.3103 22.6168 45.3949 27.6917C43.0336 30.129 39.8322 31.498 36.4943 31.498C33.1563 31.498 29.9549 30.129 27.5937 27.6917C22.6796 22.6154 22.6796 14.3832 27.5937 9.30691C28.7614 8.10024 30.1477 7.14298 31.6735 6.48979C33.1993 5.8366 34.8347 5.50027 36.4864 5.5H36.5022ZM41.8338 12.9855C43.2497 14.4488 44.045 16.4331 44.045 18.502C44.045 20.571 43.2497 22.5553 41.8338 24.0186C40.4173 25.4808 38.4968 26.3021 36.4943 26.3021C34.4918 26.3021 32.5712 25.4808 31.1547 24.0186C29.7393 22.5553 28.9442 20.5713 28.9442 18.5027C28.9442 16.4341 29.7393 14.4502 31.1547 12.9869C32.5712 11.5247 34.4918 10.7034 36.4943 10.7034C38.4968 10.7034 40.4173 11.5247 41.8338 12.9869V12.9855Z" fill="#2D8CFF"/>
</svg>
